<?xml version="1.0" encoding="UTF-8"?>
<svg width="18px" height="18px" viewBox="0 0 18 18" version="1.1" xmlns="http://www.w3.org/2000/svg" xmlns:xlink="http://www.w3.org/1999/xlink">
    <!-- Generator: Sketch 46.2 (44496) - http://www.bohemiancoding.com/sketch -->
    <title>icon_menu_left_fault_diagnosis_a</title>
    <desc>Created with Sketch.</desc>
    <defs></defs>
    <g id="正式页面" stroke="none" stroke-width="1" fill="none" fill-rule="evenodd">
        <g id="车辆监控-左菜单展开样式" transform="translate(-20.000000, -336.000000)" fill-rule="nonzero" fill="#8DABC4">
            <g id="Sidebars-/-#3" transform="translate(0.000000, 60.000000)">
                <g id="Group">
                    <g id="左弹菜/设备监控-选中" transform="translate(0.000000, 260.000000)">
                        <g id="左侧弹出菜单/推荐应用">
                            <g id="icon/menu/left/故障监控" transform="translate(20.000000, 16.000000)">
                                <g id="icon_menu_left_fault_diagnosis_a">
                                    <path d="M9.00000032,-3.48165948e-14 C9.38795965,-3.48165948e-14 9.77589898,0.261599709 10.0702385,0.784839128 L17.7531252,16.0973421 C18.3418242,17.143801 17.8410251,18 16.6403871,18 L1.35961351,18 C0.15895558,18 -0.341783555,17.143801 0.246835429,16.0973421 L7.92976217,0.784839128 C8.22408166,0.261599709 8.61204099,-3.55271368e-14 9.00000032,-3.48165948e-14 Z M7.87500226,13.499985 C7.87500226,14.1213043 8.37868139,14.6249838 9.00000032,14.6249838 C9.62131925,14.6249838 10.1249984,14.1213043 10.1249984,13.499985 C10.1249984,12.8786657 9.62131925,12.3749863 9.00000032,12.3749863 C8.37868139,12.3749863 7.87500226,12.8786657 7.87500226,13.499985 Z M9.00000032,6.7499925 C8.37868139,6.7499925 7.87500226,7.25367194 7.87500226,7.87499125 L8.22656166,11.2499875 L9.77343899,11.2499875 L10.1249984,7.87499125 C10.1249984,7.25367194 9.62131925,6.7499925 9.00000032,6.7499925 Z" id="Shape"></path>
                                </g>
                            </g>
                        </g>
                    </g>
                </g>
            </g>
        </g>
    </g>
</svg>