<?xml version="1.0" encoding="UTF-8"?>
<svg width="18px" height="18px" viewBox="0 0 18 18" version="1.1" xmlns="http://www.w3.org/2000/svg" xmlns:xlink="http://www.w3.org/1999/xlink">
    <!-- Generator: Sketch 46.2 (44496) - http://www.bohemiancoding.com/sketch -->
    <title>icon_menu_left_set_a</title>
    <desc>Created with Sketch.</desc>
    <defs></defs>
    <g id="正式页面" stroke="none" stroke-width="1" fill="none" fill-rule="evenodd">
        <g id="车辆监控-左菜单展开样式" transform="translate(-20.000000, -866.000000)" fill-rule="nonzero" fill="#8DABC4">
            <g id="Sidebars-/-#3" transform="translate(0.000000, 60.000000)">
                <g id="左弹菜/设备监控-设置" transform="translate(0.000000, 790.000000)">
                    <g id="icon/menu/left/故障监控" transform="translate(20.000000, 16.000000)">
                        <g id="icon_menu_left_set_a">
                            <path d="M17.8,6.90697674 C16.7,6.90697674 15.7,6.38372093 15.1,5.3372093 C14.5,4.29069767 14.6,3.03488372 15.2,2.09302326 C14.2,1.15116279 13,0.418604651 11.7,0 C11.2,1.04651163 10.2,1.6744186 9,1.6744186 C7.8,1.6744186 6.8,1.04651163 6.3,0 C5,0.418604651 3.9,1.15116279 2.9,2.09302326 C3.5,3.03488372 3.5,4.29069767 3,5.3372093 C2.4,6.38372093 1.3,6.90697674 0.2,6.90697674 C0.1,7.53488372 0,8.26744186 0,9 C0,9.73255814 0.1,10.4651163 0.2,11.0930233 C1.3,11.0930233 2.3,11.6162791 2.9,12.6627907 C3.5,13.7093023 3.5,14.9651163 2.9,15.9069767 C3.9,16.8488372 5.1,17.5813953 6.4,18 C6.9,16.9534884 7.9,16.3255814 9.1,16.3255814 C10.3,16.3255814 11.3,16.9534884 11.8,18 C13.0975692,17.5754089 14.2916904,16.8613165 15.3,15.9069767 C14.7,14.9651163 14.7,13.7093023 15.2,12.6627907 C15.8,11.6162791 16.8,11.0930233 17.9,11.0930233 C17.9,10.4651163 18,9.73255814 18,9 C18,8.26744186 17.9,7.53488372 17.8,6.90697674 Z M9,12.1395349 C7.3,12.1395349 6,10.7790698 6,9 C6,7.22093023 7.3,5.86046512 9,5.86046512 C10.7,5.86046512 12,7.22093023 12,9 C12,10.7790698 10.7,12.1395349 9,12.1395349 Z" id="设置"></path>
                        </g>
                    </g>
                </g>
            </g>
        </g>
    </g>
</svg>