<?xml version="1.0" encoding="UTF-8"?>
<svg width="18px" height="14px" viewBox="0 0 18 14" version="1.1" xmlns="http://www.w3.org/2000/svg" xmlns:xlink="http://www.w3.org/1999/xlink">
    <!-- Generator: Sketch 46.2 (44496) - http://www.bohemiancoding.com/sketch -->
    <title>icon_popup_photograph</title>
    <desc>Created with Sketch.</desc>
    <defs></defs>
    <g id="正式页面" stroke="none" stroke-width="1" fill="none" fill-rule="evenodd">
        <g id="1.10车辆监控-结果详情-车辆信息" transform="translate(-1104.000000, -211.000000)" fill-rule="nonzero" fill="#A8C6DF">
            <g id="内容" transform="translate(155.000000, 156.000000)">
                <g id="头像信息">
                    <g id="Group" transform="translate(880.000000, 38.000000)">
                        <g id="拍照" transform="translate(54.000000, 0.000000)">
                            <g id="Icon">
                                <g id="弹出图标/icon_popup_photograph" transform="translate(15.000000, 15.000000)">
                                    <g id="icon_popup_photograph">
                                        <path d="M15.6522024,16 L2.34789843,16 L1.56526564,16 C0.70080767,16 2.46338782e-08,15.3732113 2.46338782e-08,14.6000068 L0,5.14997342 C0,4.37676893 0.700807645,3.74998021 1.56526561,3.74998021 L2.34779758,3.74998021 L4.8913353,3.74998021 L5.86953178,2.349987 C5.86953178,2.15668023 6.4361068,2 6.65226542,2 L11.3478354,2 C11.5638679,2 12.1304682,2.15668023 12.1304682,2.349987 L13.1087403,3.74998021 L15.6522024,3.74998021 L16.4348352,3.74998021 C17.2992932,3.74998021 18,4.37676895 18,5.14997342 L18,14.6000068 C18,15.3732113 17.2992932,16 16.4348352,16 L15.6522024,16 Z M5,10.0000397 C5,12.2092344 6.79093059,14 9.00003964,14 C11.2090892,14 12.9999207,12.2092344 13,10.0001987 C12.9999207,7.7907855 11.2090892,6 9.00003964,6 C6.79093057,6 5,7.790865 5,10.0000397 Z M9,13 C7.34310379,13 6,11.6569076 6,10 C6,8.3431785 7.34310379,7 9,7 C10.6568318,7 12,8.34317848 12,10 C12,11.6569076 10.6568318,13 9,13 L9,13 Z" id="Shape"></path>
                                    </g>
                                </g>
                            </g>
                        </g>
                    </g>
                </g>
            </g>
        </g>
    </g>
</svg>