<?xml version="1.0" encoding="UTF-8"?>
<svg width="14px" height="12px" viewBox="0 0 14 12" version="1.1" xmlns="http://www.w3.org/2000/svg" xmlns:xlink="http://www.w3.org/1999/xlink">
    <!-- Generator: Sketch 46.2 (44496) - http://www.bohemiancoding.com/sketch -->
    <title>icon_popup_exchange 14px</title>
    <desc>Created with Sketch.</desc>
    <defs></defs>
    <g id="正式页面" stroke="none" stroke-width="1" fill="none" fill-rule="evenodd">
        <g id="4.0-资源管理-能补设备-能补站" transform="translate(-775.000000, -422.000000)" fill-rule="nonzero" fill="#A8C6DF">
            <g id="标签分类/车辆故障" transform="translate(185.000000, 156.000000)">
                <g id="故障列表" transform="translate(0.000000, 122.000000)">
                    <g id="Table-/-Type-4-/-List-Bg-More" transform="translate(0.000000, 120.000000)">
                        <g id="弹出图标/icon_popup_exchange-14px" transform="translate(590.000000, 23.000000)">
                            <g id="icon_popup_exchange-14px">
                                <path d="M13.5116042,9.54086758 C13.7632609,9.79259485 13.7632326,10.2006397 13.5115619,10.4523246 L11.1594512,12.8044211 C10.9845264,12.9793742 10.7158167,13.0712376 10.5130446,12.9644686 C10.4232157,12.9150755 10.3622089,12.8429213 10.3216177,12.7755566 C10.2375391,12.6572588 10.2480224,12.4804267 10.2480224,12.4804267 L10.2480224,11.1010483 L4.5168578,11.1010483 C4.17001755,11.1010483 3.88888889,10.8198913 3.88888889,10.4730793 L3.88888889,9.69091213 C3.88888889,9.34410012 4.17001755,9.06294322 4.5168578,9.06294322 L10.2480365,9.06294322 L10.2480365,7.56098605 C10.2480365,7.56098605 10.2576439,7.13898224 10.4357335,7.05818142 C10.6735018,6.94953334 10.9637575,6.9930491 11.1594653,7.18875691 L13.5116042,9.54086758 Z M9.18132902,5.75458623 L9.18132902,5.75455797 L3.4522978,5.75455798 L3.4522978,7.00463246 C3.4522978,7.00463246 3.44271868,7.42663627 3.26460083,7.50743709 C3.02683251,7.61608517 2.73657685,7.57256941 2.54086904,7.37686161 L0.188758365,5.02475093 C-0.0629265241,4.77306604 -0.0629123861,4.36499292 0.188758365,4.11332217 L2.54088318,1.76119737 C2.71580799,1.58627256 2.98451769,1.49438087 3.18728976,1.60114986 C3.27714693,1.65054304 3.33815374,1.72269724 3.37874489,1.79006187 C3.46282352,1.9083597 3.45231192,2.08522011 3.45231192,2.08522011 L3.45231192,3.71646707 L9.18132902,3.71646707 C9.52816927,3.71646707 9.80929793,3.99763812 9.80929793,4.34445011 L9.80929793,5.12661732 C9.80929793,5.47342932 9.52816927,5.75458623 9.18132902,5.75458623 Z" id="Combined-Shape"></path>
                            </g>
                        </g>
                    </g>
                </g>
            </g>
        </g>
    </g>
</svg>