<?xml version="1.0" encoding="UTF-8"?>
<svg width="18px" height="18px" viewBox="0 0 18 18" version="1.1" xmlns="http://www.w3.org/2000/svg" xmlns:xlink="http://www.w3.org/1999/xlink">
    <!-- Generator: Sketch 46.2 (44496) - http://www.bohemiancoding.com/sketch -->
    <title>icon_menu_left_adas_a</title>
    <desc>Created with Sketch.</desc>
    <defs></defs>
    <g id="样式整理概览" stroke="none" stroke-width="1" fill="none" fill-rule="evenodd">
        <g id="组件2-图标-弹出消息框" transform="translate(-209.000000, -433.000000)" fill-rule="nonzero" fill="#8DABC4">
            <g id="图标2" transform="translate(100.000000, 226.000000)">
                <g id="菜单图标" transform="translate(30.000000, 207.000000)">
                    <g id="icon/menu/left/adas-小灰" transform="translate(79.000000, 0.000000)">
                        <g id="icon_menu_left_adas_a">
                            <path d="M10,3.73205081 C10.783936,3.27944513 11.1661376,2.35672894 10.9318517,1.48236191 C10.6975657,0.607994882 9.90521136,-6.48370246e-14 9,-6.48370246e-14 C8.09478864,-6.48370246e-14 7.30243429,0.607994882 7.06814835,1.48236191 C6.83386241,2.35672894 7.21606397,3.27944513 8,3.73205081 L8,5.00005081 L10,5.00005081 L10,3.73205081 Z M2.25,6.25 L2.25,14.75 L2.25,14.75 C2.25,15.3022847 2.69771525,15.75 3.25,15.75 L14.75,15.75 L14.75,15.75 C15.3022847,15.75 15.75,15.3022847 15.75,14.75 L15.75,6.25 L15.75,6.25 C15.75,5.69771525 15.3022847,5.25 14.75,5.25 L3.25,5.25 L3.25,5.25 C2.69771525,5.25 2.25,5.69771525 2.25,6.25 Z M0,8.50005081 L0,11.75 L-1.11022302e-16,11.75 C4.47140469e-16,12.3022847 0.44771525,12.75 1,12.75 L1.5,12.75 L1.5,7.50005081 L1,7.50005081 L1,7.50005081 C0.44771525,7.50005081 -1.36987925e-14,7.94776606 -3.03090886e-14,8.50005081 Z M16.5,7.5 L16.5,12.75 L17,12.75 L17,12.75 C17.5522847,12.75 18,12.3022847 18,11.75 L18,8.5 L18,8.5 C18,7.94771525 17.5522847,7.5 17,7.5 L16.5,7.5 Z M12.5,10.0000508 C11.6715729,10.0000508 11,9.32847793 11,8.50005081 C11,7.67162368 11.6715729,7.00005081 12.5,7.00005081 C13.3284271,7.00005081 14,7.67162368 14,8.50005081 C14,9.32847793 13.3284271,10.0000508 12.5,10.0000508 Z M5.5,10.0000508 C4.67157288,10.0000508 4,9.32847793 4,8.50005081 C4,7.67162368 4.67157288,7.00005081 5.5,7.00005081 C6.32842712,7.00005081 7,7.67162368 7,8.50005081 C7,9.32847793 6.32842712,10.0000508 5.5,10.0000508 L5.5,10.0000508 Z M7,12.0000508 L11,12.0000508 C11.5522847,12.0000508 12,12.4477661 12,13.0000508 C12,13.5523356 11.5522847,14.0000508 11,14.0000508 L7,14.0000508 C6.44771525,14.0000508 6,13.5523356 6,13.0000508 C6,12.4477661 6.44771525,12.0000508 7,12.0000508 Z M5.25,15.75 L12.75,15.75 L12.75,17 C12.75,17.5522847 12.3022847,18 11.75,18 L6.25,18 C5.69771525,18 5.25,17.5522847 5.25,17 L5.25,15.75 Z" id="Shape"></path>
                        </g>
                    </g>
                </g>
            </g>
        </g>
    </g>
</svg>