<?xml version="1.0" encoding="UTF-8"?>
<svg width="12px" height="14px" viewBox="0 0 12 14" version="1.1" xmlns="http://www.w3.org/2000/svg" xmlns:xlink="http://www.w3.org/1999/xlink">
    <!-- Generator: Sketch 46.2 (44496) - http://www.bohemiancoding.com/sketch -->
    <title>icon_popup_save_blue 14px</title>
    <desc>Created with Sketch.</desc>
    <defs></defs>
    <g id="样式整理概览" stroke="none" stroke-width="1" fill="none" fill-rule="evenodd">
        <g id="组件1：logo-按钮-分页-头像-输入框-图片-符号" transform="translate(-744.000000, -750.000000)" fill-rule="nonzero" fill="#0093EE">
            <g id="按钮" transform="translate(104.000000, 352.000000)">
                <g id="Button-36-px-/-Save---Click" transform="translate(619.000000, 389.000000)">
                    <g transform="translate(20.000000, 6.000000)" id="弹出图标/icon_popup_edit_white-14px">
                        <g transform="translate(0.000000, 3.000000)">
                            <g id="icon_popup_save_blue-14px">
                                <path d="M12.8671101,2.41905974 C12.9361411,2.49778105 12.9755516,2.58877578 12.9853417,2.69204393 C12.9951317,2.79531208 13.0000178,2.87654701 13,2.93574873 L13,11.8615859 C13,12.3241272 12.8423712,12.712836 12.5271137,13.0277123 C12.2118562,13.3425886 11.7931773,13.5000179 11.2710771,13.5 L2.7289363,13.5 C2.19675095,13.5 1.7755508,13.3671221 1.46533584,13.1013662 C1.15512089,12.8356103 1.00000894,12.4321011 1,11.8908385 L1,2.2565229 C1,1.72501116 1.15511195,1.29945531 1.46533584,0.979855344 C1.77555974,0.66025538 2.19675989,0.500303599 2.7289363,0.5 L10.5617276,0.5 C10.6604059,0.5 10.7589233,0.512273417 10.8572798,0.536820252 C10.9556363,0.561367086 11.0246807,0.593329762 11.0644131,0.632708278 L12.8671101,2.41905974 Z M9.7638787,2.43004286 L3.32046991,2.43004286 C3.17259992,2.42028306 3.0543683,2.45964372 2.96577505,2.54812483 C2.8771818,2.63660595 2.83288517,2.73988303 2.83288517,2.85795607 L2.83288517,4.26388963 C2.83288517,4.36244308 2.85511172,4.46335834 2.8995648,4.56663541 C2.94401789,4.66991249 3.0056505,4.76342977 3.08446265,4.84718725 C3.16327479,4.93094473 3.25438484,4.99990178 3.3577928,5.0540584 C3.46120077,5.10821502 3.57202503,5.13529333 3.69026559,5.13529333 L9.30606644,5.13529333 C9.57215912,5.13529333 9.79631551,5.05657202 9.97853561,4.89912939 C10.1607557,4.74168676 10.2518658,4.50552728 10.2518658,4.19065095 L10.2518658,2.88813287 C10.2315704,2.58259666 10.0690511,2.43004286 9.7638787,2.43004286 Z M9.60120293,6.8804045 L3.49783076,6.8804045 C3.27114862,6.8804045 3.1035823,6.93944102 2.99513179,7.05751406 C2.88668128,7.17558711 2.83245602,7.33301634 2.83245602,7.52980177 L2.83245602,10.6849451 L10.2514769,10.6849451 L10.2514769,7.52980177 C10.2514366,7.10663452 10.0346921,6.8901643 9.60120293,6.8804045 Z" id="icon"></path>
                            </g>
                        </g>
                    </g>
                </g>
            </g>
        </g>
    </g>
</svg>