<?xml version="1.0" encoding="UTF-8"?>
<svg width="16px" height="16px" viewBox="0 0 16 16" version="1.1" xmlns="http://www.w3.org/2000/svg" xmlns:xlink="http://www.w3.org/1999/xlink">
    <!-- Generator: Sketch 46.2 (44496) - http://www.bohemiancoding.com/sketch -->
    <title>icon_dashboard_steering_wheel_lock</title>
    <desc>Created with Sketch.</desc>
    <defs></defs>
    <g id="样式整理概览" stroke="none" stroke-width="1" fill="none" fill-rule="evenodd">
        <g id="组件2-图标-弹出消息框" transform="translate(-999.000000, -759.000000)" fill-rule="nonzero" fill="#A8C6DF">
            <g id="图标2" transform="translate(100.000000, 226.000000)">
                <g id="汽车功能图标-18px" transform="translate(30.000000, 532.000000)">
                    <g id="汽车仪表图标/方向盘锁-蓝灰" transform="translate(868.000000, 0.000000)">
                        <g id="icon_dashboard_steering_wheel_lock">
                            <path d="M15.9457136,9.94230566 L11.0678893,8.67125872 C10.9110277,7.66529964 10.0409049,6.89550903 8.99095066,6.89550903 C7.9383586,6.89550903 7.06650301,7.66909266 6.91281829,8.67870999 L3.55324188,9.55414681 C3.53455897,9.36925609 3.52520896,9.18354105 3.52522744,8.99770878 C3.52522744,5.97908063 5.9723225,3.53198556 8.99095066,3.53198556 C9.98843803,3.53198556 10.9205776,3.80358123 11.7252178,4.2708929 C11.7719832,4.3035412 11.8209107,4.33297749 11.8716631,4.3589988 C11.8741661,4.36055836 11.8767076,4.36206017 11.8792106,4.36361974 L11.8795572,4.36302286 C12.0553467,4.45174454 12.2495403,4.49787401 12.4464501,4.49768472 C13.1430373,4.49768472 13.7077738,3.93294826 13.7077738,3.23636101 C13.7077738,2.79142238 13.4771889,2.4006065 13.1292323,2.17606739 L13.1299832,2.17475812 C11.9217232,1.44012515 10.5083706,1.00933815 8.99096992,1.00933815 C4.57912876,1.00933815 1.00256077,4.58584838 1.00256077,8.99770878 C1.00256077,13.4095692 4.57910951,16.9860602 8.99096992,16.9860602 C10.4393069,16.9860602 11.7931071,16.5938773 12.964284,15.9198171 C13.3634946,15.7080626 13.6355138,15.2884043 13.6355138,14.8050156 C13.6355138,14.1083899 13.0708159,13.5436919 12.3741901,13.5436919 C12.1821451,13.5434584 11.9926041,13.587267 11.8201396,13.6717497 L11.818503,13.6686883 C11.8017521,13.6788544 11.7848472,13.6887894 11.7679807,13.6987822 C11.7490494,13.7092101 11.7303864,13.7201178 11.7120096,13.7314946 C10.9101805,14.1940505 9.98310469,14.4633935 8.99095066,14.4633935 C6.72051023,14.4633935 4.77355475,13.078941 3.94783153,11.1082455 L7.29265945,10.2366594 C7.67504212,10.7598845 8.29322744,11.0998893 8.99095066,11.0998893 C9.69131167,11.0998893 10.3115572,10.7573045 10.6935933,10.2306715 L15.5197016,11.4882407 C15.9586907,11.6026474 16.4099061,11.3492852 16.5275475,10.9223682 C16.6451504,10.4955283 16.384645,10.0567124 15.9457136,9.94230566 L15.9457136,9.94230566 Z" id="Shape"></path>
                            <path d="M14.4566739,3.95241396 C15.1532611,3.95241396 15.7179976,4.51711191 15.7179976,5.21373767 L15.7179976,9.41813718 C15.7179976,10.1147244 15.1532611,10.6794609 14.4566739,10.6794609 C13.7600481,10.6794609 13.1953117,10.1147244 13.1953117,9.41813718 L13.1953117,5.21373767 C13.1953117,4.51711191 13.7600481,3.95241396 14.4566739,3.95241396 Z M14.4566739,11.5203369 C15.1532611,11.5203369 15.7179976,12.0850349 15.7179976,12.7816606 C15.7179976,13.4782864 15.1532611,14.0429844 14.4566739,14.0429844 C13.7600481,14.0429844 13.1953117,13.4782864 13.1953117,12.7816606 C13.1953117,12.0850349 13.7600481,11.5203369 14.4566739,11.5203369 Z" id="Shape"></path>
                        </g>
                    </g>
                </g>
            </g>
        </g>
    </g>
</svg>