<?xml version="1.0" encoding="UTF-8"?>
<svg width="14px" height="14px" viewBox="0 0 14 14" version="1.1" xmlns="http://www.w3.org/2000/svg" xmlns:xlink="http://www.w3.org/1999/xlink">
    <!-- Generator: Sketch 46.2 (44496) - http://www.bohemiancoding.com/sketch -->
    <title>icon_popup_table_operation 14px</title>
    <desc>Created with Sketch.</desc>
    <defs></defs>
    <g id="样式整理概览" stroke="none" stroke-width="1" fill="none" fill-rule="evenodd">
        <g id="组件2-图标-弹出消息框" transform="translate(-925.000000, -896.000000)" fill-rule="nonzero" fill="#A8C6DF">
            <g id="图标2" transform="translate(100.000000, 226.000000)">
                <g id="普通图标-14px" transform="translate(30.000000, 633.000000)">
                    <g id="弹出图标/icon_popup_table_operation-14px" transform="translate(795.000000, 37.000000)">
                        <g id="icon_popup_table_operation-14px">
                            <path d="M13.4641975,5.4625323 C12.6561728,5.4625323 11.9216049,5.07816537 11.4808642,4.30943152 C11.0401235,3.54069767 11.1135802,2.61821705 11.554321,1.92635659 C10.8197531,1.23449612 9.9382716,0.696382429 8.98333333,0.388888889 C8.61604938,1.15762274 7.88148148,1.61886305 7,1.61886305 C6.11851852,1.61886305 5.38395062,1.15762274 5.01666667,0.388888889 C4.0617284,0.696382429 3.2537037,1.23449612 2.5191358,1.92635659 C2.95987654,2.61821705 2.95987654,3.54069767 2.59259259,4.30943152 C2.15185185,5.07816537 1.34382716,5.4625323 0.535802469,5.4625323 C0.462345679,5.92377261 0.388888889,6.4618863 0.388888889,7 C0.388888889,7.5381137 0.462345679,8.07622739 0.535802469,8.5374677 C1.34382716,8.5374677 2.07839506,8.92183463 2.5191358,9.69056848 C2.95987654,10.4593023 2.95987654,11.3817829 2.5191358,12.0736434 C3.2537037,12.7655039 4.13518519,13.3036176 5.09012346,13.6111111 C5.45740741,12.8423773 6.19197531,12.381137 7.07345679,12.381137 C7.95493827,12.381137 8.68950617,12.8423773 9.05679012,13.6111111 C10.0099428,13.2992201 10.8871059,12.7746707 11.6277778,12.0736434 C11.187037,11.3817829 11.187037,10.4593023 11.554321,9.69056848 C11.9950617,8.92183463 12.7296296,8.5374677 13.5376543,8.5374677 C13.5376543,8.07622739 13.6111111,7.5381137 13.6111111,7 C13.6111111,6.4618863 13.5376543,5.92377261 13.4641975,5.4625323 Z M7,9.30620155 C5.75123457,9.30620155 4.7962963,8.30684755 4.7962963,7 C4.7962963,5.69315245 5.75123457,4.69379845 7,4.69379845 C8.24876543,4.69379845 9.2037037,5.69315245 9.2037037,7 C9.2037037,8.30684755 8.24876543,9.30620155 7,9.30620155 Z" id="设置"></path>
                        </g>
                    </g>
                </g>
            </g>
        </g>
    </g>
</svg>