<?xml version="1.0" encoding="UTF-8"?>
<svg width="18px" height="18px" viewBox="0 0 18 18" version="1.1" xmlns="http://www.w3.org/2000/svg" xmlns:xlink="http://www.w3.org/1999/xlink">
    <!-- Generator: Sketch 46.2 (44496) - http://www.bohemiancoding.com/sketch -->
    <title>icon_links_filled_grey</title>
    <desc>Created with Sketch.</desc>
    <defs></defs>
    <g id="样式整理概览" stroke="none" stroke-width="1" fill="none" fill-rule="evenodd">
        <g id="组件2-图标-弹出消息框" transform="translate(-998.000000, -540.000000)" fill="#A8C6DF">
            <g id="图标2" transform="translate(100.000000, 226.000000)">
                <g id="普通图标-18px" transform="translate(30.000000, 275.000000)">
                    <g id="灰" transform="translate(79.000000, 0.000000)">
                        <g id="Icons-Grey-/-Links" transform="translate(789.000000, 39.000000)">
                            <path d="M13.3333333,12.1024096 C12.7844444,12.1024096 12.2933333,12.3283133 11.9177778,12.6822289 L6.76833333,9.55722892 C6.80444444,9.38403614 6.83333333,9.21084337 6.83333333,9.03012048 C6.83333333,8.84939759 6.80444444,8.67620482 6.76833333,8.50301205 L11.86,5.40813253 C12.25,5.78463855 12.7627778,6.01807229 13.3333333,6.01807229 C14.5322222,6.01807229 15.5,5.00903614 15.5,3.75903614 C15.5,2.50903614 14.5322222,1.5 13.3333333,1.5 C12.1344444,1.5 11.1666667,2.50903614 11.1666667,3.75903614 C11.1666667,3.93975904 11.1955556,4.11295181 11.2316667,4.28614458 L6.14,7.3810241 C5.75,7.00451807 5.23722222,6.77108434 4.66666667,6.77108434 C3.46777778,6.77108434 2.5,7.78012048 2.5,9.03012048 C2.5,10.2801205 3.46777778,11.2891566 4.66666667,11.2891566 C5.23722222,11.2891566 5.75,11.0557229 6.14,10.6792169 L11.2822222,13.811747 C11.2461111,13.9698795 11.2244444,14.1355422 11.2244444,14.3012048 C11.2244444,15.5135542 12.1705556,16.5 13.3333333,16.5 C14.4961111,16.5 15.4422222,15.5135542 15.4422222,14.3012048 C15.4422222,13.0888554 14.4961111,12.1024096 13.3333333,12.1024096 L13.3333333,12.1024096 Z" id="Icon"></path>
                        </g>
                    </g>
                </g>
            </g>
        </g>
    </g>
</svg>