<?xml version="1.0" encoding="UTF-8"?>
<svg width="16px" height="16px" viewBox="0 0 16 16" version="1.1" xmlns="http://www.w3.org/2000/svg" xmlns:xlink="http://www.w3.org/1999/xlink">
    <!-- Generator: Sketch 46.2 (44496) - http://www.bohemiancoding.com/sketch -->
    <title>icon_dashboard_anemoscope</title>
    <desc>Created with Sketch.</desc>
    <defs></defs>
    <g id="样式整理概览" stroke="none" stroke-width="1" fill="none" fill-rule="evenodd">
        <g id="组件2-图标-弹出消息框" transform="translate(-627.000000, -792.000000)" fill-rule="nonzero" fill="#A8C6DF">
            <g id="图标2" transform="translate(100.000000, 226.000000)">
                <g id="汽车功能图标-18px" transform="translate(30.000000, 532.000000)">
                    <g id="汽车仪表图标/风速-蓝灰" transform="translate(496.000000, 33.000000)">
                        <g id="icon_dashboard_anemoscope">
                            <path d="M14.8243356,8.95541254 C16.4319922,8.04415301 16.9773054,6.01632449 16.0422271,4.42617019 C15.1071488,2.83597975 13.0458777,2.28556606 11.4381669,3.19682559 C10.1195404,3.9442713 10.5312091,5.86814383 9.72995605,7.68153602 C10.0728958,6.29130542 9.60021509,4.31328614 8.95512472,3.17508375 C8.04386569,1.56736248 6.01615484,1.0220273 4.42597412,1.95710707 C2.83588376,2.89222298 2.28551027,4.95361309 3.1967693,6.56138857 C3.94411268,7.88001388 5.86778135,7.46841902 7.68099219,8.26957773 C6.29085364,7.92676877 4.3130946,8.3994685 3.17502834,9.04453058 C1.5673175,9.95579011 1.02205846,11.9836548 1.95710063,13.5738271 C2.8921428,15.1640176 4.95348617,15.7144313 6.56116087,14.8031356 C7.87920906,14.0560513 7.46851629,12.1334981 8.26834159,10.3208289 C7.92682954,11.7110414 8.39956448,13.6874522 9.04418497,14.8248774 C9.955444,16.4326529 11.9832091,16.97797 13.5732994,16.0428903 C15.1634801,15.1077744 15.7138175,13.0463842 14.8025585,11.4386088 C14.0554862,10.1204534 12.1328838,10.5312892 10.3202151,9.73126903 C11.7103717,10.0729033 13.6868838,9.60016738 14.8243356,8.95541254 L14.8243356,8.95541254 Z M8.99972713,10.2492055 C8.3098175,10.2492055 7.75053436,9.68993605 7.75053436,8.99999867 C7.75053436,8.31006129 8.3098175,7.75079182 8.99972713,7.75079182 C9.68960063,7.75079182 10.2488838,8.31006129 10.2488838,8.99999867 C10.2488838,9.68993605 9.68958256,10.2492055 8.99972713,10.2492055 Z" id="Shape"></path>
                        </g>
                    </g>
                </g>
            </g>
        </g>
    </g>
</svg>