<?xml version="1.0" encoding="UTF-8"?>
<svg width="18px" height="17px" viewBox="0 0 18 17" version="1.1" xmlns="http://www.w3.org/2000/svg" xmlns:xlink="http://www.w3.org/1999/xlink">
    <!-- Generator: Sketch 46.2 (44496) - http://www.bohemiancoding.com/sketch -->
    <title>icon_dashboard_wind_direction2</title>
    <desc>Created with Sketch.</desc>
    <defs></defs>
    <g id="样式整理概览" stroke="none" stroke-width="1" fill="none" fill-rule="evenodd">
        <g id="组件2-图标-弹出消息框" transform="translate(-543.000000, -792.000000)" fill-rule="nonzero" fill="#A8C6DF">
            <g id="图标2" transform="translate(100.000000, 226.000000)">
                <g id="汽车功能图标-18px" transform="translate(30.000000, 532.000000)">
                    <g id="汽车仪表图标/风向模式2-蓝灰" transform="translate(413.000000, 33.000000)">
                        <g id="icon_dashboard_wind_direction2">
                            <path d="M15.6285487,1.0127148 C14.3223466,1.0127148 13.2635307,2.07157401 13.2635307,3.37773285 C13.2635307,4.68387004 14.3223466,5.7427509 15.6285487,5.7427509 C16.9346859,5.7427509 17.9935668,4.6838917 17.9935668,3.37773285 C17.9935451,2.07157401 16.9346859,1.0127148 15.6285487,1.0127148 Z M15.6262744,6.4680361 C14.7213791,5.94337184 13.5642238,6.25476534 13.0417906,7.16349458 L11.1497762,10.4542238 C11.1462455,10.4603538 11.1431697,10.4666137 11.1397256,10.4727653 L9.00645487,10.4727653 C9.00426715,10.4727653 9.00212274,10.472917 8.99993502,10.4729386 C8.76580505,10.4715957 8.53903971,10.5309892 8.33798556,10.6399856 C8.32423105,10.6473502 8.31073646,10.6551047 8.29726354,10.6629025 C8.29388448,10.6648953 8.29044043,10.6667581 8.28706137,10.6687726 C7.94070758,10.8729675 7.68885921,11.2199061 7.61220217,11.6288375 L6.66114801,15.2874296 C6.45987726,16.0616895 6.90569675,16.8575668 7.6567148,17.0650108 C8.40788448,17.2724765 9.17991336,16.8129892 9.38118412,16.0387292 L10.0902671,13.310787 L12.7904404,13.310787 C12.8878597,13.3108066 12.9850244,13.3008412 13.0804116,13.2810469 C13.6258051,13.1950975 14.1292419,12.871704 14.4267509,12.3541877 L16.3188087,9.06341516 C16.8412635,8.15466426 16.531213,6.99270036 15.6262744,6.4680361 L15.6262744,6.4680361 Z M2.85745126,6.21573285 L8.53351625,6.21573285 C8.54984838,6.21573285 8.5660722,6.2153213 8.58220939,6.21449819 C9.34329964,6.188787 9.95252708,5.5640722 9.95252708,4.79672202 C9.95252708,4.01299639 9.31719856,3.37771119 8.53351625,3.37771119 C7.91568953,3.37771119 7.39039711,3.77262816 7.19555957,4.32371841 L2.85745126,4.32371841 C2.33501805,4.32371841 1.91144404,4.7472491 1.91144404,5.26972563 C1.91144404,5.79222383 2.33501805,6.21573285 2.85745126,6.21573285 L2.85745126,6.21573285 Z M4.17903249,11.5433213 C3.93255596,11.5433213 3.70080866,11.6062455 3.49884477,11.7167581 L1.57637545,9.79428881 C1.22033935,9.43825271 0.643039711,9.43825271 0.287025271,9.79428881 C-0.0690108303,10.1503249 -0.0690108303,10.7276245 0.287025271,11.083639 L3.18807942,13.9846931 C3.23603632,14.0325882 3.28917164,14.0750006 3.34650542,14.111148 C3.58037545,14.2809242 3.86792058,14.3813213 4.17903249,14.3813213 C4.96275812,14.3813213 5.59804332,13.7460361 5.59804332,12.9623105 C5.59802166,12.1786065 4.96273646,11.5433213 4.17903249,11.5433213 L4.17903249,11.5433213 Z" id="Shape"></path>
                        </g>
                    </g>
                </g>
            </g>
        </g>
    </g>
</svg>