<?xml version="1.0" encoding="UTF-8"?>
<svg width="16px" height="18px" viewBox="0 0 16 18" version="1.1" xmlns="http://www.w3.org/2000/svg" xmlns:xlink="http://www.w3.org/1999/xlink">
    <!-- Generator: Sketch 46.2 (44496) - http://www.bohemiancoding.com/sketch -->
    <title>icon_popup_rename</title>
    <desc>Created with Sketch.</desc>
    <defs></defs>
    <g id="样式整理概览" stroke="none" stroke-width="1" fill="none" fill-rule="evenodd">
        <g id="组件2-图标-弹出消息框" transform="translate(-832.000000, -658.000000)" fill-rule="nonzero" fill="#A8C6DF">
            <g id="图标2" transform="translate(100.000000, 226.000000)">
                <g id="普通图标-18px" transform="translate(30.000000, 275.000000)">
                    <g id="18" transform="translate(78.000000, 125.000000)">
                        <g id="弹出图标/icon_popup_rename" transform="translate(623.000000, 32.000000)">
                            <g id="icon_popup_rename">
                                <path d="M1.6908078,16.9006219 C1.45682451,16.7435529 1.23398329,16.5969552 1,16.4398862 C1.04456825,13.8326459 1.07799443,11.2251962 1.12256267,8.61785118 C3.42896936,7.74873618 5.44568245,6.14663262 7.17270195,3.85342556 L8.88857939,4.99479345 L8.93303621,5.02620725 L8.97760446,5.06809231 L9.0221727,5.09950611 L9.06662953,5.1309199 L9.11119777,5.1623337 L9.1556546,5.19374749 L9.20022284,5.22516129 L9.24479109,5.25657508 L9.28924791,5.28798888 L9.33381616,5.31940267 L9.37827298,5.35081647 L9.42284123,5.38223026 L9.46740947,5.41364406 L9.5118663,5.44505785 L9.55632312,5.47647165 L9.60089136,5.50788544 L9.64545961,5.53929924 L9.69002786,5.57071303 L9.73448468,5.60212683 L9.7789415,5.63354063 L9.82350975,5.66495442 L9.86807799,5.69636822 L9.91264624,5.72778201 L9.95710306,5.75919581 L10.0015599,5.7906096 L10.0461281,5.8220234 L10.8929248,6.38747171 L10.937493,6.41888551 L10.9820613,6.4502993 L11.0266295,6.4817131 L11.0710864,6.51312689 L11.1155432,6.54454069 L11.1601114,6.57595448 L11.2046797,6.60736828 L11.2492479,6.63878208 L11.2937047,6.67019587 L11.3381616,6.70160967 L11.3827298,6.73302346 L11.4272981,6.76443726 L11.4718663,6.79585105 L11.5163231,6.82726485 L11.5607799,6.85867864 L11.6053482,6.89009244 L11.6499164,6.92150623 L11.6944847,6.95292003 L11.7389415,6.98433382 L11.7833983,7.01574762 L11.8279666,7.04716141 L11.8725348,7.07857521 L11.9171031,7.10998901 L11.9282451,7.10998901 L13.7666852,8.33512702 C12.0396657,10.6282294 11.1148747,12.9424837 11.003454,15.2879423 C8.3962117,16.1885758 5.80011142,17.0889999 3.20401114,18 C2.97002786,17.842931 2.74718663,17.6963333 2.51320334,17.5392643 L5.8335376,13.1308617 C6.6691922,13.4240571 7.63855153,13.1622755 8.18451253,12.4502295 C8.83075209,11.5915858 8.60791086,10.4083328 7.7054039,9.81147069 C6.79175487,9.20413731 5.53270195,9.41356262 4.89760446,10.2617351 C4.36278552,10.9738858 4.41849582,11.9266662 4.99788301,12.5654134 L1.6908078,16.9006219 Z M15.3064067,8.14664425 L17,5.89532225 L8.13091922,5.68399494e-14 L6.44846797,2.251322 L15.3064067,8.14664425 Z" id="Shape"></path>
                            </g>
                        </g>
                    </g>
                </g>
            </g>
        </g>
    </g>
</svg>