<?xml version="1.0" encoding="UTF-8"?>
<svg width="12px" height="13px" viewBox="0 0 12 13" version="1.1" xmlns="http://www.w3.org/2000/svg" xmlns:xlink="http://www.w3.org/1999/xlink">
    <!-- Generator: Sketch 46.2 (44496) - http://www.bohemiancoding.com/sketch -->
    <title>icon_popup_filter_grey 14px</title>
    <desc>Created with Sketch.</desc>
    <defs></defs>
    <g id="样式整理概览" stroke="none" stroke-width="1" fill="none" fill-rule="evenodd">
        <g id="组件2-图标-弹出消息框" transform="translate(-766.000000, -863.000000)" fill="#A8C6DF">
            <g id="图标2" transform="translate(100.000000, 226.000000)">
                <g id="普通图标-14px" transform="translate(30.000000, 633.000000)">
                    <g id="弹出图标/icon_popup_filter_grey-14px" transform="translate(635.000000, 3.000000)">
                        <g id="icon_popup_filter_grey-14px">
                            <path d="M4.2171058,5.79604325 L1.43339077,2.66436384 C1.27067866,2.48131271 1.18080009,2.24491416 1.18080009,2 C1.18080009,1.44771525 1.62851534,1 2.18080009,1 L2.18080009,1 L11.369191,1 C11.6141051,1 11.8505037,1.08987857 12.0335548,1.25259068 C12.4463376,1.6195087 12.4835183,2.25158107 12.1166003,2.66436384 L12.1166003,2.66436384 L9.33288526,5.79604325 L9.33288526,10.6135249 C9.33288526,10.992297 9.11888288,11.3385601 8.78009886,11.5079521 L5.66431939,13.0658419 L5.66431939,13.0658419 C5.1703409,13.3128311 4.56966786,13.1126068 4.32267861,12.6186283 C4.25325089,12.4797728 4.2171058,12.3266598 4.2171058,12.1714147 L4.2171058,5.79604325 Z" id="Combined-Shape"></path>
                        </g>
                    </g>
                </g>
            </g>
        </g>
    </g>
</svg>