<?xml version="1.0" encoding="UTF-8"?>
<svg width="18px" height="18px" viewBox="0 0 18 18" version="1.1" xmlns="http://www.w3.org/2000/svg" xmlns:xlink="http://www.w3.org/1999/xlink">
    <!-- Generator: Sketch 46.2 (44496) - http://www.bohemiancoding.com/sketch -->
    <title>icon_share_time_grey</title>
    <desc>Created with Sketch.</desc>
    <defs></defs>
    <g id="样式整理概览" stroke="none" stroke-width="1" fill="none" fill-rule="evenodd">
        <g id="组件2-图标-弹出消息框" transform="translate(-749.000000, -540.000000)" fill="#A8C6DF">
            <g id="图标2" transform="translate(100.000000, 226.000000)">
                <g id="普通图标-18px" transform="translate(30.000000, 275.000000)">
                    <g id="灰" transform="translate(79.000000, 0.000000)">
                        <g id="Icons-Grey-/-Time" transform="translate(540.000000, 39.000000)">
                            <path d="M8.992,1 C4.576,1 1,4.584 1,9 C1,13.416 4.576,17 8.992,17 C13.416,17 17,13.416 17,9 C17,4.584 13.416,1 8.992,1 L8.992,1 Z M9,15.4 C5.464,15.4 2.6,12.536 2.6,9 C2.6,5.464 5.464,2.6 9,2.6 C12.536,2.6 15.4,5.464 15.4,9 C15.4,12.536 12.536,15.4 9,15.4 Z M9.4,5 L8.2,5 L8.2,9.8 L12.4,12.32 L13,11.336 L9.4,9.2 L9.4,5 Z" id="Icon"></path>
                        </g>
                    </g>
                </g>
            </g>
        </g>
    </g>
</svg>