<?xml version="1.0" encoding="UTF-8"?>
<svg width="14px" height="14px" viewBox="0 0 14 14" version="1.1" xmlns="http://www.w3.org/2000/svg" xmlns:xlink="http://www.w3.org/1999/xlink">
    <!-- Generator: Sketch 46.2 (44496) - http://www.bohemiancoding.com/sketch -->
    <title>icon_pointer</title>
    <desc>Created with Sketch.</desc>
    <defs>
        <path d="M5.03030872,14 C5.03030872,14 2.81106595,12.3012618 2.03030885,11 C1.24955176,9.69873817 -0.229943429,8.04100945 0.0303089601,7 C0.290561326,5.95899054 1.24955175,5.63091493 2.03030893,6.41167212 C2.81106615,7.19242921 3.33700745,8.88406944 3.85751229,8.62381703 C4.37801713,8.3635647 3.9876383,5.89116721 3.46713374,4.45977918 C2.94662912,3.0283912 2.40395853,1.74506734e-07 3.46713373,0 C4.53030893,-9.28378237e-08 4.53030872,1 5.03030872,2.5 C5.53030874,3.99999999 5.13993006,5.99999931 5.53030872,6 C5.92068739,6.00000059 6.06965722,5.65063082 6.06965733,5 C6.06965736,4.82318548 6.10432458,4.67374541 6.1747111,4.54985954 C6.36332844,4.21787805 6.80844565,4.06940091 7.53030872,4.06940079 C8.52155018,4.06940079 8.03030872,6.00000009 8.53030872,6 C9.03030872,6 9.03030912,6.04100937 9.03030872,5 C9.03030834,3.95899063 9.49394798,4.06940096 10.493948,4.06940079 C11.493948,4.06940079 11.0098044,5.9999999 11.5303087,6 C12.0508131,6.00000009 11.5303087,5.00000008 12.0303087,5 C12.5303087,5 13.0303081,5.15772862 13.0303087,7.5 C13.0303093,9.84227138 13.3110662,9.95899044 12.5303087,11 C11.7495512,12.0410096 11.0303087,13 11.0303087,13 C11.0303087,13 11.0303087,14 10.493948,14 C9.95758724,14.0000001 9.68094002,12.9999999 9.03030872,13 C8.37967743,13.0000001 8.03030872,14 8.03030872,14 L5.03030872,14 Z M11.030309,12 L11.030309,8 L10.030309,8 L10.030309,12 L11.030309,12 Z M8.03030896,11 C8.03030896,11.2708838 8.26224255,12 8.53030896,12 C8.80645133,12 9.03030896,11.2754211 9.03030896,11 L9.03030896,9 C9.03030896,8.7291162 8.79837536,8 8.53030896,8 C8.25416658,8 8.03030896,8.72457886 8.03030896,9 L8.03030896,11 Z M6.03030896,11 C6.03030896,11.2708838 6.26224255,12 6.53030896,12 C6.80645133,12 7.03030896,11.2754211 7.03030896,11 L7.03030896,9 C7.03030896,8.7291162 6.79837536,8 6.53030896,8 C6.25416658,8 6.03030896,8.72457886 6.03030896,9 L6.03030896,11 Z" id="path-1"></path>
        <filter x="-34.4%" y="-25.0%" width="168.8%" height="164.3%" filterUnits="objectBoundingBox" id="filter-2">
            <feMorphology radius="1" operator="dilate" in="SourceAlpha" result="shadowSpreadOuter1"></feMorphology>
            <feOffset dx="0" dy="1" in="shadowSpreadOuter1" result="shadowOffsetOuter1"></feOffset>
            <feGaussianBlur stdDeviation="1" in="shadowOffsetOuter1" result="shadowBlurOuter1"></feGaussianBlur>
            <feComposite in="shadowBlurOuter1" in2="SourceAlpha" operator="out" result="shadowBlurOuter1"></feComposite>
            <feColorMatrix values="0 0 0 0 0   0 0 0 0 0   0 0 0 0 0  0 0 0 1 0" type="matrix" in="shadowBlurOuter1"></feColorMatrix>
        </filter>
    </defs>
    <g id="样式整理概览" stroke="none" stroke-width="1" fill="none" fill-rule="evenodd">
        <g id="组件1：logo-按钮-分页-头像-输入框-图片-符号" transform="translate(-273.000000, -1747.000000)">
            <g id="其他按钮" transform="translate(162.000000, 1594.000000)">
                <g id="Pointer" transform="translate(111.000000, 153.000000)">
                    <g>
                        <use fill="black" fill-opacity="1" filter="url(#filter-2)" xlink:href="#path-1"></use>
                        <use fill="#FFFFFF" fill-rule="evenodd" xlink:href="#path-1"></use>
                        <path stroke="#000000" stroke-width="1" d="M3.6063616,7.86886829 C3.60272626,7.66457317 3.59540566,7.37326956 3.55612624,7.03939464 C3.46335155,6.25081004 3.24506499,5.31217786 2.99723701,4.63065068 C2.69749217,3.80635221 2.44123825,2.64931273 2.37456164,1.72925958 C2.2775822,0.391065577 2.54088002,-0.499999848 3.46713369,-0.5 C4.39352795,-0.500000081 4.80010169,-0.0142192185 5.13158006,1.08624342 C5.10180627,0.987398516 5.39824236,2.02266209 5.50465037,2.34188611 C5.60936574,2.65603222 5.68302923,2.99864222 5.73255273,3.37472107 C5.76932856,3.65399474 5.78971856,3.89031331 5.80334535,4.2025009 C6.11873012,3.75182727 6.69645556,3.56940093 7.53030872,3.56940079 C8.11934644,3.56940079 8.42901898,3.87344846 8.59410353,4.40706062 C8.67169865,4.10593831 8.82455255,3.88692891 9.07674914,3.74131921 C9.36021147,3.57765775 9.56558284,3.56045628 10.2490452,3.56773854 C10.3689303,3.56899267 10.4226229,3.5694008 10.493948,3.56940079 C11.1577064,3.56940079 11.4692282,3.95190243 11.6232638,4.61662629 C11.7363598,4.54192954 11.8743799,4.50000003 12.0303087,4.5 C13.0887537,4.5 13.5303082,5.28235494 13.5303087,7.49999987 C13.5303088,7.9125726 13.5383263,8.26047668 13.5545164,8.68754329 C13.5985755,9.84974275 13.5948422,9.99797054 13.4485036,10.4100702 C13.350829,10.6851285 13.1951602,10.9468649 12.9303087,11.3000001 C11.8969495,12.6778121 11.7999733,12.8071137 11.5232936,13.1760202 C11.5128419,13.3113719 11.489589,13.4677182 11.4461986,13.6295137 C11.3105875,14.135185 11.0170789,14.5 10.4939481,14.5 C10.1132703,14.5000001 9.86543773,14.3231063 9.54799887,13.9659274 C9.51716511,13.9312336 9.48565182,13.8949899 9.42778501,13.8282135 C9.20680512,13.5742554 9.1071553,13.5 9.03030879,13.5 C8.94854561,13.5 8.82823112,13.5907818 8.700807,13.7796466 C8.60238818,13.9255204 8.53305631,14.0769638 8.50233074,14.1649097 L8.38526067,14.5 L4.86090972,14.5 L4.72639516,14.3970347 C4.61937201,14.3151129 4.43563076,14.1694172 4.20048047,13.9743411 C3.80900393,13.6495797 3.41739929,13.3046237 3.0505666,12.9532621 C2.74294615,12.6586155 2.46603689,12.3718986 2.22704888,12.0965327 C1.96960195,11.799898 1.75924971,11.5200601 1.60156239,11.2572479 C1.42884105,10.969379 1.34343481,10.8424581 0.832489294,10.099907 C0.737800026,9.96229626 0.665860907,9.85699149 0.596394742,9.7539705 C-0.291355096,8.43740331 -0.646281829,7.64481027 -0.45476229,6.87873219 C-0.0980344331,5.45182076 1.33404679,5.00830319 2.38386229,6.0581187 C2.63705532,6.31131169 2.85835415,6.62418288 3.13469949,7.08368642 C3.19791651,7.18880288 3.4094942,7.54952018 3.45036939,7.61778007 C3.50949232,7.71651294 3.56052213,7.79883171 3.6063616,7.86886829 Z M10.030309,11.5 L10.530309,11.5 L10.530309,10 L10.530309,11.75 L10.530309,11.5 L11.030309,11.5 L10.530309,12 Z M8.53030896,11 C8.53030896,11.0668258 8.57631913,11.2556897 8.64023094,11.4066746 C8.67167987,11.4809694 8.70360183,11.537784 8.72593863,11.5650611 C8.70333266,11.5374553 8.64477423,11.5 8.53030896,11.5 C8.42066453,11.5 8.36222659,11.5365374 8.33984009,11.5635695 C8.36126567,11.5376978 8.39227677,11.4825576 8.42282688,11.4097725 C8.48554173,11.2603554 8.53030896,11.0716349 8.53030896,11 L8.53030896,9 C8.53030896,8.93317417 8.48429878,8.74431031 8.42038698,8.59332539 C8.38893805,8.5190306 8.35701609,8.46221599 8.33467928,8.43493891 C8.35728525,8.46254468 8.41584368,8.5 8.53030896,8.5 C8.63995338,8.5 8.69839132,8.46346258 8.72077782,8.43643047 C8.69935225,8.46230224 8.66834114,8.5174424 8.63779104,8.59022753 C8.57507618,8.73964463 8.53030896,8.92836514 8.53030896,9 L8.53030896,11 Z M6.53030896,11 L6.53030896,9 C6.53030896,8.92836514 6.57507618,8.73964463 6.63779104,8.59022753 C6.66834114,8.5174424 6.69935225,8.46230224 6.72077782,8.43643047 C6.69839132,8.46346258 6.63995338,8.5 6.53030896,8.5 C6.41584368,8.5 6.35728525,8.46254468 6.33467928,8.43493891 C6.35701609,8.46221599 6.38893805,8.5190306 6.42038698,8.59332539 C6.48429878,8.74431031 6.53030896,8.93317417 6.53030896,9 L6.53030896,11 C6.53030896,11.0716349 6.48554173,11.2603554 6.42282688,11.4097725 C6.39227677,11.4825576 6.36126567,11.5376978 6.33984009,11.5635695 C6.36222659,11.5365374 6.42066453,11.5 6.53030896,11.5 C6.64477423,11.5 6.70333266,11.5374553 6.72593863,11.5650611 C6.70360183,11.537784 6.67167987,11.4809694 6.64023094,11.4066746 C6.57631913,11.2556897 6.53030896,11.0668258 6.53030896,11 Z"></path>
                    </g>
                </g>
            </g>
        </g>
    </g>
</svg>