<?xml version="1.0" encoding="UTF-8"?>
<svg width="26px" height="26px" viewBox="0 0 26 26" version="1.1" xmlns="http://www.w3.org/2000/svg" xmlns:xlink="http://www.w3.org/1999/xlink">
    <!-- Generator: Sketch 46.2 (44496) - http://www.bohemiancoding.com/sketch -->
    <title>icon_map_direction_red</title>
    <desc>Created with Sketch.</desc>
    <defs>
        <filter x="-27.8%" y="-27.8%" width="177.8%" height="183.3%" filterUnits="objectBoundingBox" id="filter-1">
            <feOffset dx="2" dy="2" in="SourceAlpha" result="shadowOffsetOuter1"></feOffset>
            <feGaussianBlur stdDeviation="2" in="shadowOffsetOuter1" result="shadowBlurOuter1"></feGaussianBlur>
            <feColorMatrix values="0 0 0 0 0   0 0 0 0 0   0 0 0 0 0  0 0 0 0.1 0" type="matrix" in="shadowBlurOuter1" result="shadowMatrixOuter1"></feColorMatrix>
            <feMerge>
                <feMergeNode in="shadowMatrixOuter1"></feMergeNode>
                <feMergeNode in="SourceGraphic"></feMergeNode>
            </feMerge>
        </filter>
        <path d="M9,18 C13.9705627,18 18,13.9705627 18,9 C18,7.34500792 18,4.34500792 18,8.8817842e-16 C13.6587164,5.77315973e-14 10.6587164,8.61533067e-14 9,8.61533067e-14 C4.02943725,8.61533067e-14 0,4.02943725 0,9 C0,13.9705627 4.02943725,18 9,18 Z" id="path-2"></path>
    </defs>
    <g id="正式页面" stroke="none" stroke-width="1" fill="none" fill-rule="evenodd">
        <g id="1.0-默认" transform="translate(-1202.000000, -529.000000)">
            <g id="Map/default" transform="translate(0.000000, 20.000000)">
                <g id="地图车辆" transform="translate(465.000000, 363.000000)">
                    <g id="严重告警" filter="url(#filter-1)" transform="translate(739.000000, 148.000000)">
                        <g id="icon_map_direction_red">
                            <g id="Oval-5">
                                <use fill="#FD7B1F" fill-rule="evenodd" xlink:href="#path-2"></use>
                                <path stroke="#FFFFFF" stroke-width="2" d="M16.2569036,1 C12.1197199,1 11.8077479,1 9,1 C4.581722,1 1,4.581722 1,9 C1,13.418278 4.581722,17 9,17 C13.418278,17 17,13.418278 17,9 C17,6.1955626 17,5.88395844 17,1.74419988 L16.2569036,1 Z"></path>
                            </g>
                        </g>
                    </g>
                </g>
            </g>
        </g>
    </g>
</svg>