<?xml version="1.0" encoding="UTF-8"?>
<svg width="14px" height="10px" viewBox="0 0 14 10" version="1.1" xmlns="http://www.w3.org/2000/svg" xmlns:xlink="http://www.w3.org/1999/xlink">
    <!-- Generator: Sketch 46.2 (44496) - http://www.bohemiancoding.com/sketch -->
    <title>icon_popup_weather 14px</title>
    <desc>Created with Sketch.</desc>
    <defs></defs>
    <g id="样式整理概览" stroke="none" stroke-width="1" fill="none" fill-rule="evenodd">
        <g id="组件2-图标-弹出消息框" transform="translate(-1045.000000, -898.000000)" fill-rule="nonzero" fill="#A8C6DF">
            <g id="图标2" transform="translate(100.000000, 226.000000)">
                <g id="普通图标-14px" transform="translate(30.000000, 633.000000)">
                    <g id="弹出图标/icon_popup_weather-14px" transform="translate(915.000000, 37.000000)">
                        <g id="icon_popup_weather-14px">
                            <path d="M11.6863158,11.9050868 L2.30957341,11.9050868 C2.23129363,11.8936464 2.15289751,11.8829815 2.07477285,11.8706297 C1.08940166,11.7146519 0.268947368,10.9373804 0.0638531856,9.96327516 C0.0385872576,9.84322807 0.0238310249,9.72095106 0.00420775623,9.59972114 L0.00420775623,9.25332779 C0.0130110803,9.18850508 0.019099723,9.12317821 0.0310249307,9.05897599 C0.219249307,8.04387904 0.80434072,7.3738181 1.78377839,7.04925854 C1.82806648,7.03459926 1.84615789,7.01487904 1.85645429,6.97095937 C2.1321108,5.79488181 3.31575069,5.05885411 4.4919446,5.33334718 C4.55263712,5.34750231 4.58104432,5.33606187 4.61497784,5.2839012 C5.49366205,3.93342475 7.12871468,3.24924746 8.69681163,3.57345799 C10.346892,3.91459649 11.5727064,5.21027516 11.8239307,6.88323638 C11.8340914,6.95100646 11.8557701,6.9737904 11.9217175,6.98395106 C12.9008061,7.13473223 13.7259723,7.9150868 13.9310665,8.8833361 C13.9569335,9.00545799 13.9717867,9.12994552 13.9917202,9.25334718 L13.9917202,9.59974054 C13.9802798,9.67811727 13.969615,9.75661034 13.9572632,9.83483195 C13.8016925,10.81935 13.0241108,11.6399788 12.0496371,11.8455189 C11.929687,11.8708042 11.8075069,11.8854635 11.6863546,11.9050868 L11.6863158,11.9050868 Z M5.80108033,3.3383084 C5.78603324,3.34813943 5.77174238,3.35835826 5.75665651,3.36723915 C5.21546537,3.68592336 4.77374792,4.10857987 4.4330554,4.63617821 C4.4114349,4.66964635 4.39336288,4.67941921 4.35215789,4.66982087 C3.14354294,4.38819206 1.97836288,5.10754386 1.68447922,6.31398707 C1.67930194,6.33523915 1.66202493,6.36269621 1.64354571,6.37002585 C1.52921884,6.41536103 1.41045152,6.45005078 1.29800554,6.49936103 C1.18565651,6.54865189 1.07898892,6.61097322 0.96966482,6.66767128 C0.390409972,5.66752447 0.461049861,3.97183749 1.78118006,2.95412281 C3.1141662,1.92653832 4.88669806,2.2642253 5.80108033,3.3383084 L5.80108033,3.3383084 Z" id="Combined-Shape"></path>
                        </g>
                    </g>
                </g>
            </g>
        </g>
    </g>
</svg>