<?xml version="1.0" encoding="UTF-8"?>
<svg width="18px" height="18px" viewBox="0 0 18 18" version="1.1" xmlns="http://www.w3.org/2000/svg" xmlns:xlink="http://www.w3.org/1999/xlink">
    <!-- Generator: Sketch 46.2 (44496) - http://www.bohemiancoding.com/sketch -->
    <title>icon_attach_filled_grey</title>
    <desc>Created with Sketch.</desc>
    <defs></defs>
    <g id="样式整理概览" stroke="none" stroke-width="1" fill="none" fill-rule="evenodd">
        <g id="组件2-图标-弹出消息框" transform="translate(-251.000000, -501.000000)" fill="#A8C6DF">
            <g id="图标2" transform="translate(100.000000, 226.000000)">
                <g id="普通图标-18px" transform="translate(30.000000, 275.000000)">
                    <g id="灰" transform="translate(79.000000, 0.000000)">
                        <g id="Icons-Grey-/-Attach-White" transform="translate(42.000000, 0.000000)">
                            <path d="M5,5.9 L8,5.9 L8,4 L5,4 C2.24,4 0,6.24 0,9 C0,11.76 2.24,14 5,14 L8,14 L8,12.1 L5,12.1 C3.29,12.1 1.9,10.71 1.9,9 C1.9,7.29 3.29,5.9 5,5.9 Z M5,10 L13,10 L13,8 L5,8 L5,10 L5,10 Z M10,4 L10,5.9 L13,5.9 C14.71,5.9 16.1,7.29 16.1,9 C16.1,10.71 14.71,12.1 13,12.1 L10,12.1 L10,14 L13,14 C15.76,14 18,11.76 18,9 C18,6.24 15.76,4 13,4 L10,4 Z" id="Icon"></path>
                        </g>
                    </g>
                </g>
            </g>
        </g>
    </g>
</svg>