<?xml version="1.0" encoding="UTF-8"?>
<svg width="18px" height="18px" viewBox="0 0 18 18" version="1.1" xmlns="http://www.w3.org/2000/svg" xmlns:xlink="http://www.w3.org/1999/xlink">
    <!-- Generator: Sketch 46.2 (44496) - http://www.bohemiancoding.com/sketch -->
    <title>icon_messages_filled_grey</title>
    <desc>Created with Sketch.</desc>
    <defs></defs>
    <g id="正式页面" stroke="none" stroke-width="1" fill="none" fill-rule="evenodd">
        <g id="1.2-顶部-弹出样式" transform="translate(-726.000000, -77.000000)" fill="#A8C6DF">
            <g id="弹出/个人弹框" transform="translate(706.000000, 51.000000)">
                <g id="个人弹窗" transform="translate(0.000000, 15.000000)">
                    <g id="1">
                        <g id="弹出图标/icon_popup_machine" transform="translate(20.000000, 11.000000)">
                            <path d="M13.5,9 L13.5,0.9 C13.5,0.405 13.095,-2.13162821e-14 12.6,-2.13162821e-14 L0.9,-2.13162821e-14 C0.405,-2.13162821e-14 1.77635684e-15,0.405 1.77635684e-15,0.9 L1.77635684e-15,13.5 L3.6,9.9 L12.6,9.9 C13.095,9.9 13.5,9.495 13.5,9 M17.1,3.6 L15.3,3.6 L15.3,11.7 L3.6,11.7 L3.6,13.5 C3.6,13.995 4.005,14.4 4.5,14.4 L14.4,14.4 L18,18 L18,4.5 C18,4.005 17.595,3.6 17.1,3.6" id="Icon"></path>
                        </g>
                    </g>
                </g>
            </g>
        </g>
    </g>
</svg>