<?xml version="1.0" encoding="UTF-8"?>
<svg width="14px" height="14px" viewBox="0 0 14 14" version="1.1" xmlns="http://www.w3.org/2000/svg" xmlns:xlink="http://www.w3.org/1999/xlink">
    <!-- Generator: Sketch 46.2 (44496) - http://www.bohemiancoding.com/sketch -->
    <title>Icon_colored_attach_purple</title>
    <desc>Created with Sketch.</desc>
    <defs></defs>
    <g id="样式整理概览" stroke="none" stroke-width="1" fill="none" fill-rule="evenodd">
        <g id="组件2-图标-弹出消息框" transform="translate(-921.000000, -324.000000)" fill="#AB7DF6">
            <g id="图标2" transform="translate(100.000000, 226.000000)">
                <g id="彩色图标" transform="translate(30.000000, 92.000000)">
                    <g id="彩" transform="translate(83.000000, 0.000000)">
                        <g id="Icons-Colored-/-Attach-Purple" transform="translate(707.000000, 4.000000)">
                            <path d="M5.125,5 L13,5 C14.6575,5 16,6.30181818 16,7.90909091 C16,9.51636364 14.6575,10.8181818 13,10.8181818 L6.625,10.8181818 C5.59,10.8181818 4.75,10.0036364 4.75,9 C4.75,7.99636364 5.59,7.18181818 6.625,7.18181818 L12.25,7.18181818 L12.25,8.63636364 L6.5575,8.63636364 C6.145,8.63636364 6.145,9.36363636 6.5575,9.36363636 L13,9.36363636 C13.825,9.36363636 14.5,8.70909091 14.5,7.90909091 C14.5,7.10909091 13.825,6.45454545 13,6.45454545 L5.125,6.45454545 C3.6775,6.45454545 2.5,7.59636364 2.5,9 C2.5,10.4036364 3.6775,11.5454545 5.125,11.5454545 L12.25,11.5454545 L12.25,13 L5.125,13 C2.845,13 1,11.2109091 1,9 C1,6.78909091 2.845,5 5.125,5 Z" id="Icon" transform="translate(8.500000, 9.000000) rotate(-45.000000) translate(-8.500000, -9.000000) "></path>
                        </g>
                    </g>
                </g>
            </g>
        </g>
    </g>
</svg>