<?xml version="1.0" encoding="UTF-8"?>
<svg width="14px" height="14px" viewBox="0 0 14 14" version="1.1" xmlns="http://www.w3.org/2000/svg" xmlns:xlink="http://www.w3.org/1999/xlink">
    <!-- Generator: Sketch 46.2 (44496) - http://www.bohemiancoding.com/sketch -->
    <title>icon_popup_ist_blue 14px</title>
    <desc>Created with Sketch.</desc>
    <defs></defs>
    <g id="正式页面" stroke="none" stroke-width="1" fill="none" fill-rule="evenodd">
        <g id="4.0-资源管理-能补设备-能补站" transform="translate(-1272.000000, -235.000000)" fill-rule="nonzero" fill="#0093EE">
            <g id="操作" transform="translate(205.000000, 226.000000)">
                <g id="视图" transform="translate(986.000000, 0.000000)">
                    <g id="弹出图标/icon_popup_list" transform="translate(81.000000, 9.000000)">
                        <g id="icon_popup_ist_blue-14px">
                            <path d="M3.23084602,5.86870276 L14,5.86870276 L14,8.13120015 L3.23084602,8.13120015 L3.23084602,5.86870276 Z M3.23084602,0.777777778 L14,0.777777778 L14,3.04027517 L3.23084602,3.04027517 L3.23084602,0.777777778 Z M3.23084602,10.9596277 L14,10.9596277 L14,13.2221251 L3.23084602,13.2221251 L3.23084602,10.9596277 Z M5.25417507e-16,0.777777778 L2.15384189,0.777777778 L2.15384189,3.04027517 L0,3.04027517 L5.25417507e-16,0.777777778 Z M5.25417507e-16,5.86870276 L2.15384189,5.86870276 L2.15384189,8.13120015 L0,8.13120015 L5.25417507e-16,5.86870276 Z M5.25417507e-16,10.9596277 L2.15384189,10.9596277 L2.15384189,13.2222222 L0,13.2222222 L5.25417507e-16,10.9596277 Z" id="Shape"></path>
                        </g>
                    </g>
                </g>
            </g>
        </g>
    </g>
</svg>