<?xml version="1.0" encoding="UTF-8"?>
<svg width="16px" height="14px" viewBox="0 0 16 14" version="1.1" xmlns="http://www.w3.org/2000/svg" xmlns:xlink="http://www.w3.org/1999/xlink">
    <!-- Generator: Sketch 46.2 (44496) - http://www.bohemiancoding.com/sketch -->
    <title>icon_dashboard_front_foglight</title>
    <desc>Created with Sketch.</desc>
    <defs></defs>
    <g id="样式整理概览" stroke="none" stroke-width="1" fill="none" fill-rule="evenodd">
        <g id="组件2-图标-弹出消息框" transform="translate(-543.000000, -760.000000)" fill-rule="nonzero" fill="#A8C6DF">
            <g id="图标2" transform="translate(100.000000, 226.000000)">
                <g id="汽车功能图标-18px" transform="translate(30.000000, 532.000000)">
                    <g id="汽车仪表图标/前雾灯-蓝灰" transform="translate(412.000000, 0.000000)">
                        <g id="icon_dashboard_front_foglight">
                            <path d="M11.2842903,3.1147458 C10.470265,3.01479606 9.67516958,3.07810513 8.92579214,3.26974436 C8.92422629,3.27015441 8.90478902,3.2755979 8.90478902,3.2755979 C8.40401645,3.41450659 8.03409746,3.88037343 8.03136955,4.43459516 L7.98205512,14.4613683 C7.97925771,15.0308725 8.36587848,15.5148272 8.88644286,15.6403943 L8.90380339,15.6445854 C9.17755104,15.7160655 9.43803427,15.7662931 9.72654545,15.8017178 C13.2299666,16.2318838 16.4187402,13.7405063 16.8489015,10.2371234 C17.2790699,6.73368306 14.7877306,3.54491418 11.2842903,3.1147458 Z M10.3472111,13.4495499 L10.3865359,5.46584396 C10.5888448,5.45960288 10.7913345,5.46886979 10.9922277,5.49356334 C13.1818731,5.76241799 14.7389601,7.75539854 14.4701055,9.94504395 C14.2147572,12.024531 12.4042986,13.5333444 10.3472111,13.4495499 L10.3472111,13.4495499 Z M1.77439581,6.02222763 L5.79050679,6.09442346 C6.23313985,6.11001012 6.60433725,5.76522943 6.61956631,5.32424282 C6.63482896,4.8832992 6.28834274,4.51317474 5.84567609,4.4975451 L1.8296034,4.42535397 C1.38693205,4.40976261 1.01577294,4.754548 1.00048645,5.19552756 C0.985238246,5.63651181 1.33172447,6.00663627 1.77439581,6.02222763 Z M1.77437665,8.79750883 L5.39398334,8.82102005 C5.83668827,8.83665439 6.20785208,8.49183072 6.22310029,8.05084646 C6.23836764,7.60986456 5.89187671,7.23977838 5.44921007,7.22414873 L1.82960338,7.20063752 C1.38693203,7.18504615 1.01576822,7.52986983 1.00048643,7.9708111 C0.985221435,8.41177387 1.33170531,8.78191747 1.77437665,8.79750883 L1.77437665,8.79750883 Z M5.39398268,11.5962989 C5.83668761,11.6119332 6.20785142,11.2671096 6.22309963,10.8261253 C6.23836227,10.3851817 5.89187605,10.0150572 5.44920941,9.99942758 L1.82960272,9.97591636 C1.38693607,9.96028672 1.01577226,10.3051104 1.00048577,10.7460899 C0.985218425,11.1870719 1.33170935,11.557158 1.77437599,11.5727877 L5.39398268,11.5962989 Z M3.86758885,14.483036 L5.79045736,14.5176007 C6.2331455,14.5332135 6.60434524,14.1884137 6.61957431,13.7474271 C6.63479867,13.3064787 6.28835073,12.936359 5.84568409,12.9207293 L4.14844519,12.8902205 L5.96519724,2.58690769 C6.01314886,2.31496054 5.8315646,2.05563134 5.55961745,2.00767972 L5.55961745,2.00767972 L5.55961745,2.00767972 C5.2876703,1.9597281 5.02834111,2.14131236 4.98038949,2.41325951 L4.98038949,2.41325951 L3.13622688,12.8720254 L1.82961139,12.8485382 C1.38697833,12.8329516 1.01572351,13.1777252 1.00049444,13.6187118 C0.985265378,14.0596984 1.33171332,14.4298182 1.77438466,14.4454095 L2.85537053,14.4648409 L2.72296318,15.2157603 C2.67501156,15.4877075 2.85659581,15.7470366 3.12854296,15.7949883 C3.40049012,15.8429399 3.65981931,15.6613556 3.70777093,15.3894085 L3.86758885,14.483036 Z" id="Combined-Shape"></path>
                        </g>
                    </g>
                </g>
            </g>
        </g>
    </g>
</svg>