<?xml version="1.0" encoding="UTF-8"?>
<svg width="18px" height="18px" viewBox="0 0 18 18" version="1.1" xmlns="http://www.w3.org/2000/svg" xmlns:xlink="http://www.w3.org/1999/xlink">
    <!-- Generator: Sketch 46.2 (44496) - http://www.bohemiancoding.com/sketch -->
    <title>Icon_rack_grey</title>
    <desc>Created with Sketch.</desc>
    <defs></defs>
    <g id="样式整理概览" stroke="none" stroke-width="1" fill="none" fill-rule="evenodd">
        <g id="组件2-图标-弹出消息框" transform="translate(-417.000000, -540.000000)" fill="#A8C6DF">
            <g id="图标2" transform="translate(100.000000, 226.000000)">
                <g id="普通图标-18px" transform="translate(30.000000, 275.000000)">
                    <g id="灰" transform="translate(79.000000, 0.000000)">
                        <g id="Icons-Grey-/-Rack" transform="translate(208.000000, 39.000000)">
                            <path d="M14.8333333,1.5 L3.15833333,1.5 C2.23333333,1.5 1.50833333,2.24166667 1.50833333,3.16666667 L1.5,14.8333333 C1.5,15.75 2.23333333,16.5 3.15833333,16.5 L14.8333333,16.5 C15.75,16.5 16.5,15.75 16.5,14.8333333 L16.5,3.16666667 C16.5,2.24166667 15.75,1.5 14.8333333,1.5 L14.8333333,1.5 Z M14.8333333,11.5 L11.5,11.5 C11.5,12.8833333 10.375,14 9,14 C7.625,14 6.5,12.8833333 6.5,11.5 L3.15833333,11.5 L3.15833333,3.16666667 L14.8333333,3.16666667 L14.8333333,11.5 L14.8333333,11.5 Z" id="Icon"></path>
                        </g>
                    </g>
                </g>
            </g>
        </g>
    </g>
</svg>