<?xml version="1.0" encoding="UTF-8"?>
<svg width="18px" height="12px" viewBox="0 0 18 12" version="1.1" xmlns="http://www.w3.org/2000/svg" xmlns:xlink="http://www.w3.org/1999/xlink">
    <!-- Generator: Sketch 46.2 (44496) - http://www.bohemiancoding.com/sketch -->
    <title>icon_popup_video</title>
    <desc>Created with Sketch.</desc>
    <defs></defs>
    <g id="正式页面" stroke="none" stroke-width="1" fill="none" fill-rule="evenodd">
        <g id="1.5-车辆监控-筛选结果列表" transform="translate(-283.000000, -808.000000)" fill-rule="nonzero" fill="#A8C6DF">
            <g id="树状筛选" transform="translate(80.000000, 178.000000)">
                <g id="Group">
                    <g id="左侧菜单/地图监控/车辆12px下" transform="translate(0.000000, 592.000000)">
                        <g id="Group" transform="translate(80.000000, 20.000000)">
                            <g id="视频" transform="translate(108.000000, 0.000000)">
                                <g id="Icon">
                                    <g id="弹出图标/icon_popup_video" transform="translate(15.000000, 15.000000)">
                                        <g id="icon_popup_video">
                                            <path d="M11.1,3 L1.2,3 C0.537304687,3 0,3.53593763 0,4.19694685 L0,13.8030531 C0,14.4642026 0.537304687,15 1.2,15 L11.1,15 C11.7626953,15 12.3,14.4642026 12.3,13.8030531 L12.3,4.19694685 C12.3,3.53579736 11.7626953,3 11.1,3 L11.1,3 Z M13.0251094,8.07729892 L13.0251094,9.92253743 L18,14.1866606 L18,3.81319914 L13.0251094,8.07729892 Z" id="Shape"></path>
                                        </g>
                                    </g>
                                </g>
                            </g>
                        </g>
                    </g>
                </g>
            </g>
        </g>
    </g>
</svg>