<?xml version="1.0" encoding="UTF-8"?>
<svg width="18px" height="12px" viewBox="0 0 18 12" version="1.1" xmlns="http://www.w3.org/2000/svg" xmlns:xlink="http://www.w3.org/1999/xlink">
    <!-- Generator: Sketch 46.2 (44496) - http://www.bohemiancoding.com/sketch -->
    <title>icon_dashboard_internal_circulation</title>
    <desc>Created with Sketch.</desc>
    <defs></defs>
    <g id="样式整理概览" stroke="none" stroke-width="1" fill="none" fill-rule="evenodd">
        <g id="组件2-图标-弹出消息框" transform="translate(-709.000000, -761.000000)" fill="#A8C6DF">
            <g id="图标2" transform="translate(100.000000, 226.000000)">
                <g id="汽车功能图标-18px" transform="translate(30.000000, 532.000000)">
                    <g id="汽车仪表图标/内循环-蓝灰" transform="translate(579.000000, 0.000000)">
                        <g id="icon_dashboard_internal_circulation">
                            <path d="M10.5356318,11.163639 L7.42412274,11.163639 C7.63364621,11.524787 7.75418773,11.9439856 7.75418773,12.3915596 C7.75418773,12.8373141 7.63459928,13.2549097 7.4266787,13.6150614 L10.5331191,13.6150614 C10.3251986,13.2548881 10.2056318,12.8373141 10.2056318,12.3915596 C10.2056101,11.9439856 10.32613,11.5248087 10.5356318,11.163639 Z M17.9986787,9.12077978 C17.9986787,6.63862094 15.9865343,4.62647653 13.5044188,4.62647653 L12.6872274,4.62647653 L12.6872274,7.07792058 L13.5044188,7.07792058 C14.632657,7.07792058 15.547278,7.99256318 15.547278,9.12077978 C15.547278,9.85750181 15.157148,10.5029892 14.5723538,10.862361 C14.907574,11.2816462 15.1084982,11.8130036 15.1084982,12.3915812 C15.1084982,12.7496534 15.031083,13.089444 14.8931047,13.3960722 C16.6954874,12.8110181 17.9986787,11.1182166 17.9986787,9.12077978 L17.9986787,9.12077978 Z M3.40765343,10.8365848 C2.84536462,10.4726643 2.47293141,9.84041155 2.47293141,9.12077978 C2.47293141,7.99254152 3.38753069,7.07792058 4.51574729,7.07792058 L8.60148736,7.07792058 L8.60148736,4.62647653 L4.51576895,4.62647653 C2.03365343,4.62647653 0.021465704,6.63862094 0.021465704,9.12077978 C0.021465704,11.0918989 1.29049819,12.7664621 3.0560361,13.3725054 C2.9207279,13.063196 2.85102249,12.7291912 2.8513213,12.3915812 C2.85129964,11.8012419 3.06006498,11.2597256 3.40765343,10.8365848 L3.40765343,10.8365848 Z" id="Shape" fill-rule="nonzero"></path>
                            <path d="M7.42412274,11.163639 C6.99987726,10.4323321 6.20900361,9.94013718 5.30270036,9.94013718 C4.53914079,9.94013718 3.85724188,10.2893069 3.40765343,10.8365848 C3.06006498,11.259704 2.85129964,11.8012419 2.85129964,12.3915596 C2.85129964,12.7404477 2.92466426,13.0720505 3.05601444,13.3724838 C3.43442599,14.2379567 4.29768953,14.8430036 5.30270036,14.8430036 C6.2108231,14.8430036 7.00303971,14.3488159 7.42665704,13.615083 C7.63459928,13.2549097 7.75416606,12.8373357 7.75416606,12.3915812 C7.75418773,11.9439856 7.63364621,11.5248087 7.42412274,11.163639 L7.42412274,11.163639 Z M6.1198917,12.3915812 C6.1198917,12.8429025 5.75402166,13.2087292 5.30270036,13.2087292 C4.85144404,13.2087292 4.48555235,12.8429025 4.48555235,12.3915812 C4.48555235,11.9402816 4.85142238,11.5744332 5.30270036,11.5744332 C5.75402166,11.5744332 6.1198917,11.9402599 6.1198917,12.3915812 Z M14.5723321,10.862361 C14.1231119,10.3004621 13.4323105,9.94013718 12.6569892,9.94013718 C11.7506859,9.94013718 10.9598556,10.4323321 10.5356318,11.163639 C10.32613,11.524787 10.2055884,11.9439856 10.2055884,12.3915596 C10.2055884,12.8373141 10.3251552,13.2549097 10.5330758,13.6150614 C10.9566715,14.3487942 11.7488448,14.8429819 12.6569675,14.8429819 C13.6527942,14.8429819 14.5093213,14.248852 14.8930614,13.3960505 C15.0352888,13.0802863 15.1087118,12.7378768 15.1084549,12.3915596 C15.1084765,11.8130036 14.9075523,11.2816462 14.5723321,10.862361 L14.5723321,10.862361 Z M13.4741805,12.3915812 C13.4741805,12.8429025 13.1083105,13.2087292 12.6569892,13.2087292 C12.2057329,13.2087292 11.8398412,12.8429025 11.8398412,12.3915812 C11.8398412,11.9402816 12.2057112,11.5744332 12.6569892,11.5744332 C13.1083105,11.5744332 13.4741805,11.9402599 13.4741805,12.3915812 Z" id="Shape" fill-rule="nonzero"></path>
                            <path d="M7.75418773,8.42397834 L9.4453213,6.73145848 C9.91232491,6.26404332 9.91232491,5.50626715 9.4453213,5.03889531 C8.97831769,4.57148014 8.22114801,4.57148014 7.75418773,5.03889531 L6.06298917,6.73145848 C5.59602888,7.19883032 5.59602888,7.9566065 6.06298917,8.42397834 C6.53001444,8.89135018 7.28714079,8.89135018 7.75418773,8.42397834 L7.75418773,8.42397834 Z" id="Shape" fill-rule="nonzero"></path>
                            <path d="M6.05159567,5.03904693 L7.74794946,6.72641155 C8.21638267,7.19239711 8.97582671,7.19239711 9.44425993,6.72641155 C9.91264982,6.26046931 9.91264982,5.50498917 9.44425993,5.03904693 L7.74794946,3.35168231 C7.27947292,2.88569675 6.52002888,2.88569675 6.05159567,3.35168231 C5.58320578,3.81762455 5.58320578,4.57308303 6.05159567,5.03904693 L6.05159567,5.03904693 Z" id="Shape" fill-rule="nonzero"></path>
                            <circle id="Oval" cx="12.725" cy="5.85500014" r="1.22500002"></circle>
                        </g>
                    </g>
                </g>
            </g>
        </g>
    </g>
</svg>