<?xml version="1.0" encoding="UTF-8"?>
<svg width="18px" height="18px" viewBox="0 0 18 18" version="1.1" xmlns="http://www.w3.org/2000/svg" xmlns:xlink="http://www.w3.org/1999/xlink">
    <!-- Generator: Sketch 46.2 (44496) - http://www.bohemiancoding.com/sketch -->
    <title>Icon_colored_views</title>
    <desc>Created with Sketch.</desc>
    <defs></defs>
    <g id="样式整理概览" stroke="none" stroke-width="1" fill="none" fill-rule="evenodd">
        <g id="组件2-图标-弹出消息框" transform="translate(-744.000000, -325.000000)" fill="#AB7DF6">
            <g id="图标2" transform="translate(100.000000, 226.000000)">
                <g id="彩色图标" transform="translate(30.000000, 92.000000)">
                    <g id="彩" transform="translate(83.000000, 0.000000)">
                        <g id="Icons-Colored-/-Views" transform="translate(531.000000, 7.000000)">
                            <path d="M1,9 C1,4.584 4.584,1 9,1 C13.416,1 17,4.584 17,9 C17,13.416 13.416,17 9,17 C4.584,17 1,13.416 1,9 Z M9,5.85 C6.95454545,5.85 5.20772727,7.12227273 4.5,8.91818182 C5.20772727,10.7140909 6.95454545,11.9863636 9,11.9863636 C11.0454545,11.9863636 12.7922727,10.7140909 13.5,8.91818182 C12.7922727,7.12227273 11.0454545,5.85 9,5.85 Z M9,10.8 C8.0064,10.8 7.2,9.9936 7.2,9 C7.2,8.0064 8.0064,7.2 9,7.2 C9.9936,7.2 10.8,8.0064 10.8,9 C10.8,9.9936 9.9936,10.8 9,10.8 Z M9,8.1 C8.502,8.1 8.1,8.502 8.1,9 C8.1,9.498 8.502,9.9 9,9.9 C9.498,9.9 9.9,9.498 9.9,9 C9.9,8.502 9.498,8.1 9,8.1 Z"></path>
                        </g>
                    </g>
                </g>
            </g>
        </g>
    </g>
</svg>