<?xml version="1.0" encoding="UTF-8"?>
<svg width="14px" height="14px" viewBox="0 0 14 14" version="1.1" xmlns="http://www.w3.org/2000/svg" xmlns:xlink="http://www.w3.org/1999/xlink">
    <!-- Generator: Sketch 46.2 (44496) - http://www.bohemiancoding.com/sketch -->
    <title>icon_document_ppt_blue</title>
    <desc>Created with Sketch.</desc>
    <defs></defs>
    <g id="正式页面" stroke="none" stroke-width="1" fill="none" fill-rule="evenodd">
        <g id="7.0-车辆监控-个人中心-我的反馈" transform="translate(-810.000000, -949.000000)" fill-rule="nonzero" fill="#1488F5">
            <g id="内容" transform="translate(155.000000, 280.000000)">
                <g id="反馈内容" transform="translate(285.000000, 0.000000)">
                    <g id="附件" transform="translate(30.000000, 624.000000)">
                        <g id="Category-Buttons-/-Enclosure-Blue-Copy-3" transform="translate(324.000000, 40.000000)">
                            <g id="Group" transform="translate(16.000000, 3.000000)">
                                <g id="文件类型/Excle/灰" transform="translate(0.000000, 2.000000)">
                                    <g id="icon_document_ppt_blue">
                                        <path d="M0,1.51112501 L0,12.4893125 L7.874125,14 L7.874125,0 L0,1.51068751 L0,1.51112501 Z M6.0423125,5.833625 C5.8345,8.16681251 3.3044375,7.975625 3.3044375,7.975625 L3.3044375,10.0769375 L2.09606249,10.0769375 L2.09606249,3.940125 C2.09606249,3.940125 3.98824999,3.83468749 4.6073125,3.940125 C6.14424999,4.20175 6.0423125,5.83362499 6.0423125,5.833625 Z M3.2095,4.8960625 L3.2095,7 C3.2095,7 4.713625,7 4.6633125,5.94825 C4.6230625,5.10825001 4.2293125,4.99187501 3.2095,4.8960625 L3.2095,4.8960625 Z M8.511125,1.7976875 L8.511125,4.4275 C8.88999414,4.04700289 9.40479574,3.83305324 9.94174999,3.83293751 L9.94174999,5.898375 L11.9809375,5.898375 C11.9809375,7.0389375 11.067875,7.9638125 9.94174999,7.9638125 C9.4047861,7.96374509 8.8899667,7.74978804 8.511125,7.36925 L8.511125,8.848 L12.488875,8.848 L12.488875,9.4346875 L8.511125,9.4346875 L8.511125,10.3910625 L12.488875,10.3910625 L12.488875,10.97775 L8.511125,10.97775 L8.511125,12.201875 L13.9995625,12.201875 L13.9995625,1.7976875 L8.511125,1.7976875 Z M10.23575,5.56937501 L10.23575,3.5039375 C11.3623125,3.5039375 12.2749375,4.4288125 12.2749375,5.56937501 L10.23575,5.56937501 Z" id="Shape"></path>
                                    </g>
                                </g>
                            </g>
                        </g>
                    </g>
                </g>
            </g>
        </g>
    </g>
</svg>