<?xml version="1.0" encoding="UTF-8"?>
<svg width="18px" height="17px" viewBox="0 0 18 17" version="1.1" xmlns="http://www.w3.org/2000/svg" xmlns:xlink="http://www.w3.org/1999/xlink">
    <!-- Generator: Sketch 46.2 (44496) - http://www.bohemiancoding.com/sketch -->
    <title>icon_popup_transfer</title>
    <desc>Created with Sketch.</desc>
    <defs></defs>
    <g id="样式整理概览" stroke="none" stroke-width="1" fill="none" fill-rule="evenodd">
        <g id="组件2-图标-弹出消息框" transform="translate(-1080.000000, -659.000000)" fill-rule="nonzero" fill="#A8C6DF">
            <g id="图标2" transform="translate(100.000000, 226.000000)">
                <g id="普通图标-18px" transform="translate(30.000000, 275.000000)">
                    <g id="18" transform="translate(78.000000, 125.000000)">
                        <g id="弹出图标/icon_popup_transfer" transform="translate(872.000000, 32.000000)">
                            <g id="icon_popup_transfer">
                                <path d="M17.0920976,17.8585366 L14.3947317,17.8585366 C14.5633171,17.6337561 14.6195122,17.4089756 14.6195122,17.128 L14.6195122,13.3629268 C14.6195122,12.969561 14.5633171,12.5761951 14.4509268,12.2390244 L15.2376585,12.2390244 C16.7549268,12.2390244 17.9912195,13.5315122 17.9912195,15.1049756 L17.9912195,16.9032195 C17.9912195,17.4089756 17.5978537,17.8585366 17.0920976,17.8585366 L17.0920976,17.8585366 Z M2.81853659,4.93365854 L2.81853659,4.93365854 C2.81853659,2.76115892 4.5796955,1 6.75219512,1 C8.92469474,1 10.6858537,2.76115892 10.6858537,4.93365854 C10.6858537,6.33901939 9.93610261,7.63762639 8.71902441,8.34030683 C7.50194622,9.04298727 6.00244403,9.04298727 4.78536583,8.34030683 C3.56828763,7.63762639 2.81853656,6.33901939 2.81853659,4.93365854 Z M12.8212683,10.0474146 C12.203122,9.59785366 11.8097561,8.86731707 11.8097561,8.02439024 C11.8097561,6.6195122 12.9336585,5.49560976 14.3385366,5.49560976 C15.7434146,5.49560976 16.8673171,6.6195122 16.8673171,8.02439024 C16.8673171,9.42926829 15.7434146,10.5531707 14.3385366,10.5531707 C13.8327805,10.5531707 13.3832195,10.3845854 12.9898537,10.1598049 C12.9336585,10.1036098 12.8774634,10.1036098 12.8212683,10.0474146 L12.8212683,10.0474146 Z M3.3804878,10.5531707 L10.1239024,10.5531707 C11.9783415,10.5531707 13.4956098,12.070439 13.4956098,13.924878 L13.4956098,16.7346341 C13.4956098,17.3527805 12.9898537,17.8585366 12.3717073,17.8585366 L1.13268293,17.8585366 C0.514536585,17.8585366 0.0087804878,17.3527805 0.0087804878,16.7346341 L0.0087804878,13.924878 C0.0087804878,12.070439 1.52604878,10.5531707 3.3804878,10.5531707 Z" id="Combined-Shape"></path>
                            </g>
                        </g>
                    </g>
                </g>
            </g>
        </g>
    </g>
</svg>