<?xml version="1.0" encoding="UTF-8"?>
<svg width="15px" height="18px" viewBox="0 0 15 18" version="1.1" xmlns="http://www.w3.org/2000/svg" xmlns:xlink="http://www.w3.org/1999/xlink">
    <!-- Generator: Sketch 46.2 (44496) - http://www.bohemiancoding.com/sketch -->
    <title>icon_dashboard_water_temperature_blue</title>
    <desc>Created with Sketch.</desc>
    <defs></defs>
    <g id="正式页面" stroke="none" stroke-width="1" fill="none" fill-rule="evenodd">
        <g id="1.8-车辆监控-结果详情-仪表盘" transform="translate(-772.000000, -623.000000)" fill-rule="nonzero" fill="#0093EE">
            <g id="弹出" transform="translate(298.000000, 182.000000)">
                <g id="表" transform="translate(36.000000, 90.000000)">
                    <g id="123" transform="translate(0.000000, 313.000000)">
                        <g id="发动机水温" transform="translate(390.000000, 0.000000)">
                            <g id="中" transform="translate(31.000000, 23.000000)">
                                <g id="汽车仪表图标/水温-蓝" transform="translate(15.000000, 15.000000)">
                                    <g id="icon_dashboard_water_temperature_blue">
                                        <path d="M9.21290975,15.2969892 C10.7033357,15.2969892 11.9115451,14.0887365 11.9115451,12.5983105 C11.9115451,11.5994513 11.3688375,10.7273935 10.5622599,10.2607581 L10.5622599,9.44984838 L11.4618267,9.44984838 C11.9586137,9.44984838 12.3613935,9.04711191 12.3613935,8.55028159 C12.3613935,8.05345126 11.9586137,7.6507148 11.4618267,7.6507148 L10.5622599,7.6507148 L10.5622599,6.75114801 L11.012,6.75114801 C11.5088303,6.75114801 11.9115668,6.34841155 11.9115668,5.85158123 C11.9115668,5.3547509 11.5088303,4.95201444 11.012,4.95201444 L10.5622599,4.95201444 L10.5622599,4.05244765 L11.012,4.05244765 C11.5088303,4.05244765 11.9115668,3.64971119 11.9115668,3.15288087 C11.9115668,2.65605054 11.5088303,2.25331408 11.012,2.25331408 L10.5622599,2.25331408 L10.5622599,1.35374729 C10.5622599,0.608512635 9.95812274,0.00441877256 9.21293141,0.00441877256 C8.46769675,0.00441877256 7.86360289,0.608512635 7.86360289,1.35374729 L7.86360289,10.2606715 C7.05698195,10.7272852 6.51427437,11.599343 6.51427437,12.5982238 C6.51423105,14.0887581 7.72248375,15.2969892 9.21290975,15.2969892 Z M15.9596173,12.1485271 C15.711148,12.1485271 15.5097906,12.3498845 15.5097906,12.5983105 C15.5097906,13.0950975 15.1070542,13.4978773 14.6102671,13.4978773 C14.1134368,13.4978773 13.7107004,13.0950975 13.7107004,12.5983105 C13.7107004,12.3499061 13.5092996,12.1485271 13.2608736,12.1485271 C13.0124693,12.1485271 12.8111336,12.3498845 12.8111336,12.5983105 C12.8111336,13.5919278 13.6166065,14.3974224 14.6102455,14.3974224 C15.6038628,14.3974224 16.4093141,13.5919061 16.4093141,12.5983105 C16.4093357,12.3499061 16.2079783,12.1485271 15.9596173,12.1485271 L15.9596173,12.1485271 Z M4.71507581,13.9476173 C4.71507581,14.1960217 4.91643321,14.397444 5.16485921,14.397444 C5.41326354,14.397444 5.6146426,14.1960433 5.6146426,13.9476173 C5.6146426,12.954 4.80912635,12.1485487 3.81553069,12.1485487 C2.82191336,12.1485487 2.01641877,12.9540217 2.01641877,13.9476173 C2.01641877,14.1960217 2.21777617,14.397444 2.46620217,14.397444 C2.71464982,14.397444 2.91598556,14.1960433 2.91598556,13.9476173 C2.91598556,13.4508303 3.31872202,13.0480939 3.81555235,13.0480939 C4.31238267,13.0480939 4.71507581,13.4508303 4.71507581,13.9476173 Z M13.841509,16.7522166 C13.493509,17.1238267 12.9292708,17.1238267 12.5813141,16.7522166 L11.9512274,17.4251264 C12.6471625,18.1683032 13.775574,18.1683466 14.471574,17.425083 C14.6455957,17.239278 14.6455957,16.9380217 14.471574,16.7522166 C14.2975307,16.5663682 14.0154874,16.5664116 13.841509,16.7522166 L13.841509,16.7522166 Z M6.28040433,16.7522599 L6.28040433,16.7522166 L6.28036101,16.7522599 C5.93236101,17.1239134 5.36816606,17.1239134 5.02016606,16.7522599 C4.8461444,16.5664549 4.56410108,16.5664549 4.39007942,16.7522599 C4.21610108,16.938065 4.21605776,17.2393213 4.39007942,17.4251264 C5.08605776,18.1683899 6.21446931,18.1683899 6.91046931,17.4251264 L6.91046931,17.425083 C7.25846931,17.0535162 7.82266426,17.0535162 8.17066426,17.4251264 L8.4960722,17.0776245 L8.80072924,16.7522383 C8.10472924,16.0089964 6.97633935,16.0090397 6.28040433,16.7522599 L6.28040433,16.7522599 Z M10.0609242,16.7522166 C9.71292419,17.1238267 9.14872924,17.1238267 8.80072924,16.7522166 L8.80070758,16.7522383 L8.80072924,16.7522599 L8.49605054,17.0776245 L8.17068592,17.4251264 C8.86662094,18.1683032 9.99503249,18.1683466 10.6910325,17.425083 L10.6910325,17.4251264 C11.0390325,17.0534729 11.6032274,17.0534296 11.9512274,17.425083 L12.5813141,16.7522166 C11.8853141,16.0089531 10.7569242,16.0089531 10.0609242,16.7522166 Z" id="Shape"></path>
                                    </g>
                                </g>
                            </g>
                        </g>
                    </g>
                </g>
            </g>
        </g>
    </g>
</svg>