<?xml version="1.0" encoding="UTF-8"?>
<svg width="13px" height="14px" viewBox="0 0 13 14" version="1.1" xmlns="http://www.w3.org/2000/svg" xmlns:xlink="http://www.w3.org/1999/xlink">
    <!-- Generator: Sketch 46.2 (44496) - http://www.bohemiancoding.com/sketch -->
    <title>icon_popup_rename 14px</title>
    <desc>Created with Sketch.</desc>
    <defs></defs>
    <g id="样式整理概览" stroke="none" stroke-width="1" fill="none" fill-rule="evenodd">
        <g id="组件2-图标-弹出消息框" transform="translate(-687.000000, -896.000000)" fill-rule="nonzero" fill="#A8C6DF">
            <g id="图标2" transform="translate(100.000000, 226.000000)">
                <g id="普通图标-14px" transform="translate(30.000000, 633.000000)">
                    <g id="弹出图标/icon_popup_rename-14px" transform="translate(556.000000, 37.000000)">
                        <g id="icon_popup_rename-14px">
                            <path d="M1.53729496,13.1449281 C1.35530795,13.0227634 1.181987,12.9087429 1,12.7865782 C1.03466419,10.7587246 1.06066233,8.73070815 1.09532652,6.70277314 C2.88919839,6.0267948 4.45775302,4.78071426 5.80099041,2.99710877 L7.13556175,3.88483935 L7.17013928,3.90927231 L7.20480347,3.94184957 L7.23946766,3.96628253 L7.27404519,3.99071548 L7.30870938,4.01514843 L7.34328691,4.03958138 L7.3779511,4.06401433 L7.41261529,4.08844729 L7.44719282,4.11288024 L7.48185701,4.13731319 L7.51643454,4.16174614 L7.55109873,4.18617909 L7.58576292,4.21061205 L7.62034045,4.235045 L7.65491798,4.25947795 L7.68958217,4.2839109 L7.72424636,4.30834385 L7.75891055,4.3327768 L7.79348808,4.35720976 L7.82806561,4.38164271 L7.86272981,4.40607566 L7.897394,4.43050861 L7.93205819,4.45494156 L7.96663572,4.47937452 L8.00121325,4.50380747 L8.03587744,4.52824042 L8.69449706,4.96803355 L8.72916125,4.99246651 L8.76382544,5.01689946 L8.79848963,5.04133241 L8.83306716,5.06576536 L8.86764469,5.09019831 L8.90230888,5.11463127 L8.93697307,5.13906422 L8.97163726,5.16349717 L9.00621479,5.18793012 L9.04079232,5.21236307 L9.07545652,5.23679603 L9.11012071,5.26122898 L9.1447849,5.28566193 L9.17936243,5.31009488 L9.21393996,5.33452783 L9.24860415,5.35896079 L9.28326834,5.38339374 L9.31793253,5.40782669 L9.35251006,5.43225964 L9.38708759,5.45669259 L9.42175178,5.48112554 L9.45641597,5.5055585 L9.49108016,5.52999145 L9.49974621,5.52999145 L10.9296441,6.48287657 C9.58640669,8.26640062 8.86712473,10.0663762 8.78046425,11.8906218 C6.7526091,12.5911145 4.73341999,13.2914444 2.71423089,14 C2.53224389,13.8778352 2.35892293,13.7638148 2.17693593,13.64165 L4.75941814,10.2128925 C5.40937171,10.4409333 6.16331786,10.2373254 6.58795419,9.68351183 C7.09058496,9.01567781 6.917264,8.09536996 6.21531414,7.63114387 C5.50469824,7.15877347 4.52543485,7.32165981 4.03147013,7.98134951 C3.61549985,8.53524453 3.65883008,9.27629596 4.10946456,9.77309932 L1.53729496,13.1449281 Z M12.1272052,6.33627886 L13.4444444,4.58525064 L6.5462705,0 L5.23769731,1.75102822 L12.1272052,6.33627886 Z" id="Shape"></path>
                        </g>
                    </g>
                </g>
            </g>
        </g>
    </g>
</svg>