<?xml version="1.0" encoding="UTF-8"?>
<svg width="14px" height="14px" viewBox="0 0 14 14" version="1.1" xmlns="http://www.w3.org/2000/svg" xmlns:xlink="http://www.w3.org/1999/xlink">
    <!-- Generator: Sketch 46.2 (44496) - http://www.bohemiancoding.com/sketch -->
    <title>Icon_colored_yellow_doc</title>
    <desc>Created with Sketch.</desc>
    <defs></defs>
    <g id="样式整理概览" stroke="none" stroke-width="1" fill="none" fill-rule="evenodd">
        <g id="组件2-图标-弹出消息框" transform="translate(-847.000000, -324.000000)" fill="#FACA00">
            <g id="图标2" transform="translate(100.000000, 226.000000)">
                <g id="彩色图标" transform="translate(30.000000, 92.000000)">
                    <g id="彩" transform="translate(83.000000, 0.000000)">
                        <g id="Icons-Colored-/-Doc-Yellow" transform="translate(634.000000, 6.000000)">
                            <path d="M2.5,0 C1.675,0 1.0075,0.675 1.0075,1.5 L1,12.5 C1,13.325 1.6675,14 2.4925,14 L11.5,14 C12.325,14 13,13.325 13,12.5 L13,4.5 L8.5,0 L2.5,0 Z M10,12 L4,12 L4,10.5 L10,10.5 L10,12 L10,12 Z M10,9 L4,9 L4,7.5 L10,7.5 L10,9 L10,9 Z M7.75,5.25 L7.75,1.125 L11.875,5.25 L7.75,5.25 L7.75,5.25 Z" id="Icon"></path>
                        </g>
                    </g>
                </g>
            </g>
        </g>
    </g>
</svg>