<?xml version="1.0" encoding="UTF-8"?>
<svg width="14px" height="14px" viewBox="0 0 14 14" version="1.1" xmlns="http://www.w3.org/2000/svg" xmlns:xlink="http://www.w3.org/1999/xlink">
    <!-- Generator: Sketch 46.2 (44496) - http://www.bohemiancoding.com/sketch -->
    <title>icon_popup_open 14px</title>
    <desc>Created with Sketch.</desc>
    <defs></defs>
    <g id="样式整理概览" stroke="none" stroke-width="1" fill="none" fill-rule="evenodd">
        <g id="组件2-图标-弹出消息框" transform="translate(-487.000000, -896.000000)" fill-rule="nonzero" fill="#A8C6DF">
            <g id="图标2" transform="translate(100.000000, 226.000000)">
                <g id="普通图标-14px" transform="translate(30.000000, 633.000000)">
                    <g id="弹出图标/icon_popup_open-14px" transform="translate(357.000000, 37.000000)">
                        <g id="icon_popup_open-14px">
                            <path d="M10.2981376,4.66931747 C9.92252276,3.11995073 8.57790912,2.02557426 6.9327901,2.02557426 C4.98678761,2.02557426 3.46267787,3.55546662 3.46267787,5.55839179 L2.218322,5.55839179 C2.218322,3.15395777 4.33189843,0.777777778 6.93142977,0.777777778 C9.20712224,0.777777778 11.1131552,2.60178153 11.5512247,4.66931747 L10.2981376,4.66931747 Z M13.2222222,6.83047581 C13.2222222,6.1436806 12.6645335,5.58313964 11.9787838,5.58313964 L2.02121621,5.58313964 C1.33636809,5.58313964 0.777777778,6.1418552 0.777777778,6.83047581 L0.777777778,12.7522194 C0.777777778,13.439459 1.33456486,14 2.02121621,14 L11.9774235,14 C12.6622716,14 13.2208619,13.4408083 13.2208619,12.7522194 L13.2208619,6.83047581 L13.2222222,6.83047581 Z M7.98503861,11.4620577 C7.98503861,11.9770272 7.56903007,12.3985837 7.05177171,12.3985837 L6.91779482,12.3985837 C6.40461745,12.3985837 5.98452792,11.9815827 5.98452792,11.4620577 L5.98452792,8.92502024 C5.98452792,8.40913018 6.40007773,7.98757367 6.91779482,7.98757367 L7.05177171,7.98757367 C7.56540779,7.98757367 7.98503861,8.40457461 7.98503861,8.92502024 L7.98503861,11.4620577 Z" id="Shape"></path>
                        </g>
                    </g>
                </g>
            </g>
        </g>
    </g>
</svg>