<?xml version="1.0" encoding="UTF-8"?>
<svg width="18px" height="18px" viewBox="0 0 18 18" version="1.1" xmlns="http://www.w3.org/2000/svg" xmlns:xlink="http://www.w3.org/1999/xlink">
    <!-- Generator: Sketch 46.2 (44496) - http://www.bohemiancoding.com/sketch -->
    <title>icon_shared_folder_filled_grey</title>
    <desc>Created with Sketch.</desc>
    <defs></defs>
    <g id="样式整理概览" stroke="none" stroke-width="1" fill="none" fill-rule="evenodd">
        <g id="组件2-图标-弹出消息框" transform="translate(-624.000000, -540.000000)" fill="#A8C6DF">
            <g id="图标2" transform="translate(100.000000, 226.000000)">
                <g id="普通图标-18px" transform="translate(30.000000, 275.000000)">
                    <g id="灰" transform="translate(79.000000, 0.000000)">
                        <g id="Icons-Grey-/-Shared-Folder" transform="translate(415.000000, 39.000000)">
                            <path d="M2.5,2 L7,2 L8.5,3.5 L15.5,3.5 C16.325,3.5 17,4.175 17,5 L17,14.5 C17,15.325 16.325,16 15.5,16 L2.5,16 C1.675,16 1,15.325 1,14.5 L1.0075,3.5 C1.0075,2.675 1.675,2 2.5,2 Z M13.5,7.875 C13.5,6.6375 12.51,5.625 11.3,5.625 C10.09,5.625 9.1,6.6375 9.1,7.875 C9.1,9.1125 10.09,10.125 11.3,10.125 C12.51,10.125 13.5,9.1125 13.5,7.875 Z M6.9,14.625 L15.7,14.625 L15.7,13.5 C15.7,12.00375 12.763,11.25 11.3,11.25 C9.837,11.25 6.9,12.00375 6.9,13.5 L6.9,14.625 Z" id="Combined-Shape"></path>
                        </g>
                    </g>
                </g>
            </g>
        </g>
    </g>
</svg>