<?xml version="1.0" encoding="UTF-8"?>
<svg width="18px" height="18px" viewBox="0 0 18 18" version="1.1" xmlns="http://www.w3.org/2000/svg" xmlns:xlink="http://www.w3.org/1999/xlink">
    <!-- Generator: Sketch 46.2 (44496) - http://www.bohemiancoding.com/sketch -->
    <title>icon_sound_on_filled_grey</title>
    <desc>Created with Sketch.</desc>
    <defs></defs>
    <g id="样式整理概览" stroke="none" stroke-width="1" fill="none" fill-rule="evenodd">
        <g id="组件2-图标-弹出消息框" transform="translate(-666.000000, -540.000000)" fill="#A8C6DF">
            <g id="图标2" transform="translate(100.000000, 226.000000)">
                <g id="普通图标-18px" transform="translate(30.000000, 275.000000)">
                    <g id="灰" transform="translate(79.000000, 0.000000)">
                        <g id="Icons-Grey-/-Sound-On" transform="translate(457.000000, 39.000000)">
                            <path d="M0,6.09236032 L0,11.9076397 L4,11.9076397 L9,16.7537058 L9,1.24629418 L4,6.09236032 L0,6.09236032 L0,6.09236032 Z M13.5,9 C13.5,7.28449259 12.48,5.81128848 11,5.0940707 L11,12.8962372 C12.48,12.1887115 13.5,10.7155074 13.5,9 L13.5,9 Z M11,0.5 L11,2.49657925 C13.89,3.33010262 16,5.92759407 16,9 C16,12.0724059 13.89,14.6698974 11,15.5034208 L11,17.5 C15.01,16.618016 18,13.1482326 18,9 C18,4.85176739 15.01,1.38198404 11,0.5 L11,0.5 Z" id="Icon"></path>
                        </g>
                    </g>
                </g>
            </g>
        </g>
    </g>
</svg>