<?xml version="1.0" encoding="UTF-8"?>
<svg width="14px" height="14px" viewBox="0 0 14 14" version="1.1" xmlns="http://www.w3.org/2000/svg" xmlns:xlink="http://www.w3.org/1999/xlink">
    <!-- Generator: Sketch 46.2 (44496) - http://www.bohemiancoding.com/sketch -->
    <title>icon_popup_switch 14px</title>
    <desc>Created with Sketch.</desc>
    <defs></defs>
    <g id="样式整理概览" stroke="none" stroke-width="1" fill="none" fill-rule="evenodd">
        <g id="组件2-图标-弹出消息框" transform="translate(-846.000000, -896.000000)">
            <g id="图标2" transform="translate(100.000000, 226.000000)">
                <g id="普通图标-14px" transform="translate(30.000000, 633.000000)">
                    <g id="弹出图标/icon_popup_switch-14px" transform="translate(716.000000, 37.000000)">
                        <g id="icon_popup_switch-14px">
                            <path d="M0,4.2249758 C7.80446339e-16,6.5583755 1.89154865,8.44999279 4.2249758,8.44999279 L9.7750242,8.44999279 C12.1084651,8.44999279 14,6.5583755 14,4.2249758 C14,1.89157611 12.1084514,7.80446339e-16 9.7750242,0 L4.2249758,2.34133902e-15 C1.89153492,3.12178536e-15 -7.80446339e-16,1.89157611 0,4.2249758 Z M1.1636526,4.21627173 C1.1636526,2.52810631 2.53214843,1.15959954 4.22034669,1.1595886 C5.90844643,1.1595886 7.27698604,2.52808442 7.27698604,4.21626079 C7.27698604,5.90446999 5.90843549,7.27295487 4.22035763,7.27295487 C2.53217032,7.27295487 1.16366355,5.9044481 1.16366355,4.21626079 L1.1636526,4.21627173 Z" id="Shape" fill="#A8C6DF" fill-rule="nonzero"></path>
                            <path d="M4.30966667,9.82488889 C4.80433333,9.82488889 5.201,9.98822222 5.49033333,10.3242222 C5.761,10.6415556 5.901,11.0522222 5.901,11.5608889 C5.901,12.0648889 5.761,12.4708889 5.49033333,12.7882222 C5.201,13.1195556 4.80433333,13.2875556 4.305,13.2875556 C3.80566667,13.2875556 3.41366667,13.1195556 3.12433333,12.7882222 C2.849,12.4708889 2.71366667,12.0602222 2.71366667,11.5608889 C2.71366667,11.0568889 2.849,10.6462222 3.12433333,10.3288889 C3.41366667,9.99288889 3.80566667,9.82488889 4.30966667,9.82488889 Z M4.30966667,10.1655556 C3.927,10.1655556 3.62366667,10.2962222 3.40433333,10.5622222 C3.199,10.8142222 3.09633333,11.1455556 3.09633333,11.5608889 C3.09633333,11.9715556 3.199,12.3028889 3.40433333,12.5548889 C3.619,12.8162222 3.92233333,12.9468889 4.305,12.9468889 C4.68766667,12.9468889 4.991,12.8162222 5.20566667,12.5642222 C5.411,12.3122222 5.51833333,11.9808889 5.51833333,11.5608889 C5.51833333,11.1362222 5.411,10.8002222 5.20566667,10.5482222 C4.991,10.2915556 4.69233333,10.1655556 4.30966667,10.1655556 Z M6.433,9.89022222 L6.433,13.2222222 L6.81566667,13.2222222 L6.81566667,11.6728889 L8.56566667,11.6728889 L8.56566667,11.3415556 L6.81566667,11.3415556 L6.81566667,10.2215556 L8.66366667,10.2215556 L8.66366667,9.89022222 L6.433,9.89022222 Z M9.12566667,9.89022222 L9.12566667,13.2222222 L9.50833333,13.2222222 L9.50833333,11.6728889 L11.2583333,11.6728889 L11.2583333,11.3415556 L9.50833333,11.3415556 L9.50833333,10.2215556 L11.3563333,10.2215556 L11.3563333,9.89022222 L9.12566667,9.89022222 Z" id="OFF" fill="#8DABC4"></path>
                        </g>
                    </g>
                </g>
            </g>
        </g>
    </g>
</svg>