<?xml version="1.0" encoding="UTF-8"?>
<svg width="24px" height="22px" viewBox="0 0 24 22" version="1.1" xmlns="http://www.w3.org/2000/svg" xmlns:xlink="http://www.w3.org/1999/xlink">
    <!-- Generator: Sketch 46.2 (44496) - http://www.bohemiancoding.com/sketch -->
    <title>icon_menu_left_vehicle_monitoring_b</title>
    <desc>Created with Sketch.</desc>
    <defs></defs>
    <g id="正式页面" stroke="none" stroke-width="1" fill="none" fill-rule="evenodd">
        <g id="1.0-默认" transform="translate(-18.000000, -74.000000)" fill-rule="nonzero" fill="#0093EE">
            <g id="Sidebars-/-#3">
                <g id="左侧菜单/应用市场" transform="translate(0.000000, 60.000000)">
                    <g id="icon/menu/left/故障监控" transform="translate(18.000000, 13.000000)">
                        <g id="icon_menu_left_vehicle_monitoring_b">
                            <path d="M11.8425467,17.2445151 C11.4013253,17.2445151 10.9919299,17.0451173 10.7193457,16.6974891 C10.5920414,16.5351625 10.4410793,16.3475935 10.2662954,16.1304386 C8.68346042,14.1640516 5.73715811,10.5038344 5.73715811,7.45467792 C5.73715811,5.82387159 6.37223172,4.29067433 7.52537374,3.13753232 C8.67851576,1.9843903 10.211713,1.34931669 11.8425193,1.34931669 C13.4733257,1.34931669 15.0064956,1.9843903 16.1596376,3.13753232 C17.3127796,4.29067433 17.9478532,5.82387159 17.9478532,7.45467792 C17.9478532,10.5038618 15.0015509,14.1640789 13.4187433,16.1304932 C13.2439594,16.3476208 13.0929972,16.5351625 12.9656656,16.6975164 C12.6931634,17.0451173 12.2837954,17.2445151 11.8425467,17.2445151 Z M23.1650621,6.82367475 C23.6293949,7.14190819 23.9066233,7.66795359 23.9067052,8.23087901 L23.9067052,18.4612307 C23.9067052,19.1604755 23.4685708,19.7998927 22.8137186,20.0533266 L16.3136867,22.5443112 C16.1156821,22.6206937 15.9076516,22.658885 15.6996757,22.658885 C15.4910715,22.658885 15.2825219,22.6204752 15.0839982,22.5436282 L8.3245224,19.928399 L2.34586446,22.5117475 C1.82082984,22.7148606 1.23017612,22.6461273 0.765843257,22.3278938 C0.301483061,22.0096331 0.0242547364,21.4835603 0.0242547364,20.9206076 L0.0242547364,10.6902287 C0.0242547364,9.99805937 0.453592578,9.36448828 1.09489482,9.10692928 L4.88050401,7.46158949 C4.8855033,8.26876977 5.06695288,9.155966 5.42075503,10.0996296 C5.71478427,10.8838623 6.13764761,11.7332497 6.67757083,12.6242432 C7.64216041,14.2160114 8.82177408,15.6814587 9.60458624,16.6539707 C9.77661095,16.8676835 9.92516906,17.0522474 10.0484848,17.2095201 C10.4879305,17.7699322 11.1480552,18.0913346 11.8596207,18.0913346 C12.5712408,18.0913346 13.2313655,17.7699322 13.6707293,17.2094928 C13.7951105,17.0509088 13.9441876,16.8657439 14.1167861,16.6513208 C14.8974947,15.6814314 16.0770811,14.2159568 17.0416433,12.6242159 C17.5815665,11.7332497 18.0044026,10.883835 18.2984318,10.0996296 C18.6171296,9.24961389 18.7959294,8.44538401 18.8319898,7.70417794 L21.5852048,6.63973915 C22.1100755,6.4366806 22.7007019,6.50544132 23.1650621,6.82367475 Z M11.8425193,5.4335719 C10.8520318,5.4335719 10.0462174,6.23941357 10.0462174,7.22990113 C10.0462174,8.22038868 10.8520318,9.02620305 11.8425193,9.02620305 C12.8330069,9.02620305 13.6388485,8.22036137 13.6388485,7.22990113 C13.6388486,6.23938626 12.8330069,5.4335719 11.8425193,5.4335719 Z" id="Combined-Shape"></path>
                        </g>
                    </g>
                </g>
            </g>
        </g>
    </g>
</svg>