<?xml version="1.0" encoding="UTF-8"?>
<svg width="22px" height="24px" viewBox="0 0 22 24" version="1.1" xmlns="http://www.w3.org/2000/svg" xmlns:xlink="http://www.w3.org/1999/xlink">
    <!-- Generator: Sketch 46.2 (44496) - http://www.bohemiancoding.com/sketch -->
    <title>icon_menu_left_charger_monitoring_b</title>
    <desc>Created with Sketch.</desc>
    <defs></defs>
    <g id="正式页面" stroke="none" stroke-width="1" fill="none" fill-rule="evenodd">
        <g id="2.0-充电机监控-默认" transform="translate(-19.000000, -123.000000)" fill-rule="nonzero" fill="#0093EE">
            <g id="Sidebars-/-#3">
                <g id="左侧菜单/发布中心" transform="translate(0.000000, 110.000000)">
                    <g id="icon/menu/left/故障监控" transform="translate(18.000000, 13.000000)">
                        <g id="icon_menu_left_charger_monitoring_b">
                            <path d="M15.1111111,9.30334583 L15.1111111,21.7745093 L15.3443073,21.7745093 C15.9972565,21.7745093 16.5258345,22.2672965 16.5258345,22.8872547 C16.5258345,23.5072128 15.9972565,24 15.3443073,24 L2.51486054,24 C1.86191129,24 1.33333333,23.5072128 1.33333333,22.8872547 C1.33333333,22.2672965 1.86191129,21.7745093 2.51486054,21.7745093 L2.7480567,21.7745093 L2.7480567,1.80026299 C2.7480567,0.830584912 3.60310928,0.0357668144 4.64471879,0.0357668144 L13.214449,0.0357668144 C14.2716049,0.0357668144 15.1111111,0.81468855 15.1111111,1.80026299 L15.1111111,7.10964788 L15.8106996,7.10964788 C17.5052583,7.10964788 18.8733425,8.3972532 18.8733425,9.9868894 L18.8733425,16.1864706 C18.8733425,16.5520869 19.1998171,16.8541178 19.5884774,16.8541178 C19.992684,16.8541178 20.3036123,16.5520869 20.3036123,16.1864706 L20.3036123,6.21945161 L18.9510745,6.21945161 C18.6867856,6.21945161 18.4224966,6.12407344 18.2359396,5.9333171 C17.8472794,5.55180441 17.8472794,4.94774266 18.2359396,4.56622997 L19.4330133,3.38989919 L17.8161866,1.86384844 C17.3653406,1.43464667 17.3653406,0.751103102 17.8161866,0.32190133 C18.2670325,-0.107300443 18.9977138,-0.107300443 19.4485597,0.32190133 L21.9515318,2.65866654 C22.3868313,3.05607559 22.6666667,3.62834462 22.6666667,4.24830273 L22.6666667,16.1705742 C22.6666667,17.7602104 21.2985825,19.0478157 19.6040238,19.0478157 C17.909465,19.0478157 16.5413809,17.7602104 16.5413809,16.1705742 L16.5413809,9.97099304 C16.5413809,9.60537671 16.2149063,9.30334583 15.826246,9.30334583 L15.1111111,9.30334583 Z M12.1886875,10.0462805 C12.0876387,9.86052052 11.903596,9.74650788 11.7047301,9.74647373 L9.98316554,9.74647373 L11.978427,6.26452479 C12.0861451,6.07658957 12.0914428,5.84008835 11.9922664,5.6467019 C11.8931716,5.45323854 11.7051325,5.33327449 11.5010732,5.33333335 L7.28602895,5.33333335 C7.01573408,5.33332999 6.7837222,5.54200507 6.73371764,5.83009069 L5.60970584,12.3038597 C5.57876181,12.4821078 5.6226414,12.6660411 5.72941309,12.8056456 C5.83614799,12.9453478 5.9947301,13.0262032 6.16201714,13.026215 L7.7621182,13.026215 L7.22512156,17.986017 C7.19380515,18.2753708 7.35567491,18.5483039 7.61143698,18.6373943 C7.86719906,18.7264846 8.14533433,18.6068197 8.27522959,18.3518041 L12.1964853,10.6507702 C12.2927694,10.4619927 12.2898034,10.2320628 12.1886875,10.0462805 Z" id="Combined-Shape"></path>
                        </g>
                    </g>
                </g>
            </g>
        </g>
    </g>
</svg>