<?xml version="1.0" encoding="UTF-8"?>
<svg width="18px" height="18px" viewBox="0 0 18 18" version="1.1" xmlns="http://www.w3.org/2000/svg" xmlns:xlink="http://www.w3.org/1999/xlink">
    <!-- Generator: Sketch 46.2 (44496) - http://www.bohemiancoding.com/sketch -->
    <title>icon_lists_filled_grey</title>
    <desc>Created with Sketch.</desc>
    <defs></defs>
    <g id="样式整理概览" stroke="none" stroke-width="1" fill="none" fill-rule="evenodd">
        <g id="组件2-图标-弹出消息框" transform="translate(-1039.000000, -540.000000)" fill="#A8C6DF">
            <g id="图标2" transform="translate(100.000000, 226.000000)">
                <g id="普通图标-18px" transform="translate(30.000000, 275.000000)">
                    <g id="灰" transform="translate(79.000000, 0.000000)">
                        <g id="Icons-Grey-/-Lists" transform="translate(830.000000, 39.000000)">
                            <path d="M4.83333333,7.46666668 L13.1666667,7.46666668 L13.1666667,5.80000001 L4.83333333,5.80000001 L4.83333333,7.46666668 Z M4.83333333,10.8 L13.1666667,10.8 L13.1666667,9.13333335 L4.83333333,9.13333335 L4.83333333,10.8 Z M4.83333333,14.1333333 L10.6666667,14.1333333 L10.6666667,12.4666667 L4.83333333,12.4666667 L4.83333333,14.1333333 Z M9,2.46666668 C9.45833333,2.46666668 9.83333333,2.84166668 9.83333333,3.30000001 C9.83333333,3.75833335 9.45833333,4.13333335 9,4.13333335 C8.54166667,4.13333335 8.16666667,3.75833335 8.16666667,3.30000001 C8.16666667,2.84166668 8.54166667,2.46666668 9,2.46666668 L9,2.46666668 Z M14.8333333,2.46666668 L11.35,2.46666668 C11,1.50000001 10.0833333,0.800000012 9,0.800000012 C7.91666667,0.800000012 7,1.50000001 6.65,2.46666668 L3.16666667,2.46666668 C2.25,2.46666668 1.5,3.21666668 1.5,4.13333335 L1.5,15.8 C1.5,16.7166667 2.25,17.4666667 3.16666667,17.4666667 L14.8333333,17.4666667 C15.75,17.4666667 16.5,16.7166667 16.5,15.8 L16.5,4.13333335 C16.5,3.21666668 15.75,2.46666668 14.8333333,2.46666668 L14.8333333,2.46666668 Z" id="Icon"></path>
                        </g>
                    </g>
                </g>
            </g>
        </g>
    </g>
</svg>