<?xml version="1.0" encoding="UTF-8"?>
<svg width="18px" height="18px" viewBox="0 0 18 18" version="1.1" xmlns="http://www.w3.org/2000/svg" xmlns:xlink="http://www.w3.org/1999/xlink">
    <!-- Generator: Sketch 46.2 (44496) - http://www.bohemiancoding.com/sketch -->
    <title>icon_popup_reward_warrant</title>
    <desc>Created with Sketch.</desc>
    <defs></defs>
    <g id="样式整理概览" stroke="none" stroke-width="1" fill="none" fill-rule="evenodd">
        <g id="组件2-图标-弹出消息框" transform="translate(-873.000000, -658.000000)" fill="#A8C6DF">
            <g id="图标2" transform="translate(100.000000, 226.000000)">
                <g id="普通图标-18px" transform="translate(30.000000, 275.000000)">
                    <g id="18" transform="translate(78.000000, 125.000000)">
                        <g id="弹出图标/icon_popup_reward_warrant" transform="translate(665.000000, 32.000000)">
                            <g id="icon_popup_reward_warrant">
                                <path d="M10.9222261,8.0350557 L12.6922829,6.26499884 C13.0738388,5.88344296 13.0738388,5.26481864 12.6922829,4.88326276 C12.3107271,4.50170687 11.6921027,4.50170687 11.3105469,4.88326276 L11.3105469,4.88326276 L9.21664992,6.97715969 L7.12275298,4.88326276 C6.7411971,4.50170687 6.12257278,4.50170687 5.7410169,4.88326276 C5.35946102,5.26481864 5.35946102,5.88344296 5.7410169,6.26499884 L5.7410169,6.26499884 L7.51107376,8.0350557 L6.72839561,8.0350557 C6.25234751,8.0350557 5.86643427,8.42096893 5.86643427,8.89701703 C5.86643427,9.37306513 6.25234751,9.75897837 6.72839561,9.75897837 L8.39642422,9.75897837 L8.39642422,10.6209397 L6.72839561,10.6209397 C6.25234751,10.6209397 5.86643427,11.0068529 5.86643427,11.482901 C5.86643427,11.9589491 6.25234751,12.3448624 6.72839561,12.3448624 L8.39642422,12.3448624 L8.39642422,13.914322 C8.39642422,14.3800803 8.77399592,14.757652 9.23975421,14.757652 C9.7055125,14.757652 10.0830842,14.3800803 10.0830842,13.914322 L10.0830842,13.914322 L10.0830842,12.3448624 L11.7511128,12.3448624 C12.2271609,12.3448624 12.6130741,11.9589491 12.6130741,11.482901 C12.6130741,11.0068529 12.2271609,10.6209397 11.7511128,10.6209397 L10.0830842,10.6209397 L10.0830842,9.75897837 L11.7511128,9.75897837 C12.2271609,9.75897837 12.6130741,9.37306513 12.6130741,8.89701703 C12.6130741,8.42096893 12.2271609,8.0350557 11.7511128,8.0350557 L10.9222261,8.0350557 Z M9,18 C4.02943725,18 0,13.9705627 0,9 C0,4.02943725 4.02943725,0 9,0 C13.9705627,0 18,4.02943725 18,9 C18,13.9705627 13.9705627,18 9,18 Z" id="Combined-Shape"></path>
                            </g>
                        </g>
                    </g>
                </g>
            </g>
        </g>
    </g>
</svg>