<?xml version="1.0" encoding="UTF-8"?>
<svg width="14px" height="13px" viewBox="0 0 14 13" version="1.1" xmlns="http://www.w3.org/2000/svg" xmlns:xlink="http://www.w3.org/1999/xlink">
    <!-- Generator: Sketch 46.2 (44496) - http://www.bohemiancoding.com/sketch -->
    <title>icon_popup_air_conditioner 14px</title>
    <desc>Created with Sketch.</desc>
    <defs></defs>
    <g id="样式整理概览" stroke="none" stroke-width="1" fill="none" fill-rule="evenodd">
        <g id="组件2-图标-弹出消息框" transform="translate(-367.000000, -862.000000)" fill-rule="nonzero" fill="#A8C6DF">
            <g id="图标2" transform="translate(100.000000, 226.000000)">
                <g id="普通图标-14px" transform="translate(30.000000, 633.000000)">
                    <g id="弹出图标/icon_popup_air_conditioner-14px" transform="translate(237.000000, 3.000000)">
                        <g id="icon_popup_air_conditioner-14px">
                            <path d="M13.8326628,1.08689406 C13.8326628,0.916884584 13.693556,0.777777778 13.5235465,0.777777778 L7.12212526,0.777777778 L6.87787472,0.777777778 L0.476453503,0.777777778 C0.306444023,0.777777778 0.167337217,0.916884584 0.167337217,1.08689406 L0,4.40972248 L0.167337217,7.73256582 C0.167337217,7.9025753 0.306444023,8.0416821 0.476453503,8.0416821 L1.50682621,8.0416821 L1.50682621,7.18213996 L12.5726847,7.18213996 L12.5726847,8.0416821 L13.5235465,8.0416821 C13.693556,8.0416821 13.8326628,7.9025753 13.8326628,7.73256582 L14,4.4097374 L13.8326628,1.08689406 Z M10.561294,4.11865514 L1.50682621,4.11865514 L1.50682621,3.09637386 L10.561294,3.09637386 L10.561294,4.11865514 Z M12.0615515,4.15729094 C11.7792624,4.15729094 11.5504184,3.92844695 11.5504184,3.64615776 C11.5504184,3.36386857 11.7792624,3.13502458 12.0615515,3.13502458 C12.3438407,3.13502458 12.5726847,3.36386857 12.5726847,3.64615776 C12.5726847,3.92844696 12.3438407,4.15729094 12.0615515,4.15729094 Z M1.75256962,7.42441991 L12.2474154,7.42441991 L12.2474154,8.30065247 L1.75256962,8.30065247 L1.75256962,7.42441991 Z M1.55555556,9.33333333 L3.11111111,9.33333333 L3.88888889,12.4444444 L2.33333333,12.4444444 L1.55555556,9.33333333 Z M4.66666667,9.33333333 L6.22222222,9.33333333 L7,12.4444444 L5.44444444,12.4444444 L4.66666667,9.33333333 Z M7.77777778,9.33333333 L9.33333333,9.33333333 L10.1111111,12.4444444 L8.55555556,12.4444444 L7.77777778,9.33333333 Z M10.8888889,9.33333333 L12.4444444,9.33333333 L13.2222222,12.4444444 L11.6666667,12.4444444 L10.8888889,9.33333333 Z" id="Combined-Shape"></path>
                        </g>
                    </g>
                </g>
            </g>
        </g>
    </g>
</svg>