<?xml version="1.0" encoding="UTF-8"?>
<svg width="13px" height="16px" viewBox="0 0 13 16" version="1.1" xmlns="http://www.w3.org/2000/svg" xmlns:xlink="http://www.w3.org/1999/xlink">
    <!-- Generator: Sketch 46.2 (44496) - http://www.bohemiancoding.com/sketch -->
    <title>icon_dashboard_esp</title>
    <desc>Created with Sketch.</desc>
    <defs></defs>
    <g id="样式整理概览" stroke="none" stroke-width="1" fill="none" fill-rule="evenodd">
        <g id="组件2-图标-弹出消息框" transform="translate(-463.000000, -792.000000)" fill-rule="nonzero" fill="#A8C6DF">
            <g id="图标2" transform="translate(100.000000, 226.000000)">
                <g id="汽车功能图标-18px" transform="translate(30.000000, 532.000000)">
                    <g id="汽车仪表图标/车身电子稳定系统ESP-蓝灰" transform="translate(330.000000, 33.000000)">
                        <g id="icon_dashboard_esp">
                            <path d="M7.77236565,11.4359463 L5.82622244,10.2932309 C5.28884361,9.97768798 4.6016725,10.1649862 4.29139125,10.7115005 C3.98114854,11.2580727 4.16526661,11.956962 4.70266472,12.2725049 L5.34679849,12.6507246 L3.82651866,14.1710045 C3.7069855,14.2623215 3.60317938,14.3806211 3.52454422,14.523899 C3.52053536,14.5312036 3.5169698,14.5386238 3.51313441,14.545967 C3.29875722,14.9306625 3.32466057,15.413228 3.59134556,15.7740247 C3.67747804,15.8969114 3.78837675,16.0036663 3.92211435,16.0849034 L5.17624885,16.8467201 C5.69576131,17.162263 6.36003571,16.9750033 6.66000573,16.4284504 C6.94985725,15.9002457 6.79328077,15.2298809 6.31356772,14.9006154 L7.84558501,13.3685789 C7.98013209,13.2750069 8.09667788,13.1500965 8.18361985,12.9969506 C8.49384328,12.450417 8.30972521,11.7515277 7.77236565,11.4359463 L7.77236565,11.4359463 Z M15.4042167,11.0583433 L14.1500436,10.2965266 C13.630589,9.98098372 12.9662953,10.1682433 12.6663638,10.7147963 C12.3789793,11.2385103 12.5306025,11.9017825 13.0007753,12.2339968 L11.4035949,13.8311579 C11.3265139,13.896279 11.2585039,13.9714323 11.2013792,14.0546128 C10.8813071,14.499075 10.9209716,15.1224707 11.3207774,15.5223151 C11.4101276,15.6117122 11.5137787,15.6855617 11.6274545,15.7408167 L13.5051389,16.8433858 C14.0425177,17.1589287 14.7297274,16.971669 15.0399701,16.4251161 C15.3502128,15.8785825 15.1660947,15.1796932 14.6287352,14.8641117 L13.9725941,14.478838 L15.4292527,13.0221794 C15.5786788,12.9259284 15.7080606,12.7901864 15.8018253,12.6193284 C16.101699,12.0727947 15.9237291,11.3739054 15.4042167,11.0583433 L15.4042167,11.0583433 Z M3.63357341,5.21850671 L3.60096295,5.27306949 C3.49553513,5.41555228 3.424887,5.58071472 3.39466128,5.75536516 C3.39348561,5.76174463 3.39230994,5.7681241 3.3912499,5.77452284 L3.39015132,5.78180816 C3.37524809,5.87460057 3.37204942,5.96889655 3.3806303,6.06248558 C3.38914911,6.24789496 3.44151473,6.43411383 3.5425455,6.60595479 L4.1392669,7.62073386 L4.1392669,8.61818622 C4.1392669,9.24927196 4.65089657,9.7609209 5.28202085,9.7609209 C5.91310659,9.7609209 6.42475553,9.24929123 6.42475553,8.61818622 L6.42475553,8.23728751 L12.5192891,8.23728751 L12.5192891,8.61818622 C12.5192891,9.24927196 13.0308802,9.7609209 13.6619852,9.7609209 C14.2931481,9.7609209 14.8047199,9.24929123 14.8047199,8.61818622 L14.8047199,7.62086878 L15.4015184,6.60595479 C15.5027419,6.43380545 15.5551075,6.24723967 15.5634914,6.06150264 C15.5717982,5.96956889 15.5688879,5.87630527 15.5541631,5.78373549 C15.5536235,5.78015065 15.5531031,5.77654654 15.5525442,5.77298098 C15.5516517,5.76776385 15.5507201,5.76255348 15.5497495,5.75735031 C15.5196713,5.58174944 15.4487397,5.41567679 15.3426769,5.27252983 L15.3104327,5.21856453 L15.5464538,5.08796848 C15.9266394,4.87760014 16.0569078,4.41166753 15.8373846,4.04728605 C15.6178615,3.68290458 15.1317111,3.55809053 14.751487,3.76842032 L14.5203035,3.8963181 L13.1296175,1.5690449 C13.0239599,1.38693858 12.8696764,1.23785396 12.6840567,1.13849811 C12.5219103,1.05020701 12.3359998,1 12.1383711,1 L6.80561569,1 C6.60806412,1 6.42223072,1.05014919 6.26010352,1.13840174 C6.07440028,1.23776208 5.92004161,1.38688181 5.8143308,1.5690449 L4.42366407,3.89627956 L4.19253837,3.76840105 C3.81231422,3.55807126 3.32616389,3.68288531 3.10664072,4.04726678 C2.88711756,4.41164825 3.01738596,4.8775616 3.39757155,5.08794921 L3.63357341,5.21850671 Z M7.44606827,3.28545009 L11.4979185,3.28545009 L12.4083904,4.80908348 L6.53561569,4.80908348 L7.44606827,3.28545009 Z" id="Shape"></path>
                        </g>
                    </g>
                </g>
            </g>
        </g>
    </g>
</svg>