<?xml version="1.0" encoding="UTF-8"?>
<svg width="14px" height="14px" viewBox="0 0 14 14" version="1.1" xmlns="http://www.w3.org/2000/svg" xmlns:xlink="http://www.w3.org/1999/xlink">
    <!-- Generator: Sketch 46.2 (44496) - http://www.bohemiancoding.com/sketch -->
    <title>icon_document_zip</title>
    <desc>Created with Sketch.</desc>
    <defs></defs>
    <g id="样式整理概览" stroke="none" stroke-width="1" fill="none" fill-rule="evenodd">
        <g id="组件2-图标-弹出消息框" transform="translate(-447.000000, -960.000000)" fill-rule="nonzero" fill="#A8C6DF">
            <g id="图标2" transform="translate(100.000000, 226.000000)">
                <g id="文档图标-18px" transform="translate(30.000000, 734.000000)">
                    <g id="文件类型/zip/灰" transform="translate(317.000000, 0.000000)">
                        <g id="icon_document_zip">
                            <path d="M12.25,3.73333333 L12.25,6.53333333 L1.75,6.53333333 L1.75,0 L8.75,0 L8.75,3.73333333 L12.25,3.73333333 Z M9.14375,0 L12.25,3.31333333 L9.14375,3.31333333 L9.14375,0 Z M0,7.46666667 L14,7.46666667 L14,14 L0,14 L0,7.46666667 Z M5.95,12.9733333 L5.95,12.1333333 L3.63125,12.1333333 L5.90625,9.24 L5.90625,8.44666667 L2.58125,8.44666667 L2.58125,9.28666667 L4.68125,9.28666667 L2.40625,12.18 L2.40625,12.9733333 L5.95,12.9733333 Z M7.35,12.9733333 L7.35,12.9733333 L7.35,8.49333333 L6.43125,8.49333333 L6.43125,12.9733333 L7.35,12.9733333 Z M11.375,10.4533333 C11.41875,10.2666667 11.41875,10.1266667 11.4625,9.94 C11.4625,9.75333333 11.41875,9.61333333 11.375,9.42666667 C11.33125,9.24 11.24375,9.1 11.1125,8.96 C11.025,8.82 10.85,8.72666667 10.675,8.63333333 C10.5,8.54 10.28125,8.49333333 10.01875,8.49333333 L8.1375,8.49333333 L8.1375,12.9733333 L9.05625,12.9733333 L9.05625,11.3866667 L10.01875,11.3866667 C10.28125,11.3866667 10.5,11.34 10.675,11.2466667 C10.85,11.1533333 10.98125,11.06 11.1125,10.92 C11.24375,10.78 11.33125,10.64 11.375,10.4533333 Z M10.28125,9.38 C10.36875,9.42666667 10.4125,9.52 10.45625,9.61333333 C10.5,9.66 10.54375,9.8 10.54375,9.94 C10.54375,10.08 10.5,10.1733333 10.45625,10.2666667 C10.4125,10.36 10.36875,10.4066667 10.28125,10.4533333 C10.19375,10.5 10.10625,10.5466667 10.01875,10.5466667 C9.93125,10.5933333 9.8,10.5933333 9.7125,10.5933333 L9.0125,10.5933333 L9.0125,9.24 L9.7125,9.24 C9.8,9.24 9.93125,9.28666667 10.01875,9.28666667 C10.10625,9.28666667 10.19375,9.33333333 10.28125,9.38 Z" id="Combined-Shape"></path>
                        </g>
                    </g>
                </g>
            </g>
        </g>
    </g>
</svg>