<?xml version="1.0" encoding="UTF-8"?>
<svg width="18px" height="18px" viewBox="0 0 18 18" version="1.1" xmlns="http://www.w3.org/2000/svg" xmlns:xlink="http://www.w3.org/1999/xlink">
    <!-- Generator: Sketch 46.2 (44496) - http://www.bohemiancoding.com/sketch -->
    <title>icon_popup_fault_blue</title>
    <desc>Created with Sketch.</desc>
    <defs></defs>
    <g id="样式整理概览" stroke="none" stroke-width="1" fill="none" fill-rule="evenodd">
        <g id="组件1：logo-按钮-分页-头像-输入框-图片-符号" transform="translate(-401.000000, -2724.000000)" fill-rule="nonzero" fill="#0093EE">
            <g id="部件符号:" transform="translate(162.000000, 2607.000000)">
                <g id="Icon" transform="translate(224.000000, 102.000000)">
                    <g id="弹出图标/icon_popup_fault_blue" transform="translate(15.000000, 15.000000)">
                        <g id="icon_popup_fault_blue">
                            <path d="M17.5728003,7.30568725 L16.5816326,7.6232905 C16.3207539,7.7292485 16.0077535,7.57044687 15.9034652,7.30568725 C15.7991769,7.04092762 15.9555417,6.72327923 16.2164656,6.6174566 L17.2076332,6.29985335 C17.4685119,6.19389534 17.7815123,6.35283236 17.8858006,6.6174566 C17.9900889,6.93505986 17.8335887,7.25270824 17.5728003,7.30568725 Z M1.71389208,6.51145347 C1.97468054,6.6172761 2.1311807,6.88190036 2.02689239,7.1996841 C1.92260408,7.41132935 1.66168023,7.57026636 1.34872504,7.51728737 L0.357557379,7.1996841 C0.0966335273,7.0937261 -0.0598215059,6.82905672 0.0444216797,6.51145347 C0.148845375,6.24669383 0.40963384,6.0878922 0.722769539,6.19371482 L1.71389208,6.51145347 Z M13.7645395,1.95877907 C13.9210397,1.74699844 14.2338595,1.69401943 14.4949187,1.85282105 C14.7036307,2.01175806 14.7557072,2.32940646 14.599207,2.59403071 L13.9732515,3.44106299 C13.8167514,3.65284362 13.5039316,3.70582263 13.2428723,3.54702099 C13.0341603,3.38821937 12.9820839,3.01759196 13.138584,2.80581135 L13.7645395,1.95877907 Z M4.00918257,3.38821937 L3.38322707,2.48820808 C3.22672692,2.27642745 3.27893876,1.95877905 3.48751538,1.74699844 C3.74843923,1.58819681 4.06139442,1.6411758 4.21789458,1.90580006 L4.84385008,2.75283234 C5.00048562,2.96461297 4.94827378,3.33524036 4.73956177,3.494042 C4.47881843,3.65284362 4.16568273,3.59986463 4.00918257,3.38821937 L4.00918257,3.38821937 Z M8.49565579,1.58819679 L8.49565579,0.529383885 C8.49565579,0.211780617 8.70432267,0 9.01732298,0 C9.33032329,0 9.53899017,0.211780635 9.53899015,0.529383885 L9.53899015,1.58819679 C9.53899015,1.90580006 9.33032327,2.11762582 9.01732298,2.11762582 C8.70432268,2.11762582 8.49565579,1.90580006 8.49565579,1.58819679 Z M14.2339949,9.5291357 L14.2339949,14.8231551 L3.80065108,14.8231551 L3.80065108,9.5291357 C3.80065108,6.6174566 6.14815342,4.23520652 9.01732298,4.23520652 C11.8864925,4.23520652 14.2339949,6.6174566 14.2339949,9.5291357 Z M2,18 L2,15.881968 L16,15.881968 L16,18 L2,18 Z" id="Shape"></path>
                        </g>
                    </g>
                </g>
            </g>
        </g>
    </g>
</svg>