<?xml version="1.0" encoding="UTF-8"?>
<svg width="24px" height="24px" viewBox="0 0 24 24" version="1.1" xmlns="http://www.w3.org/2000/svg" xmlns:xlink="http://www.w3.org/1999/xlink">
    <!-- Generator: Sketch 46.2 (44496) - http://www.bohemiancoding.com/sketch -->
    <title>Icon_social_friend_request</title>
    <desc>Created with Sketch.</desc>
    <defs></defs>
    <g id="样式整理概览" stroke="none" stroke-width="1" fill="none" fill-rule="evenodd">
        <g id="组件1：logo-按钮-分页-头像-输入框-图片-符号" transform="translate(-163.000000, -1741.000000)" fill="#AB7DF6">
            <g id="其他按钮" transform="translate(162.000000, 1594.000000)">
                <g id="Social-Symbols-/-Friend-Request" transform="translate(1.000000, 147.000000)">
                    <path d="M12,0 C18.624,0 24,5.376 24,12 C24,18.624 18.624,24 12,24 C5.376,24 0,18.624 0,12 C0,5.376 5.376,0 12,0 Z M17.5384615,16.6153846 L17.5384615,15.3230769 C17.5384615,13.4769231 13.8461538,12.4615385 12,12.4615385 C10.1538462,12.4615385 6.46153846,13.4769231 6.46153846,15.3230769 L6.46153846,16.6153846 L17.5384615,16.6153846 Z M12,5.53846154 C10.4676923,5.53846154 9.23076923,6.77538462 9.23076923,8.30769231 C9.23076923,9.84 10.4676923,11.0769231 12,11.0769231 C13.5323077,11.0769231 14.7692308,9.84 14.7692308,8.30769231 C14.7692308,6.77538462 13.5323077,5.53846154 12,5.53846154 Z" id="Combined-Shape"></path>
                </g>
            </g>
        </g>
    </g>
</svg>