<?xml version="1.0" encoding="UTF-8"?>
<svg width="16px" height="13px" viewBox="0 0 16 13" version="1.1" xmlns="http://www.w3.org/2000/svg" xmlns:xlink="http://www.w3.org/1999/xlink">
    <!-- Generator: Sketch 46.2 (44496) - http://www.bohemiancoding.com/sketch -->
    <title>icon_dashboard_battery_blue</title>
    <desc>Created with Sketch.</desc>
    <defs></defs>
    <g id="正式页面" stroke="none" stroke-width="1" fill="none" fill-rule="evenodd">
        <g id="1.8-车辆监控-结果详情-仪表盘" transform="translate(-564.000000, -626.000000)" fill-rule="nonzero" fill="#0093EE">
            <g id="弹出" transform="translate(298.000000, 182.000000)">
                <g id="表" transform="translate(36.000000, 90.000000)">
                    <g id="123" transform="translate(0.000000, 313.000000)">
                        <g id="24V蓄电池电压" transform="translate(195.000000, 0.000000)">
                            <g id="中" transform="translate(19.000000, 23.000000)">
                                <g id="汽车仪表图标/电池-蓝" transform="translate(15.000000, 15.000000)">
                                    <g id="icon_dashboard_battery_blue">
                                        <path d="M16.9995372,6.26079305 C16.9994215,6.25577916 16.9993443,6.25076527 16.9991515,6.24575138 C16.9818343,5.65839338 16.5006165,5.18751191 15.9090738,5.18751191 L14.8181669,5.18751191 C14.2156515,5.18751191 13.72726,5.67590343 13.72726,6.27841881 C13.72726,6.81683353 14.1173793,7.26380259 14.6303003,7.35287629 L13.8573319,13.5572381 L4.14432653,13.5572381 L3.37168598,7.35557608 C3.8836235,7.26569245 4.27273998,6.8191862 4.27273998,6.281485 C4.27273998,5.67896961 3.78434847,5.1905781 3.18183308,5.1905781 L2.19806917,5.1905781 C2.12541927,5.18532517 2.0524323,5.18708172 1.9801192,5.1958234 C1.97489318,5.19645978 1.96976359,5.1974047 1.96455686,5.19809893 C1.42161035,5.26075328 1,5.72174196 1,6.281485 C1,6.34454431 1.00565027,6.40625374 1.01592874,6.46640114 L2.05102718,14.7747458 C2.07242196,14.9472447 2.13501992,15.1120604 2.2335328,15.2552693 C2.23511411,15.2576027 2.23673398,15.2599168 2.23833457,15.2622502 C2.24438981,15.2709281 2.2505029,15.2795289 2.25678954,15.2880139 C2.45838531,15.5639323 2.77685888,15.7303747 3.1184845,15.7383577 C3.1217821,15.7384734 3.1250797,15.7385313 3.12839658,15.7386084 C3.13441325,15.7387048 3.14035278,15.7390519 3.14638873,15.7390519 L14.8652011,15.7390519 C15.4632425,15.7390519 15.9493199,15.2645258 15.9631853,14.6739859 L16.9915728,6.41942484 C16.9949668,6.39221484 16.9969531,6.36515912 16.998303,6.33819981 L16.998708,6.32965691 C16.9992479,6.31671722 16.9996143,6.30379681 16.9996915,6.29091497 C16.99973,6.2867303 17,6.28260348 17,6.27839952 C16.9999807,6.27251785 16.9996336,6.26667473 16.9995372,6.26079305 Z M5.36364688,9.19056363 C5.16280199,9.19056363 4.99996625,9.35336081 4.99996625,9.55420569 C4.99996625,9.75505058 5.16280199,9.91784776 5.36364688,9.91784776 L6.81815727,9.91784776 C7.01902145,9.91784776 7.1818379,9.75505058 7.1818379,9.55420569 C7.1818379,9.35336081 7.01904073,9.19056363 6.81815727,9.19056363 L5.36364688,9.19056363 L5.36364688,9.19056363 Z M11.9090883,10.6451126 C12.1098946,10.6451126 12.2727303,10.4823154 12.2727303,10.2814705 L12.2727303,9.91782847 L12.6363338,9.91782847 C12.837198,9.91782847 13.0000145,9.7550313 13.0000145,9.55418641 C13.0000145,9.35334152 12.8372173,9.19054435 12.6363338,9.19054435 L12.2727303,9.19054435 L12.2727303,8.82690229 C12.2727303,8.6260574 12.1098946,8.46326023 11.9090883,8.46326023 C11.7082627,8.46326023 11.5454076,8.6260574 11.5454076,8.82690229 L11.5454076,9.19054435 L11.1818042,9.19054435 C10.98094,9.19054435 10.8181621,9.35334152 10.8181621,9.55418641 C10.8181621,9.7550313 10.9809207,9.91782847 11.1818042,9.91782847 L11.5454076,9.91782847 L11.5454076,10.2814705 C11.5454076,10.4823154 11.7082434,10.6451126 11.9090883,10.6451126 L11.9090883,10.6451126 Z M5.02073533,6.55508915 C5.09364887,6.81673711 5.25764166,7.03144733 5.47107913,7.17636806 C5.65625154,7.30976696 5.87875625,7.38141381 6.10697545,7.38112764 L11.925152,7.38112764 C11.9348134,7.38112764 11.9443398,7.38064553 11.9539433,7.38039484 C11.9583401,7.38025985 11.9627562,7.38024056 11.9671337,7.38006701 C11.9843192,7.37940107 12.0014868,7.37833372 12.0186225,7.37686583 L12.0217273,7.37663442 C12.0365566,7.37531305 12.0513571,7.37368641 12.0661195,7.37175552 C12.071789,7.371042 12.0774586,7.37038634 12.0831089,7.36959569 C12.0899355,7.36861219 12.0967235,7.36749371 12.1035115,7.36637523 C12.5395272,7.29801276 12.9152411,6.99199187 13.0370015,6.55506987 L13.6368557,4.4027416 C13.8024877,3.808422 13.4356637,3.197518 12.8174703,3.03823055 C12.1992576,2.87900095 11.5638433,3.23168959 11.3981921,3.82604776 L11.0154973,5.19929455 L7.04223962,5.19929455 L6.65954477,3.82604776 C6.49391282,3.23168959 5.8584986,2.87900095 5.2402666,3.03823055 C4.62209246,3.19749871 4.25524922,3.80840272 4.42088117,4.4027416 L5.02073533,6.55508915 Z" id="Shape"></path>
                                    </g>
                                </g>
                            </g>
                        </g>
                    </g>
                </g>
            </g>
        </g>
    </g>
</svg>