<?xml version="1.0" encoding="UTF-8"?>
<svg width="18px" height="18px" viewBox="0 0 18 18" version="1.1" xmlns="http://www.w3.org/2000/svg" xmlns:xlink="http://www.w3.org/1999/xlink">
    <!-- Generator: Sketch 46.2 (44496) - http://www.bohemiancoding.com/sketch -->
    <title>icon_image_filled_grey</title>
    <desc>Created with Sketch.</desc>
    <defs></defs>
    <g id="样式整理概览" stroke="none" stroke-width="1" fill="none" fill-rule="evenodd">
        <g id="组件2-图标-弹出消息框" transform="translate(-292.000000, -578.000000)" fill="#A8C6DF">
            <g id="图标2" transform="translate(100.000000, 226.000000)">
                <g id="普通图标-18px" transform="translate(30.000000, 275.000000)">
                    <g id="灰" transform="translate(79.000000, 0.000000)">
                        <g id="Icons-Grey-/-Image" transform="translate(83.000000, 77.000000)">
                            <path d="M17,15.3333333 L17,3.66666667 C17,2.75 16.2,2 15.2222222,2 L2.77777778,2 C1.8,2 1,2.75 1,3.66666667 L1,15.3333333 C1,16.25 1.8,17 2.77777778,17 L15.2222222,17 C16.2,17 17,16.25 17,15.3333333 L17,15.3333333 Z M6.5,9.5 L8.64285714,12.51 L11.6428571,8 L15.5,14 L3.5,14 L6.5,9.5 L6.5,9.5 Z" id="Shape"></path>
                        </g>
                    </g>
                </g>
            </g>
        </g>
    </g>
</svg>