<?xml version="1.0" encoding="UTF-8"?>
<svg width="18px" height="18px" viewBox="0 0 18 18" version="1.1" xmlns="http://www.w3.org/2000/svg" xmlns:xlink="http://www.w3.org/1999/xlink">
    <!-- Generator: Sketch 46.2 (44496) - http://www.bohemiancoding.com/sketch -->
    <title>icon_menu_left_management_board_a</title>
    <desc>Created with Sketch.</desc>
    <defs></defs>
    <g id="样式整理概览" stroke="none" stroke-width="1" fill="none" fill-rule="evenodd">
        <g id="组件2-图标-弹出消息框" transform="translate(-458.000000, -433.000000)" fill-rule="nonzero" fill="#8DABC4">
            <g id="图标2" transform="translate(100.000000, 226.000000)">
                <g id="菜单图标" transform="translate(30.000000, 207.000000)">
                    <g id="icon/menu/left/管理看板-小灰" transform="translate(328.000000, 0.000000)">
                        <g id="icon_menu_left_management_board_a">
                            <path d="M0.500040431,16 L0.500040431,2 L0.500040431,2 C0.500040431,0.8954305 1.39547093,1.09108686e-15 2.50004043,8.8817842e-16 L15.5000404,7.8366133e-16 L15.5000404,8.8817842e-16 C16.6046099,6.85269983e-16 17.5000404,0.8954305 17.5000404,2 L17.5000404,15.9996563 L17.5,15.9996563 C17.5,17.10421 16.6045941,17.999634 15.5000404,17.9996563 L2.50004043,17.9999596 L2.50004043,18 C1.39547093,18.0000223 0.50002233,17.1046099 0.5,16.0000404 C0.5,16.000027 0.5,16.0000135 0.5,16 Z M1.69979566,4.15126478 L1.69979566,15.9911902 L1.69979566,15.9911902 C1.69979566,16.543475 2.14751091,16.9911902 2.69979566,16.9911902 L15.3002453,16.9911902 L15.3002453,16.9911902 C15.8525301,16.9911902 16.3002453,16.543475 16.3002453,15.9911902 L16.3002453,4.15126478 L16.3002453,4.15126478 C16.3002453,3.59898003 15.8525301,3.15126478 15.3002453,3.15126478 L2.69979566,3.15126478 L2.69979566,3.15126478 C2.14751091,3.15126478 1.69979566,3.59898003 1.69979566,4.15126478 Z M13.1005699,11.2834209 L4.89991007,11.2834209 L4.89991007,11.2834209 C4.34762532,11.2834209 3.89991007,10.8357056 3.89991007,10.2834209 L3.89991007,6.29287977 L3.89991007,6.29287977 C3.89991007,5.74059502 4.34762532,5.29287977 4.89991007,5.29287977 L13.1005699,5.29287977 L13.1005699,5.29287977 C13.6528546,5.29287977 14.1005699,5.74059502 14.1005699,6.29287977 L14.1005699,10.2834209 L14.1005699,10.2834209 C14.1005699,10.8357056 13.6528546,11.2834209 13.1005699,11.2834209 Z M8.72965535,13.5658871 L4.47052663,13.5658871 L4.47052663,13.5658871 C4.1553838,13.5658871 3.89991007,13.3104134 3.89991007,12.9952705 L3.89991007,12.9952705 L3.89991007,12.9952705 C3.89991007,12.6801277 4.1553838,12.424654 4.47052663,12.424654 L8.72965535,12.424654 L8.72965535,12.424654 C9.04479817,12.424654 9.30027191,12.6801277 9.30027191,12.9952705 L9.30027191,12.9952705 L9.30027191,12.9952705 C9.30027191,13.3104134 9.04479817,13.5658871 8.72965535,13.5658871 Z M12.3291949,15.8499189 L4.47129033,15.8499189 L4.47129033,15.8499189 C4.15572572,15.8499189 3.89991007,15.5941033 3.89991007,15.2785387 L3.89991007,15.2785387 L3.89991007,15.2785387 C3.89991007,14.9629741 4.15572572,14.7071584 4.47129033,14.7071584 L12.3291949,14.7071584 L12.3291949,14.7071584 C12.6447595,14.7071584 12.9005752,14.9629741 12.9005752,15.2785387 L12.9005752,15.2785387 L12.9005752,15.2785387 C12.9005752,15.5941033 12.6447595,15.8499189 12.3291949,15.8499189 Z" id="Shape"></path>
                        </g>
                    </g>
                </g>
            </g>
        </g>
    </g>
</svg>