<?xml version="1.0" encoding="UTF-8"?>
<svg width="14px" height="14px" viewBox="0 0 14 14" version="1.1" xmlns="http://www.w3.org/2000/svg" xmlns:xlink="http://www.w3.org/1999/xlink">
    <!-- Generator: Sketch 46.2 (44496) - http://www.bohemiancoding.com/sketch -->
    <title>icon_popup_collection 14px</title>
    <desc>Created with Sketch.</desc>
    <defs></defs>
    <g id="正式页面" stroke="none" stroke-width="1" fill="none" fill-rule="evenodd">
        <g id="4.0-资源管理-能补设备-能补站" transform="translate(-1259.000000, -331.000000)" fill-rule="nonzero" fill="#A8C6DF">
            <g id="标签分类/车辆故障" transform="translate(185.000000, 156.000000)">
                <g id="故障列表" transform="translate(0.000000, 122.000000)">
                    <g id="中" transform="translate(0.000000, 40.000000)">
                        <g id="Table-/-List-/-Type-6" transform="translate(998.000000, 0.000000)">
                            <g id="Group" transform="translate(16.000000, 13.000000)">
                                <g id="弹出图标/icon_popup_share-14px" transform="translate(60.000000, 0.000000)">
                                    <g id="icon_popup_collection-14px">
                                        <path d="M13.8531859,5.04454809 C13.7876831,4.96265489 13.7043192,4.89678238 13.609452,4.85195425 C13.5359632,4.80137822 13.4520738,4.76786606 13.3639324,4.75387405 L9.19992013,4.16450121 L7.53663651,0.362556012 C7.42749777,0.127592947 7.18472636,-0.0159664607 6.92596233,0.00144254989 C6.66694408,-0.0160890217 6.42385026,0.127451188 6.31439535,0.362556012 L4.65379013,4.15915138 L0.547809797,4.74049947 C0.291837549,4.78231587 0.0881023254,4.97727883 0.0353434538,5.23090047 C-0.0504975339,5.47554949 0.0233141197,5.74773062 0.221045543,5.91567859 L3.37173147,8.47824672 L2.17270308,12.3479564 C2.10172184,12.5964185 2.19113408,12.8628892 2.3976883,13.0184683 C2.58242441,13.2018837 2.86170057,13.2516262 3.09853513,13.1432977 L7.01881337,11.2672909 L10.8212422,13.0871245 C11.057896,13.19568 11.3371478,13.1462972 11.522089,12.9631868 C11.7292247,12.8076244 11.8187289,12.5405247 11.7470743,12.2917832 L10.5542955,8.44079792 L13.7674773,5.95669395 C14.0406736,5.74448406 14.0781712,5.33611378 13.8531859,5.04454809 Z" id="Shape"></path>
                                    </g>
                                </g>
                            </g>
                        </g>
                    </g>
                </g>
            </g>
        </g>
    </g>
</svg>