<?xml version="1.0" encoding="UTF-8"?>
<svg width="18px" height="18px" viewBox="0 0 18 18" version="1.1" xmlns="http://www.w3.org/2000/svg" xmlns:xlink="http://www.w3.org/1999/xlink">
    <!-- Generator: Sketch 46.2 (44496) - http://www.bohemiancoding.com/sketch -->
    <title>icon_popup_delete</title>
    <desc>Created with Sketch.</desc>
    <defs></defs>
    <g id="样式整理概览" stroke="none" stroke-width="1" fill="none" fill-rule="evenodd">
        <g id="组件2-图标-弹出消息框" transform="translate(-873.000000, -626.000000)" fill-rule="nonzero" fill="#A8C6DF">
            <g id="图标2" transform="translate(100.000000, 226.000000)">
                <g id="普通图标-18px" transform="translate(30.000000, 275.000000)">
                    <g id="18" transform="translate(78.000000, 125.000000)">
                        <g id="弹出图标/icon_popup_delete" transform="translate(665.000000, 0.000000)">
                            <g id="icon_popup_delete">
                                <path d="M2.50306293,16.1333955 C2.50306293,17.161394 3.33596732,17.9942753 4.36394268,17.9942753 L13.0480713,17.9942753 C14.0754219,17.9942753 14.9089511,17.161394 14.9089511,16.1333955 L15.5292443,4.96809389 L1.88279283,4.96809387 L2.50306293,16.1333955 Z M9.94660508,7.7594135 C9.94660508,7.24572665 10.3633581,6.82897362 10.877045,6.82897362 C11.3907087,6.82897362 11.8074848,7.24572665 11.8074848,7.7594135 L11.8074848,14.5826393 C11.8074848,15.0963261 11.3907087,15.5131023 10.877045,15.5131023 C10.3633581,15.5131023 9.94660508,15.0963261 9.94660508,14.5826393 L9.94660508,7.7594135 Z M5.60455234,7.7594135 C5.60455234,7.24572665 6.02130537,6.82897362 6.53499222,6.82897362 C7.04867907,6.82897362 7.46543209,7.24572665 7.46543209,7.7594135 L7.46543207,14.5826393 C7.46543207,15.0963261 7.04867904,15.5131023 6.53499219,15.5131023 C6.02130534,15.5131023 5.60455232,15.0963261 5.60455232,14.5826393 L5.60455234,7.7594135 Z M16.1495607,1.86662763 L12.3967241,1.86662763 C12.4170642,1.76640791 12.4278012,1.66269401 12.4278012,1.55648101 C12.4278012,0.699950578 11.7335754,0.0057478794 10.877045,0.0057478794 L6.53499222,0.0057478794 C5.67846179,0.0057478794 4.98423595,0.699950578 4.98423595,1.55648101 C4.98423595,1.66271717 4.99497295,1.76640791 5.01531309,1.86662763 L1.26249958,1.86662763 C0.57674302,1.86662763 0.0219130779,2.42212864 0.0219130779,3.10721414 C0.0219130779,3.79234592 0.57674302,4.34777751 1.26249958,4.34777751 L16.1495607,4.34777751 C16.8346694,4.34777751 17.3901241,3.79234592 17.3901241,3.10721414 C17.3901241,2.42210548 16.8346694,1.86662763 16.1495607,1.86662763 Z" id="Shape"></path>
                            </g>
                        </g>
                    </g>
                </g>
            </g>
        </g>
    </g>
</svg>