<?xml version="1.0" encoding="UTF-8"?>
<svg width="16px" height="16px" viewBox="0 0 16 16" version="1.1" xmlns="http://www.w3.org/2000/svg" xmlns:xlink="http://www.w3.org/1999/xlink">
    <!-- Generator: Sketch 46.2 (44496) - http://www.bohemiancoding.com/sketch -->
    <title>icon_popup_message2</title>
    <desc>Created with Sketch.</desc>
    <defs></defs>
    <g id="正式页面" stroke="none" stroke-width="1" fill="none" fill-rule="evenodd">
        <g id="1.5-车辆监控-筛选结果列表" transform="translate(-176.000000, -806.000000)" fill-rule="nonzero" fill="#A8C6DF">
            <g id="树状筛选" transform="translate(80.000000, 178.000000)">
                <g id="Group">
                    <g id="左侧菜单/地图监控/车辆12px下" transform="translate(0.000000, 592.000000)">
                        <g id="Group" transform="translate(80.000000, 20.000000)">
                            <g id="消息">
                                <g id="Icon">
                                    <g id="弹出图标/icon_popup_message2" transform="translate(15.000000, 15.000000)">
                                        <g id="icon_popup_message2">
                                            <path d="M8.99999999,1 C4.58175253,1 1,4.13390515 1,7.9999132 C1,10.2093539 2.17264462,12.176622 3.99998868,13.4595152 L3.99998868,16.9999396 L7.5046698,14.8733061 C7.98967929,14.9536077 8.48842458,14.9998566 9.00003019,14.9998566 C13.4182777,14.9998566 17,11.8659212 17,7.9999132 C17,4.13390515 13.4182173,1 8.99999999,1 Z M11.4999453,10.4998887 L6.49996415,10.4998887 C6.22379917,10.4998887 5.99995094,10.2761008 5.99995094,9.99990566 C5.99995094,9.72374068 6.22376896,9.49995284 6.49996415,9.49995284 L11.4999453,9.49995284 C11.7760499,9.49995284 11.9999585,9.72374068 11.9999585,9.99990566 C11.9999585,10.2761008 11.7760499,10.4998887 11.4999453,10.4998887 Z M12.4999717,7.49990001 L5.49996794,7.49990001 C5.22380295,7.49990001 4.99995472,7.27602161 4.99995472,6.99994719 C4.99995472,6.72375199 5.22377274,6.49987361 5.49996794,6.49987361 L12.4999717,6.49987361 C12.7760763,6.49987361 12.9999849,6.72375202 12.9999849,6.99994719 C12.9999547,7.27602161 12.7760763,7.49990001 12.4999717,7.49990001 Z" id="Shape"></path>
                                        </g>
                                    </g>
                                </g>
                            </g>
                        </g>
                    </g>
                </g>
            </g>
        </g>
    </g>
</svg>