<?xml version="1.0" encoding="UTF-8"?>
<svg width="14px" height="14px" viewBox="0 0 14 14" version="1.1" xmlns="http://www.w3.org/2000/svg" xmlns:xlink="http://www.w3.org/1999/xlink">
    <!-- Generator: Sketch 46.2 (44496) - http://www.bohemiancoding.com/sketch -->
    <title>icon_popup_hev 14px</title>
    <desc>Created with Sketch.</desc>
    <defs></defs>
    <g id="样式整理概览" stroke="none" stroke-width="1" fill="none" fill-rule="evenodd">
        <g id="组件2-图标-弹出消息框" transform="translate(-845.000000, -862.000000)" fill="#A8C6DF">
            <g id="图标2" transform="translate(100.000000, 226.000000)">
                <g id="普通图标-14px" transform="translate(30.000000, 633.000000)">
                    <g id="弹出图标/icon_popup_hev-14px" transform="translate(715.000000, 3.000000)">
                        <g id="icon_popup_hev-14px">
                            <path d="M0.777777778,0.777777778 L13.2222222,0.777777778 L13.2222222,13.2222222 L0.777777778,13.2222222 L0.777777778,0.777777778 Z M10.75,6.3125 L10.75,1.765625 L5.125,1.765625 L5.125,6.3125 L10.75,6.3125 Z M9.015625,11.84375 L10.421875,11.84375 C11.0468781,11.8124998 11.3749998,11.5156278 11.40625,10.953125 L11.40625,9.96875 L10.28125,9.78125 L10.28125,10.4375 C10.3125002,10.6875013 10.1875014,10.8125 9.90625,10.8125 L9.484375,10.8125 C9.29687406,10.8125 9.18750016,10.6875013 9.15625,10.4375 L9.15625,9.171875 C9.87500359,8.79687313 10.6093712,8.37500234 11.359375,7.90625 L10.703125,6.96875 C10.3593733,7.21875125 9.84375344,7.53124812 9.15625,7.90625 L9.15625,6.640625 L8.03125,6.640625 L8.03125,10.859375 C8.03125,11.5156283 8.35937172,11.84375 9.015625,11.84375 Z M4.796875,11.9375 L7.84375,11.1875 L7.5625,10.203125 L6.25,10.53125 L6.25,8.890625 L7.609375,8.890625 L7.609375,7.765625 L6.25,7.765625 L6.25,6.640625 L5.125,6.640625 L5.125,10.8125 L4.515625,10.953125 L4.796875,11.9375 Z M3.671875,12.125 L4.796875,7.953125 L3.671875,7.671875 L2.59375,11.796875 L3.671875,12.125 Z M4.09375,6.78125 L4.890625,5.984375 L3.25,4.34375 L2.453125,5.140625 L4.09375,6.78125 Z M4.234375,3.875 L5.03125,3.125 L3.53125,1.484375 L2.6875,2.28125 L4.234375,3.875 Z M6.25,5.234375 L6.25,4.53125 L9.625,4.53125 L9.625,5.234375 L6.25,5.234375 Z M6.25,2.84375 L9.625,2.84375 L9.625,3.5 L6.25,3.5 L6.25,2.84375 Z" id="Combined-Shape"></path>
                        </g>
                    </g>
                </g>
            </g>
        </g>
    </g>
</svg>