<?xml version="1.0" encoding="UTF-8"?>
<svg width="18px" height="13px" viewBox="0 0 18 13" version="1.1" xmlns="http://www.w3.org/2000/svg" xmlns:xlink="http://www.w3.org/1999/xlink">
    <!-- Generator: Sketch 46.2 (44496) - http://www.bohemiancoding.com/sketch -->
    <title>icon_popup_weather</title>
    <desc>Created with Sketch.</desc>
    <defs></defs>
    <g id="样式整理概览" stroke="none" stroke-width="1" fill="none" fill-rule="evenodd">
        <g id="组件2-图标-弹出消息框" transform="translate(-250.000000, -693.000000)" fill-rule="nonzero" fill="#A8C6DF">
            <g id="图标2" transform="translate(100.000000, 226.000000)">
                <g id="普通图标-18px" transform="translate(30.000000, 275.000000)">
                    <g id="18" transform="translate(78.000000, 125.000000)">
                        <g id="弹出图标/icon_popup_weather" transform="translate(42.000000, 64.000000)">
                            <g id="icon_popup_weather">
                                <path d="M15.0252632,15.3065402 L2.96945152,15.3065402 C2.86880609,15.291831 2.76801108,15.2781191 2.6675651,15.2622382 C1.40065928,15.0616953 0.345789474,14.0623463 0.0820969529,12.8099252 C0.0496121884,12.6555789 0.0306398892,12.4983657 0.0054099723,12.3424986 L0.0054099723,11.8971357 C0.0167285319,11.8137922 0.0245567867,11.7298006 0.0398891967,11.6472548 C0.281891967,10.3421302 1.03415235,9.48062327 2.29342936,9.06333241 C2.35037119,9.04448476 2.37363158,9.01913019 2.38686981,8.96266205 C2.74128532,7.45056233 4.26310803,6.504241 5.77535734,6.85716066 C5.85339058,6.87536011 5.88991413,6.86065097 5.93354294,6.79358726 C7.06327978,5.05726039 9.1654903,4.17760388 11.181615,4.59444598 C13.3031468,5.03305263 14.8791939,6.69892521 15.2021967,8.84987535 C15.2152604,8.93700831 15.243133,8.96630194 15.3279224,8.97936565 C16.5867507,9.17322715 17.6476787,10.1765402 17.9113712,11.4214321 C17.9446288,11.578446 17.9637258,11.7385014 17.9893546,11.8971607 L17.9893546,12.3425235 C17.9746454,12.4432936 17.9609335,12.5442133 17.9450526,12.6447839 C17.7450332,13.9105928 16.7452853,14.965687 15.4923906,15.2299529 C15.338169,15.2624626 15.1810803,15.2813102 15.025313,15.3065402 L15.0252632,15.3065402 Z M7.45853186,4.2921108 C7.4391856,4.30475069 7.42081163,4.3178892 7.40141551,4.32930748 C6.70559834,4.73904432 6.1376759,5.28245983 5.69964266,5.96080055 C5.67184488,6.00383102 5.64860942,6.01639612 5.59563158,6.0040554 C4.04169806,5.64196122 2.54360942,6.56684211 2.165759,8.11798338 C2.15910249,8.14530748 2.1368892,8.18060942 2.11313019,8.19003324 C1.9661385,8.24832133 1.81343767,8.29292244 1.66886427,8.35632133 C1.52441551,8.41969529 1.38727147,8.49982271 1.24671191,8.57272022 C0.501955679,7.28681717 0.592778393,5.1066482 2.29008864,3.79815789 C4.00392798,2.47697784 6.28289751,2.91114681 7.45853186,4.2921108 L7.45853186,4.2921108 Z" id="Combined-Shape"></path>
                            </g>
                        </g>
                    </g>
                </g>
            </g>
        </g>
    </g>
</svg>