<?xml version="1.0" encoding="UTF-8"?>
<svg width="18px" height="15px" viewBox="0 0 18 15" version="1.1" xmlns="http://www.w3.org/2000/svg" xmlns:xlink="http://www.w3.org/1999/xlink">
    <!-- Generator: Sketch 46.2 (44496) - http://www.bohemiancoding.com/sketch -->
    <title>icon_list_voice</title>
    <desc>Created with Sketch.</desc>
    <defs></defs>
    <g id="样式整理概览" stroke="none" stroke-width="1" fill="none" fill-rule="evenodd">
        <g id="组件2-图标-弹出消息框" transform="translate(-458.000000, -628.000000)" fill-rule="nonzero" fill="#A8C6DF">
            <g id="图标2" transform="translate(100.000000, 226.000000)">
                <g id="普通图标-18px" transform="translate(30.000000, 275.000000)">
                    <g id="18" transform="translate(78.000000, 125.000000)">
                        <g id="弹出图标/icon_list_voice" transform="translate(250.000000, 0.000000)">
                            <g id="icon_list_voice">
                                <path d="M3.91002507,5.34241623 L3.91002507,13.1624664 L1.30197318,13.1624664 C0.58290328,13.1624664 0,12.5746919 0,11.871148 L0,6.63375089 C0,5.92056231 0.576940491,5.34243252 1.30197318,5.34243252 L3.91002507,5.34243252 L3.91002507,5.34241623 Z M8.08091399,2.21424954 C8.65664889,1.78243615 9.12339184,2.02640542 9.12339184,2.73895862 L9.12339184,15.765924 C9.12339184,16.4875191 8.66073812,16.725493 8.08091399,16.2906331 L3.91002507,13.1624664 L3.91002507,5.34241623 L8.08091399,2.21424954 Z M15.4232568,15.4732586 C18.8589144,12.037601 18.8589144,6.46728157 15.4232568,3.03164029 C15.0414917,2.6499078 14.4225999,2.6499078 14.0408512,3.03164029 C13.6590861,3.41340536 13.6590861,4.03229716 14.0408512,4.41404594 C16.7130275,7.08622224 16.7130275,11.4186929 14.0408512,14.0908692 C13.6590861,14.4726343 13.6590861,15.0915261 14.0408512,15.4732749 C14.4225837,15.85504 15.041508,15.85504 15.4232568,15.4732749 L15.4232568,15.4732749 L15.4232568,15.4732586 Z M12.6584618,12.7084473 C14.5671568,10.799736 14.5671568,7.70513034 12.6584618,5.79641902 C12.2766967,5.41465394 11.6578049,5.41465394 11.2760561,5.79641902 C10.8943237,6.17815151 10.8943237,6.79707589 11.2760561,7.17882467 C12.4212862,8.32405472 12.4212862,10.1808279 11.2760561,11.3260253 C10.8943237,11.7077904 10.8943237,12.3266822 11.2760561,12.708431 C11.6578212,13.0901961 12.276713,13.0901961 12.6584618,12.708431 L12.6584618,12.708431 L12.6584618,12.7084473 Z" id="Shape"></path>
                            </g>
                        </g>
                    </g>
                </g>
            </g>
        </g>
    </g>
</svg>