<?xml version="1.0" encoding="UTF-8"?>
<svg width="14px" height="14px" viewBox="0 0 14 14" version="1.1" xmlns="http://www.w3.org/2000/svg" xmlns:xlink="http://www.w3.org/1999/xlink">
    <!-- Generator: Sketch 46.2 (44496) - http://www.bohemiancoding.com/sketch -->
    <title>icon_home_full_screen 14px</title>
    <desc>Created with Sketch.</desc>
    <defs></defs>
    <g id="样式整理概览" stroke="none" stroke-width="1" fill="none" fill-rule="evenodd">
        <g id="组件2-图标-弹出消息框" transform="translate(-208.000000, -862.000000)" fill-rule="nonzero" fill="#A8C6DF">
            <g id="图标2" transform="translate(100.000000, 226.000000)">
                <g id="普通图标-14px" transform="translate(30.000000, 633.000000)">
                    <g id="弹出图标/icon_home_full_screen-14px" transform="translate(78.000000, 3.000000)">
                        <g id="icon_home_full_screen-14px">
                            <path d="M4.22057777,5.70639938 L5.70470357,4.22225409 L3.11011485,1.62731451 L4.74009977,0.00532133365 L0.00360603196,0.00532133365 L0,4.73456403 L1.6189719,3.10498844 L4.22057777,5.70639938 Z M12.3810476,10.895187 L9.77942223,8.29377604 L8.29529643,9.77788235 L10.8898851,12.3728609 L9.25991972,13.9948541 L13.996394,13.9948541 L14,9.26559191 L12.3810476,10.895187 Z M9.77790185,5.704879 L12.3728804,3.11030977 L13.9948736,4.7402752 L13.9948736,0.00380095261 L9.2656114,0 L10.895187,1.61895241 L8.29379554,4.2207532 L9.77790185,5.704879 Z M4.22227358,8.29527693 L1.62731451,10.8898657 L0.00532133365,9.25990023 L0.00532133365,13.996355 L4.73458352,14.0001754 L3.10498844,12.381223 L5.70641888,9.77942223 L4.22227358,8.29527693 Z" id="Shape"></path>
                        </g>
                    </g>
                </g>
            </g>
        </g>
    </g>
</svg>