<?xml version="1.0" encoding="UTF-8"?>
<svg width="14px" height="14px" viewBox="0 0 14 14" version="1.1" xmlns="http://www.w3.org/2000/svg" xmlns:xlink="http://www.w3.org/1999/xlink">
    <!-- Generator: Sketch 46.2 (44496) - http://www.bohemiancoding.com/sketch -->
    <title>icon_list_time_gray 14px</title>
    <desc>Created with Sketch.</desc>
    <defs></defs>
    <g id="正式页面" stroke="none" stroke-width="1" fill="none" fill-rule="evenodd">
        <g id="5.0-车辆监控-通知中心" transform="translate(-750.000000, -487.000000)" fill="#A8C6DF">
            <g id="左" transform="translate(155.000000, 154.000000)">
                <g id="弹出/通知中心/1-copy" transform="translate(565.000000, 156.000000)">
                    <g id="列表/图标/icon_list_time_gray" transform="translate(30.000000, 177.000000)">
                        <g id="icon_list_time_gray-14px">
                            <path d="M7.57103253,8.52777778 L4.61111111,8.52777778 C4.19689755,8.52777778 3.86111111,8.19199134 3.86111111,7.77777778 C3.86111111,7.36356422 4.19689755,7.02777778 4.61111111,7.02777778 L7,7.02777778 L7,4.66666667 C7,4.23711186 7.34822297,3.88888889 7.77777778,3.88888889 L7.77777778,3.88888889 L7.77777778,3.88888889 C8.20733258,3.88888889 8.55555556,4.23711186 8.55555556,4.66666667 L8.55555556,7.77777778 C8.55555556,8.20733258 8.20733258,8.55555556 7.77777778,8.55555556 C7.70619216,8.55555556 7.63686532,8.54588455 7.57103253,8.52777778 Z M7,14 C3.13400675,14 0,10.8659932 0,7 C0,3.13400675 3.13400675,0 7,0 C10.8659932,0 14,3.13400675 14,7 C14,10.8659932 10.8659932,14 7,14 Z M7,12.4444444 C10.0068836,12.4444444 12.4444444,10.0068836 12.4444444,7 C12.4444444,3.99311636 10.0068836,1.55555556 7,1.55555556 C3.99311636,1.55555556 1.55555556,3.99311636 1.55555556,7 C1.55555556,10.0068836 3.99311636,12.4444444 7,12.4444444 Z" id="Combined-Shape"></path>
                        </g>
                    </g>
                </g>
            </g>
        </g>
    </g>
</svg>