<?xml version="1.0" encoding="UTF-8"?>
<svg width="18px" height="18px" viewBox="0 0 18 18" version="1.1" xmlns="http://www.w3.org/2000/svg" xmlns:xlink="http://www.w3.org/1999/xlink">
    <!-- Generator: Sketch 46.2 (44496) - http://www.bohemiancoding.com/sketch -->
    <title>icon_popup_heating</title>
    <desc>Created with Sketch.</desc>
    <defs></defs>
    <g id="正式页面" stroke="none" stroke-width="1" fill="none" fill-rule="evenodd">
        <g id="1.7-车辆监控-结果详情" transform="translate(-300.000000, -234.000000)" fill-rule="nonzero" fill="#A8C6DF">
            <g id="左侧菜单/地图监控/车辆-筛选展开1" transform="translate(80.000000, 178.000000)">
                <g id="树状筛选">
                    <g id="Group">
                        <g id="车辆标签" transform="translate(0.000000, 40.000000)">
                            <g id="123456" transform="translate(108.000000, 16.000000)">
                                <g id="弹出图标/icon_popup_heating" transform="translate(112.000000, 0.000000)">
                                    <g id="icon_popup_heating">
                                        <g id="太阳">
                                            <path d="M15.3606705,6.36229273 L15.3606705,2.63121845 L11.6295963,2.63121845 L8.99837779,0 L6.36229273,2.63608508 L2.63121845,2.63608508 L2.63121845,6.36715934 L0,8.99837779 L2.63608508,11.6328407 L2.63608508,15.3639149 L6.36715934,15.3639149 L9.00324441,18 L11.6328407,15.3606705 L15.3639149,15.3606705 L15.3639149,11.6295963 L18,8.99351118 L15.3606705,6.36229273 Z M8.99837779,13.9509733 C6.26577215,13.9491814 4.05167497,11.7331476 4.05227226,9.00054144 C4.05286955,6.26793528 6.26793528,4.05286955 9.00054144,4.05227226 C11.7331476,4.05167497 13.9491814,6.26577215 13.9509733,8.99837779 C13.9518348,10.3121517 13.4303216,11.5723644 12.501343,12.501343 C11.5723644,13.4303216 10.3121517,13.9518348 8.99837779,13.9509733 Z" id="Shape"></path>
                                            <path d="M8.99837779,12.4601658 C10.9790916,12.4601658 12.5866979,10.9790916 12.5866979,9.15086517 L5.41005768,9.15086517 C5.41005768,10.9774693 7.01604181,12.4601658 8.99837779,12.4601658 Z" id="Shape"></path>
                                            <path d="M6.37851479,6.9057318 C6.37847458,7.16308255 6.51574648,7.40090166 6.73861208,7.52958864 C6.96147767,7.65827562 7.23607101,7.65827562 7.4589366,7.52958864 C7.68180219,7.40090166 7.81907409,7.16308255 7.81903389,6.9057318 C7.81907409,6.64838105 7.68180219,6.41056194 7.4589366,6.28187496 C7.23607101,6.15318797 6.96147767,6.15318797 6.73861208,6.28187496 C6.51574648,6.41056194 6.37847458,6.64838105 6.37851479,6.9057318 L6.37851479,6.9057318 Z" id="Shape"></path>
                                            <path d="M10.361031,6.9057318 C10.361031,7.30352017 10.6835022,7.62599136 11.0812906,7.62599136 C11.4790789,7.62599136 11.8015501,7.30352017 11.8015501,6.9057318 C11.8015501,6.50794343 11.4790789,6.18547224 11.0812906,6.18547224 C10.6835022,6.18547224 10.361031,6.50794343 10.361031,6.9057318 L10.361031,6.9057318 Z" id="Shape"></path>
                                        </g>
                                    </g>
                                </g>
                            </g>
                        </g>
                    </g>
                </g>
            </g>
        </g>
    </g>
</svg>