<?xml version="1.0" encoding="UTF-8"?>
<svg width="18px" height="18px" viewBox="0 0 18 18" version="1.1" xmlns="http://www.w3.org/2000/svg" xmlns:xlink="http://www.w3.org/1999/xlink">
    <!-- Generator: Sketch 46.2 (44496) - http://www.bohemiancoding.com/sketch -->
    <title>icon_menu_left_monitoring_room_a</title>
    <desc>Created with Sketch.</desc>
    <defs></defs>
    <g id="样式整理概览" stroke="none" stroke-width="1" fill="none" fill-rule="evenodd">
        <g id="组件2-图标-弹出消息框" transform="translate(-417.000000, -433.000000)" fill-rule="nonzero" fill="#8DABC4">
            <g id="图标2" transform="translate(100.000000, 226.000000)">
                <g id="菜单图标" transform="translate(30.000000, 207.000000)">
                    <g id="icon/menu/left/监控室-小灰" transform="translate(287.000000, 0.000000)">
                        <g id="icon_menu_left_monitoring_room_a">
                            <path d="M1.08628533,9.60419741 L0,9.4125 L0,17.2875 L1.24532012,16.8479753 L1.24532012,16.8479753 C1.64513176,16.7068653 1.9125,16.3289677 1.9125,15.9049849 L1.9125,13.9125 L4.41481624,13.9125 L4.41481624,13.9125 C4.74916943,13.9125 5.06140076,13.7453989 5.24686654,13.4672002 L6.3,11.8875 L4.6125,10.875 L4.11440857,11.728871 L4.11440857,11.728871 C3.93519824,12.0360887 3.60629673,12.225 3.25062967,12.225 L1.9125,12.225 L1.9125,10.588981 L1.9125,10.588981 C1.9125,10.1037399 1.56414276,9.68852519 1.08628533,9.60419741 Z M16.8350234,8.98608093 L4.275,0.75 L2.7,0.75 L0.5625,4.125 L0.5625,5.25 L12.5266306,12.9333866 L12.5266306,12.9333866 C12.7196554,13.0573475 12.9494315,13.1111743 13.1774295,13.0858412 L13.5548669,13.0439037 L13.5548669,13.0439037 C13.7396263,13.0233749 13.9150061,12.951752 14.061317,12.8370759 L16.9035481,10.6093812 L16.9035481,10.6093812 C17.3382271,10.2686869 17.4144167,9.64012261 17.0737224,9.20544363 C17.006617,9.11982642 16.9259914,9.04573208 16.8350234,8.98608093 Z M0.5625,5.925 L0.5625,7.725 L12.6937972,15.3346319 L12.6937972,15.3346319 C12.8530366,15.4345184 13.0372052,15.4875 13.2251799,15.4875 L13.6647524,15.4875 L13.6647524,15.4875 C13.9194259,15.4875 14.1636686,15.3863314 14.34375,15.20625 L14.4580747,15.0919253 L14.4580747,15.0919253 C14.5678496,14.9821504 14.6505584,14.8483247 14.6996512,14.7010463 L14.90625,14.08125 L14.90625,14.08125 C14.959545,13.9213651 14.8731368,13.7485487 14.7132519,13.6952538 C14.6239158,13.6654751 14.5258352,13.6786099 14.4474823,13.7308451 L14.0486508,13.9967328 L14.0486508,13.9967328 C13.7158073,14.2186285 13.2827506,14.2208156 12.9476828,14.0022931 C8.81928853,11.3098621 4.69089426,8.61743104 0.5625,5.925 Z" id="Shape"></path>
                        </g>
                    </g>
                </g>
            </g>
        </g>
    </g>
</svg>