<?xml version="1.0" encoding="UTF-8"?>
<svg width="16px" height="16px" viewBox="0 0 16 16" version="1.1" xmlns="http://www.w3.org/2000/svg" xmlns:xlink="http://www.w3.org/1999/xlink">
    <!-- Generator: Sketch 46.2 (44496) - http://www.bohemiancoding.com/sketch -->
    <title>icon_popup_power</title>
    <desc>Created with Sketch.</desc>
    <defs></defs>
    <g id="正式页面" stroke="none" stroke-width="1" fill="none" fill-rule="evenodd">
        <g id="1.7-车辆监控-结果详情" transform="translate(-329.000000, -235.000000)" fill-rule="nonzero" fill="#A8C6DF">
            <g id="左侧菜单/地图监控/车辆-筛选展开1" transform="translate(80.000000, 178.000000)">
                <g id="树状筛选">
                    <g id="Group">
                        <g id="车辆标签" transform="translate(0.000000, 40.000000)">
                            <g id="123456" transform="translate(108.000000, 16.000000)">
                                <g id="弹出图标/icon_popup_power" transform="translate(140.000000, 0.000000)">
                                    <g id="icon_popup_power">
                                        <path d="M1,2 L1,16 L1,16 C1,16.5522847 1.44771525,17 2,17 L16,17 L16,17 C16.5522847,17 17,16.5522847 17,16 L17,2 L17,2 C17,1.44771525 16.5522847,1 16,1 L2,1 L2,1 C1.44771525,1 1,1.44771525 1,2 Z M4.72520421,7.34112 C4.72520421,7.32171789 4.74460632,7.32171789 4.74460632,7.31201684 L9.16828632,2.08314947 C9.18768842,2.06374737 9.21679158,2.03464421 9.23619368,2.02494316 C9.26529684,1.99584 9.39141053,1.93763368 9.52722526,1.93763368 C9.64363789,1.93763368 9.76975158,1.98613895 9.83765895,2.07344842 C9.92496842,2.18016 9.95407158,2.32567579 9.94437053,2.50029474 L9.94437053,2.52939789 L9.34290526,5.45911579 L11.6614568,5.47851789 C11.8845811,5.49792 11.9718905,5.63373474 12.0009937,5.67253895 C12.0883032,5.86656 11.9815916,6.06058105 11.9524884,6.09938526 C11.9330863,6.11878737 11.9330863,6.12848842 11.9233853,6.14789053 L6.76242526,11.6192842 C6.73332211,11.6483874 6.70421895,11.6774905 6.65571368,11.6871916 C6.56840421,11.7356968 6.48109474,11.7453979 6.40348632,11.7453979 C6.28707368,11.7453979 6.16096,11.6968926 6.09305263,11.6095832 C5.97664,11.4737684 5.98634105,11.3185516 5.98634105,11.2700463 C5.98634105,11.2506442 6.00574316,11.2215411 6.00574316,11.21184 L7.13106526,7.93288421 L5.10354526,7.93288421 L5.07444211,7.93288421 C4.83191579,7.93288421 4.73490526,7.79706947 4.6864,7.72916211 C4.60879158,7.60304842 4.63789474,7.44783158 4.72520421,7.34112 Z M14.9785659,14 L2.99681684,14 L2.99681684,13 L14.9968168,13 L14.9968168,14 L14.9785659,14 Z M3.99681684,15.5 C3.99681684,15.7785714 3.77538827,16 3.49681684,16 C3.21824541,16 2.99681684,15.7785714 2.99681684,15.5 C2.99681684,15.2214286 3.21824541,15 3.49681684,15 C3.77538827,15 3.99681684,15.2285714 3.99681684,15.5 Z M5.99681684,15.5 C5.99681684,15.7785714 5.77538827,16 5.49681684,16 C5.22538827,16 4.99681684,15.7785714 4.99681684,15.5 C4.99681684,15.2214286 5.22538827,15 5.49681684,15 C5.77538827,15 5.99681684,15.2285714 5.99681684,15.5 L5.99681684,15.5 Z" id="Shape"></path>
                                    </g>
                                </g>
                            </g>
                        </g>
                    </g>
                </g>
            </g>
        </g>
    </g>
</svg>