<?xml version="1.0" encoding="UTF-8"?>
<svg width="14px" height="14px" viewBox="0 0 14 14" version="1.1" xmlns="http://www.w3.org/2000/svg" xmlns:xlink="http://www.w3.org/1999/xlink">
    <!-- Generator: Sketch 46.2 (44496) - http://www.bohemiancoding.com/sketch -->
    <title>Icon_colored_disable</title>
    <desc>Created with Sketch.</desc>
    <defs></defs>
    <g id="样式整理概览" stroke="none" stroke-width="1" fill="none" fill-rule="evenodd">
        <g id="组件2-图标-弹出消息框" transform="translate(-1014.000000, -324.000000)">
            <g id="图标2" transform="translate(100.000000, 226.000000)">
                <g id="彩色图标" transform="translate(30.000000, 92.000000)">
                    <g id="彩" transform="translate(83.000000, 0.000000)">
                        <g id="Icons-Colored-/-Disable" transform="translate(801.000000, 6.000000)">
                            <circle id="Oval" fill="#FF151F" cx="7" cy="7" r="6"></circle>
                            <path d="M6,9.5 L6,4.5 L6,4.5 C6,4.22385763 6.22385763,4 6.5,4 L7.5,4 L7.5,4 C7.77614237,4 8,4.22385763 8,4.5 L8,9.5 L8,9.5 C8,9.77614237 7.77614237,10 7.5,10 L6.5,10 L6.5,10 C6.22385763,10 6,9.77614237 6,9.5 Z" id="Shape" fill="#FFFFFF" transform="translate(7.000000, 7.000000) rotate(-45.000000) translate(-7.000000, -7.000000) "></path>
                        </g>
                    </g>
                </g>
            </g>
        </g>
    </g>
</svg>