<?xml version="1.0" encoding="UTF-8"?>
<svg width="18px" height="18px" viewBox="0 0 18 18" version="1.1" xmlns="http://www.w3.org/2000/svg" xmlns:xlink="http://www.w3.org/1999/xlink">
    <!-- Generator: Sketch 46.2 (44496) - http://www.bohemiancoding.com/sketch -->
    <title>icon_messages_filled_white</title>
    <desc>Created with Sketch.</desc>
    <defs></defs>
    <g id="正式页面" stroke="none" stroke-width="1" fill="none" fill-rule="evenodd">
        <g id="1.0-默认" transform="translate(-1373.000000, -833.000000)" fill="#FFFFFF">
            <g id="Round-Buttons-/-Chat" transform="translate(1354.000000, 814.000000)">
                <g id="Icons-White-/-Messages" transform="translate(19.000000, 19.000000)">
                    <path d="M13.5,9 L13.5,0.9 C13.5,0.405 13.095,-2.13162821e-14 12.6,-2.13162821e-14 L0.9,-2.13162821e-14 C0.405,-2.13162821e-14 1.77635684e-15,0.405 1.77635684e-15,0.9 L1.77635684e-15,13.5 L3.6,9.9 L12.6,9.9 C13.095,9.9 13.5,9.495 13.5,9 M17.1,3.6 L15.3,3.6 L15.3,11.7 L3.6,11.7 L3.6,13.5 C3.6,13.995 4.005,14.4 4.5,14.4 L14.4,14.4 L18,18 L18,4.5 C18,4.005 17.595,3.6 17.1,3.6" id="Icon"></path>
                </g>
            </g>
        </g>
    </g>
</svg>