<?xml version="1.0" encoding="UTF-8"?>
<svg width="24px" height="22px" viewBox="0 0 24 22" version="1.1" xmlns="http://www.w3.org/2000/svg" xmlns:xlink="http://www.w3.org/1999/xlink">
    <!-- Generator: Sketch 46.2 (44496) - http://www.bohemiancoding.com/sketch -->
    <title>icon_menu_left_business_setting_a</title>
    <desc>Created with Sketch.</desc>
    <defs></defs>
    <g id="正式页面" stroke="none" stroke-width="1" fill="none" fill-rule="evenodd">
        <g id="1.0-默认" transform="translate(-18.000000, -374.000000)" fill-rule="nonzero" fill="#8DABC4">
            <g id="Sidebars-/-#3">
                <g id="左侧菜单/应用市场-copy" transform="translate(0.000000, 360.000000)">
                    <g id="icon/menu/left/故障监控" transform="translate(16.000000, 13.000000)">
                        <g id="icon_menu_left_business_setting_a" transform="translate(0.666667, 0.000000)">
                            <path d="M19.2956957,5.99752608 L19.2956957,2.33333333 L19.2956957,2.33333333 C19.2956957,1.78104858 18.8479805,1.33333333 18.2956957,1.33333333 L8.37091342,1.33333333 L8.37091342,1.33333333 C7.81862867,1.33333333 7.37091342,1.78104858 7.37091342,2.33333333 L7.37091342,5.99752608 L2.33333311,5.99417685 L2.33333355,5.99351222 C1.78104893,5.99314503 1.33303611,6.44056252 1.33266893,6.99284715 C1.33266878,6.99306876 1.33266871,6.99329038 1.33266871,6.993512 L1.33333333,12.0895344 L10.3479526,12.0895344 L10.3479526,10.4775882 L16.189679,10.4775882 L16.189679,12.0895344 L25.3332758,12.0895344 L25.3332758,6.993512 L25.3339404,6.993512 C25.3339404,6.44122725 24.8862252,5.993512 24.3339404,5.993512 C24.3337188,5.993512 24.3334972,5.99351207 24.3332756,5.99351222 L19.2956957,5.99752608 Z M16.189679,5.99752608 L10.4770164,5.99752608 L10.4770164,4.24802384 L16.189679,4.24802384 L16.189679,5.99752608 Z M10.4124989,16.4088517 L10.4124989,13.4432492 L1.33333333,13.4432492 L1.33333333,21.6666667 L1.33333333,21.6666667 C1.33333333,22.2189514 1.78104858,22.6666667 2.33333333,22.6666667 L24.3333333,22.6666667 L24.3333333,22.6666667 C24.8856181,22.6666667 25.3333333,22.2189514 25.3333333,21.6666667 L25.3333333,13.4432784 L16.2541678,13.4432784 L16.2541678,16.4088517 L10.4124989,16.4088517 Z" id="Shape"></path>
                        </g>
                    </g>
                </g>
            </g>
        </g>
    </g>
</svg>