<?xml version="1.0" encoding="UTF-8"?>
<svg width="18px" height="18px" viewBox="0 0 18 18" version="1.1" xmlns="http://www.w3.org/2000/svg" xmlns:xlink="http://www.w3.org/1999/xlink">
    <!-- Generator: Sketch 46.2 (44496) - http://www.bohemiancoding.com/sketch -->
    <title>icon_list_drag_blue</title>
    <desc>Created with Sketch.</desc>
    <defs></defs>
    <g id="正式页面" stroke="none" stroke-width="1" fill="none" fill-rule="evenodd">
        <g id="4.1-资源管理-线路管理" transform="translate(-490.000000, -845.000000)" fill-rule="nonzero" fill="#0093EE">
            <g id="内容" transform="translate(184.000000, 156.000000)">
                <g id="反馈内容" transform="translate(285.000000, 0.000000)">
                    <g id="故障列表" transform="translate(0.000000, 598.000000)">
                        <g id="中" transform="translate(0.000000, 80.000000)">
                            <g id="Table-/-List-/-Type-5">
                                <g id="弹出图标/icon_popup_edit-14px" transform="translate(21.000000, 11.000000)">
                                    <g id="icon_list_drag_blue">
                                        <path d="M6.61763809,7.89119947 L7.88974592,6.61907493 L5.66581273,4.39484101 L7.06294266,3.00456114 L3.00309088,3.00456114 L3,7.05819774 L4.3876902,5.66141866 L6.61763809,7.89119947 Z M13.6123265,12.3387317 L11.3823619,10.1089509 L10.1102541,11.381042 L12.3341873,13.6053094 L10.937074,14.9955892 L14.9969091,14.9955892 L15,10.9419359 L13.6123265,12.3387317 Z M11.3810587,7.88989629 L13.6053261,5.6659798 L14.9956059,7.06309303 L14.9956059,3.00325796 L10.9419526,3 L12.3387317,4.3876735 L10.1089676,6.61778846 L11.3810587,7.88989629 Z M6.61909164,10.1102374 L4.39484101,12.3341706 L3.00456114,10.9370573 L3.00456114,14.9968757 L7.05821444,15.0001504 L5.66141866,13.6124769 L7.89121618,11.3823619 L6.61909164,10.1102374 Z" id="Shape" transform="translate(9.000000, 9.000075) rotate(45.000000) translate(-9.000000, -9.000075) "></path>
                                    </g>
                                </g>
                            </g>
                        </g>
                    </g>
                </g>
            </g>
        </g>
    </g>
</svg>