<?xml version="1.0" encoding="UTF-8"?>
<svg width="14px" height="14px" viewBox="0 0 14 14" version="1.1" xmlns="http://www.w3.org/2000/svg" xmlns:xlink="http://www.w3.org/1999/xlink">
    <!-- Generator: Sketch 46.2 (44496) - http://www.bohemiancoding.com/sketch -->
    <title>icon_popup_bus_orange 14px</title>
    <desc>Created with Sketch.</desc>
    <defs></defs>
    <g id="样式整理概览" stroke="none" stroke-width="1" fill="none" fill-rule="evenodd">
        <g id="组件2-图标-弹出消息框" transform="translate(-1019.000000, -367.000000)" fill="#FD7B1F">
            <g id="图标2" transform="translate(100.000000, 226.000000)">
                <g id="彩色图标" transform="translate(30.000000, 92.000000)">
                    <g id="彩14" transform="translate(693.000000, 49.000000)">
                        <g id="弹出图标/icon_popup_bus_orange-14px" transform="translate(196.000000, 0.000000)">
                            <g id="icon_popup_bus_orange-14px">
                                <path d="M11.6666667,12.4444444 L11.6666667,14 L9.24358974,14 L9.24358974,12.4444444 L4.66666667,12.4444444 L4.66666667,14 L2.33333333,14 L2.33333333,12.4444444 L1.52564103,12.4444444 L1.52564103,5.44444444 L4.93432455e-17,5.44444444 L2.22044605e-16,2.33333333 L1.52564103,2.33333333 L1.52564103,-7.10542736e-15 L12.4444444,-1.57898386e-15 L12.4444444,12.4444444 L11.6666667,12.4444444 Z M12.4444444,2.33333333 L14,2.33333333 L14,5.44444444 L12.4444444,5.44444444 L12.4444444,2.33333333 Z M3.33333333,1.54807692 L3.33333333,1.54807692 C2.78104858,1.54807692 2.33333333,1.99579217 2.33333333,2.54807692 L2.33333333,2.54807692 L2.33333333,8.55555556 L11.6666667,8.55555556 L11.6666667,2.54807692 C11.6666667,1.99579217 11.2189514,1.54807692 10.6666667,1.54807692 L10.6666667,1.54807692 L3.33333333,1.54807692 Z M3.38034188,10.8888889 C3.80989669,10.8888889 4.15811966,10.5406659 4.15811966,10.1111111 C4.15811966,9.68155631 3.80989669,9.33333333 3.38034188,9.33333333 C2.95078707,9.33333333 2.6025641,9.68155631 2.6025641,10.1111111 C2.6025641,10.5406659 2.95078707,10.8888889 3.38034188,10.8888889 Z M10.5598291,10.8888889 C10.9893839,10.8888889 11.3376068,10.5406659 11.3376068,10.1111111 C11.3376068,9.68155631 10.9893839,9.33333333 10.5598291,9.33333333 C10.1302743,9.33333333 9.78205128,9.68155631 9.78205128,10.1111111 C9.78205128,10.5406659 10.1302743,10.8888889 10.5598291,10.8888889 Z" id="Combined-Shape"></path>
                            </g>
                        </g>
                    </g>
                </g>
            </g>
        </g>
    </g>
</svg>