<?xml version="1.0" encoding="UTF-8"?>
<svg width="16px" height="12px" viewBox="0 0 16 12" version="1.1" xmlns="http://www.w3.org/2000/svg" xmlns:xlink="http://www.w3.org/1999/xlink">
    <!-- Generator: Sketch 46.2 (44496) - http://www.bohemiancoding.com/sketch -->
    <title>icon_dashboard_brake_warning</title>
    <desc>Created with Sketch.</desc>
    <defs></defs>
    <g id="正式页面" stroke="none" stroke-width="1" fill="none" fill-rule="evenodd">
        <g id="1.8-车辆监控-结果详情-仪表盘" transform="translate(-843.000000, -290.000000)" fill-rule="nonzero" fill="#A8C6DF">
            <g id="弹出" transform="translate(298.000000, 182.000000)">
                <g id="表" transform="translate(36.000000, 90.000000)">
                    <g id="上" transform="translate(121.000000, 0.000000)">
                        <g id="故障" transform="translate(372.000000, 0.000000)">
                            <g id="汽车仪表图标/安全气囊-蓝灰" transform="translate(15.000000, 15.000000)">
                                <g id="icon_dashboard_brake_warning">
                                    <path d="M2.45453145,8.81820283 C2.45453145,7.48477963 2.85544616,6.24600534 3.54017283,5.21156874 L3.53817009,5.21029776 C3.63469274,5.0838454 3.68687866,4.92912171 3.68666201,4.77004068 C3.68666201,4.36837494 3.36102352,4.04277496 2.95939629,4.04277496 C2.67974388,4.04277496 2.43708447,4.20070289 2.31537925,4.43213538 L2.31403124,4.43126881 C1.48549214,5.69141853 1,7.19730881 1,8.81818357 C1,10.4390198 1.48549214,11.9449101 2.31403124,13.2050983 L2.31545627,13.2041932 C2.44694413,13.3922394 2.66493513,13.5153504 2.91181186,13.5153504 C3.31345834,13.5153504 3.63907758,13.1897504 3.63907758,12.7880846 C3.63907758,12.6213177 3.58282743,12.4677804 3.48842886,12.3451123 C2.83536095,11.3270058 2.45453145,10.1175794 2.45453145,8.81820283 Z M15.6934598,4.44288087 C15.5678646,4.22490913 15.332677,4.07807332 15.0630576,4.07807332 C14.6613918,4.07807332 14.3357533,4.4036733 14.3357533,4.80533905 C14.3355324,4.95092508 14.3792153,5.09319483 14.4610981,5.21357148 C15.145016,6.24760369 15.5454493,7.4856462 15.5454493,8.81820283 C15.5454493,10.1126881 15.1675469,11.3179741 14.5190237,12.3337121 C14.502351,12.356397 14.4870032,12.3800264 14.4730568,12.4044821 C14.4684544,12.4114917 14.4639867,12.4185783 14.459365,12.4255687 L14.4609056,12.4265508 C14.4059786,12.5308029 14.3773355,12.6468891 14.3774643,12.7647257 C14.3774643,13.1663914 14.7031028,13.4919914 15.1047686,13.4919914 C15.3411501,13.4919914 15.5511109,13.3791445 15.6839468,13.2044436 L15.6856799,13.2055412 C15.6929013,13.1945647 15.6998724,13.183434 15.7070361,13.1724189 C15.7112727,13.1661796 15.7152589,13.1597862 15.7193029,13.1534121 C16.5273716,11.9037961 17,10.4170281 17,8.81818357 C17.0000193,7.20227716 16.5173772,5.70070048 15.6934598,4.44288087 L15.6934598,4.44288087 Z M9,3 L9,3 C12.2132874,3 14.8182028,5.60487687 14.8182028,8.81820283 C14.8182028,10.8140144 13.8123246,12.5739258 12.2808223,13.6219195 L12.2776448,13.6178947 C12.0912163,13.7665599 11.8551814,13.8556436 11.5981946,13.8556436 C10.9957153,13.8556436 10.5073153,13.3672051 10.5073153,12.7647257 C10.5073153,12.4140722 10.6729268,12.1022796 10.9299906,11.9027177 L10.9265051,11.8982885 C11.9521797,11.2553306 12.6363286,10.1180223 12.6363286,8.81820283 C12.6363286,6.80987411 11.0082902,5.18183569 9,5.18183569 C6.99167128,5.18183569 5.36363286,6.80987411 5.36363286,8.81820283 C5.36363286,10.1594829 6.09186144,11.3281419 7.17251523,11.9584671 L7.17072431,11.9609706 C7.46214284,12.1568158 7.65394411,12.4895024 7.65394411,12.8670197 C7.65394411,13.4694991 7.16550562,13.9579376 6.56302626,13.9579376 C6.32461876,13.9582654 6.09272913,13.8801252 5.90314132,13.7355752 L5.90213995,13.736981 C4.26953759,12.7065498 3.18175866,10.8914859 3.18175866,8.81820283 C3.18175866,5.60487687 5.78667405,3 9,3 Z M8.9923164,6.28889103 C9.59479575,6.28889103 10.0832342,6.777291 10.0832342,7.37980887 L10.0832342,10.6525431 C10.0832342,11.255061 9.59479575,11.743461 8.9923164,11.743461 C8.38979852,11.743461 7.90136004,11.255061 7.90136004,10.6525431 L7.90136004,7.37980887 C7.90137929,6.77731026 8.38981778,6.28889103 8.9923164,6.28889103 Z M8.9923164,12.4707267 C9.59479575,12.4707267 10.0832342,12.9591267 10.0832342,13.5616446 C10.0832342,14.1641239 9.59479575,14.6525624 8.9923164,14.6525624 C8.38979852,14.6525624 7.90136004,14.1641239 7.90136004,13.5616446 C7.90137929,12.9591267 8.38981778,12.4707267 8.9923164,12.4707267 Z" id="Combined-Shape"></path>
                                </g>
                            </g>
                        </g>
                    </g>
                </g>
            </g>
        </g>
    </g>
</svg>