<?xml version="1.0" encoding="UTF-8"?>
<svg width="18px" height="15px" viewBox="0 0 18 15" version="1.1" xmlns="http://www.w3.org/2000/svg" xmlns:xlink="http://www.w3.org/1999/xlink">
    <!-- Generator: Sketch 46.2 (44496) - http://www.bohemiancoding.com/sketch -->
    <title>icon_popup_air_conditioner</title>
    <desc>Created with Sketch.</desc>
    <defs></defs>
    <g id="正式页面" stroke="none" stroke-width="1" fill="none" fill-rule="evenodd">
        <g id="1.7-车辆监控-结果详情" transform="translate(-244.000000, -235.000000)" fill-rule="nonzero" fill="#A8C6DF">
            <g id="左侧菜单/地图监控/车辆-筛选展开1" transform="translate(80.000000, 178.000000)">
                <g id="树状筛选">
                    <g id="Group">
                        <g id="车辆标签" transform="translate(0.000000, 40.000000)">
                            <g id="123456" transform="translate(108.000000, 16.000000)">
                                <g id="弹出图标/icon_popup_air_conditioner-14px" transform="translate(56.000000, 0.000000)">
                                    <g id="icon_popup_air_conditioner">
                                        <path d="M17.7848521,1.39743522 C17.7848521,1.17885161 17.6060005,1 17.3874169,1 L9.15701819,1 L8.84298178,1 L0.612583075,1 C0.393999458,1 0.215147851,1.17885161 0.215147851,1.39743522 L0,5.66964319 L0.215147851,9.94187033 C0.215147851,10.160454 0.393999458,10.3393056 0.612583075,10.3393056 L1.93734798,10.3393056 L1.93734798,9.23417995 L16.1648804,9.23417995 L16.1648804,10.3393056 L17.3874169,10.3393056 C17.6060005,10.3393056 17.7848521,10.160454 17.7848521,9.94187033 L18,5.66966237 L17.7848521,1.39743522 Z M13.5788066,5.29541375 L1.93734798,5.29541375 L1.93734798,3.98105211 L13.5788066,3.98105211 L13.5788066,5.29541375 Z M15.5077091,5.34508835 C15.1447659,5.34508835 14.8505379,5.05086036 14.8505379,4.68791712 C14.8505379,4.32497388 15.1447659,4.03074589 15.5077091,4.03074589 C15.8706524,4.03074589 16.1648804,4.32497388 16.1648804,4.68791712 C16.1648803,5.05086038 15.8706524,5.34508835 15.5077091,5.34508835 Z M2.2533038,9.54568274 L15.746677,9.54568274 L15.746677,10.6722675 L2.2533038,10.6722675 L2.2533038,9.54568274 Z M2,12 L4,12 L5,16 L3,16 L2,12 Z M6,12 L8,12 L9,16 L7,16 L6,12 Z M10,12 L12,12 L13,16 L11,16 L10,12 Z M14,12 L16,12 L17,16 L15,16 L14,12 Z" id="Combined-Shape"></path>
                                    </g>
                                </g>
                            </g>
                        </g>
                    </g>
                </g>
            </g>
        </g>
    </g>
</svg>