<?xml version="1.0" encoding="UTF-8"?>
<svg width="12px" height="14px" viewBox="0 0 12 14" version="1.1" xmlns="http://www.w3.org/2000/svg" xmlns:xlink="http://www.w3.org/1999/xlink">
    <!-- Generator: Sketch 46.2 (44496) - http://www.bohemiancoding.com/sketch -->
    <title>icon_popup_position_white 14px</title>
    <desc>Created with Sketch.</desc>
    <defs></defs>
    <g id="正式页面" stroke="none" stroke-width="1" fill="none" fill-rule="evenodd" opacity="0.600000024">
        <g id="6.0-个人中心-个人设置" transform="translate(-405.000000, -168.000000)" fill="#FFFFFF">
            <g id="头像信息" transform="translate(155.000000, 124.000000)">
                <g id="弹出图标/icon_popup_position" transform="translate(249.000000, 44.000000)">
                    <g id="icon_popup_position_white-14px">
                        <path d="M2.531425,8.55555556 C1.91630041,7.67368507 1.55555556,6.601193 1.55555556,5.44444444 C1.55555556,2.43756081 3.99311636,0 7,0 C10.0068836,0 12.4444444,2.43756081 12.4444444,5.44444444 C12.4444444,6.601193 12.0836996,7.67368507 11.468575,8.55555556 L11.6666667,8.55555556 L7,14 L2.33333333,8.55555556 L2.531425,8.55555556 Z M7,7.77777778 C8.28866442,7.77777778 9.33333333,6.73310886 9.33333333,5.44444444 C9.33333333,4.15578003 8.28866442,3.11111111 7,3.11111111 C5.71133558,3.11111111 4.66666667,4.15578003 4.66666667,5.44444444 C4.66666667,6.73310886 5.71133558,7.77777778 7,7.77777778 Z" id="Combined-Shape"></path>
                    </g>
                </g>
            </g>
        </g>
    </g>
</svg>