<?xml version="1.0" encoding="UTF-8"?>
<svg width="14px" height="14px" viewBox="0 0 14 14" version="1.1" xmlns="http://www.w3.org/2000/svg" xmlns:xlink="http://www.w3.org/1999/xlink">
    <!-- Generator: Sketch 46.2 (44496) - http://www.bohemiancoding.com/sketch -->
    <title>icon_popup_fault 14px</title>
    <desc>Created with Sketch.</desc>
    <defs></defs>
    <g id="样式整理概览" stroke="none" stroke-width="1" fill="none" fill-rule="evenodd">
        <g id="组件2-图标-弹出消息框" transform="translate(-726.000000, -862.000000)" fill-rule="nonzero" fill="#A8C6DF">
            <g id="图标2" transform="translate(100.000000, 226.000000)">
                <g id="普通图标-14px" transform="translate(30.000000, 633.000000)">
                    <g id="弹出图标/icon_popup_fault-14px" transform="translate(596.000000, 3.000000)">
                        <g id="icon_popup_fault-14px">
                            <path d="M13.6677335,5.68220119 L12.8968253,5.92922594 C12.6939197,6.01163772 12.450475,5.88812535 12.3693619,5.68220119 C12.2882487,5.47627704 12.4098658,5.22921718 12.6128065,5.14691069 L13.3837147,4.89988594 C13.5866204,4.81747416 13.8300651,4.94109183 13.9111782,5.14691069 C13.9922913,5.39393545 13.870569,5.64099529 13.6677335,5.68220119 Z M1.33302717,5.06446381 C1.53586264,5.1467703 1.65758499,5.35258917 1.57647186,5.5997543 C1.49535873,5.76436727 1.29241796,5.88798495 1.04900837,5.84677907 L0.278100184,5.5997543 C0.0751594102,5.51734252 -0.0465278379,5.31148856 0.0345501953,5.06446381 C0.115768625,4.85853964 0.318604098,4.73502727 0.562154086,4.81733375 L1.33302717,5.06446381 Z M10.705753,1.52349483 C10.8274753,1.35877656 11.0707796,1.31757067 11.2738257,1.44108304 C11.4361572,1.56470072 11.4766611,1.81176058 11.3549388,2.01757944 L10.8680845,2.67638232 C10.7463622,2.8411006 10.5030579,2.88230649 10.3000118,2.7587941 C10.1376803,2.63528173 10.0971763,2.34701597 10.2188987,2.18229771 L10.705753,1.52349483 Z M3.11825311,2.63528173 L2.63139883,1.93527295 C2.50967649,1.77055468 2.55028571,1.52349482 2.71251196,1.35877656 C2.91545274,1.23526419 3.15886233,1.27647007 3.28058467,1.48228894 L3.76743895,2.14109182 C3.8892666,2.30581009 3.84865738,2.59407583 3.68632582,2.71758822 C3.48352545,2.8411006 3.23997546,2.79989471 3.11825311,2.63528173 L3.11825311,2.63528173 Z M6.60773228,1.23526417 L6.60773228,0.411743021 C6.60773228,0.164718258 6.77002874,0 7.01347343,0 C7.25691812,0 7.41921458,0.164718271 7.41921456,0.411743021 L7.41921456,1.23526417 C7.41921456,1.48228894 7.2569181,1.6470423 7.01347343,1.6470423 C6.77002875,1.6470423 6.60773228,1.48228894 6.60773228,1.23526417 Z M11.0708849,7.41154999 L11.0708849,11.5291207 L2.95606195,11.5291207 L2.95606195,7.41154999 C2.95606195,5.14691069 4.78189711,3.29404951 7.01347343,3.29404951 C9.24504975,3.29404951 11.0708849,5.14691069 11.0708849,7.41154999 Z M1.55555556,14 L1.55555556,12.3526418 L12.4444444,12.3526418 L12.4444444,14 L1.55555556,14 Z" id="Shape"></path>
                        </g>
                    </g>
                </g>
            </g>
        </g>
    </g>
</svg>