<?xml version="1.0" encoding="UTF-8"?>
<svg width="18px" height="18px" viewBox="0 0 18 18" version="1.1" xmlns="http://www.w3.org/2000/svg" xmlns:xlink="http://www.w3.org/1999/xlink">
    <!-- Generator: Sketch 46.2 (44496) - http://www.bohemiancoding.com/sketch -->
    <title>icon_list_search_gray</title>
    <desc>Created with Sketch.</desc>
    <defs></defs>
    <g id="正式页面" stroke="none" stroke-width="1" fill="none" fill-rule="evenodd">
        <g id="1.0-默认" transform="translate(-950.000000, -21.000000)" fill="#A8C6DF">
            <g id="Top-Bar-/-#11">
                <g id="Group" transform="translate(934.000000, 15.000000)">
                    <g id="列表/图标/icon_list_search_gray" transform="translate(16.000000, 6.000000)">
                        <g id="icon_list_search_gray">
                            <path d="M13.9470765,11.4428911 L17.559276,15.0550905 C18.146908,15.6427226 18.146908,16.5954624 17.559276,17.1830944 C16.9716439,17.7707265 16.0189041,17.7707265 15.431272,17.1830944 L11.8955444,13.6473668 C10.6633489,14.5286396 9.15405466,15.0472602 7.52363009,15.0472602 C3.36844393,15.0472602 0,11.6788163 0,7.52363009 C0,3.36844393 3.36844393,0 7.52363009,0 C11.6788163,0 15.0472602,3.36844393 15.0472602,7.52363009 C15.0472602,8.95950981 14.6450209,10.3014415 13.9470765,11.4428911 Z M7.52363009,12.7901712 C10.4322604,12.7901712 12.7901712,10.4322604 12.7901712,7.52363009 C12.7901712,4.61499978 10.4322604,2.25708903 7.52363009,2.25708903 C4.61499978,2.25708903 2.25708903,4.61499978 2.25708903,7.52363009 C2.25708903,10.4322604 4.61499978,12.7901712 7.52363009,12.7901712 Z" id="Combined-Shape"></path>
                        </g>
                    </g>
                </g>
            </g>
        </g>
    </g>
</svg>