<?xml version="1.0" encoding="UTF-8"?>
<svg width="14px" height="13px" viewBox="0 0 14 13" version="1.1" xmlns="http://www.w3.org/2000/svg" xmlns:xlink="http://www.w3.org/1999/xlink">
    <!-- Generator: Sketch 46.2 (44496) - http://www.bohemiancoding.com/sketch -->
    <title>icon_popup_classification 14px</title>
    <desc>Created with Sketch.</desc>
    <defs></defs>
    <g id="样式整理概览" stroke="none" stroke-width="1" fill="none" fill-rule="evenodd">
        <g id="组件2-图标-弹出消息框" transform="translate(-487.000000, -863.000000)" fill="#A8C6DF">
            <g id="图标2" transform="translate(100.000000, 226.000000)">
                <g id="普通图标-14px" transform="translate(30.000000, 633.000000)">
                    <g id="弹出图标/icon_popup_classification-14px" transform="translate(357.000000, 3.000000)">
                        <g id="icon_popup_classification-14px">
                            <path d="M8.46222231,12.4444444 L5.44444444,12.4444444 L5.44444444,14 L3.11111111,14 L3.11111111,12.4444444 L2.33333333,12.4444444 L2.33333333,1.55555556 L11.6666667,1.55555556 L11.6666667,12.4444444 L10.8852992,12.4444444 L10.8852992,14 L8.46222231,14 L8.46222231,12.4444444 Z M3.88888889,3.11113938 L3.88888889,7.77777778 L10.1111111,7.77777778 L10.1111111,3.11113938 L3.88888889,3.11113938 Z M4.15811966,10.8888889 C4.58767446,10.8888889 4.93589744,10.5406659 4.93589744,10.1111111 C4.93589744,9.68155631 4.58767446,9.33333333 4.15811966,9.33333333 C3.72856485,9.33333333 3.38034188,9.68155631 3.38034188,10.1111111 C3.38034188,10.5406659 3.72856485,10.8888889 4.15811966,10.8888889 Z M9.78205128,10.8888889 C10.2116061,10.8888889 10.5598291,10.5406659 10.5598291,10.1111111 C10.5598291,9.68155631 10.2116061,9.33333333 9.78205128,9.33333333 C9.35249648,9.33333333 9.0042735,9.68155631 9.0042735,10.1111111 C9.0042735,10.5406659 9.35249648,10.8888889 9.78205128,10.8888889 Z" id="Combined-Shape"></path>
                            <path d="M12.4437242,3.19443248 L14,3.19443248 L14,12.4053075 L13.3619669,12.4053075 L13.3619669,13.5566669 L12.4437242,13.5566669 L12.4437242,11.2538802 C12.4471418,11.2539237 12.4505661,11.2539481 12.4539966,11.2539481 C12.8063726,11.2539481 13.0920298,10.9962076 13.0920298,10.6782685 C13.0920298,10.3603293 12.8063726,10.1025888 12.4539966,10.1025888 C12.4505661,10.1025888 12.4471419,10.1026132 12.4437242,10.1026619 L12.4437242,8.95122938 L12.7239337,8.95122938 L12.7239337,4.92149596 L12.4437242,4.92149596 L12.4437242,4.34579186 L12.7239337,4.34579186 L12.7239337,3.77011565 L12.4437242,3.77011565 L12.4437242,3.19443248 Z" id="2"></path>
                            <path d="M1.198285e-08,3.11111111 L1.55627584,3.11111111 L1.55627584,12.3219862 L0.918242695,12.3219862 L0.918242695,13.4733455 L1.19828503e-08,13.4733455 L1.19828503e-08,11.1705588 C0.00341769124,11.1706023 0.00684190804,11.1706268 0.0102724484,11.1706268 C0.362648425,11.1706268 0.648305595,10.9128862 0.648305595,10.5949471 C0.648305595,10.277008 0.362648425,10.0192674 0.0102724484,10.0192674 C0.00684191205,10.0192674 0.00341769924,10.0192918 1.19828503e-08,10.0193405 L1.19828503e-08,8.86790801 L0.280209549,8.86790801 L0.280209549,4.83817459 L1.19828506e-08,4.83817459 L1.19828503e-08,4.26247049 L0.280209549,4.26247049 L0.280209549,3.68679429 L1.19828506e-08,3.68679429 L1.19828503e-08,3.11111111 Z" id="1" transform="translate(0.778138, 8.292228) scale(-1, 1) translate(-0.778138, -8.292228) "></path>
                        </g>
                    </g>
                </g>
            </g>
        </g>
    </g>
</svg>