<?xml version="1.0" encoding="UTF-8"?>
<svg width="18px" height="18px" viewBox="0 0 18 18" version="1.1" xmlns="http://www.w3.org/2000/svg" xmlns:xlink="http://www.w3.org/1999/xlink">
    <!-- Generator: Sketch 46.2 (44496) - http://www.bohemiancoding.com/sketch -->
    <title>icon_popup_add_new</title>
    <desc>Created with Sketch.</desc>
    <defs></defs>
    <g id="样式整理概览" stroke="none" stroke-width="1" fill="none" fill-rule="evenodd">
        <g id="组件2-图标-弹出消息框" transform="translate(-624.000000, -626.000000)" fill-rule="nonzero" fill="#A8C6DF">
            <g id="图标2" transform="translate(100.000000, 226.000000)">
                <g id="普通图标-18px" transform="translate(30.000000, 275.000000)">
                    <g id="18" transform="translate(78.000000, 125.000000)">
                        <g id="弹出图标/icon_popup_add_new" transform="translate(416.000000, 0.000000)">
                            <g id="icon_popup_add_new">
                                <path d="M16.9995536,2.99933036 L3.99977679,2.99933036 C3.44933036,2.99933036 2.99933036,3.44933036 2.99933036,3.99977679 L2.99933036,16.9995536 C2.99933036,17.55 3.44933036,18 3.99977679,18 L16.9995536,18 C17.55,18 18,17.55 18,16.9995536 L18,3.99977679 C18,3.44933036 17.55,2.99933036 16.9995536,2.99933036 Z M14.5004464,11.4991071 L11.4991071,11.4991071 L11.4991071,14.4984375 L9.49821429,14.4984375 L9.49821429,11.4991071 L6.50089286,11.4991071 L6.50089286,9.49821429 L9.50022321,9.49821429 L9.50022321,6.50089286 L11.5011161,6.50089286 L11.5011161,9.50022321 L14.5004464,9.50022321 L14.5004464,11.4991071 L14.5004464,11.4991071 Z" id="Shape"></path>
                                <path d="M2.00089286,2 L14.0002232,2.00089286 L14.0002232,1.00044643 C14.0002232,0.45 13.5502232,0 12.9997768,0 L1.00044643,0 C0.45,0 0,0.45 0,1.00044643 L0,12.9997768 C0,13.5502232 0.45,14.0002232 1.00044643,14.0002232 L2.00089286,14.0002232 L2.00089286,2 Z" id="Shape"></path>
                            </g>
                        </g>
                    </g>
                </g>
            </g>
        </g>
    </g>
</svg>