<?xml version="1.0" encoding="UTF-8"?>
<svg width="18px" height="18px" viewBox="0 0 18 18" version="1.1" xmlns="http://www.w3.org/2000/svg" xmlns:xlink="http://www.w3.org/1999/xlink">
    <!-- Generator: Sketch 46.2 (44496) - http://www.bohemiancoding.com/sketch -->
    <title>icon_location_filled_grey</title>
    <desc>Created with Sketch.</desc>
    <defs></defs>
    <g id="样式整理概览" stroke="none" stroke-width="1" fill="none" fill-rule="evenodd">
        <g id="组件2-图标-弹出消息框" transform="translate(-956.000000, -540.000000)" fill="#A8C6DF">
            <g id="图标2" transform="translate(100.000000, 226.000000)">
                <g id="普通图标-18px" transform="translate(30.000000, 275.000000)">
                    <g id="灰" transform="translate(79.000000, 0.000000)">
                        <g id="Icons-Grey-/-Location-Icon" transform="translate(747.000000, 39.000000)">
                            <path d="M9,5.72727273 C7.19181818,5.72727273 5.72727273,7.19181818 5.72727273,9 C5.72727273,10.8081818 7.19181818,12.2727273 9,12.2727273 C10.8081818,12.2727273 12.2727273,10.8081818 12.2727273,9 C12.2727273,7.19181818 10.8081818,5.72727273 9,5.72727273 L9,5.72727273 Z M16.3145455,8.18181818 C15.9381818,4.77 13.23,2.06181818 9.81818182,1.68545455 L9.81818182,0 L8.18181818,0 L8.18181818,1.68545455 C4.77,2.06181818 2.06181818,4.77 1.68545455,8.18181818 L0,8.18181818 L0,9.81818182 L1.68545455,9.81818182 C2.06181818,13.23 4.77,15.9381818 8.18181818,16.3145455 L8.18181818,18 L9.81818182,18 L9.81818182,16.3145455 C13.23,15.9381818 15.9381818,13.23 16.3145455,9.81818182 L18,9.81818182 L18,8.18181818 L16.3145455,8.18181818 L16.3145455,8.18181818 Z M9,14.7272727 C5.83363636,14.7272727 3.27272727,12.1663636 3.27272727,9 C3.27272727,5.83363636 5.83363636,3.27272727 9,3.27272727 C12.1663636,3.27272727 14.7272727,5.83363636 14.7272727,9 C14.7272727,12.1663636 12.1663636,14.7272727 9,14.7272727 L9,14.7272727 Z" id="Icon"></path>
                        </g>
                    </g>
                </g>
            </g>
        </g>
    </g>
</svg>