<?xml version="1.0" encoding="UTF-8"?>
<svg width="14px" height="12px" viewBox="0 0 14 12" version="1.1" xmlns="http://www.w3.org/2000/svg" xmlns:xlink="http://www.w3.org/1999/xlink">
    <!-- Generator: Sketch 46.2 (44496) - http://www.bohemiancoding.com/sketch -->
    <title>icon_popup_notice 14px</title>
    <desc>Created with Sketch.</desc>
    <defs></defs>
    <g id="样式整理概览" stroke="none" stroke-width="1" fill="none" fill-rule="evenodd">
        <g id="组件2-图标-弹出消息框" transform="translate(-447.000000, -897.000000)" fill-rule="nonzero" fill="#A8C6DF">
            <g id="图标2" transform="translate(100.000000, 226.000000)">
                <g id="普通图标-14px" transform="translate(30.000000, 633.000000)">
                    <g id="弹出图标/icon_popup_notice-14px" transform="translate(317.000000, 37.000000)">
                        <g id="icon_popup_notice-14px">
                            <path d="M0.201818447,10.6922553 L5.71782239,1.76810358 C6.29213354,0.743965474 7.70785362,0.743965474 8.28218044,1.76810358 L13.7981687,10.6922553 C14.3724799,11.7163934 13.6512767,13 12.5159897,13 L1.4839818,13 C0.348710472,12.9863438 -0.372461361,11.7164093 0.201818447,10.6922553 Z M7,3 C6.44771525,3 6,3.44771525 6,4 L6,8 C6,8.55228475 6.44771525,9 7,9 C7.55228475,9 8,8.55228475 8,8 L8,4 C8,3.44771525 7.55228475,3 7,3 Z M7,12 C7.55228475,12 8,11.5522847 8,11 C8,10.4477153 7.55228475,10 7,10 C6.44771525,10 6,10.4477153 6,11 C6,11.5522847 6.44771525,12 7,12 Z" id="Combined-Shape"></path>
                        </g>
                    </g>
                </g>
            </g>
        </g>
    </g>
</svg>