<?xml version="1.0" encoding="UTF-8"?>
<svg width="14px" height="14px" viewBox="0 0 14 14" version="1.1" xmlns="http://www.w3.org/2000/svg" xmlns:xlink="http://www.w3.org/1999/xlink">
    <!-- Generator: Sketch 46.2 (44496) - http://www.bohemiancoding.com/sketch -->
    <title>icon_popup_electric 14px</title>
    <desc>Created with Sketch.</desc>
    <defs></defs>
    <g id="样式整理概览" stroke="none" stroke-width="1" fill="none" fill-rule="evenodd">
        <g id="组件2-图标-弹出消息框" transform="translate(-885.000000, -862.000000)" fill="#A8C6DF">
            <g id="图标2" transform="translate(100.000000, 226.000000)">
                <g id="普通图标-14px" transform="translate(30.000000, 633.000000)">
                    <g id="弹出图标/icon_popup_electric-14px" transform="translate(755.000000, 3.000000)">
                        <g id="icon_popup_electric-14px">
                            <path d="M0.777777778,0.777777778 L13.2222222,0.777777778 L13.2222222,13.2222222 L0.777777778,13.2222222 L0.777777778,0.777777778 Z M10.140625,9.5 L10.140625,10.25 C10.1718752,10.6250019 9.95312734,10.7968752 9.484375,10.765625 L7.84375,10.765625 C7.46874812,10.7968752 7.29687484,10.6250019 7.328125,10.25 L7.328125,9.3125 L10.5625,9.3125 L10.5625,2.796875 L7.328125,2.796875 L7.328125,1.296875 L6.15625,1.296875 L6.15625,2.796875 L2.96875,2.796875 L2.96875,9.3125 L6.15625,9.3125 L6.15625,10.578125 C6.15625,11.4218792 6.57812078,11.84375 7.421875,11.84375 L9.859375,11.84375 C10.8906302,11.8750002 11.3750003,11.5312536 11.3125,10.8125 L11.3125,9.734375 L10.140625,9.5 Z M7.328125,8.140625 L7.328125,6.640625 L9.390625,6.640625 L9.390625,8.140625 L7.328125,8.140625 Z M9.390625,3.96875 L9.390625,5.46875 L7.328125,5.46875 L7.328125,3.96875 L9.390625,3.96875 Z M4.1875,6.640625 L6.15625,6.640625 L6.15625,8.140625 L4.1875,8.140625 L4.1875,6.640625 Z M4.1875,3.96875 L6.15625,3.96875 L6.15625,5.46875 L4.1875,5.46875 L4.1875,3.96875 Z" id="Combined-Shape"></path>
                        </g>
                    </g>
                </g>
            </g>
        </g>
    </g>
</svg>