<?xml version="1.0" encoding="UTF-8"?>
<svg width="18px" height="16px" viewBox="0 0 18 16" version="1.1" xmlns="http://www.w3.org/2000/svg" xmlns:xlink="http://www.w3.org/1999/xlink">
    <!-- Generator: Sketch 46.2 (44496) - http://www.bohemiancoding.com/sketch -->
    <title>icon_list_battery_charger</title>
    <desc>Created with Sketch.</desc>
    <defs></defs>
    <g id="样式整理概览" stroke="none" stroke-width="1" fill="none" fill-rule="evenodd">
        <g id="组件2-图标-弹出消息框" transform="translate(-251.000000, -627.000000)" fill-rule="nonzero" fill="#A8C6DF">
            <g id="图标2" transform="translate(100.000000, 226.000000)">
                <g id="普通图标-18px" transform="translate(30.000000, 275.000000)">
                    <g id="18" transform="translate(78.000000, 125.000000)">
                        <g id="弹出图标/icon_list_battery_charger" transform="translate(43.000000, 0.000000)">
                            <g id="icon_list_battery_charger">
                                <path d="M11.8333333,14.9713649 L11.8333333,7.82390261 L12.3696845,7.82390261 C12.6611797,7.82390261 12.9060357,8.04543896 12.9060357,8.31361454 L12.9060357,12.8609396 C12.9060357,14.0269204 13.9320988,14.9713649 15.2030178,14.9713649 C16.4739369,14.9713649 17.5,14.0269204 17.5,12.8609396 L17.5,4.11608368 C17.5,3.66135117 17.2901235,3.24159808 16.9636488,2.95010288 L15.0864198,1.23611111 C14.7482853,0.921296296 14.2002743,0.921296296 13.8621399,1.23611111 C13.5240055,1.55092593 13.5240055,2.05229767 13.8621399,2.36711248 L15.0747599,3.48645405 L14.1769547,4.34927984 C13.8854595,4.62911523 13.8854595,5.07218793 14.1769547,5.35202332 C14.3168724,5.49194102 14.5150892,5.56189986 14.7133059,5.56189986 L15.7277092,5.56189986 L15.7277092,12.8725995 C15.7277092,13.140775 15.494513,13.3623114 15.191358,13.3623114 C14.8998628,13.3623114 14.6550069,13.140775 14.6550069,12.8725995 L14.6550069,8.32527435 C14.6550069,7.15929355 13.6289438,6.21484911 12.3580247,6.21484911 L11.8333333,6.21484911 L11.8333333,2.32047325 C11.8333333,1.59756516 11.2037037,1.02623457 10.4108368,1.02623457 L2.98353909,1.02623457 C2.20233196,1.02623457 1.56104252,1.60922497 1.56104252,2.32047325 L1.56104252,14.9713649 L1.3861454,14.9713649 C0.896433471,14.9713649 0.5,15.3328189 0.5,15.7875514 C0.5,16.242284 0.896433471,16.603738 1.3861454,16.603738 L12.0082305,16.603738 C12.4979424,16.603738 12.8943759,16.242284 12.8943759,15.7875514 C12.8943759,15.3328189 12.4979424,14.9713649 12.0082305,14.9713649 L11.8333333,14.9713649 L11.8333333,14.9713649 Z M4.11454047,2.63528807 L9.27983539,2.63528807 C9.71124829,2.63528807 10.0610425,2.95010288 10.0610425,3.34653635 L10.0610425,6.7861797 C10.0610425,7.18261317 9.71124829,7.49742798 9.27983539,7.49742798 L4.11454047,7.49742798 C3.68312757,7.49742798 3.33333333,7.18261317 3.33333333,6.7861797 L3.33333333,3.34653635 C3.33333333,2.95010288 3.68312757,2.63528807 4.11454047,2.63528807 Z" id="icon"></path>
                            </g>
                        </g>
                    </g>
                </g>
            </g>
        </g>
    </g>
</svg>