<?xml version="1.0" encoding="UTF-8"?>
<svg width="14px" height="14px" viewBox="0 0 14 14" version="1.1" xmlns="http://www.w3.org/2000/svg" xmlns:xlink="http://www.w3.org/1999/xlink">
    <!-- Generator: Sketch 46.2 (44496) - http://www.bohemiancoding.com/sketch -->
    <title>icon_popup_add_new 14px</title>
    <desc>Created with Sketch.</desc>
    <defs></defs>
    <g id="样式整理概览" stroke="none" stroke-width="1" fill="none" fill-rule="evenodd">
        <g id="组件2-图标-弹出消息框" transform="translate(-327.000000, -862.000000)" fill-rule="nonzero" fill="#A8C6DF">
            <g id="图标2" transform="translate(100.000000, 226.000000)">
                <g id="普通图标-14px" transform="translate(30.000000, 633.000000)">
                    <g id="弹出图标/icon_popup_add_new-14px" transform="translate(197.000000, 3.000000)">
                        <g id="icon_popup_add_new-14px">
                            <path d="M13.221875,2.3328125 L3.1109375,2.3328125 C2.6828125,2.3328125 2.3328125,2.6828125 2.3328125,3.1109375 L2.3328125,13.221875 C2.3328125,13.65 2.6828125,14 3.1109375,14 L13.221875,14 C13.65,14 14,13.65 14,13.221875 L14,3.1109375 C14,2.6828125 13.65,2.3328125 13.221875,2.3328125 Z M11.278125,8.94375 L8.94375,8.94375 L8.94375,11.2765625 L7.3875,11.2765625 L7.3875,8.94375 L5.05625,8.94375 L5.05625,7.3875 L7.3890625,7.3875 L7.3890625,5.05625 L8.9453125,5.05625 L8.9453125,7.3890625 L11.278125,7.3890625 L11.278125,8.94375 L11.278125,8.94375 Z" id="Shape"></path>
                            <path d="M1.55625,1.55555556 L10.8890625,1.55625 L10.8890625,0.778125 C10.8890625,0.35 10.5390625,0 10.1109375,0 L0.778125,0 C0.35,0 0,0.35 0,0.778125 L0,10.1109375 C0,10.5390625 0.35,10.8890625 0.778125,10.8890625 L1.55625,10.8890625 L1.55625,1.55555556 Z" id="Shape"></path>
                        </g>
                    </g>
                </g>
            </g>
        </g>
    </g>
</svg>