<?xml version="1.0" encoding="UTF-8"?>
<svg width="10px" height="14px" viewBox="0 0 10 14" version="1.1" xmlns="http://www.w3.org/2000/svg" xmlns:xlink="http://www.w3.org/1999/xlink">
    <!-- Generator: Sketch 46.2 (44496) - http://www.bohemiancoding.com/sketch -->
    <title>icon_popup_phone 14px</title>
    <desc>Created with Sketch.</desc>
    <defs></defs>
    <g id="正式页面" stroke="none" stroke-width="1" fill="none" fill-rule="evenodd">
        <g id="2.5-充电机监控-结果详情-正常" transform="translate(-102.000000, -612.000000)" fill="#A8C6DF">
            <g id="当前位置-+-当前位置-+-1234-+-标签-+-左侧菜单/地图充电机弹出/返回-Mask" transform="translate(80.000000, 178.000000)">
                <g id="客服电话" transform="translate(20.000000, 432.000000)">
                    <g id="弹出图标/icon_popup_switch-copy" transform="translate(0.000000, 2.000000)">
                        <g id="icon_popup_phone-14px">
                            <path d="M3,0 L11,0 C11.5522847,-1.01453063e-16 12,0.44771525 12,1 L12,13 C12,13.5522847 11.5522847,14 11,14 L3,14 C2.44771525,14 2,13.5522847 2,13 L2,1 L2,1 C2,0.44771525 2.44771525,1.01453063e-16 3,0 L3,0 Z M3,1 L3,11 L11,11 L11,1 L3,1 Z M6,12 L6,13 L8,13 L8,12 L6,12 Z" id="Combined-Shape"></path>
                        </g>
                    </g>
                </g>
            </g>
        </g>
    </g>
</svg>