<?xml version="1.0" encoding="UTF-8"?>
<svg width="17px" height="13px" viewBox="0 0 17 13" version="1.1" xmlns="http://www.w3.org/2000/svg" xmlns:xlink="http://www.w3.org/1999/xlink">
    <!-- Generator: Sketch 46.2 (44496) - http://www.bohemiancoding.com/sketch -->
    <title>icon_dashboard_high_beam_white</title>
    <desc>Created with Sketch.</desc>
    <defs></defs>
    <g id="样式整理概览" stroke="none" stroke-width="1" fill="none" fill-rule="evenodd">
        <g id="组件2-图标-弹出消息框" transform="translate(-627.000000, -761.000000)" fill-rule="nonzero" fill="#A8C6DF">
            <g id="图标2" transform="translate(100.000000, 226.000000)">
                <g id="汽车功能图标-18px" transform="translate(30.000000, 532.000000)">
                    <g id="汽车仪表图标/远光灯-蓝灰" transform="translate(496.000000, 0.000000)">
                        <g id="icon_dashboard_high_beam_white">
                            <path d="M1.58994028,6.99328353 L5.58491423,6.57550041 C6.02614751,6.53702749 6.35255986,6.14957916 6.31393266,5.71002364 C6.27534403,5.2705067 5.88633364,4.94536714 5.44506179,4.98380149 L1.45012641,5.40158461 C1.00885456,5.44005753 0.682480779,5.82750586 0.721050122,6.26706138 C0.759658034,6.70661689 1.14866842,7.03175645 1.58994028,6.99328353 Z M1.92814295,9.74788053 L5.52363494,9.33009741 C5.96494536,9.29166306 6.29131914,8.90417616 6.25271122,8.46462065 C6.2141226,8.02506513 5.82511221,7.69996414 5.38384036,7.73839849 L1.78834837,8.15618161 C1.34707652,8.19465453 1.02070274,8.58214143 1.05927209,9.02165838 C1.09786071,9.46119461 1.4868711,9.78635345 1.92814295,9.74788053 L1.92814295,9.74788053 Z M5.86185569,12.0846898 C6.30316611,12.0462555 6.62953989,11.6587686 6.59093198,11.2192131 C6.55234335,10.7796961 6.16333296,10.4545566 5.72206111,10.4929909 L2.12656913,10.910774 C1.68529728,10.9492084 1.3589235,11.3366953 1.39749284,11.7762508 C1.43608147,12.2158063 1.82509186,12.5409073 2.26636371,12.502473 L5.86185569,12.0846898 Z M7.34046852,14.0704218 C7.30184133,13.6309048 6.91286951,13.3057653 6.47159766,13.3441996 L2.47666227,13.7619827 C2.03542899,13.8004557 1.70895879,14.187904 1.74758599,14.6274595 C1.78621318,15.067015 2.17518501,15.3921546 2.61645686,15.3536817 L6.61139224,14.9358985 C7.05268337,14.8974449 7.37909572,14.5099773 7.34046852,14.0704218 Z M10.6746166,2.94850903 C9.85447805,2.94850903 9.0730246,3.10824396 8.35258785,3.38978088 C8.35108364,3.3903787 8.33245465,3.39815042 8.33245465,3.39815042 C7.85234347,3.59705252 7.54195668,4.10452865 7.60679175,4.65495174 L8.77980117,14.6129968 C8.84642971,15.1785969 9.28914791,15.6118271 9.82113485,15.6730173 L9.83887675,15.6750615 C10.1192952,15.7126473 10.383958,15.7307556 10.6746358,15.7307556 C14.2043671,15.7307556 17.0657495,12.8693347 17.0657495,9.33964197 C17.0657495,5.80989143 14.2043671,2.94850903 10.6746166,2.94850903 Z M11.004018,13.3204803 L10.0700807,5.3914912 C10.270121,5.36064139 10.4722307,5.34516193 10.6746358,5.3451887 C12.8807251,5.3451887 14.6690891,7.1335527 14.6690891,9.33964197 C14.6690698,11.4347479 13.0559842,13.1529543 11.004018,13.3204803 L11.004018,13.3204803 Z" id="Shape" transform="translate(8.891852, 9.339632) rotate(7.000000) translate(-8.891852, -9.339632) "></path>
                        </g>
                    </g>
                </g>
            </g>
        </g>
    </g>
</svg>