<?xml version="1.0" encoding="UTF-8"?>
<svg width="14px" height="14px" viewBox="0 0 14 14" version="1.1" xmlns="http://www.w3.org/2000/svg" xmlns:xlink="http://www.w3.org/1999/xlink">
    <!-- Generator: Sketch 46.2 (44496) - http://www.bohemiancoding.com/sketch -->
    <title>icon_popup_power 14px</title>
    <desc>Created with Sketch.</desc>
    <defs></defs>
    <g id="样式整理概览" stroke="none" stroke-width="1" fill="none" fill-rule="evenodd">
        <g id="组件2-图标-弹出消息框" transform="translate(-607.000000, -896.000000)" fill-rule="nonzero" fill="#A8C6DF">
            <g id="图标2" transform="translate(100.000000, 226.000000)">
                <g id="普通图标-14px" transform="translate(30.000000, 633.000000)">
                    <g id="弹出图标/icon_popup_power-14px" transform="translate(477.000000, 37.000000)">
                        <g id="icon_popup_power-14px">
                            <path d="M0.777777778,0.777777778 L0.777777778,13.2222222 L13.2222222,13.2222222 L13.2222222,0.777777778 L0.777777778,0.777777778 Z M3.67515883,5.70976 C3.67515883,5.69466947 3.69024936,5.69466947 3.69024936,5.68712421 L7.13088936,1.62022737 C7.14597988,1.60513684 7.16861567,1.58250105 7.1837062,1.57495579 C7.20634199,1.55232 7.30443041,1.50704842 7.41006409,1.50704842 C7.50060725,1.50704842 7.59869567,1.54477474 7.65151251,1.61268211 C7.71941988,1.69568 7.74205567,1.80885895 7.73451041,1.94467368 L7.73451041,1.96730947 L7.26670409,4.24597895 L9.07002199,4.26106947 C9.24356304,4.27616 9.31147041,4.38179368 9.3341062,4.41197474 C9.40201357,4.56288 9.31901567,4.71378526 9.29637988,4.74396632 C9.28128936,4.75905684 9.28128936,4.76660211 9.27374409,4.78169263 L5.25966409,9.03722105 C5.2370283,9.05985684 5.21439251,9.08249263 5.1766662,9.09003789 C5.10875883,9.12776421 5.04085146,9.13530947 4.98048936,9.13530947 C4.8899462,9.13530947 4.79185778,9.09758316 4.73904094,9.02967579 C4.64849778,8.92404211 4.65604304,8.80331789 4.65604304,8.76559158 C4.65604304,8.75050105 4.67113357,8.72786526 4.67113357,8.72032 L5.54638409,6.17002105 L3.96942409,6.17002105 L3.9467883,6.17002105 C3.75815673,6.17002105 3.68270409,6.06438737 3.64497778,6.01157053 C3.58461567,5.91348211 3.60725146,5.79275789 3.67515883,5.70976 Z M11.6499957,10.8888889 L2.33085754,10.8888889 L2.33085754,10.1111111 L11.6641909,10.1111111 L11.6641909,10.8888889 L11.6499957,10.8888889 Z M3.10863532,12.0555556 C3.10863532,12.2722222 2.9364131,12.4444444 2.71974643,12.4444444 C2.50307977,12.4444444 2.33085754,12.2722222 2.33085754,12.0555556 C2.33085754,11.8388889 2.50307977,11.6666667 2.71974643,11.6666667 C2.9364131,11.6666667 3.10863532,11.8444444 3.10863532,12.0555556 Z M4.66419088,12.0555556 C4.66419088,12.2722222 4.49196865,12.4444444 4.27530199,12.4444444 C4.06419088,12.4444444 3.8864131,12.2722222 3.8864131,12.0555556 C3.8864131,11.8388889 4.06419088,11.6666667 4.27530199,11.6666667 C4.49196865,11.6666667 4.66419088,11.8444444 4.66419088,12.0555556 L4.66419088,12.0555556 Z" id="Shape"></path>
                        </g>
                    </g>
                </g>
            </g>
        </g>
    </g>
</svg>