<?xml version="1.0" encoding="UTF-8"?>
<svg width="18px" height="18px" viewBox="0 0 18 18" version="1.1" xmlns="http://www.w3.org/2000/svg" xmlns:xlink="http://www.w3.org/1999/xlink">
    <!-- Generator: Sketch 46.2 (44496) - http://www.bohemiancoding.com/sketch -->
    <title>icon_notifications_filled_grey</title>
    <desc>Created with Sketch.</desc>
    <defs></defs>
    <g id="样式整理概览" stroke="none" stroke-width="1" fill="none" fill-rule="evenodd">
        <g id="组件2-图标-弹出消息框" transform="translate(-292.000000, -540.000000)" fill="#A8C6DF">
            <g id="图标2" transform="translate(100.000000, 226.000000)">
                <g id="普通图标-18px" transform="translate(30.000000, 275.000000)">
                    <g id="灰" transform="translate(79.000000, 0.000000)">
                        <g id="Icons-Grey-/-Notifications-Icon" transform="translate(83.000000, 39.000000)">
                            <path d="M14.625,12.4615385 L14.625,7.84615385 C14.625,5.01230769 13.0875,2.64 10.40625,2.01230769 L10.40625,1.38461538 C10.40625,0.618461538 9.778125,0 9,0 C8.221875,0 7.59375,0.618461538 7.59375,1.38461538 L7.59375,2.01230769 C4.903125,2.64 3.375,5.00307692 3.375,7.84615385 L3.375,12.4615385 L1.5,14.3076923 L1.5,15.2307692 L16.5,15.2307692 L16.5,14.3076923 L14.625,12.4615385 Z M9,18 C10.03125,18 10.875,17.1692308 10.875,16.1538462 L7.125,16.1538462 C7.125,17.1692308 7.959375,18 9,18 L9,18 Z" id="Icon"></path>
                        </g>
                    </g>
                </g>
            </g>
        </g>
    </g>
</svg>