<?xml version="1.0" encoding="UTF-8"?>
<svg width="18px" height="16px" viewBox="0 0 18 16" version="1.1" xmlns="http://www.w3.org/2000/svg" xmlns:xlink="http://www.w3.org/1999/xlink">
    <!-- Generator: Sketch 46.2 (44496) - http://www.bohemiancoding.com/sketch -->
    <title>icon_popup_move</title>
    <desc>Created with Sketch.</desc>
    <defs></defs>
    <g id="样式整理概览" stroke="none" stroke-width="1" fill="none" fill-rule="evenodd">
        <g id="组件2-图标-弹出消息框" transform="translate(-623.000000, -659.000000)" fill-rule="nonzero" fill="#A8C6DF">
            <g id="图标2" transform="translate(100.000000, 226.000000)">
                <g id="普通图标-18px" transform="translate(30.000000, 275.000000)">
                    <g id="18" transform="translate(78.000000, 125.000000)">
                        <g id="弹出图标/icon_popup_move" transform="translate(415.000000, 32.000000)">
                            <g id="icon_popup_move">
                                <path d="M17.9910803,15.6350527 C17.9910803,15.6350527 17.9910803,5.61565156 17.9910803,4.605193 C17.9910803,3.2326415 16.73089,3.36021952 16.73089,3.36021952 C16.73089,3.36021952 9.40523417,3.36892988 9.80310304,3.36021952 C9.3714576,3.36984878 9.15863595,3.13581256 9.15863595,3.13581256 C9.15863595,3.13581256 8.85931329,2.52548099 8.32078198,1.71739494 C7.75593262,0.869832357 7.10226627,1.00841586 7.10226627,1.00841586 L1.55395245,1.00841586 C0.0175604523,1.00841586 -8.86443696e-15,2.47501822 -8.86443696e-15,2.47501822 C-8.86443696e-15,2.47501822 -8.86443696e-15,14.5029698 -8.86443696e-15,15.5584183 C-8.86443696e-15,17.194787 1.24585064,16.9919999 1.24585064,16.9919999 C1.24585064,16.9919999 15.9064951,16.9919999 16.8456766,16.9919999 C18.1775171,16.9919999 17.9910803,15.6350527 17.9910803,15.6350527 Z M16.5759332,14.6860645 C16.5759332,15.1908333 16.163283,15.6001728 15.6543789,15.6001728 L2.33716129,15.6001728 C1.82830243,15.6001728 1.41607237,15.1908354 1.41607237,14.6860645 L1.41607237,5.67622245 C1.41607237,5.17191314 1.82830458,4.76257573 2.33716129,4.76257573 L15.6543589,4.76257573 C16.1632609,4.76257573 16.5759132,5.17191314 16.5759132,5.67622245 L16.5759132,14.6860645 L16.5759332,14.6860645 Z M9.92748258,8.54152429 L4.73357915,8.54152429 L4.73357915,11.817544 L9.92748344,11.817544 L9.92748344,13.1753893 L13.7349002,10.1600154 L9.92748258,7.17954446 L9.92748258,8.54152523 L9.92748258,8.54152429 Z" id="Shape"></path>
                            </g>
                        </g>
                    </g>
                </g>
            </g>
        </g>
    </g>
</svg>