<?xml version="1.0" encoding="UTF-8"?>
<svg width="18px" height="18px" viewBox="0 0 18 18" version="1.1" xmlns="http://www.w3.org/2000/svg" xmlns:xlink="http://www.w3.org/1999/xlink">
    <!-- Generator: Sketch 46.2 (44496) - http://www.bohemiancoding.com/sketch -->
    <title>icon_list_menu_filled_grey</title>
    <desc>Created with Sketch.</desc>
    <defs></defs>
    <g id="样式整理概览" stroke="none" stroke-width="1" fill="none" fill-rule="evenodd">
        <g id="组件2-图标-弹出消息框" transform="translate(-1081.000000, -501.000000)" fill="#A8C6DF">
            <g id="图标2" transform="translate(100.000000, 226.000000)">
                <g id="普通图标-18px" transform="translate(30.000000, 275.000000)">
                    <g id="灰" transform="translate(79.000000, 0.000000)">
                        <g id="Icons-Grey-/-Sidemenu" transform="translate(872.000000, 0.000000)">
                            <path d="M0,5 L14,5 L14,3 L0,3 L0,5 L0,5 Z M3,10 L14,10 L14,8 L3,8 L3,10 L3,10 Z M0,15 L14,15 L14,13 L0,13 L0,15 L0,15 Z M16,15 L18,15 L18,13 L16,13 L16,15 L16,15 Z M16,3 L16,5 L18,5 L18,3 L16,3 L16,3 Z M16,10 L18,10 L18,8 L16,8 L16,10 L16,10 Z" id="Icons-18px-/-List" transform="translate(9.000000, 9.000000) scale(-1, 1) translate(-9.000000, -9.000000) "></path>
                        </g>
                    </g>
                </g>
            </g>
        </g>
    </g>
</svg>