<?xml version="1.0" encoding="UTF-8"?>
<svg width="14px" height="14px" viewBox="0 0 14 14" version="1.1" xmlns="http://www.w3.org/2000/svg" xmlns:xlink="http://www.w3.org/1999/xlink">
    <!-- Generator: Sketch 46.2 (44496) - http://www.bohemiancoding.com/sketch -->
    <title>icon_popup_gasoline 14px</title>
    <desc>Created with Sketch.</desc>
    <defs></defs>
    <g id="样式整理概览" stroke="none" stroke-width="1" fill="none" fill-rule="evenodd">
        <g id="组件2-图标-弹出消息框" transform="translate(-805.000000, -862.000000)" fill="#A8C6DF">
            <g id="图标2" transform="translate(100.000000, 226.000000)">
                <g id="普通图标-14px" transform="translate(30.000000, 633.000000)">
                    <g id="弹出图标/icon_popup_gasoline-14px" transform="translate(675.000000, 3.000000)">
                        <g id="icon_popup_gasoline-14px">
                            <path d="M0.777777778,0.777777778 L13.2222222,0.777777778 L13.2222222,13.2222222 L0.777777778,13.2222222 L0.777777778,0.777777778 Z M7.609375,1.296875 L7.609375,3.40625 L5.3125,3.40625 L5.3125,11.796875 L11.078125,11.796875 L11.078125,3.40625 L8.78125,3.40625 L8.78125,1.296875 L7.609375,1.296875 Z M2.546875,11.65625 L3.671875,11.984375 L4.9375,7.953125 L3.8125,7.625 L2.546875,11.65625 Z M2.40625,5.28125 L4.140625,6.875 L4.9375,6.03125 L3.203125,4.4375 L2.40625,5.28125 Z M2.734375,2.28125 L4.328125,3.875 L5.171875,3.078125 L3.578125,1.484375 L2.734375,2.28125 Z M8.78125,10.765625 L8.78125,8.09375 L9.90625,8.09375 L9.90625,10.765625 L8.78125,10.765625 Z M6.53125,8.09375 L7.609375,8.09375 L7.609375,10.765625 L6.53125,10.765625 L6.53125,8.09375 Z M9.90625,4.578125 L9.90625,7.015625 L8.78125,7.015625 L8.78125,4.578125 L9.90625,4.578125 Z M6.53125,4.578125 L7.609375,4.578125 L7.609375,7.015625 L6.53125,7.015625 L6.53125,4.578125 Z" id="Combined-Shape"></path>
                        </g>
                    </g>
                </g>
            </g>
        </g>
    </g>
</svg>