<?xml version="1.0" encoding="UTF-8"?>
<svg width="14px" height="14px" viewBox="0 0 14 14" version="1.1" xmlns="http://www.w3.org/2000/svg" xmlns:xlink="http://www.w3.org/1999/xlink">
    <!-- Generator: Sketch 46.2 (44496) - http://www.bohemiancoding.com/sketch -->
    <title>icon_document_excle_blue</title>
    <desc>Created with Sketch.</desc>
    <defs></defs>
    <g id="正式页面" stroke="none" stroke-width="1" fill="none" fill-rule="evenodd">
        <g id="7.0-车辆监控-个人中心-我的反馈" transform="translate(-486.000000, -949.000000)" fill-rule="nonzero" fill="#1488F5">
            <g id="内容" transform="translate(155.000000, 280.000000)">
                <g id="反馈内容" transform="translate(285.000000, 0.000000)">
                    <g id="附件" transform="translate(30.000000, 624.000000)">
                        <g id="Category-Buttons-/-Enclosure-Blue" transform="translate(0.000000, 40.000000)">
                            <g id="Group" transform="translate(16.000000, 3.000000)">
                                <g id="文件类型/Excle/灰" transform="translate(0.000000, 2.000000)">
                                    <g id="icon_document_excle_blue">
                                        <path d="M8.5515,1.812 L8.5515,2.7275 L12.789,2.7275 L12.789,3.319 L8.5515,3.319 L8.5515,4.2725 L12.789,4.2725 L12.789,4.864 L8.5515,4.864 L8.5515,5.7985 L12.789,5.7985 L12.789,6.3895 L8.5515,6.3895 L8.5515,7.3245 L12.789,7.3245 L12.789,7.9155 L8.5515,7.9155 L8.5515,8.8505 L12.789,8.8505 L12.789,9.4415 L8.5515,9.4415 L8.5515,10.376 L12.789,10.376 L12.789,10.9675 L8.5515,10.9675 L8.5515,12.188 L14,12.188 L14,1.812 L8.5515,1.812 Z M0,1.4875 L7.889,0 L7.889,14 L0,12.5125 L0,1.4875 Z M5.8625,8.549 L3.627,8.549 L3.627,7.30499999 L5.73600001,7.30499999 L5.73600001,6.5085 L3.627,6.5085 L3.627,5.3185 L5.86200001,5.3185 L5.86200001,4.4685 L2.595,4.4685 L2.595,9.4 L5.86299999,9.4 L5.86299999,8.549 L5.8625,8.549 Z" id="Shape"></path>
                                    </g>
                                </g>
                            </g>
                        </g>
                    </g>
                </g>
            </g>
        </g>
    </g>
</svg>