<?xml version="1.0" encoding="UTF-8"?>
<svg width="24px" height="22px" viewBox="0 0 24 22" version="1.1" xmlns="http://www.w3.org/2000/svg" xmlns:xlink="http://www.w3.org/1999/xlink">
    <!-- Generator: Sketch 46.2 (44496) - http://www.bohemiancoding.com/sketch -->
    <title>icon_menu_left_fault_diagnosis_b</title>
    <desc>Created with Sketch.</desc>
    <defs></defs>
    <g id="正式页面" stroke="none" stroke-width="1" fill="none" fill-rule="evenodd">
        <g id="3.0-故障诊断-报警明细" transform="translate(-18.000000, -174.000000)" fill-rule="nonzero" fill="#0093EE">
            <g id="Sidebars-/-#3">
                <g id="左侧菜单/安全中心" transform="translate(0.000000, 160.000000)">
                    <g id="icon/menu/left/故障监控" transform="translate(18.000000, 13.000000)">
                        <g id="icon_menu_left_fault_diagnosis_b">
                            <path d="M12.0000004,1.33333333 C12.5172795,1.33333333 13.034532,1.68213295 13.4269846,2.3797855 L23.6708336,20.1297895 C24.4557656,21.5250679 23.7880334,22.6666667 22.1871828,22.6666667 L1.81281801,22.6666667 C0.211940774,22.6666667 -0.455711407,21.5250679 0.329113905,20.1297895 L10.5730162,2.3797855 C10.9654422,1.68213295 11.4827213,1.33333333 12.0000004,1.33333333 Z M10.500003,16.6666467 C10.500003,17.4950724 11.1715752,18.166645 12.0000004,18.166645 C12.8284257,18.166645 13.4999978,17.4950724 13.4999978,16.6666467 C13.4999978,15.8382209 12.8284257,15.1666483 12.0000004,15.1666483 C11.1715752,15.1666483 10.500003,15.8382209 10.500003,16.6666467 Z M12.0000004,8 C11.1715752,8 10.500003,8.67157259 10.500003,9.49999833 L10.9687489,13.9999933 L13.031252,13.9999933 L13.4999978,9.49999833 C13.4999978,8.67157259 12.8284257,8 12.0000004,8 Z" id="Shape"></path>
                        </g>
                    </g>
                </g>
            </g>
        </g>
    </g>
</svg>