<?xml version="1.0" encoding="UTF-8"?>
<svg width="24px" height="24px" viewBox="0 0 24 24" version="1.1" xmlns="http://www.w3.org/2000/svg" xmlns:xlink="http://www.w3.org/1999/xlink">
    <!-- Generator: Sketch 46.2 (44496) - http://www.bohemiancoding.com/sketch -->

    <defs></defs>
    <g id="正式页面" stroke="none" stroke-width="1" fill-rule="evenodd">
        <g id="2.1-充电机监控-条件筛选" transform="translate(-18.000000, -73.000000)" fill-rule="nonzero">
            <g id="Sidebars-/-#3">
                <g id="左侧菜单/应用市场" transform="translate(0.000000, 60.000000)">
                    <g id="icon/menu/left/故障监控" transform="translate(18.000000, 13.000000)">
                        <g id="icon_menu_left_vehicle_monitoring_a">
                            <path d="M11.8425467,15.9111818 C11.4013253,15.9111818 10.9919299,15.7117839 10.7193457,15.3641558 C10.5920414,15.2018292 10.4410793,15.0142602 10.2662954,14.7971053 C8.68346042,12.8307183 5.73715811,9.1705011 5.73715811,6.12134459 C5.73715811,4.49053826 6.37223172,2.957341 7.52537374,1.80419899 C8.67851576,0.65105697 10.211713,0.0159833593 11.8425193,0.0159833593 C13.4733257,0.0159833593 15.0064956,0.65105697 16.1596376,1.80419899 C17.3127796,2.957341 17.9478532,4.49053826 17.9478532,6.12134459 C17.9478532,9.17052844 15.0015509,12.8307456 13.4187433,14.7971599 C13.2439594,15.0142875 13.0929972,15.2018291 12.9656656,15.3641831 C12.6931634,15.7117839 12.2837954,15.9111818 11.8425467,15.9111818 Z M23.1650621,5.49034142 C23.6293949,5.80857485 23.9066233,6.33462025 23.9067052,6.89754567 L23.9067052,19.794564 C23.9067052,20.4938088 23.4685708,21.1332261 22.8164505,21.3856219 L22.8137186,21.38666 L16.3136867,23.8776445 C16.1156821,23.9540271 15.9076516,23.9922184 15.6996757,23.9922184 C15.4910715,23.9922184 15.2825219,23.9538085 15.0839982,23.8769615 L8.3245224,21.2617324 L2.36170921,23.8389341 L2.34586446,23.8450808 C1.82082984,24.048194 1.23017612,23.9794606 0.765843257,23.6612272 C0.301483061,23.3429664 0.0242547364,22.8168937 0.0242547364,22.2539409 L0.0242547364,9.35689535 C0.0242547364,8.66472603 0.453592578,8.03115495 1.09489482,7.77359594 L4.88050401,6.12825616 C4.8855033,6.93543644 5.06695288,7.82263267 5.42075503,8.76629628 C5.71478427,9.55052901 6.13764761,10.3999164 6.67757083,11.2909099 C7.64216041,12.8826781 8.82177408,14.3481254 9.60234613,15.3178509 L9.60458624,15.3206374 C9.77661095,15.5343501 9.92516906,15.718914 10.0484848,15.8761868 C10.4879305,16.4365989 11.1480552,16.7580013 11.8596207,16.7580013 C12.5712408,16.7580013 13.2313655,16.4365989 13.6707293,15.8761595 C13.7951105,15.7175755 13.9441876,15.5324105 14.1167861,15.3179875 C14.8974947,14.3480981 16.0770811,12.8826234 17.0416433,11.2908826 C17.5815665,10.3999164 18.0044026,9.5505017 18.2984318,8.76629628 C18.6171296,7.91628056 18.7959294,7.11205068 18.8319898,6.37084461 L21.5852048,5.30640582 C22.1100755,5.10334727 22.7007019,5.17210799 23.1650621,5.49034142 Z M11.8425193,4.10023857 C10.8520318,4.10023857 10.0462174,4.90608024 10.0462174,5.8965678 C10.0462174,6.88705535 10.8520318,7.69286971 11.8425193,7.69286971 C12.8330069,7.69286971 13.6388485,6.88702804 13.6388485,5.8965678 C13.6388486,4.90605293 12.8330069,4.10023857 11.8425193,4.10023857 Z" id="Combined-Shape"></path>
                        </g>
                    </g>
                </g>
            </g>
        </g>
    </g>
</svg>
