<?xml version="1.0" encoding="UTF-8"?>
<svg width="18px" height="18px" viewBox="0 0 18 18" version="1.1" xmlns="http://www.w3.org/2000/svg" xmlns:xlink="http://www.w3.org/1999/xlink">
    <!-- Generator: Sketch 46.2 (44496) - http://www.bohemiancoding.com/sketch -->

    <defs></defs>
    <g id="正式页面" stroke="none" stroke-width="1" fill-rule="evenodd">
        <g id="车辆监控-左菜单展开样式" transform="translate(-20.000000, -286.000000)" fill-rule="nonzero">
            <g id="Sidebars-/-#3" transform="translate(0.000000, 60.000000)">
                <g id="Group">
                    <g id="左弹菜/设备监控-选中" transform="translate(0.000000, 210.000000)">
                        <g id="左侧弹出菜单/推荐应用">
                            <g id="icon/menu/left/故障监控" transform="translate(20.000000, 16.000000)">
                                <g id="icon_menu_left_charger_monitoring_a">
                                    <path d="M12.3333333,6.97750938 L12.3333333,16.330882 L12.5082305,16.330882 C12.9979424,16.330882 13.3943759,16.7004724 13.3943759,17.165441 C13.3943759,17.6304096 12.9979424,18 12.5082305,18 L0.886145405,18 C0.396433471,18 0,17.6304096 0,17.165441 C0,16.7004724 0.396433471,16.330882 0.886145405,16.330882 L1.06104252,16.330882 L1.06104252,1.35019724 C1.06104252,0.622938684 1.70233196,0.0268251108 2.48353909,0.0268251108 L10.9108368,0.0268251108 C11.7037037,0.0268251108 12.3333333,0.611016413 12.3333333,1.35019724 L12.3333333,5.33223591 L12.8580247,5.33223591 C14.1289438,5.33223591 15.1550069,6.2979399 15.1550069,7.49016705 L15.1550069,12.1398529 C15.1550069,12.4140652 15.3998628,12.6405883 15.691358,12.6405883 C15.994513,12.6405883 16.2277092,12.4140652 16.2277092,12.1398529 L16.2277092,4.66458871 L15.2133059,4.66458871 C15.0150892,4.66458871 14.8168724,4.59305508 14.6769547,4.44998782 C14.3854595,4.16385331 14.3854595,3.71080699 14.6769547,3.42467248 L15.5747599,2.54242439 L14.3621399,1.39788633 C14.0240055,1.075985 14.0240055,0.563327327 14.3621399,0.241425997 C14.7002743,-0.0804753324 15.2482853,-0.0804753324 15.5864198,0.241425997 L17.4636488,1.9939999 C17.7901235,2.29205669 18,2.72125846 18,3.18622705 L18,12.1279306 C18,13.3201578 16.9739369,14.2858618 15.7030178,14.2858618 C14.4320988,14.2858618 13.4060357,13.3201578 13.4060357,12.1279306 L13.4060357,7.47824478 C13.4060357,7.20403253 13.1611797,6.97750938 12.8696845,6.97750938 L12.3333333,6.97750938 Z M9.14151559,7.53471038 C9.06572905,7.39539039 8.92769701,7.30988091 8.77854759,7.3098553 L7.48737415,7.3098553 L8.98382025,4.6983936 C9.06460885,4.55744218 9.06858211,4.38006626 8.9941998,4.23502643 C8.91987868,4.08992891 8.7788494,3.99995587 8.62580492,4.00000002 L5.46452171,4.00000002 C5.26180056,3.99999749 5.08779165,4.1565038 5.05028823,4.37256802 L4.20727938,9.22789481 C4.18407136,9.36158084 4.21698105,9.49953084 4.29705982,9.60423421 C4.377111,9.70901084 4.49604758,9.76965237 4.62151285,9.76966126 L5.82158865,9.76966126 L5.41884117,13.4895128 C5.39535387,13.7065281 5.51675618,13.9112279 5.70857774,13.9780457 C5.90039929,14.0448634 6.10900075,13.9551148 6.20642219,13.7638531 L9.14736397,7.98807764 C9.21957707,7.84649454 9.21735252,7.67404708 9.14151559,7.53471038 Z" id="Combined-Shape"></path>
                                </g>
                            </g>
                        </g>
                    </g>
                </g>
            </g>
        </g>
    </g>
</svg>
