<?xml version="1.0" encoding="UTF-8"?>
<svg width="18px" height="17px" viewBox="0 0 18 17" version="1.1" xmlns="http://www.w3.org/2000/svg" xmlns:xlink="http://www.w3.org/1999/xlink">
    <!-- Generator: Sketch 46.2 (44496) - http://www.bohemiancoding.com/sketch -->

    <defs></defs>
    <g id="正式页面" stroke="none" stroke-width="1" fill-rule="evenodd">
        <g id="车辆监控-左菜单展开样式" transform="translate(-20.000000, -437.000000)" fill-rule="nonzero">
            <g id="Sidebars-/-#3" transform="translate(0.000000, 60.000000)">
                <g id="Group">
                    <g id="左弹菜/设备监控-选中" transform="translate(0.000000, 360.000000)">
                        <g id="icon/menu/left/故障监控" transform="translate(20.000000, 16.000000)">
                            <g id="icon_menu_left_data_mining_a">
                                <path d="M16.9199869,1 L1.07997206,1 C0.483503953,1 -6.08367523e-15,1.49114447 -6.08367523e-15,2.096913 L-6.08367523e-15,13.6155119 C-6.08367523e-15,14.2213848 0.483503933,14.7124458 1.07997206,14.7124458 L16.9200074,14.7124458 C17.516455,14.7124458 18,14.2214056 18,13.6155119 L18,2.09691298 C17.9999795,1.49116534 17.5163522,1 16.9199869,1 L16.9199869,1 L16.9199869,1 Z M16.8752286,11.2818867 L1.12485357,11.2818867 L1.12485357,2.14331787 L16.8752286,2.14331787 L16.8752286,11.2818867 L16.8752286,11.2818867 L16.8752286,11.2818867 Z M6.74986128,14.7124457 L11.2505703,14.7124457 L11.2505703,16.8561602 L6.74986128,16.8561602 L6.74986128,14.7124457 L6.74986128,14.7124457 L6.74986128,14.7124457 Z M4.49994863,16.8561602 L13.5000719,16.8561602 L13.5000719,18 L4.49994863,18 L4.49994863,16.8561602 L4.49994863,16.8561602 L4.49994863,16.8561602 Z M14.2487756,3.06454777 C13.6959354,3.06454777 13.2467297,3.52122781 13.2467297,4.08240754 C13.2467297,4.2188041 13.2741025,4.3489173 13.3223131,4.46798769 L10.3561661,7.27223729 C10.1971901,7.16435585 10.0067108,7.10089618 9.8016819,7.10089618 C9.69755428,7.10089618 9.59702296,7.1181806 9.5004167,7.14928418 L8.55264376,5.93613978 C8.62343903,5.79487938 8.66509419,5.63973717 8.66509419,5.47655814 C8.66509419,4.9155454 8.2157035,4.45865661 7.66306887,4.45865661 C7.11041366,4.45865661 6.66098189,4.9155454 6.66098189,5.47655814 C6.66098189,5.52809825 6.67037331,5.57736301 6.67768916,5.62742099 L4.28534341,7.53296471 C4.13016922,7.43324535 3.948136,7.37302129 3.75101896,7.37302129 C3.19826102,7.37302129 2.74893198,7.82980569 2.74893198,8.39081843 C2.74893198,8.95216518 3.19824047,9.40897047 3.75101896,9.40897047 C4.30375636,9.40897047 4.75294154,8.95216518 4.75294154,8.39081843 C4.75294154,8.28721633 4.73319285,8.18885385 4.7047309,8.09470809 L7.01799968,6.25224829 C7.02426746,6.25750875 7.0287474,6.26468971 7.03501521,6.26963707 C7.21238356,6.41473844 7.4355171,6.49479367 7.66341825,6.49479367 C7.79590507,6.49479367 7.92471341,6.46828255 8.04359604,6.41864206 L8.95509795,7.58508933 C8.85797794,7.74373851 8.79963607,7.92526659 8.79963607,8.11877684 C8.79963607,8.68016534 9.24902676,9.13694974 9.80168196,9.13694974 C10.3540289,9.13694974 10.8037279,8.68014445 10.8037279,8.11877684 C10.8037279,8.02509032 10.7871028,7.93618415 10.76384,7.85017959 L13.794905,4.98495441 C13.9318923,5.05659705 14.084621,5.10058045 14.2489811,5.10058045 C14.8014514,5.10058045 15.251027,4.64379604 15.251027,4.08269979 C15.251027,3.5217288 14.8014514,3.06463127 14.2486112,3.06463127 L14.2487756,3.06454777 L14.2487756,3.06454777 Z M3.75101894,8.70341995 C3.580987,8.70341995 3.44278723,8.56314066 3.44278723,8.39004605 C3.44278723,8.21768206 3.58098698,8.07715227 3.75101894,8.07715227 C3.92096868,8.07715227 4.0589835,8.2173898 4.0589835,8.39004605 C4.05929176,8.56314068 3.9209687,8.70341995 3.75101894,8.70341995 L3.75101894,8.70341995 L3.75101894,8.70341995 Z M7.47039065,5.72048127 C7.39719101,5.66019458 7.35483715,5.57139278 7.35483715,5.4762659 C7.35483715,5.30390191 7.49289306,5.16326776 7.6628428,5.16326776 C7.83287474,5.16326776 7.9710334,5.30363054 7.9710334,5.4762659 C7.9710334,5.55968198 7.93918066,5.63835945 7.88120871,5.69724751 L7.88120871,5.69753975 C7.88120871,5.69795724 7.88120871,5.69753975 7.8807977,5.69753975 C7.75877092,5.82088951 7.5440424,5.78039221 7.47039065,5.72048127 L7.47039065,5.72048127 L7.47039065,5.72048127 Z M9.80157916,8.43173322 C9.63162943,8.43173322 9.49347076,8.29141219 9.49347076,8.11848457 C9.49347076,8.02043521 9.53718092,7.93054791 9.614244,7.87024035 C9.6156003,7.86915486 9.61786083,7.86886261 9.61921713,7.86748488 L9.61942263,7.86704651 C9.65735821,7.83863578 9.71798116,7.80546558 9.80196962,7.80546558 C9.97173442,7.80546558 10.110078,7.94572398 10.110078,8.11846372 C10.1097698,8.29107821 9.97173442,8.43171237 9.80168192,8.43171237 L9.80157916,8.43171235 L9.80157916,8.43173322 Z M14.2487756,4.39519694 C14.0786409,4.39519694 13.9406672,4.2550429 13.9406672,4.08230316 C13.9406672,3.90960517 14.0786409,3.76945114 14.2487756,3.76945114 C14.4184171,3.76945114 14.5567607,3.90960517 14.5567607,4.08230316 C14.5567607,4.2550429 14.4187253,4.39519694 14.2487756,4.39519694 L14.2487756,4.39519694 L14.2487756,4.39519694 Z" id="Shape"></path>
                            </g>
                        </g>
                    </g>
                </g>
            </g>
        </g>
    </g>
</svg>
