<?xml version="1.0" standalone="no"?><!DOCTYPE svg PUBLIC "-//W3C//DTD SVG 1.1//EN" "http://www.w3.org/Graphics/SVG/1.1/DTD/svg11.dtd"><svg t="1517385217538" class="icon" style="" viewBox="0 0 1024 1024" version="1.1" xmlns="http://www.w3.org/2000/svg" p-id="6790" xmlns:xlink="http://www.w3.org/1999/xlink" width="32" height="32"><defs><style type="text/css"></style></defs><path d="M896 256v32L512 416 128 288v-32l384-128 384 128zM512 480L224 384l-96 32v32l384 128 384-128v-32l-96-32-288 96z m0 160L224 544l-96 32v32l384 128 384-128v-32l-96-32-288 96z m0 160L224 704l-96 32v32l384 128 384-128v-32l-96-32-288 96z" p-id="6791"></path></svg>