<?xml version="1.0" encoding="UTF-8"?>
<svg width="18px" height="18px" viewBox="0 0 18 18" version="1.1" xmlns="http://www.w3.org/2000/svg" xmlns:xlink="http://www.w3.org/1999/xlink">
    <!-- Generator: Sketch 46.2 (44496) - http://www.bohemiancoding.com/sketch -->
    <title>icon_menu_left_vehicle_monitoring_b</title>
    <desc>Created with Sketch.</desc>
    <defs></defs>
    <g id="正式页面" stroke="none" stroke-width="1" fill="none" fill-rule="evenodd">
        <g id="车辆监控-左菜单展开样式" transform="translate(-20.000000, -76.000000)" fill-rule="nonzero" fill="#0093EE">
            <g id="Sidebars-/-#3" transform="translate(0.000000, 60.000000)">
                <g id="Group">
                    <g id="左弹菜/设备监控-选中">
                        <g id="左侧弹出菜单/全部应用-选中">
                            <g id="icon/menu/left/故障监控" transform="translate(20.000000, 16.000000)">
                                <g id="icon_menu_left_vehicle_monitoring_b">
                                    <path d="M8.88190999,11.9333864 C8.55099394,11.9333864 8.24394744,11.783838 8.03950931,11.5231168 C7.94403108,11.4013719 7.83080948,11.2606951 7.69972157,11.097829 C6.51259532,9.62303871 4.30286859,6.87787582 4.30286859,4.59100844 C4.30286859,3.3679037 4.77917379,2.21800575 5.6440303,1.35314924 C6.50888682,0.488292727 7.65878476,0.0119875195 8.88188951,0.0119875195 C10.1049943,0.0119875195 11.2548717,0.488292727 12.1197282,1.35314924 C12.9845847,2.21800575 13.4608899,3.3679037 13.4608899,4.59100844 C13.4608899,6.87789633 11.2511632,9.62305919 10.0640574,11.0978699 C9.93296953,11.2607156 9.81974793,11.4013719 9.72424922,11.5231373 C9.51987254,11.783838 9.21284654,11.9333864 8.88190999,11.9333864 Z M17.3737966,4.11775606 C17.7220462,4.35643114 17.9299674,4.75096519 17.9300289,5.17315925 L17.9300289,14.845923 C17.9300289,15.3703566 17.6014281,15.8499195 17.1123378,16.0392164 L17.110289,16.039995 L12.2352651,17.9082334 C12.0867616,17.9655203 11.9307387,17.9941638 11.7747568,17.9941638 C11.6183036,17.9941638 11.4618914,17.9653564 11.3129987,17.9077211 L6.2433918,15.9462993 L1.77128191,17.8792006 L1.75939835,17.8838106 C1.36562238,18.0361455 0.922632087,17.9845954 0.574382443,17.7459204 C0.226112296,17.5072248 0.0181910523,17.1126703 0.0181910523,16.6904557 L0.0181910523,7.01767151 C0.0181910523,6.49854453 0.340194434,6.02336621 0.821171112,5.83019696 L3.66037801,4.59619212 C3.66412747,5.20157733 3.80021466,5.8669745 4.06556628,6.57472221 C4.2860882,7.16289675 4.60323571,7.7999373 5.00817812,8.46818243 C5.73162031,9.66200855 6.61633056,10.7610941 7.2017596,11.4883882 L7.20343968,11.490478 C7.33245822,11.6507626 7.44387679,11.7891855 7.53636364,11.9071401 C7.8659479,12.3274492 8.36104143,12.5685009 8.89471554,12.5685009 C9.42843061,12.5685009 9.92352414,12.3274492 10.253047,11.9071196 C10.3463329,11.7881816 10.4581407,11.6493079 10.5875895,11.4884906 C11.173121,10.7610736 12.0578108,9.66196758 12.7812325,8.46816195 C13.1861749,7.7999373 13.5033019,7.16287627 13.7238239,6.57472221 C13.9628472,5.93721042 14.096947,5.33403801 14.1239923,4.77813346 L16.1889036,3.97980436 C16.5825566,3.82751045 17.0255264,3.87908099 17.3737966,4.11775606 Z M8.88188949,3.07517893 C8.13902382,3.07517893 7.53466305,3.67956018 7.53466305,4.42242585 C7.53466305,5.16529151 8.13902382,5.76965228 8.88188949,5.76965228 C9.62475515,5.76965228 10.2291364,5.16527103 10.2291364,4.42242585 C10.2291364,3.6795397 9.62475515,3.07517893 8.88188949,3.07517893 Z" id="Combined-Shape"></path>
                                </g>
                            </g>
                        </g>
                    </g>
                </g>
            </g>
        </g>
    </g>
</svg>