<?xml version="1.0" encoding="UTF-8"?>
<svg width="18px" height="18px" viewBox="0 0 18 18" version="1.1" xmlns="http://www.w3.org/2000/svg" xmlns:xlink="http://www.w3.org/1999/xlink">
    <!-- Generator: Sketch 46.2 (44496) - http://www.bohemiancoding.com/sketch -->
    <title>icon_menu_left_business_setting_a</title>
    <desc>Created with Sketch.</desc>
    <defs></defs>
    <g id="正式页面" stroke="none" stroke-width="1" fill="none" fill-rule="evenodd">
        <g id="车辆监控-左菜单展开样式" transform="translate(-20.000000, -536.000000)" fill-rule="nonzero" fill="#8DABC4">
            <g id="Sidebars-/-#3" transform="translate(0.000000, 60.000000)">
                <g id="Group">
                    <g id="左弹菜/设备监控-选中" transform="translate(0.000000, 460.000000)">
                        <g id="icon/menu/left/故障监控" transform="translate(20.000000, 16.000000)">
                            <g id="icon_menu_left_business_setting_a">
                                <path d="M13.4717718,4.49814456 L13.4717718,1 L13.4717718,1 C13.4717718,0.44771525 13.0240565,-3.79133458e-15 12.4717718,-8.10462808e-15 L5.52818507,0 L5.52818507,-3.33066907e-15 C4.97590032,-3.22921601e-15 4.52818507,0.44771525 4.52818507,1 L4.52818507,4.49814456 L0.999999779,4.49579885 L1.00000022,4.49513422 C0.447715593,4.49476703 -0.000297221056,4.94218452 -0.000664406891,5.49446915 C-0.000664554232,5.49469077 -0.000664627903,5.49491238 -0.000664627903,5.495134 L1.42868245e-14,9.06715083 L6.76096445,9.06715083 L6.76096445,7.85819117 L11.1422593,7.85819117 L11.1422593,9.06715083 L17.9999569,9.06715083 L17.9999569,5.495134 L18.0006215,5.495134 C18.0006215,4.94284925 17.5529062,4.495134 17.0006215,4.495134 C17.0003999,4.495134 17.0001782,4.49513407 16.9999566,4.49513422 L13.4717718,4.49814456 Z M11.1422593,4.49814456 L6.85776231,4.49814456 L6.85776231,2.18601788 L11.1422593,2.18601788 L11.1422593,4.49814456 Z M6.80937417,12.3066388 L6.80937417,10.0824369 L4.83444088e-17,10.0824369 L-2.17218986e-14,17 L-2.48689958e-14,17 C-2.62729426e-14,17.5522847 0.44771525,18 1,18 L17,18 L17,18 C17.5522847,18 18,17.5522847 18,17 L18,10.0824588 L11.1906258,10.0824588 L11.1906258,12.3066388 L6.80937417,12.3066388 Z" id="Shape"></path>
                            </g>
                        </g>
                    </g>
                </g>
            </g>
        </g>
    </g>
</svg>