<?xml version="1.0" encoding="UTF-8"?>
<svg width="14px" height="14px" viewBox="0 0 14 14" version="1.1" xmlns="http://www.w3.org/2000/svg" xmlns:xlink="http://www.w3.org/1999/xlink">
    <!-- Generator: Sketch 46.2 (44496) - http://www.bohemiancoding.com/sketch -->
    <title>icon_popup_table_analysis 14px</title>
    <desc>Created with Sketch.</desc>
    <defs></defs>
    <g id="正式页面" stroke="none" stroke-width="1" fill="none" fill-rule="evenodd">
        <g id="2.1-充电机监控-条件筛选" transform="translate(-1395.000000, -203.000000)" fill-rule="nonzero" fill="#A8C6DF">
            <g id="Map/default" transform="translate(0.000000, 20.000000)">
                <g id="数据" transform="translate(1384.000000, 172.000000)">
                    <g id="弹出图标/icon_home_full_screen" transform="translate(11.000000, 11.000000)">
                        <g id="icon_popup_table_analysis-14px">
                            <path d="M13.125,6.70833333 C12.6,6.70833333 12.25,6.35833333 12.25,5.83333333 L12.25,5.30833333 L8.4875,9.07083333 L8.4875,9.07083333 C8.3125,9.24583333 8.1375,9.33333333 7.875,9.33333333 C7.6125,9.33333333 7.4375,9.24583333 7.2625,9.07083333 L7.2625,9.07083333 L6.125,7.93333333 L4.1125,9.94583333 L4.1125,9.94583333 C3.9375,10.1208333 3.7625,10.2083333 3.5,10.2083333 C2.975,10.2083333 2.625,9.85833333 2.625,9.33333333 C2.625,9.07083333 2.7125,8.89583333 2.8875,8.72083333 L2.8875,8.72083333 L5.5125,6.09583333 L5.5125,6.09583333 C5.6875,5.92083333 5.8625,5.83333333 6.125,5.83333333 C6.3875,5.83333333 6.5625,5.92083333 6.7375,6.09583333 L6.7375,6.09583333 L7.875,7.23333333 L11.025,4.08333333 L10.5,4.08333333 C9.975,4.08333333 9.625,3.73333333 9.625,3.20833333 C9.625,2.68333333 9.975,2.33333333 10.5,2.33333333 L13.125,2.33333333 C13.65,2.33333333 14,2.68333333 14,3.20833333 L14,5.83333333 C14,6.35833333 13.65,6.70833333 13.125,6.70833333 Z M13.125,11.8611111 C13.65,11.8611111 14,12.2111111 14,12.7361111 C14,13.2611111 13.65,13.6111111 13.125,13.6111111 L0.875,13.6111111 C0.35,13.6111111 0,13.2611111 0,12.7361111 L0,0.875 C0,0.35 0.35,0 0.875,0 C1.4,0 1.75,0.35 1.75,0.875 L1.75,11.8611111 L13.125,11.8611111 Z" id="Shape"></path>
                        </g>
                    </g>
                </g>
            </g>
        </g>
    </g>
</svg>