<?xml version="1.0" encoding="UTF-8"?>
<svg width="14px" height="18px" viewBox="0 0 14 18" version="1.1" xmlns="http://www.w3.org/2000/svg" xmlns:xlink="http://www.w3.org/1999/xlink">
    <!-- Generator: Sketch 46.2 (44496) - http://www.bohemiancoding.com/sketch -->
    <title>icon_menu_left_resource_center_a</title>
    <desc>Created with Sketch.</desc>
    <defs></defs>
    <g id="正式页面" stroke="none" stroke-width="1" fill="none" fill-rule="evenodd">
        <g id="车辆监控-左菜单展开样式" transform="translate(-22.000000, -486.000000)" fill-rule="nonzero" fill="#8DABC4">
            <g id="Sidebars-/-#3" transform="translate(0.000000, 60.000000)">
                <g id="Group">
                    <g id="左弹菜/设备监控-选中" transform="translate(0.000000, 410.000000)">
                        <g id="icon/menu/left/故障监控" transform="translate(20.000000, 16.000000)">
                            <g id="icon_menu_left_resource_center_a">
                                <path d="M14.6,0 L3.4,0 C2.62774876,0.00209614753 2.00228247,0.57650396 2,1.28571429 L2,16.7142857 C2.00228247,17.423496 2.62774876,17.9979039 3.4,18 L14.6,18 C15.3722512,17.9979039 15.9977175,17.423496 16,16.7142857 L16,1.28571429 C15.9977175,0.57650396 15.3722512,0.00209614753 14.6,0 Z M8.3,16.0714286 L4.1,16.0714286 L4.1,12.2142857 L8.3,12.2142857 L8.3,16.0714286 Z M8.3,10.9285714 L4.1,10.9285714 L4.1,7.07142857 L8.3,7.07142857 L8.3,10.9285714 Z M13.9,16.0714286 L9.7,16.0714286 L9.7,12.2142857 L13.9,12.2142857 L13.9,16.0714286 Z M13.9,10.9285714 L9.7,10.9285714 L9.7,7.07142857 L13.9,7.07142857 L13.9,10.9285714 Z M14.6,5.78571429 L13.2,5.14285714 L11.8,5.78571429 L11.8,1.28571429 L14.6,1.28571429 L14.6,5.78571429 Z" id="Shape"></path>
                            </g>
                        </g>
                    </g>
                </g>
            </g>
        </g>
    </g>
</svg>