<?xml version="1.0" encoding="UTF-8"?>
<svg width="14px" height="18px" viewBox="0 0 14 18" version="1.1" xmlns="http://www.w3.org/2000/svg" xmlns:xlink="http://www.w3.org/1999/xlink">
    <!-- Generator: Sketch 46.2 (44496) - http://www.bohemiancoding.com/sketch -->
    <title>icon_menu_left_energy_management_a</title>
    <desc>Created with Sketch.</desc>
    <defs></defs>
    <g id="正式页面" stroke="none" stroke-width="1" fill="none" fill-rule="evenodd">
        <g id="车辆监控-左菜单展开样式" transform="translate(-22.000000, -386.000000)" fill-rule="nonzero" fill="#8DABC4">
            <g id="Sidebars-/-#3" transform="translate(0.000000, 60.000000)">
                <g id="Group">
                    <g id="左弹菜/设备监控-选中" transform="translate(0.000000, 310.000000)">
                        <g id="左侧弹出菜单/推荐应用">
                            <g id="icon/menu/left/故障监控" transform="translate(20.000000, 16.000000)">
                                <g id="icon_menu_left_energy_management_a">
                                    <g id="能源" transform="translate(2.250000, 0.000000)">
                                        <path d="M0.46169977,5.29555667 L0.46169977,5.72366996 C0.468602919,5.72712154 0.475506069,5.72712154 0.478957644,5.73057311 C1.4490862,6.2001053 3.91067862,6.51773869 6.60355606,6.51773869 C9.26191775,6.51773869 11.6958681,6.21046003 12.6936092,5.75128256 L12.6936092,5.3197472 C11.4783893,5.75818571 9.16524415,6.03094863 6.60355606,6.03094863 C4.00390064,6.02749706 1.66314284,5.74437941 0.46169977,5.29555667 Z" id="Shape"></path>
                                        <path d="M6.60700763,13.902457 C9.26533982,13.902457 11.6992901,13.5951783 12.6970608,13.1360303 L12.6970608,6.52464184 C11.4818114,6.96308036 9.16869572,7.23584328 6.60700763,7.23584328 C4.00390064,7.23584328 1.66314284,6.95272563 0.461670269,6.50390289 L0.461670269,13.1083587 C0.468573419,13.1118103 0.475476569,13.1118103 0.478928143,13.1152619 C1.45253777,13.5882751 3.91413019,13.902457 6.60700763,13.902457 Z M4.4906907,11.0300091 C4.88771032,9.46606218 6.25485849,7.82272901 6.31011319,7.75369752 C6.37569311,7.67428179 6.47236671,7.62941132 6.57594346,7.62941132 C6.67954971,7.62941132 6.7761643,7.67428179 6.8452253,7.75369752 C6.90393157,7.82272901 8.26765767,9.46606218 8.66467729,11.0300091 C8.81654658,11.6307307 8.70606668,12.2142533 8.35052497,12.6734013 C7.95692743,13.1774492 7.32859329,13.4570563 6.58287611,13.4570563 L6.57597296,13.4570563 C5.8268042,13.4570563 5.19844056,13.1774197 4.8083536,12.6734013 C4.4492423,12.2142533 4.33876241,11.6342117 4.4906907,11.0300091 L4.4906907,11.0300091 Z" id="Shape"></path>
                                        <path d="M6.60700763,15.1107737 C9.26533982,15.1107737 11.6992901,14.803495 12.6970608,14.344347 L12.6970608,13.9128412 C11.4818114,14.3512502 9.16869572,14.6240131 6.60700763,14.6240131 C4.00390064,14.6240131 1.66314284,14.340866 0.461670269,13.8920727 L0.461670269,14.320186 C0.468573419,14.3236376 0.475476569,14.3236376 0.478928143,14.3270892 C1.45253777,14.7966509 3.91413019,15.1107737 6.60700763,15.1107737 Z M0.46169977,2.35410684 L0.46169977,4.51532374 C0.468602919,4.51877531 0.475506069,4.51877531 0.478957644,4.52222689 C1.4490862,4.99175908 3.91067862,5.30939247 6.60355606,5.30939247 C9.26191775,5.30939247 11.6958681,5.0021138 12.6936092,4.54293634 L12.6936092,2.35410684 C12.9940142,2.15730807 13.1390099,1.92947462 13.1390099,1.670518 C13.1390099,1.11124487 12.4727084,0.710773675 11.0434024,0.410398156 C9.84538141,0.158374187 8.26072502,0.0202816901 6.57594346,0.0202816901 C4.8911619,0.0202816901 3.30650551,0.158374187 2.10851401,0.410398156 C0.67920799,0.710773675 0.0129065301,1.11124487 0.0129065301,1.670518 C0.016358105,1.92947462 0.161353752,2.15385649 0.46169977,2.35410684 Z" id="Shape"></path>
                                        <path d="M6.60700763,15.8323298 C4.00390064,15.8323298 1.66314284,15.5492417 0.461670269,15.1004485 L0.461670269,16.3467325 C0.468573419,16.8887478 1.11074335,17.2996327 2.42263682,17.5930755 C3.53779052,17.8450995 5.01196702,17.9831625 6.57936553,17.9831625 C8.14676405,17.9831625 9.62097004,17.8450995 10.7360647,17.5930755 C12.0583424,17.2961811 12.6970313,16.8852962 12.6970313,16.3363483 L12.6970313,15.1211284 C11.4783598,15.5561743 9.16869572,15.8323298 6.60700763,15.8323298 L6.60700763,15.8323298 Z" id="Shape"></path>
                                    </g>
                                </g>
                            </g>
                        </g>
                    </g>
                </g>
            </g>
        </g>
    </g>
</svg>