<?xml version="1.0" encoding="UTF-8"?>
<svg width="14px" height="14px" viewBox="0 0 14 14" version="1.1" xmlns="http://www.w3.org/2000/svg" xmlns:xlink="http://www.w3.org/1999/xlink">
    <!-- Generator: Sketch 46.2 (44496) - http://www.bohemiancoding.com/sketch -->
    <title>icon_popup_delete 14px</title>
    <desc>Created with Sketch.</desc>
    <defs></defs>
    <g id="正式页面" stroke="none" stroke-width="1" fill="none" fill-rule="evenodd">
        <g id="1.3-车辆监控-筛选结果列表" transform="translate(-392.000000, -237.000000)" fill-rule="nonzero" fill="#A8C6DF">
            <g id="树状筛选" transform="translate(80.000000, 178.000000)">
                <g id="Group">
                    <g id="左侧菜单/充电机监控/充电桩筛选/默认列表" transform="translate(0.000000, 40.000000)">
                        <g id="2" transform="translate(312.000000, 19.000000)">
                            <g id="弹出图标/icon_popup_delete-14px">
                                <g id="icon_popup_delete-14px">
                                    <path d="M1.94682672,12.5481965 C1.94682672,13.3477509 2.59464125,13.9955474 3.39417764,13.9955474 L10.1484999,13.9955474 C10.9475504,13.9955474 11.5958508,13.3477509 11.5958508,12.5481965 L12.0783012,3.86407303 L1.46439442,3.86407301 L1.94682672,12.5481965 Z M7.73624839,6.03509939 C7.73624839,5.63556517 8.06038964,5.31142393 8.45992385,5.31142393 C8.85944008,5.31142393 9.18359931,5.63556517 9.18359931,6.03509939 L9.18359931,11.3420528 C9.18359931,11.741587 8.85944008,12.0657462 8.45992385,12.0657462 C8.06038964,12.0657462 7.73624839,11.741587 7.73624839,11.3420528 L7.73624839,6.03509939 Z M4.35909626,6.03509939 C4.35909626,5.63556517 4.68323751,5.31142393 5.08277172,5.31142393 C5.48230594,5.31142393 5.80644718,5.63556517 5.80644718,6.03509939 L5.80644717,11.3420528 C5.80644717,11.741587 5.48230592,12.0657462 5.08277171,12.0657462 C4.68323749,12.0657462 4.35909625,11.741587 4.35909625,11.3420528 L4.35909626,6.03509939 Z M12.5607694,1.45182149 L9.64189651,1.45182149 C9.65771661,1.37387282 9.66606761,1.29320645 9.66606761,1.21059634 C9.66606761,0.544406005 9.12611419,0.00447057286 8.45992385,0.00447057286 L5.08277172,0.00447057286 C4.41658139,0.00447057286 3.87662796,0.544406005 3.87662796,1.21059634 C3.87662796,1.29322446 3.88497896,1.37387282 3.90079907,1.45182149 L0.981944118,1.45182149 C0.448577905,1.45182149 0.017043505,1.88387783 0.017043505,2.41672211 C0.017043505,2.94960238 0.448577905,3.38160473 0.981944118,3.38160473 L12.5607694,3.38160473 C13.0936317,3.38160473 13.5256521,2.94960238 13.5256521,2.41672211 C13.5256521,1.88385982 13.0936317,1.45182149 12.5607694,1.45182149 Z" id="Shape"></path>
                                </g>
                            </g>
                        </g>
                    </g>
                </g>
            </g>
        </g>
    </g>
</svg>