<?xml version="1.0" encoding="UTF-8"?>
<svg width="24px" height="24px" viewBox="0 0 24 24" version="1.1" xmlns="http://www.w3.org/2000/svg" xmlns:xlink="http://www.w3.org/1999/xlink">
    <!-- Generator: Sketch 46.2 (44496) - http://www.bohemiancoding.com/sketch -->
    <title>icon_menu_left_charger_monitoring_b</title>
    <desc>Created with Sketch.</desc>
    <defs></defs>
    <g id="正式页面" stroke="none" stroke-width="1" fill="none" fill-rule="evenodd">
        <g id="2.1-充电机监控-条件筛选" transform="translate(-18.000000, -123.000000)" fill-rule="nonzero" fill="#0093EE">
            <g id="Sidebars-/-#3">
                <g id="左侧菜单/发布中心" transform="translate(0.000000, 110.000000)">
                    <g id="icon/menu/left/故障监控" transform="translate(18.000000, 13.000000)">
                        <g id="icon_menu_left_charger_monitoring_b">
                            <path d="M16.4444444,9.30334583 L16.4444444,21.7745093 L16.6776406,21.7745093 C17.3305898,21.7745093 17.8591678,22.2672965 17.8591678,22.8872547 C17.8591678,23.5072128 17.3305898,24 16.6776406,24 L1.18152721,24 C0.528577961,24 0,23.5072128 0,22.8872547 C0,22.2672965 0.528577961,21.7745093 1.18152721,21.7745093 L1.41472337,21.7745093 L1.41472337,1.80026299 C1.41472337,0.830584912 2.26977595,0.0357668144 3.31138546,0.0357668144 L14.5477824,0.0357668144 C15.6049383,0.0357668144 16.4444444,0.81468855 16.4444444,1.80026299 L16.4444444,7.10964788 L17.1440329,7.10964788 C18.8385917,7.10964788 20.2066758,8.3972532 20.2066758,9.9868894 L20.2066758,16.1864706 C20.2066758,16.5520869 20.5331504,16.8541178 20.9218107,16.8541178 C21.3260174,16.8541178 21.6369456,16.5520869 21.6369456,16.1864706 L21.6369456,6.21945161 L20.2844079,6.21945161 C20.0201189,6.21945161 19.7558299,6.12407344 19.569273,5.9333171 C19.1806127,5.55180441 19.1806127,4.94774266 19.569273,4.56622997 L20.7663466,3.38989919 L19.1495199,1.86384844 C18.698674,1.43464667 18.698674,0.751103102 19.1495199,0.32190133 C19.6003658,-0.107300443 20.3310471,-0.107300443 20.781893,0.32190133 L23.2848651,2.65866654 C23.7201646,3.05607559 24,3.62834462 24,4.24830273 L24,16.1705742 C24,17.7602104 22.6319159,19.0478157 20.9373571,19.0478157 C19.2427984,19.0478157 17.8747142,17.7602104 17.8747142,16.1705742 L17.8747142,9.97099304 C17.8747142,9.60537671 17.5482396,9.30334583 17.1595793,9.30334583 L16.4444444,9.30334583 Z M12.1886875,10.0462805 C12.0876387,9.86052052 11.903596,9.74650788 11.7047301,9.74647373 L9.98316554,9.74647373 L11.978427,6.26452479 C12.0861451,6.07658957 12.0914428,5.84008835 11.9922664,5.6467019 C11.8931716,5.45323854 11.7051325,5.33327449 11.5010732,5.33333335 L7.28602895,5.33333335 C7.01573408,5.33332999 6.7837222,5.54200507 6.73371764,5.83009069 L5.60970584,12.3038597 C5.57876181,12.4821078 5.6226414,12.6660411 5.72941309,12.8056456 C5.83614799,12.9453478 5.9947301,13.0262032 6.16201714,13.026215 L7.7621182,13.026215 L7.22512156,17.986017 C7.19380515,18.2753708 7.35567491,18.5483039 7.61143698,18.6373943 C7.86719906,18.7264846 8.14533433,18.6068197 8.27522959,18.3518041 L12.1964853,10.6507702 C12.2927694,10.4619927 12.2898034,10.2320628 12.1886875,10.0462805 Z" id="Combined-Shape"></path>
                        </g>
                    </g>
                </g>
            </g>
        </g>
    </g>
</svg>