<?xml version="1.0" encoding="UTF-8"?>
<svg width="36px" height="45px" viewBox="0 0 36 45" version="1.1" xmlns="http://www.w3.org/2000/svg" xmlns:xlink="http://www.w3.org/1999/xlink">
    <!-- Generator: Sketch 46.2 (44496) - http://www.bohemiancoding.com/sketch -->
    <title>icon_add_dashboard</title>
    <desc>Created with Sketch.</desc>
    <defs></defs>
    <g id="正式页面" stroke="none" stroke-width="1" fill="none" fill-rule="evenodd">
        <g id="1.4-车辆监控-结果详情" transform="translate(-394.000000, -326.000000)">
            <g id="左侧菜单/地图监控/车辆-筛选展开1" transform="translate(80.000000, 178.000000)">
                <g id="树状筛选">
                    <g id="Group">
                        <g id="车辆" transform="translate(0.000000, 90.000000)">
                            <g id="实时信息" transform="translate(0.000000, 46.000000)">
                                <g id="icon_add_dashboard" transform="translate(314.000000, 10.000000)">
                                    <path d="M15.1578947,17.1735289 C14.1315789,18.9908262 14.8421053,20.413059 16.2631579,21.2822012 C17.6842105,22.0723305 19.3421053,21.9933175 20.3684211,20.1760202 C21.3947368,18.3587228 27.9473684,2.39811116 27.3947368,2.00304651 C26.8421053,1.76600773 16.2631579,15.4352444 15.1578947,17.1735289 Z M18,5.7956671 C18.6315789,5.7956671 19.2631579,5.87468003 19.8947368,5.95369296 C20.5263158,5.16356367 21.3157895,4.21540852 22.0263158,3.34626631 C20.7631579,2.95120166 19.4210526,2.7931758 18,2.7931758 C9.55263158,2.7931758 3,9.90433941 3,18.9908262 C3,19.5439167 3,20.0970072 3.07894737,20.6500977 C3.15789474,21.440227 3.86842105,22.0723305 4.73684211,21.9933175 C5.52631579,21.9143046 6.15789474,21.2031882 6.07894737,20.334046 C6,19.8599685 6,19.3858909 6,18.9118133 C6,11.5636109 11.2894737,5.7956671 18,5.7956671 Z M28.8157895,7.6919774 C28.4210526,8.7981584 27.9473684,9.98335234 27.5526316,10.9315075 C29.0526316,13.1438695 30,15.909322 30,18.9118133 C30,19.3858909 30,19.8599685 29.9210526,20.334046 C29.8421053,21.1241753 30.4736842,21.9143046 31.2631579,21.9933175 L31.4210526,21.9933175 C32.2105263,21.9933175 32.8421053,21.440227 32.9210526,20.6500977 C33,20.0970072 33,19.5439167 33,18.9908262 C33,14.4870893 31.4210526,10.5364428 28.8157895,7.6919774 L28.8157895,7.6919774 Z" id="Shape" fill="#0093EE" fill-rule="nonzero"></path>
                                    <rect id="Rectangle" fill="#0093EE" x="3" y="27" width="30" height="3" rx="1.5"></rect>
                                    <text id="仪表盘" font-family="PingFangSC-Semibold, PingFang SC" font-size="12" font-weight="500" line-spacing="18" fill="#008BE1">
                                        <tspan x="0" y="45">仪表盘</tspan>
                                    </text>
                                </g>
                            </g>
                        </g>
                    </g>
                </g>
            </g>
        </g>
    </g>
</svg>