<?xml version="1.0" encoding="UTF-8"?>
<svg width="18px" height="18px" viewBox="0 0 18 18" version="1.1" xmlns="http://www.w3.org/2000/svg" xmlns:xlink="http://www.w3.org/1999/xlink">
    <!-- Generator: Sketch 46.2 (44496) - http://www.bohemiancoding.com/sketch -->
    <title>icon_bus_filled_grey</title>
    <desc>Created with Sketch.</desc>
    <defs></defs>
    <g id="样式整理概览" stroke="none" stroke-width="1" fill="none" fill-rule="evenodd">
        <g id="组件2-图标-弹出消息框" transform="translate(-375.000000, -501.000000)" fill="#A8C6DF">
            <g id="图标2" transform="translate(100.000000, 226.000000)">
                <g id="普通图标-18px" transform="translate(30.000000, 275.000000)">
                    <g id="灰" transform="translate(79.000000, 0.000000)">
                        <g id="Icons-Grey-/-bus" transform="translate(166.000000, 0.000000)">
                            <path d="M13.5,16 L4.5,16 L4.5,17 C4.5,17.5522847 4.05228475,18 3.5,18 L2.5,18 C1.94771525,18 1.5,17.5522847 1.5,17 L1.5,15 L1.5,7 L1,7 L1,7 C0.44771525,7 9.08544683e-17,6.55228475 -2.22044605e-16,6 L-5.55111512e-17,4 L0,4 C-6.76353751e-17,3.44771525 0.44771525,3 1,3 L1,3 L1.5,3 L1.5,1 L1.5,1 C1.5,0.44771525 1.94771525,-5.18242566e-16 2.5,-1.11022302e-15 L2.5,2.96059473e-17 L15.5,6.18764299e-15 L15.5,6.21724894e-15 C16.0522847,7.09685067e-15 16.5,0.44771525 16.5,1 L16.5,3 L17,3 C17.5522847,3 18,3.44771525 18,4 L18,6 C18,6.55228475 17.5522847,7 17,7 L16.5,7 L16.5,15 L16.5,17 C16.5,17.5522847 16.0522847,18 15.5,18 L14.5,18 L14.5,18 C13.9477153,18 13.5,17.5522847 13.5,17 L13.5,16 Z M4,3.00006057 L4,3.00006057 C3.44771525,3.00006057 3,3.44777582 3,4.00006057 L3,4.00006057 L3,10.1528729 C3,10.6417121 3.35341304,11.0589022 3.83560101,11.1392668 L3.83560101,11.1392668 L8.67120203,11.9452003 C8.88889924,11.9814832 9.11110076,11.9814832 9.32879797,11.9452003 L14.164399,11.1392668 C14.646587,11.0589022 15,10.6417121 15,10.1528729 L15,10.1528729 L15,4.00006057 C15,3.44777582 14.5522847,3.00006057 14,3.00006057 L4,3.00006057 Z M4.10679207,12.7022815 L4.10679207,12.7022815 C4.02105032,12.6737009 3.93126162,12.6591302 3.84088188,12.6591302 C3.37647564,12.6591302 3,13.0356059 3,13.5000121 L3,13.6666734 C3,14.2189581 3.44771525,14.6666734 4,14.6666734 L6,14.6666734 L6,14.0541101 C6,13.6236796 5.72456991,13.2415408 5.31622777,13.1054268 L4.10679207,12.7022815 Z M12.6837722,13.1054268 C12.2754301,13.2415408 12,13.6236796 12,14.0541101 L12,14.6666734 L14,14.6666734 C14.5522847,14.6666734 15,14.2189581 15,13.6666734 L15,13.5000121 C15,13.4096324 14.9854293,13.3198437 14.9568487,13.2341019 C14.8099906,12.7935275 14.3337824,12.5554234 13.8932079,12.7022815 L12.6837722,13.1054268 Z" id="Combined-Shape"></path>
                        </g>
                    </g>
                </g>
            </g>
        </g>
    </g>
</svg>