<?xml version="1.0" encoding="UTF-8"?>
<svg width="16px" height="18px" viewBox="0 0 16 18" version="1.1" xmlns="http://www.w3.org/2000/svg" xmlns:xlink="http://www.w3.org/1999/xlink">
    <!-- Generator: Sketch 46.2 (44496) - http://www.bohemiancoding.com/sketch -->
    <title>icon_popup_delete</title>
    <desc>Created with Sketch.</desc>
    <defs></defs>
    <g id="样式整理概览" stroke="none" stroke-width="1" fill="none" fill-rule="evenodd">
        <g id="组件2-图标-弹出消息框" transform="translate(-874.000000, -626.000000)" fill-rule="nonzero" fill="#A8C6DF">
            <g id="图标2" transform="translate(100.000000, 226.000000)">
                <g id="普通图标-18px" transform="translate(30.000000, 275.000000)">
                    <g id="18" transform="translate(78.000000, 125.000000)">
                        <g id="弹出图标/icon_popup_delete" transform="translate(665.000000, 0.000000)">
                            <g id="icon_popup_delete">
                                <path d="M2.33330845,16.1379334 C2.33330845,17.1665876 3.22848116,18 4.33330845,18 L13.6666667,18 C14.7708224,18 15.6666667,17.1665876 15.6666667,16.1379334 L15.6666667,4.96551086 L2.33330845,4.96551084 L2.33330845,16.1379334 Z M15.8571642,1.86245897 L12.3999638,1.86245897 C12.4187016,1.76215419 12.4285927,1.65835228 12.4285927,1.55204914 C12.4285927,0.694791825 11.7890557,3.21623696e-16 11,3.21623696e-16 L7.00000001,0 C6.21094425,0 5.57140727,0.694791825 5.57140727,1.55204914 C5.57140727,1.65837545 5.58129844,1.76215419 5.60003625,1.86245897 L2.14285714,1.86245897 C1.51112225,1.86245897 1,2.41843139 1,3.10409828 C1,3.78981149 1.51112225,4.34571443 2.14285714,4.34571443 L15.8571642,4.34571443 C16.4883022,4.34571443 17,3.78981149 17,3.10409828 C17,2.41840822 16.4883022,1.86245897 15.8571642,1.86245897 Z" id="Shape"></path>
                            </g>
                        </g>
                    </g>
                </g>
            </g>
        </g>
    </g>
</svg>