<?xml version="1.0" encoding="UTF-8"?>
<svg width="18px" height="18px" viewBox="0 0 18 18" version="1.1" xmlns="http://www.w3.org/2000/svg" xmlns:xlink="http://www.w3.org/1999/xlink">
    <!-- Generator: Sketch 46.2 (44496) - http://www.bohemiancoding.com/sketch -->
    <title>icon_popup_collection</title>
    <desc>Created with Sketch.</desc>
    <defs></defs>
    <g id="样式整理概览" stroke="none" stroke-width="1" fill="none" fill-rule="evenodd">
        <g id="组件2-图标-弹出消息框" transform="translate(-832.000000, -626.000000)" fill-rule="nonzero" fill="#A8C6DF">
            <g id="图标2" transform="translate(100.000000, 226.000000)">
                <g id="普通图标-18px" transform="translate(30.000000, 275.000000)">
                    <g id="18" transform="translate(78.000000, 125.000000)">
                        <g id="弹出图标/icon_popup_collection" transform="translate(624.000000, 0.000000)">
                            <g id="icon_popup_collection">
                                <path d="M17.8112391,6.98584755 C17.7270211,6.88055629 17.619839,6.79586307 17.4978668,6.73822689 C17.4033812,6.67320056 17.2955234,6.63011351 17.1821988,6.61212377 L11.8284687,5.8543587 L9.68996123,0.966143445 C9.54963999,0.664048074 9.23750532,0.479471693 8.90480871,0.501854707 C8.57178525,0.479314115 8.25923605,0.663865813 8.11850831,0.966143445 L5.98344445,5.84748035 L0.704326882,6.59492789 C0.375219706,6.64869183 0.113274418,6.8993585 0.0454415835,7.22544346 C-0.0649254007,7.5399922 0.0299752967,7.88993937 0.284201413,8.10587248 L4.33508332,11.4006029 L2.79347539,16.375944 C2.7022138,16.6953953 2.81717238,17.0380004 3.0827421,17.2380307 C3.32025995,17.4738504 3.6793293,17.5378051 3.98383088,17.3985256 L9.02418862,14.9865169 L13.9130257,17.3263029 C14.2172949,17.4658743 14.5763329,17.4023821 14.8141145,17.1669544 C15.0804317,16.9669456 15.1955086,16.6235317 15.1033812,16.3037213 L13.5698085,11.3524545 L17.7010422,8.15860651 C18.0522947,7.88576522 18.1005058,7.36071771 17.8112391,6.98584755 Z" id="Shape"></path>
                            </g>
                        </g>
                    </g>
                </g>
            </g>
        </g>
    </g>
</svg>