<?xml version="1.0" encoding="UTF-8"?>
<svg width="14px" height="12px" viewBox="0 0 14 12" version="1.1" xmlns="http://www.w3.org/2000/svg" xmlns:xlink="http://www.w3.org/1999/xlink">
    <!-- Generator: Sketch 46.2 (44496) - http://www.bohemiancoding.com/sketch -->
    <title>icon_popup_gprs 14px</title>
    <desc>Created with Sketch.</desc>
    <defs></defs>
    <g id="样式整理概览" stroke="none" stroke-width="1" fill="none" fill-rule="evenodd">
        <g id="组件2-图标-弹出消息框" transform="translate(-925.000000, -863.000000)" fill-rule="nonzero" fill="#A8C6DF">
            <g id="图标2" transform="translate(100.000000, 226.000000)">
                <g id="普通图标-14px" transform="translate(30.000000, 633.000000)">
                    <g id="弹出图标/icon_popup_gprs-14px" transform="translate(795.000000, 3.000000)">
                        <g id="icon_popup_gprs-14px">
                            <path d="M0,9.67181511 L1.93108292,9.67181511 L1.93108292,12.9284053 L0,12.9284053 L0,9.67181511 Z M2.96484854,7.87655822 L4.89593147,7.87655822 L4.89593147,12.9094471 L2.96484854,12.9094471 L2.96484854,7.87655822 Z M6.11437145,4.74690133 L7.9976259,4.74690133 L7.9976259,12.8311111 L6.11437145,12.8311111 L6.11437145,4.74690133 Z M8.9975975,2.92608711 L11.0574158,2.92608711 L11.0574158,12.7155698 L8.9975975,12.7155698 L8.9975975,2.92608711 Z M11.940195,1 L14,1 L14,13 L11.9401817,13 L11.9401817,1 L11.940195,1 Z" id="Combined-Shape"></path>
                        </g>
                    </g>
                </g>
            </g>
        </g>
    </g>
</svg>