<?xml version="1.0" encoding="UTF-8"?>
<svg width="18px" height="18px" viewBox="0 0 18 18" version="1.1" xmlns="http://www.w3.org/2000/svg" xmlns:xlink="http://www.w3.org/1999/xlink">
    <!-- Generator: Sketch 46.2 (44496) - http://www.bohemiancoding.com/sketch -->
    <title>icon_popup_bus_error_blue</title>
    <desc>Created with Sketch.</desc>
    <defs></defs>
    <g id="样式整理概览" stroke="none" stroke-width="1" fill="none" fill-rule="evenodd">
        <g id="组件3-搜索-滑条-下拉选择" transform="translate(-116.000000, -2730.000000)" fill="#0093EE">
            <g id="下拉选择" transform="translate(100.000000, 1346.000000)">
                <g id="Filter/Drop/Down-Open/Title+Icon" transform="translate(0.000000, 1265.000000)">
                    <g id="下拉展开" transform="translate(0.000000, 44.000000)">
                        <g id="Group" transform="translate(0.000000, 68.000000)">
                            <g id="Checkboxes-/-Checkbox-Ok" transform="translate(16.000000, 7.000000)">
                                <g id="icon_popup_bus_error_blue">
                                    <path d="M15,16 L15,18 L11.8846154,18 L11.8846154,16 L6,16 L6,18 L3,18 L3,16 L1.96153846,16 L1.96153846,7 L4.93038066e-32,7 L2.22044605e-16,3 L1.96153846,3 L1.96153846,-7.10542736e-15 L16,1.57772181e-30 L16,16 L15,16 Z M16,3 L18,3 L18,7 L16,7 L16,3 Z M4,1.99038462 L4,1.99038462 C3.44771525,1.99038462 3,2.43809987 3,2.99038462 L3,11 L15,11 L15,2.99038462 C15,2.43809987 14.5522847,1.99038462 14,1.99038462 L14,1.99038462 L4,1.99038462 Z M4.34615385,14 C4.8984386,14 5.34615385,13.5522847 5.34615385,13 C5.34615385,12.4477153 4.8984386,12 4.34615385,12 C3.7938691,12 3.34615385,12.4477153 3.34615385,13 C3.34615385,13.5522847 3.7938691,14 4.34615385,14 Z M13.5769231,14 C14.1292078,14 14.5769231,13.5522847 14.5769231,13 C14.5769231,12.4477153 14.1292078,12 13.5769231,12 C13.0246383,12 12.5769231,12.4477153 12.5769231,13 C12.5769231,13.5522847 13.0246383,14 13.5769231,14 Z" id="Combined-Shape"></path>
                                </g>
                            </g>
                        </g>
                    </g>
                </g>
            </g>
        </g>
    </g>
</svg>