<?xml version="1.0" encoding="UTF-8"?>
<svg width="18px" height="18px" viewBox="0 0 18 18" version="1.1" xmlns="http://www.w3.org/2000/svg" xmlns:xlink="http://www.w3.org/1999/xlink">
    <!-- Generator: Sketch 46.2 (44496) - http://www.bohemiancoding.com/sketch -->
    <title>icon_refresh_filled_grey</title>
    <desc>Created with Sketch.</desc>
    <defs></defs>
    <g id="样式整理概览" stroke="none" stroke-width="1" fill="none" fill-rule="evenodd">
        <g id="组件2-图标-弹出消息框" transform="translate(-458.000000, -540.000000)" fill="#A8C6DF">
            <g id="图标2" transform="translate(100.000000, 226.000000)">
                <g id="普通图标-18px" transform="translate(30.000000, 275.000000)">
                    <g id="灰" transform="translate(79.000000, 0.000000)">
                        <g id="Icons-Grey-/-Refresh" transform="translate(249.000000, 39.000000)">
                            <path d="M14.4090909,6.09090909 L11.3181818,9.18181818 L13.6363636,9.18181818 C13.6363636,11.7395455 11.5577273,13.8181818 9,13.8181818 C8.21954545,13.8181818 7.47772727,13.625 6.83636364,13.2772727 L5.70818182,14.4054545 C6.65863636,15.0081818 7.78681818,15.3636364 9,15.3636364 C12.4154545,15.3636364 15.1818182,12.5972727 15.1818182,9.18181818 L17.5,9.18181818 L14.4090909,6.09090909 L14.4090909,6.09090909 Z M4.36363636,9.18181818 C4.36363636,6.62409091 6.44227273,4.54545455 9,4.54545455 C9.78045455,4.54545455 10.5222727,4.73863636 11.1636364,5.08636364 L12.2918182,3.95818182 C11.3413636,3.35545455 10.2131818,3 9,3 C5.58454545,3 2.81818182,5.76636364 2.81818182,9.18181818 L0.5,9.18181818 L3.59090909,12.2727273 L6.68181818,9.18181818 L4.36363636,9.18181818 L4.36363636,9.18181818 Z" id="Icon"></path>
                        </g>
                    </g>
                </g>
            </g>
        </g>
    </g>
</svg>