<?xml version="1.0" encoding="UTF-8"?>
<svg width="16px" height="16px" viewBox="0 0 16 16" version="1.1" xmlns="http://www.w3.org/2000/svg" xmlns:xlink="http://www.w3.org/1999/xlink">
    <!-- Generator: Sketch 46.2 (44496) - http://www.bohemiancoding.com/sketch -->
    <title>icon_dashboard_warning</title>
    <desc>Created with Sketch.</desc>
    <defs></defs>
    <g id="样式整理概览" stroke="none" stroke-width="1" fill="none" fill-rule="evenodd">
        <g id="组件2-图标-弹出消息框" transform="translate(-377.000000, -792.000000)" fill-rule="nonzero" fill="#A8C6DF">
            <g id="图标2" transform="translate(100.000000, 226.000000)">
                <g id="汽车功能图标-18px" transform="translate(30.000000, 532.000000)">
                    <g id="汽车仪表图标/警示-蓝灰" transform="translate(246.000000, 33.000000)">
                        <g id="icon_dashboard_warning">
                            <path d="M8.99996145,6.89511325 C9.69748434,6.89511325 10.2629398,6.32965783 10.2629398,5.63217349 C10.2629398,4.9346506 9.69748434,4.36923373 8.99996145,4.36923373 C8.30247711,4.36923373 7.73702169,4.9346506 7.73702169,5.63217349 C7.73702169,6.32965783 8.30247711,6.89511325 8.99996145,6.89511325 Z M8.99996145,1.00142651 C4.58251566,1.00142651 1.00142651,4.58251566 1.00142651,9 C1.00142651,13.4174843 4.58251566,16.9985735 8.99994217,16.9985735 C13.4174651,16.9985735 16.9985542,13.4174843 16.9985542,9 C16.9985542,4.58251566 13.4174843,1.00142651 8.99996145,1.00142651 Z M8.99996145,14.472694 C5.97752289,14.472694 3.52726747,12.0224771 3.52726747,9 C3.52726747,5.97752289 5.97752289,3.52730602 8.99996145,3.52730602 C12.0224964,3.52730602 14.4726554,5.97752289 14.4726554,9 C14.4726554,12.0224771 12.0224964,14.472694 8.99996145,14.472694 Z M10.6839133,8.57902651 C10.6839133,7.88150361 10.1184578,7.31608675 9.42097349,7.31608675 L8.57902651,7.31608675 C7.88150361,7.31608675 7.31608675,7.88150361 7.31608675,8.57902651 C7.31608675,8.95296386 7.47874699,9.28882892 7.73702169,9.52007711 L7.73702169,11.4267566 C7.47874699,11.6580048 7.31608675,11.9938506 7.31608675,12.3678265 C7.31608675,13.0653108 7.88150361,13.6307663 8.57902651,13.6307663 L9.42097349,13.6307663 C10.1184578,13.6307663 10.6839133,13.0653108 10.6839133,12.3678265 C10.6839133,11.9938506 10.5212337,11.6579855 10.2629398,11.4267373 L10.2629398,9.52009639 C10.5212337,9.28884819 10.6839133,8.95298313 10.6839133,8.57902651 Z" id="Shape"></path>
                        </g>
                    </g>
                </g>
            </g>
        </g>
    </g>
</svg>