<?xml version="1.0" encoding="UTF-8"?>
<svg width="26px" height="26px" viewBox="0 0 26 26" version="1.1" xmlns="http://www.w3.org/2000/svg" xmlns:xlink="http://www.w3.org/1999/xlink">
    <!-- Generator: Sketch 46.2 (44496) - http://www.bohemiancoding.com/sketch -->
    <title>icon_map_direction_blue</title>
    <desc>Created with Sketch.</desc>
    <defs>
        <filter x="-27.8%" y="-27.8%" width="177.8%" height="177.8%" filterUnits="objectBoundingBox" id="filter-1">
            <feOffset dx="2" dy="2" in="SourceAlpha" result="shadowOffsetOuter1"></feOffset>
            <feGaussianBlur stdDeviation="2" in="shadowOffsetOuter1" result="shadowBlurOuter1"></feGaussianBlur>
            <feColorMatrix values="0 0 0 0 0   0 0 0 0 0   0 0 0 0 0  0 0 0 0.1 0" type="matrix" in="shadowBlurOuter1" result="shadowMatrixOuter1"></feColorMatrix>
            <feMerge>
                <feMergeNode in="shadowMatrixOuter1"></feMergeNode>
                <feMergeNode in="SourceGraphic"></feMergeNode>
            </feMerge>
        </filter>
        <path d="M9,18 C13.9705627,18 18,13.9705627 18,9 C18,7.33271634 18,4.51453452 18,0.545454545 C13.6464248,0.181818182 10.6464248,0 9,0 C4.02943725,0 0,4.02943725 0,9 C0,13.9705627 4.02943725,18 9,18 Z" id="path-2"></path>
    </defs>
    <g id="正式页面" stroke="none" stroke-width="1" fill="none" fill-rule="evenodd">
        <g id="1.5-车辆监控-筛选结果列表" transform="translate(-1171.000000, -458.000000)">
            <g id="Map/default" transform="translate(0.000000, 20.000000)">
                <g id="地图车辆" transform="translate(193.000000, 60.000000)">
                    <g id="弹出图标/icon_map_direction_blue" filter="url(#filter-1)" transform="translate(980.000000, 380.000000)">
                        <g id="icon_map_direction_blue">
                            <g id="Combined-Shape">
                                <use fill="#0093EE" fill-rule="evenodd" xlink:href="#path-2"></use>
                                <path stroke="#FFFFFF" stroke-width="2" d="M17,1.46647947 C13.166408,1.1554198 10.4940367,1 9,1 C4.581722,1 1,4.581722 1,9 C1,13.418278 4.581722,17 9,17 C13.418278,17 17,13.418278 17,9 C17,6.11019248 17,5.93493981 17,1.46647947 Z"></path>
                            </g>
                        </g>
                    </g>
                </g>
            </g>
        </g>
    </g>
</svg>