<?xml version="1.0" encoding="UTF-8"?>
<svg width="18px" height="18px" viewBox="0 0 18 18" version="1.1" xmlns="http://www.w3.org/2000/svg" xmlns:xlink="http://www.w3.org/1999/xlink">
    <!-- Generator: Sketch 46.2 (44496) - http://www.bohemiancoding.com/sketch -->
    <title>icon_menu_left_maintenance_management2_a</title>
    <desc>Created with Sketch.</desc>
    <defs></defs>
    <g id="样式整理概览" stroke="none" stroke-width="1" fill="none" fill-rule="evenodd">
        <g id="组件2-图标-弹出消息框" transform="translate(-541.000000, -433.000000)" fill-rule="nonzero" fill="#8DABC4">
            <g id="图标2" transform="translate(100.000000, 226.000000)">
                <g id="菜单图标" transform="translate(30.000000, 207.000000)">
                    <g id="icon/menu/left/维护管理-小灰" transform="translate(411.000000, 0.000000)">
                        <g id="icon_menu_left_maintenance_management2_a">
                            <path d="M15.8200595,15.9430684 C15.3111563,16.3843786 14.6736881,16.3680437 14.1562139,15.8627328 C13.0848387,14.8197984 12.0234631,13.7665095 10.9720869,12.7028663 C10.7278134,12.4559683 10.5373764,12.3922354 10.1771265,12.5130065 C8.76773252,12.9856476 7.48261802,12.6972428 6.40856444,11.6756419 C5.39959688,10.7161672 5.09612987,9.51970247 5.34093909,8.18157933 L5.49414573,8.09053231 C5.9197495,8.53532371 6.3381215,8.98707749 6.77229631,9.42356754 C7.59966577,10.2555765 8.67398722,10.2804805 9.47189385,9.499083 C10.2939064,8.69224589 10.2813178,7.63717183 9.41832511,6.78427563 C8.97906128,6.34992787 8.51140604,5.94369758 8.09544462,5.4568639 C9.20833556,5.12614904 10.2164996,5.30770749 11.1196688,5.93646737 C12.5510261,6.93343204 13.0853744,8.61619484 12.5014749,10.2555765 C12.3903198,10.5678141 12.4829937,10.7242007 12.6809303,10.9172739 C13.7514127,11.9619937 14.8172524,13.0109979 15.8784495,14.0642868 C16.4856513,14.6700171 16.4535101,15.3946441 15.8200595,15.9430684 L15.8200595,15.9430684 Z M16.6814451,10.6832296 C16.4750219,10.6952048 16.2680778,10.6952048 16.0616546,10.6832296 C15.525967,10.6417229 15.0826856,10.8080175 14.7280604,11.266466 C14.6316366,11.1861304 14.5815498,11.1384646 14.5274454,11.0977612 C13.9687232,10.6810873 13.7675725,10.2103208 13.8763171,9.44820378 C14.2754044,6.65118633 12.0038212,4.34796497 9.71027482,4.09946023 C6.8175619,3.78641921 4.43830551,5.6009324 4.07135952,8.37197467 C3.63289924,11.6809976 6.56364598,14.449362 9.85946383,13.82328 C10.2293561,13.7528525 10.4795222,13.8321169 10.7219208,14.0990989 C10.8933408,14.2886909 11.1100265,14.4373117 11.3781381,14.665197 C10.6233543,15.0593769 10.6126405,15.6763543 10.6520136,16.3085954 C10.6911188,16.9317318 10.5756781,17.5318386 9.95401268,17.7830212 C9.27556435,18.0569656 8.50765622,18.1142716 7.87340212,17.7026856 C7.58225592,17.5133614 7.43172771,17.0452727 7.31601919,16.6730511 C7.22843428,16.3910732 7.30235916,16.0603584 7.29539522,15.7516019 C7.28414577,15.258877 7.05835347,14.894689 6.60060843,14.7024191 C6.14286339,14.5101493 5.72475925,14.5926272 5.36558071,14.9415514 C5.14380606,15.1573864 4.92792396,15.3791126 4.69972105,15.5879851 C4.25777879,15.9928765 3.64066671,16.1109698 3.18827854,15.782665 C2.78804022,15.4908213 2.43431523,15.1400626 2.13913443,14.7423191 C1.82120386,14.3119882 1.94762613,13.6478806 2.33867805,13.2309389 C2.54973896,13.0059993 2.78249521,12.8024824 2.99837731,12.581024 C3.31309376,12.2596816 3.42692736,11.8705896 3.28952351,11.4442754 C3.14703061,11.0002874 2.81945766,10.722594 2.354213,10.661539 C1.99717722,10.6146766 1.63317752,10.624049 1.27239192,10.6061074 C0.493234336,10.5675463 0.0403104857,10.1160603 0.0073657078,9.33760845 C-0.00245523593,9.0974943 -0.00245523593,8.85729089 0.0073657078,8.61699823 C0.0362928333,7.81364233 0.543053282,7.31823953 1.35060231,7.30056569 C1.64308773,7.29413883 1.93664451,7.31208045 2.22832642,7.29494219 C2.71392721,7.26628915 3.09346186,7.04188508 3.27291719,6.5845078 C3.45237252,6.12713052 3.35327033,5.70965324 2.99864516,5.35858669 C2.80294064,5.16399604 2.60937886,4.96851277 2.41795983,4.7721369 C2.3351961,4.68644561 2.24895038,4.59914759 2.18814985,4.49819253 C1.76227822,3.79525612 2.01431922,3.09580093 2.96837879,2.31520677 C3.52361897,1.85997178 4.19831747,1.88353686 4.74016547,2.38134974 C4.9678327,2.59049004 5.1794293,2.8173042 5.40763218,3.0253734 C5.77377463,3.35903387 6.20634237,3.43240705 6.65203445,3.23960163 C7.07870961,3.05563313 7.32030469,2.71715252 7.31655489,2.22978327 C7.31387646,1.90388855 7.31226939,1.5771905 7.33583964,1.25236693 C7.38190877,0.622268136 7.79117407,0.130346527 8.40721479,0.0425129476 C8.81595187,-0.0141709825 9.23055914,-0.0141709825 9.63929622,0.0425129476 C10.2199816,0.122848542 10.6372822,0.635389592 10.6686199,1.23040852 C10.6868333,1.57290593 10.6528171,1.91861673 10.6806729,2.25977521 C10.7197781,2.73589747 10.9380708,3.10115663 11.4105472,3.28807078 C11.8867735,3.47552049 12.2845215,3.35394597 12.6362004,3.01466197 C12.784318,2.87139683 12.9235968,2.72009814 13.0698395,2.57335181 C13.1637221,2.47339779 13.263923,2.37956944 13.3698245,2.29244503 C14.0597901,1.76303349 14.8279661,1.98663421 15.6572105,2.95280358 C16.1626317,3.54193124 16.1291512,4.24138644 15.5736432,4.79088187 C15.3540113,5.00832353 15.12313,5.21933835 14.9308181,5.45873841 C14.6313688,5.83363784 14.5311952,6.26798558 14.7556483,6.70902797 C14.9656378,7.12195291 15.3309768,7.33216437 15.8050603,7.33189657 C16.0978135,7.33189657 16.3908346,7.32145295 16.6827844,7.33564556 C17.3791782,7.36911873 17.8776355,7.78124028 17.9638812,8.44454448 C18.0125717,8.81897469 18.0120314,9.19816616 17.9622741,9.57245615 C17.8746892,10.2314758 17.3553401,10.6575222 16.6814451,10.6832296 L16.6814451,10.6832296 Z M15.018403,14.3588506 C14.661903,14.4008929 14.4211114,14.5853969 14.3889702,14.9629742 C14.3592395,15.3068106 14.6785093,15.6187804 15.0293846,15.619316 C15.2018878,15.6195885 15.3669565,15.5491261 15.4860671,15.4243732 C15.6051777,15.2996203 15.6679091,15.1314918 15.6596211,14.9592252 C15.6373901,14.5714721 15.4014197,14.3915204 15.018403,14.3588506 L15.018403,14.3588506 Z" id="Shape"></path>
                        </g>
                    </g>
                </g>
            </g>
        </g>
    </g>
</svg>