<?xml version="1.0" encoding="UTF-8"?>
<svg width="14px" height="14px" viewBox="0 0 14 14" version="1.1" xmlns="http://www.w3.org/2000/svg" xmlns:xlink="http://www.w3.org/1999/xlink">
    <!-- Generator: Sketch 46.2 (44496) - http://www.bohemiancoding.com/sketch -->
    <title>icon_popup_share 14px</title>
    <desc>Created with Sketch.</desc>
    <defs></defs>
    <g id="样式整理概览" stroke="none" stroke-width="1" fill="none" fill-rule="evenodd">
        <g id="组件2-图标-弹出消息框" transform="translate(-806.000000, -896.000000)" fill-rule="nonzero" fill="#A8C6DF">
            <g id="图标2" transform="translate(100.000000, 226.000000)">
                <g id="普通图标-14px" transform="translate(30.000000, 633.000000)">
                    <g id="弹出图标/icon_popup_share-14px" transform="translate(676.000000, 37.000000)">
                        <g id="icon_popup_share-14px">
                            <path d="M11.6341776,9.28202732 C10.9596507,9.28202732 10.3523512,9.56885659 9.92294049,10.0250107 L4.66358439,7.42086049 C4.68934439,7.28198049 4.70456,7.13941268 4.70456,6.99317073 C4.70456,6.87980488 4.69376976,6.76914341 4.67830829,6.65995707 L9.98919805,4.03027902 C10.4134322,4.44667317 10.9942478,4.7043278 11.6344234,4.7043278 C12.931479,4.7043278 13.9865873,3.64920585 13.9865873,2.3521639 C13.9863415,1.05510829 12.9312332,0 11.6341776,0 C10.337122,0 9.2817678,1.05512195 9.2817678,2.3521639 C9.2817678,2.44933073 9.28938927,2.54453073 9.30091707,2.63851512 L3.96180878,5.28267122 C3.54051122,4.88589073 2.97517073,4.64100683 2.35191805,4.64100683 C1.05510829,4.64100683 0,5.69612878 0,6.99317073 C0,8.29021268 1.05512195,9.34533463 2.3521639,9.34533463 C2.94008195,9.34533463 3.4767122,9.12719415 3.88967805,8.7694361 L9.29158829,11.4445015 C9.28643902,11.5070849 9.28202732,11.5698868 9.28202732,11.6339454 C9.28202732,12.9309873 10.3373815,13.9860956 11.6344371,13.9860956 C12.9314927,13.9860956 13.9863415,12.9312332 13.9863415,11.6341776 C13.9863415,10.3371356 12.9312195,9.28202732 11.6341776,9.28202732 Z" id="Shape"></path>
                        </g>
                    </g>
                </g>
            </g>
        </g>
    </g>
</svg>