<?xml version="1.0" encoding="UTF-8"?>
<svg width="24px" height="24px" viewBox="0 0 24 24" version="1.1" xmlns="http://www.w3.org/2000/svg" xmlns:xlink="http://www.w3.org/1999/xlink">
    <!-- Generator: Sketch 46.2 (44496) - http://www.bohemiancoding.com/sketch -->
    <title>Icon_social_love</title>
    <desc>Created with Sketch.</desc>
    <defs></defs>
    <g id="样式整理概览" stroke="none" stroke-width="1" fill="none" fill-rule="evenodd">
        <g id="组件1：logo-按钮-分页-头像-输入框-图片-符号" transform="translate(-197.000000, -1741.000000)" fill="#81C926">
            <g id="其他按钮" transform="translate(162.000000, 1594.000000)">
                <g id="Social-Symbols-/-Love-It" transform="translate(35.000000, 147.000000)">
                    <path d="M12,0 C18.624,0 24,5.376 24,12 C24,18.624 18.624,24 12,24 C5.376,24 0,18.624 0,12 C0,5.376 5.376,0 12,0 Z M11.8914027,17.4949095 L12.678733,16.7731392 C15.4751131,14.194601 17.321267,12.4976143 17.321267,10.4149488 C17.321267,8.71796207 16.0072398,7.38461538 14.3348416,7.38461538 C13.3900452,7.38461538 12.4832579,7.83090085 11.8914027,8.53614207 C11.2995475,7.83090085 10.3927602,7.38461538 9.4479638,7.38461538 C7.77556561,7.38461538 6.46153846,8.71796207 6.46153846,10.4149488 C6.46153846,12.4976143 8.30769231,14.194601 11.1040724,16.7676295 L11.8914027,17.4949095 Z" id="Combined-Shape"></path>
                </g>
            </g>
        </g>
    </g>
</svg>