<?xml version="1.0" encoding="UTF-8"?>
<svg width="14px" height="14px" viewBox="0 0 14 14" version="1.1" xmlns="http://www.w3.org/2000/svg" xmlns:xlink="http://www.w3.org/1999/xlink">
    <!-- Generator: Sketch 46.2 (44496) - http://www.bohemiancoding.com/sketch -->
    <title>icon_popup_map 14px</title>
    <desc>Created with Sketch.</desc>
    <defs></defs>
    <g id="正式页面" stroke="none" stroke-width="1" fill="none" fill-rule="evenodd">
        <g id="4.0-资源管理-能补设备-能补站" transform="translate(-1241.000000, -283.000000)" fill-rule="nonzero" fill="#A8C6DF">
            <g id="操作" transform="translate(205.000000, 274.000000)">
                <g id="视图" transform="translate(986.000000, 0.000000)">
                    <g id="弹出图标/icon_popup_map" transform="translate(50.000000, 9.000000)">
                        <g id="icon_popup_map-14px">
                            <path d="M10.1588348,8.76618213 C10.3050555,8.64019475 10.4578519,8.53571039 10.6189493,8.46877401 C10.5345259,8.35728197 10.4691084,8.2584202 10.4041858,8.16385081 C10.2851022,7.99049645 10.1588348,7.79221066 10.0975041,7.69552936 C9.69122534,7.91106693 9.30666762,8.35625344 9.00107474,8.75127537 C8.82361593,8.98097916 8.66380542,9.22712562 8.51037263,9.4874383 L9.24641166,10.0078305 C9.54545713,9.37589139 9.89095667,8.997079 10.1588348,8.76618213 Z M6.31761297,11.5318294 C6.34070567,11.6286478 6.36352967,11.7174712 6.39428694,11.799904 C6.67023971,11.7174712 6.94552785,11.6349835 7.21476351,11.5239303 C7.67407199,11.3367252 8.21909074,11.0710642 8.56402463,10.721599 L7.92773812,10.0598601 C7.81282615,10.1713933 7.67521745,10.2614646 7.49838084,10.3722298 C7.19990103,10.5589002 6.77006295,10.7886039 6.12592804,10.9745063 C6.21029486,11.1749314 6.25626814,11.3763851 6.31761297,11.5318294 Z M5.04488441,2.75108339 C5.04488441,2.03730116 5.65824791,1.4424575 6.39430108,1.4424575 C7.1534328,1.4424575 7.73606732,2.03731488 7.73606732,2.75108339 C7.73606732,3.48709546 7.15346108,4.05969557 6.39430108,4.05969557 C5.65824791,4.05969557 5.04488441,3.48708174 5.04488441,2.75108339 Z M3.67260131,3.55401812 L3.64185819,3.55401812 C3.87944568,4.08935821 4.148045,4.65043885 4.37791136,5.07827758 L4.7612388,5.79207351 C5.43283605,7.04277291 6.25628229,8.41674439 6.37894366,8.59520023 C6.38662238,8.61759463 6.38662238,8.62487659 6.39428694,8.62487659 C6.85424593,7.87399891 7.25126212,7.19632476 7.55203282,6.65466265 L8.03507036,5.78454471 L8.41076151,5.07076247 C8.63375523,4.64740811 8.90146362,4.09690071 9.13915012,3.55400439 L9.11604328,3.55400439 C9.20046666,3.293774 9.2387188,3.02617937 9.2387188,2.75106966 C9.2387188,1.23418815 7.9582974,0 6.39425865,0 C4.82258361,1.371935e-05 3.54991163,1.23420186 3.54991163,2.75108338 C3.54993992,3.0261931 3.5882062,3.29378773 3.67260131,3.55401812 Z M3.68777489,11.3462562 C4.11539279,11.5652359 4.66151455,11.8142485 5.28255676,11.9046352 C5.30564946,11.7253977 5.31754227,11.4938151 5.34388745,11.32404 L5.38988902,11.0265634 C5.22118365,10.9967361 5.02768863,10.9495612 4.82259777,10.8777564 C4.47565582,10.7563769 4.03287848,10.5506857 3.54217637,10.2160861 C3.41183627,10.4019062 3.27855479,10.5687329 3.17414979,10.7067471 L3.00538786,10.9297175 C3.22017961,11.0860258 3.44819347,11.2225864 3.68777489,11.3462562 Z M0,14 L14,14 L14,0 L9.28141759,0 L10.1111111,1.37563082 L12.4129675,1.37563082 C12.5433077,1.37563082 12.6353956,1.45726824 12.6353956,1.58372188 L12.6353956,6.96675809 C12.2289613,6.95947613 11.6003252,6.99657158 10.9869476,7.28653319 L11.0635509,7.487356 L11.3088878,8.10433351 C11.6693205,7.9928826 11.9834406,7.90992869 12.2289472,7.87394404 L12.6353814,7.8144542 L12.6353814,12.4613823 C12.6353814,12.5882474 12.5432935,12.6691991 12.4129534,12.6691991 L1.64068443,12.6691991 C1.51034433,12.6691991 1.41841193,12.5882474 1.41841193,12.4613823 L1.41841193,9.62126988 C1.47960121,9.68075973 1.55026514,9.74581734 1.633034,9.81452276 C1.76502863,9.92427317 1.96279431,10.1044981 2.21566852,10.3127811 C2.36140847,10.1862589 2.497999,10.021311 2.61442409,9.90382611 C2.68199109,9.8354498 2.7447642,9.76992594 2.79843031,9.70298958 C2.19271723,9.21241086 1.57933959,8.52077619 1.41841193,8.32745474 L1.41842609,1.58372188 C1.41842609,1.4647696 1.51035849,1.37563082 1.64069859,1.37563082 L2.33333333,1.37563082 L3.1894082,0 L0,0 L0,14 Z" id="Shape"></path>
                        </g>
                    </g>
                </g>
            </g>
        </g>
    </g>
</svg>