<?xml version="1.0" encoding="UTF-8"?>
<svg width="18px" height="18px" viewBox="0 0 18 18" version="1.1" xmlns="http://www.w3.org/2000/svg" xmlns:xlink="http://www.w3.org/1999/xlink">
    <!-- Generator: Sketch 46.2 (44496) - http://www.bohemiancoding.com/sketch -->
    <title>icon_face_filled_grey</title>
    <desc>Created with Sketch.</desc>
    <defs></defs>
    <g id="样式整理概览" stroke="none" stroke-width="1" fill="none" fill-rule="evenodd">
        <g id="组件2-图标-弹出消息框" transform="translate(-749.000000, -501.000000)" fill="#A8C6DF">
            <g id="图标2" transform="translate(100.000000, 226.000000)">
                <g id="普通图标-18px" transform="translate(30.000000, 275.000000)">
                    <g id="灰" transform="translate(79.000000, 0.000000)">
                        <g id="Icons-Grey-/-Face" transform="translate(540.000000, 0.000000)">
                            <path d="M8.992,1 C4.576,1 1,4.584 1,9 C1,13.416 4.576,17 8.992,17 C13.416,17 17,13.416 17,9 C17,4.584 13.416,1 8.992,1 L8.992,1 Z M9,15.4 C5.464,15.4 2.6,12.536 2.6,9 C2.6,5.464 5.464,2.6 9,2.6 C12.536,2.6 15.4,5.464 15.4,9 C15.4,12.536 12.536,15.4 9,15.4 L9,15.4 Z M11.8,8.2 C12.464,8.2 13,7.664 13,7 C13,6.336 12.464,5.8 11.8,5.8 C11.136,5.8 10.6,6.336 10.6,7 C10.6,7.664 11.136,8.2 11.8,8.2 L11.8,8.2 Z M6.2,8.2 C6.864,8.2 7.4,7.664 7.4,7 C7.4,6.336 6.864,5.8 6.2,5.8 C5.536,5.8 5,6.336 5,7 C5,7.664 5.536,8.2 6.2,8.2 L6.2,8.2 Z M9,13.4 C10.864,13.4 12.448,12.232 13.088,10.6 L4.912,10.6 C5.552,12.232 7.136,13.4 9,13.4 L9,13.4 Z" id="Shape"></path>
                        </g>
                    </g>
                </g>
            </g>
        </g>
    </g>
</svg>