<?xml version="1.0" encoding="UTF-8"?>
<svg width="18px" height="8px" viewBox="0 0 18 8" version="1.1" xmlns="http://www.w3.org/2000/svg" xmlns:xlink="http://www.w3.org/1999/xlink">
    <!-- Generator: Sketch 46.2 (44496) - http://www.bohemiancoding.com/sketch -->
    <title>icon_dashboard_width_lamp</title>
    <desc>Created with Sketch.</desc>
    <defs></defs>
    <g id="样式整理概览" stroke="none" stroke-width="1" fill="none" fill-rule="evenodd">
        <g id="组件2-图标-弹出消息框" transform="translate(-293.000000, -796.000000)" fill-rule="nonzero" fill="#A8C6DF">
            <g id="图标2" transform="translate(100.000000, 226.000000)">
                <g id="汽车功能图标-18px" transform="translate(30.000000, 532.000000)">
                    <g id="汽车仪表图标/示宽灯-蓝灰" transform="translate(163.000000, 33.000000)">
                        <g id="icon_dashboard_width_lamp">
                            <path d="M15.4812657,7.3404203 L17.0171692,6.9352558 C17.4412668,6.82334868 17.6929928,6.39415452 17.5793507,5.9766065 C17.4657086,5.55903679 17.0297696,5.31123626 16.6056286,5.42314338 L15.0697251,5.82830787 C14.6456275,5.94017162 14.3939015,6.36940916 14.5075436,6.78693549 C14.6212074,7.20448351 15.0571681,7.45230573 15.4812657,7.3404203 Z M2.93020986,5.81605448 L1.39430633,5.41088998 C0.970208705,5.29902623 0.534248061,5.54678339 0.420584259,5.9643531 C0.306942145,6.38192281 0.558668103,6.81113866 0.982765725,6.92300241 L2.51866926,7.32816691 C2.94281026,7.44007403 3.37874921,7.19227349 3.49239133,6.77470379 C3.60603344,6.35713408 3.35430748,5.92798329 2.93020986,5.81605448 L2.93020986,5.81605448 Z M2.51866926,10.5096907 L0.982765725,10.9098887 C0.558668103,11.0203862 0.306942145,11.4442886 0.420584259,11.8566967 C0.534269748,12.2690831 0.970208705,12.5138474 1.39430633,12.40335 L2.93020986,12.0031519 C3.35430748,11.8926762 3.60603344,11.468752 3.49239133,11.0563439 C3.37874921,10.6439358 2.94281026,10.3991715 2.51866926,10.5096907 L2.51866926,10.5096907 Z M2.34779403,9.69565312 C2.78002443,9.69565312 3.13044987,9.34524937 3.13044987,8.91304065 C3.13044987,8.48081024 2.78004612,8.13042818 2.34779403,8.13042818 L0.782612467,8.13042818 C0.35038206,8.13042818 0,8.48081024 0,8.91304065 C0,9.34522768 0.35038206,9.69565312 0.782612467,9.69565312 L2.34779403,9.69565312 Z M17.2235034,8.13042818 L15.6460467,8.13042818 C15.2172213,8.13042818 14.8695718,8.47805594 14.8695718,8.90690311 C14.8695718,9.33577196 15.2171996,9.68339972 15.6460467,9.68339972 L17.2235034,9.68339972 C17.6523289,9.68339972 18,9.33577196 18,8.90690311 C18,8.47805594 17.6523289,8.13042818 17.2235034,8.13042818 Z M13.3043035,5 C11.1432165,5 9.39126286,6.7519103 9.39126286,8.91304065 C9.39126286,11.0741276 11.1432165,12.8260813 13.3043035,12.8260813 C13.7365339,12.8260813 14.0869594,12.4757209 14.0869594,12.0434688 L14.0869594,5.78259078 C14.0869594,5.35036037 13.7365556,5 13.3043035,5 Z M12.521691,11.1270883 C11.6098649,10.8047481 10.9565312,9.9352558 10.9565312,8.91304065 C10.9565312,7.89080381 11.6098649,7.0213332 12.521691,6.69899298 L12.521691,11.1270883 Z M4.69565312,5 C4.26342271,5 3.91304065,5.35038206 3.91304065,5.78261247 L3.91304065,12.0434905 C3.91304065,12.4757209 4.26342271,12.826103 4.69565312,12.826103 C6.85674009,12.826103 8.60869377,11.0741493 8.60869377,8.91306234 C8.60869377,6.7519103 6.85674009,5 4.69565312,5 L4.69565312,5 Z M5.47822221,11.1270883 L5.47822221,6.69899298 C6.39009174,7.02131151 7.04349052,7.89080381 7.04349052,8.91304065 C7.04349052,9.93527749 6.39009174,10.8047698 5.47822221,11.1270883 Z M17.0171692,10.9221205 L15.4812657,10.5219441 C15.0571681,10.4114466 14.6212074,10.6561892 14.5075436,11.0685973 C14.3939015,11.4809837 14.6456275,11.9048862 15.0697251,12.0154053 L16.6056286,12.4156034 C17.0297696,12.5261008 17.4657086,12.2813365 17.5793507,11.8689501 C17.6929928,11.4564769 17.4412668,11.0326179 17.0171692,10.9221205 L17.0171692,10.9221205 Z" id="Shape"></path>
                        </g>
                    </g>
                </g>
            </g>
        </g>
    </g>
</svg>