<?xml version="1.0" encoding="UTF-8"?>
<svg width="16px" height="12px" viewBox="0 0 16 12" version="1.1" xmlns="http://www.w3.org/2000/svg" xmlns:xlink="http://www.w3.org/1999/xlink">
    <!-- Generator: Sketch 46.2 (44496) - http://www.bohemiancoding.com/sketch -->
    <title>icon_dashboard_right_brake</title>
    <desc>Created with Sketch.</desc>
    <defs></defs>
    <g id="样式整理概览" stroke="none" stroke-width="1" fill="none" fill-rule="evenodd">
        <g id="组件2-图标-弹出消息框" transform="translate(-460.000000, -761.000000)" fill-rule="nonzero" fill="#A8C6DF">
            <g id="图标2" transform="translate(100.000000, 226.000000)">
                <g id="汽车功能图标-18px" transform="translate(30.000000, 532.000000)">
                    <g id="汽车仪表图标/后制动气压-蓝灰" transform="translate(329.000000, 0.000000)">
                        <g id="icon_dashboard_right_brake">
                            <path d="M2.44871422,8.97542768 C2.44871422,7.64200448 2.84802552,6.4032302 3.5300137,5.36879359 L3.52801897,5.36752262 C3.62415559,5.24107026 3.67613279,5.08634657 3.67591701,4.92726553 C3.67591701,4.52559979 3.35158087,4.19999981 2.9515599,4.19999981 C2.67302593,4.19999981 2.43133701,4.35792774 2.31011854,4.58936023 L2.30877593,4.58849366 C1.48355047,5.84864338 1,7.35453367 1,8.97540842 C1,10.5962447 1.48355047,12.1021349 2.30877593,13.3623232 L2.31019526,13.3614181 C2.44115724,13.5494642 2.65827641,13.6725752 2.90416578,13.6725752 C3.30420593,13.6725752 3.62852289,13.3469752 3.62852289,12.9453095 C3.62852289,12.7785425 3.57249771,12.6250052 3.47847667,12.5023371 C2.82802063,11.4842306 2.44871422,10.2748042 2.44871422,8.97542768 Z M15.6986851,4.56480736 L15.6986851,4.56480736 C16.5193074,5.82262697 17.0000192,7.32420365 17,8.94011006 C17,10.5389546 16.5292619,12.0257226 15.7244249,13.2753386 C15.7203971,13.2817127 15.7164268,13.2881061 15.7122071,13.2943454 C15.7050721,13.3053605 15.6981289,13.3164912 15.6909364,13.3274677 L15.6892102,13.3263701 C15.5569056,13.501071 15.3477845,13.6139179 15.1123483,13.6139179 C14.712289,13.6139179 14.3879528,13.2883179 14.3879528,12.8866522 C14.3878245,12.7688156 14.4163531,12.6527294 14.4710604,12.5484773 L14.469526,12.5474952 C14.4741292,12.5405048 14.478579,12.5334182 14.4831631,12.5264086 C14.4970536,12.5019529 14.5123401,12.4783235 14.528946,12.4556385 C15.1748756,11.4399006 15.5512666,10.2346145 15.5512666,8.94012931 C15.5512666,7.60757269 15.1524348,6.36953018 14.4712522,5.33549797 C14.3896968,5.21512132 14.3461886,5.07285156 14.3464087,4.92726553 C14.3464087,4.52559979 14.6707448,4.19999981 15.0708041,4.19999981 C15.3393453,4.19999981 15.5735923,4.34683562 15.6986851,4.56480736 Z M8.99292372,3 C12.3071822,3 14.9938896,5.68629587 14.9938896,9 C14.9938896,12.3137041 12.3071678,15 8.99290926,15 C5.67872306,15 2.99200123,12.3137041 2.99200123,9 C2.99200123,5.68629587 5.67872306,3 8.99292372,3 Z M8.98457085,12.9998683 C11.1940888,12.9998683 12.9852614,11.2089796 12.9852614,8.99993413 C12.9852614,6.79076651 11.1940888,5 8.98457085,5 C6.77517505,5 4.98400245,6.79076651 4.98400245,8.99993413 C4.98400245,11.2089796 6.77517505,12.9998683 8.98457085,12.9998683 Z M7.99800031,6.5 L7.99800031,6.5 C8.27303828,6.5 8.49600061,6.72296233 8.49600061,6.99800031 L8.49600061,11.0019997 L8.49600061,11.0019997 C8.49600061,11.2770377 8.27303828,11.5 7.99800031,11.5 L7.99800031,11.5 C7.72296233,11.5 7.5,11.2770377 7.5,11.0019997 L7.5,6.99800031 C7.5,6.72296233 7.72296233,6.5 7.99800031,6.5 L7.99800031,6.5 Z M9.99800031,6.5 C10.2730383,6.5 10.4960006,6.72296233 10.4960006,6.99800031 L10.4960006,11.0019997 L10.4960006,11.0019997 C10.4960006,11.2770377 10.2730383,11.5 9.99800031,11.5 C9.72296233,11.5 9.5,11.2770377 9.5,11.0019997 L9.5,6.99800031 C9.5,6.72296233 9.72296233,6.5 9.99800031,6.5 Z" id="Combined-Shape"></path>
                        </g>
                    </g>
                </g>
            </g>
        </g>
    </g>
</svg>