<?xml version="1.0" encoding="UTF-8"?>
<svg width="14px" height="14px" viewBox="0 0 14 14" version="1.1" xmlns="http://www.w3.org/2000/svg" xmlns:xlink="http://www.w3.org/1999/xlink">
    <!-- Generator: Sketch 46.2 (44496) - http://www.bohemiancoding.com/sketch -->
    <title>icon_bus_filled_blue</title>
    <desc>Created with Sketch.</desc>
    <defs></defs>
    <g id="正式页面" stroke="none" stroke-width="1" fill="none" fill-rule="evenodd">
        <g id="2.31-充电机监控-组织筛选-最后车辆" transform="translate(-299.000000, -278.000000)" fill="#0093EE">
            <g id="左侧菜单/地图监控/搜索展开" transform="translate(80.000000, 178.000000)">
                <g id="树状筛选">
                    <g id="Filter/Cascader/Level1-Choice" transform="translate(0.000000, 91.000000)">
                        <g id="右" transform="translate(185.000000, 0.000000)">
                            <g id="Group">
                                <g id="Filter/Date/Hour-List/上圆角">
                                    <g id="Group" transform="translate(16.000000, 7.000000)">
                                        <g id="Icons-Grey-/-bus" transform="translate(18.000000, 2.000000)">
                                            <path d="M10.5,12.4444444 L3.5,12.4444444 L3.5,13 C3.5,13.5522847 3.05228475,14 2.5,14 L2.16666667,14 C1.61438192,14 1.16666667,13.5522847 1.16666667,13 L1.16666667,11.6666667 L1.19144627,11.6666667 C1.17522905,11.5951975 1.16666667,11.5208209 1.16666667,11.4444444 L1.16666667,5.44444444 L1,5.44444444 L1,5.44444444 C0.44771525,5.44444444 -1.5440923e-16,4.99672919 -2.22044605e-16,4.44444444 L-5.55111512e-17,3.33333333 L0,3.33333333 C-6.76353751e-17,2.78104858 0.44771525,2.33333333 1,2.33333333 L1,2.33333333 L1.16666667,2.33333333 L1.16666667,1 L1.16666667,1 C1.16666667,0.44771525 1.61438192,-5.18242566e-16 2.16666667,-1.11022302e-15 L2.16666667,2.96059473e-17 L11.8333333,4.60865913e-15 L11.8333333,4.88498131e-15 C12.3856181,5.76458304e-15 12.8333333,0.44771525 12.8333333,1 L12.8333333,2.33333333 L13,2.33333333 C13.5522847,2.33333333 14,2.78104858 14,3.33333333 L14,4.44444444 C14,4.99672919 13.5522847,5.44444444 13,5.44444444 L12.8333333,5.44444444 L12.8333333,11.4444444 C12.8333333,11.5208209 12.824771,11.5951975 12.8085537,11.6666667 L12.8333333,11.6666667 L12.8333333,13 C12.8333333,13.5522847 12.3856181,14 11.8333333,14 L11.5,14 L11.5,14 C10.9477153,14 10.5,13.5522847 10.5,13 L10.5,12.4444444 Z M3.33333333,2.33338044 C2.78104858,2.33338044 2.33333333,2.78109569 2.33333333,3.33338044 L2.33333333,3.33338044 L2.33333333,7.70842847 C2.33333333,8.19726762 2.68674638,8.61445773 3.16893435,8.69482239 L3.16893435,8.69482239 L6.67120203,9.27853367 C6.88889924,9.31481654 7.11110076,9.31481654 7.32879797,9.27853367 L7.32879797,9.27853367 L10.8310657,8.69482239 C11.3132536,8.61445773 11.6666667,8.19726762 11.6666667,7.70842847 L11.6666667,3.33338044 C11.6666667,2.78109569 11.2189514,2.33338044 10.6666667,2.33338044 L3.33333333,2.33338044 Z M3.19417161,9.8795523 C3.12748358,9.85732295 3.05764793,9.84599018 2.98735257,9.84599018 C2.62614772,9.84599018 2.33333333,10.1388046 2.33333333,10.5000094 L2.33333333,10.5000094 L2.33333333,10.5000094 C2.33333333,11.0011544 2.73959159,11.4074126 3.24073655,11.4074126 L4.66666667,11.4074126 L4.66666667,11.0911432 C4.66666667,10.6607128 4.39123657,10.2785739 3.98289443,10.1424599 L3.19417161,9.8795523 Z M10.0171056,10.1424599 C9.60876343,10.2785739 9.33333333,10.6607128 9.33333333,11.0911432 L9.33333333,11.4074126 L10.7592634,11.4074126 C11.2604084,11.4074126 11.6666667,11.0011544 11.6666667,10.5000094 C11.6666667,10.4297141 11.6553339,10.3598784 11.6331046,10.2931904 C11.5188816,9.95052137 11.1484974,9.76532929 10.8058284,9.8795523 L10.0171056,10.1424599 Z" id="Combined-Shape"></path>
                                        </g>
                                    </g>
                                </g>
                            </g>
                        </g>
                    </g>
                </g>
            </g>
        </g>
    </g>
</svg>