<?xml version="1.0" encoding="UTF-8"?>
<svg width="18px" height="16px" viewBox="0 0 18 16" version="1.1" xmlns="http://www.w3.org/2000/svg" xmlns:xlink="http://www.w3.org/1999/xlink">
    <!-- Generator: Sketch 46.2 (44496) - http://www.bohemiancoding.com/sketch -->
    <title>icon_menu_left_basic_information_a</title>
    <desc>Created with Sketch.</desc>
    <defs></defs>
    <g id="样式整理概览" stroke="none" stroke-width="1" fill="none" fill-rule="evenodd">
        <g id="组件2-图标-弹出消息框" transform="translate(-334.000000, -434.000000)" fill-rule="nonzero" fill="#8DABC4">
            <g id="图标2" transform="translate(100.000000, 226.000000)">
                <g id="菜单图标" transform="translate(30.000000, 207.000000)">
                    <g id="icon/menu/left/基础信息-小灰" transform="translate(204.000000, 0.000000)">
                        <g id="icon_menu_left_basic_information_a">
                            <path d="M0,3 L0,15 L0,15 C1.3527075e-16,16.1045695 0.8954305,17 2,17 L16,17 L16,17 C17.1045695,17 18,16.1045695 18,15 L18,3 L18,3 C18,1.8954305 17.1045695,1 16,1 L2,1 L2,1 C0.8954305,1 -1.3527075e-16,1.8954305 0,3 Z M15.5,15.3636364 L2.5,15.3636364 L2.5,15.3636364 C1.94771525,15.3636364 1.5,14.9159211 1.5,14.3636364 L1.5,5.58181818 L1.5,5.58181818 C1.5,5.02953343 1.94771525,4.58181818 2.5,4.58181818 L15.5,4.58181818 L15.5,4.58181818 C16.0522847,4.58181818 16.5,5.02953343 16.5,5.58181818 L16.5,14.3636364 L16.5,14.3636364 C16.5,14.9159211 16.0522847,15.3636364 15.5,15.3636364 Z M12.15,10.4727273 L12.15,9.16363636 L14.55,9.16363636 L14.55,8.01818182 L12.15,8.01818182 L12.15,6.70909091 L10.35,6.70909091 L10.35,8.01818182 L3.45,8.01818182 L3.45,9.16363636 L10.35,9.16363636 L10.35,10.4727273 L12.15,10.4727273 Z M7.2,9.96363636 L5.4,9.96363636 L5.4,11.2727273 L3.45,11.2727273 L3.45,12.4181818 L5.4,12.4181818 L5.4,13.8909091 L7.2,13.8909091 L7.2,12.5818182 L14.7,12.5818182 L14.7,11.4363636 L7.2,11.4363636 L7.2,9.96363636 Z" id="Shape"></path>
                        </g>
                    </g>
                </g>
            </g>
        </g>
    </g>
</svg>