<?xml version="1.0" encoding="UTF-8"?>
<svg width="18px" height="18px" viewBox="0 0 18 18" version="1.1" xmlns="http://www.w3.org/2000/svg" xmlns:xlink="http://www.w3.org/1999/xlink">
    <!-- Generator: Sketch 46.2 (44496) - http://www.bohemiancoding.com/sketch -->
    <title>icon_bricks_filled_grey</title>
    <desc>Created with Sketch.</desc>
    <defs></defs>
    <g id="样式整理概览" stroke="none" stroke-width="1" fill="none" fill-rule="evenodd">
        <g id="组件2-图标-弹出消息框" transform="translate(-334.000000, -501.000000)" fill="#A8C6DF">
            <g id="图标2" transform="translate(100.000000, 226.000000)">
                <g id="普通图标-18px" transform="translate(30.000000, 275.000000)">
                    <g id="灰" transform="translate(79.000000, 0.000000)">
                        <g id="Icons-Grey-/-Bricks" transform="translate(125.000000, 0.000000)">
                            <path d="M0,4.5 L4.5,4.5 L4.5,0 L0,0 L0,4.5 L0,4.5 Z M6.75,18 L11.25,18 L11.25,13.5 L6.75,13.5 L6.75,18 L6.75,18 Z M0,18 L4.5,18 L4.5,13.5 L0,13.5 L0,18 L0,18 Z M0,11.25 L4.5,11.25 L4.5,6.75 L0,6.75 L0,11.25 L0,11.25 Z M6.75,11.25 L11.25,11.25 L11.25,6.75 L6.75,6.75 L6.75,11.25 L6.75,11.25 Z M13.5,0 L13.5,4.5 L18,4.5 L18,0 L13.5,0 L13.5,0 Z M6.75,4.5 L11.25,4.5 L11.25,0 L6.75,0 L6.75,4.5 L6.75,4.5 Z M13.5,11.25 L18,11.25 L18,6.75 L13.5,6.75 L13.5,11.25 L13.5,11.25 Z M13.5,18 L18,18 L18,13.5 L13.5,13.5 L13.5,18 L13.5,18 Z" id="Icon"></path>
                        </g>
                    </g>
                </g>
            </g>
        </g>
    </g>
</svg>