<?xml version="1.0" encoding="UTF-8"?>
<svg width="12px" height="12px" viewBox="0 0 12 12" version="1.1" xmlns="http://www.w3.org/2000/svg" xmlns:xlink="http://www.w3.org/1999/xlink">
    <!-- Generator: Sketch 46.2 (44496) - http://www.bohemiancoding.com/sketch -->
    <title>Icon_colored_error</title>
    <desc>Created with Sketch.</desc>
    <defs></defs>
    <g id="正式页面" stroke="none" stroke-width="1" fill="none" fill-rule="evenodd">
        <g id="6.0-个人中心-个人设置" transform="translate(-698.000000, -622.000000)" fill="#FF151F">
            <g id="个人设置" transform="translate(155.000000, 288.000000)">
                <g id="Inputs-2-type-/-Error" transform="translate(205.000000, 304.000000)">
                    <g id="Icons-Colored-/-Error" transform="translate(338.000000, 30.000000)">
                        <path d="M6.89442719,2.64599724 L10.4192503,9.69564355 L10.4192503,9.69564355 C10.6662396,10.189622 10.4660152,10.7902951 9.97203675,11.0372843 C9.83318132,11.1067121 9.68006825,11.1428571 9.52482315,11.1428571 L2.47517685,11.1428571 C1.9228921,11.1428571 1.47517685,10.6951419 1.47517685,10.1428571 C1.47517685,9.98761205 1.51132194,9.83449898 1.58074965,9.69564355 L5.10557281,2.64599724 L5.10557281,2.64599724 C5.35256206,2.15201874 5.9532351,1.95179439 6.4472136,2.19878364 C6.640741,2.29554734 6.79766349,2.45246984 6.89442719,2.64599724 L6.89442719,2.64599724 Z M6.64285714,9.85714286 L6.64285714,6.77142857 L5.35714286,6.77142857 L5.35714286,9.85714286 L6.64285714,9.85714286 Z M6.64285714,6 L6.64285714,4.71428571 L5.35714286,4.71428571 L5.35714286,6 L6.64285714,6 Z" id="Icon"></path>
                    </g>
                </g>
            </g>
        </g>
    </g>
</svg>