<?xml version="1.0" encoding="UTF-8"?>
<svg width="12px" height="12px" viewBox="0 0 12 12" version="1.1" xmlns="http://www.w3.org/2000/svg" xmlns:xlink="http://www.w3.org/1999/xlink">
    <!-- Generator: Sketch 46.2 (44496) - http://www.bohemiancoding.com/sketch -->
    <title>icon_popup_save_blue 14px</title>
    <desc>Created with Sketch.</desc>
    <defs></defs>
    <g id="样式整理概览" stroke="none" stroke-width="1" fill="none" fill-rule="evenodd">
        <g id="组件1：logo-按钮-分页-头像-输入框-图片-符号" transform="translate(-746.000000, -751.000000)" fill-rule="nonzero" fill="#0093EE">
            <g id="按钮" transform="translate(104.000000, 352.000000)">
                <g id="Button-36-px-/-Save---Click" transform="translate(619.000000, 389.000000)">
                    <g transform="translate(22.000000, 6.000000)" id="弹出图标/icon_popup_edit_white-14px">
                        <g transform="translate(0.000000, 3.000000)">
                            <g id="icon_popup_save_blue-14px">
                                <path d="M12.8449618,3.06667972 C12.925498,3.15145652 12.9714769,3.24945084 12.9828986,3.3606627 C12.9943204,3.47187455 13.0000208,3.55935832 12.9999999,3.62311401 L12.9999999,11.235554 C12.9999999,11.7336754 12.8160997,12.1522849 12.4482993,12.4913825 C12.0804989,12.8304801 11.5920402,13.0000192 10.9829232,13 L3.01709235,13 C2.39620944,13 1.90480927,12.8569007 1.54289182,12.5707021 C1.18097437,12.2845034 1.00001043,11.849955 1,11.2670568 L1,2.89164005 C1,2.31924279 1.18096394,1.86095187 1.54289182,1.51676729 C1.9048197,1.17258272 2.39621987,1.00032695 3.01709235,1 L10.1553488,1 C10.2704736,1 10.3854105,1.01321753 10.5001598,1.03965258 C10.614909,1.06608763 10.6954608,1.10050897 10.7418153,1.14291661 L12.8449618,3.06667972 Z M9.22452515,3.0785077 L3.7072149,3.0785077 C3.53469991,3.06799714 3.39676302,3.11038554 3.29340422,3.2056729 C3.19004543,3.30096025 3.13836604,3.41218172 3.13836604,3.5393373 L3.13836604,4.0534196 C3.13836604,4.15955408 3.164297,4.26823205 3.21615894,4.37945352 C3.26802087,4.49067499 3.33992559,4.59138591 3.43187309,4.68158627 C3.52382058,4.77178663 3.63011564,4.84604807 3.75075827,4.90437058 C3.8714009,4.9626931 4.00069587,4.99185436 4.13864319,4.99185436 L8.69041085,4.99185436 C9.0008523,4.99185436 9.26236809,4.90707756 9.47495822,4.73752395 C9.68754834,4.56797035 9.7938434,4.31364476 9.7938434,3.97454718 L9.7938434,3.5718354 C9.77016549,3.2427964 9.58055963,3.0785077 9.22452515,3.0785077 Z M9.03473676,6.87120485 L3.91413588,6.87120485 C3.64967339,6.87120485 3.45417935,6.93478264 3.32765375,7.06193822 C3.20112816,7.18909381 3.13786536,7.35863298 3.13786536,7.57055575 L3.13786536,9.9684024 L9.79338966,9.9684024 L9.79338966,7.57055575 C9.79334272,7.11483718 9.54047407,6.8817154 9.03473676,6.87120485 Z" id="icon"></path>
                            </g>
                        </g>
                    </g>
                </g>
            </g>
        </g>
    </g>
</svg>