<?xml version="1.0" encoding="UTF-8"?>
<svg width="18px" height="18px" viewBox="0 0 18 18" version="1.1" xmlns="http://www.w3.org/2000/svg" xmlns:xlink="http://www.w3.org/1999/xlink">
    <!-- Generator: Sketch 46.2 (44496) - http://www.bohemiancoding.com/sketch -->
    <title>icon_info_filled_grey</title>
    <desc>Created with Sketch.</desc>
    <defs></defs>
    <g id="样式整理概览" stroke="none" stroke-width="1" fill="none" fill-rule="evenodd">
        <g id="组件2-图标-弹出消息框" transform="translate(-1081.000000, -540.000000)" fill="#A8C6DF">
            <g id="图标2" transform="translate(100.000000, 226.000000)">
                <g id="普通图标-18px" transform="translate(30.000000, 275.000000)">
                    <g id="灰" transform="translate(79.000000, 0.000000)">
                        <g id="Icons-Grey-/-Info" transform="translate(872.000000, 39.000000)">
                            <path d="M8.2,13 L9.8,13 L9.8,8.2 L8.2,8.2 L8.2,13 L8.2,13 Z M9,1 C4.584,1 1,4.584 1,9 C1,13.416 4.584,17 9,17 C13.416,17 17,13.416 17,9 C17,4.584 13.416,1 9,1 L9,1 Z M9,15.4 C5.472,15.4 2.6,12.528 2.6,9 C2.6,5.472 5.472,2.6 9,2.6 C12.528,2.6 15.4,5.472 15.4,9 C15.4,12.528 12.528,15.4 9,15.4 L9,15.4 Z M8.2,6.6 L9.8,6.6 L9.8,5 L8.2,5 L8.2,6.6 L8.2,6.6 Z" id="Shape"></path>
                        </g>
                    </g>
                </g>
            </g>
        </g>
    </g>
</svg>