<?xml version="1.0" encoding="UTF-8"?>
<svg width="18px" height="18px" viewBox="0 0 18 18" version="1.1" xmlns="http://www.w3.org/2000/svg" xmlns:xlink="http://www.w3.org/1999/xlink">
    <!-- Generator: Sketch 46.2 (44496) - http://www.bohemiancoding.com/sketch -->
    <title>icon_Info_filled_white</title>
    <desc>Created with Sketch.</desc>
    <defs></defs>
    <g id="样式整理概览" stroke="none" stroke-width="1" fill="none" fill-rule="evenodd">
        <g id="组件2-图标-弹出消息框" transform="translate(-318.000000, -2804.000000)" fill="#FFFFFF">
            <g id="消息弹框" transform="translate(100.000000, 1209.000000)">
                <g id="Message-/-Banners-/-Blue" transform="translate(0.000000, 1580.000000)">
                    <g id="Group" transform="translate(218.000000, 14.000000)">
                        <g id="弹出图标/icon_popup_notice-14px" transform="translate(0.000000, 1.000000)">
                            <path d="M9,1 C4.584,1 1,4.584 1,9 C1,13.416 4.584,17 9,17 C13.416,17 17,13.416 17,9 C17,4.584 13.416,1 9,1 L9,1 Z M9.8,13 L8.2,13 L8.2,8.2 L9.8,8.2 L9.8,13 L9.8,13 Z M9.8,6.6 L8.2,6.6 L8.2,5 L9.8,5 L9.8,6.6 L9.8,6.6 Z" id="icon"></path>
                        </g>
                    </g>
                </g>
            </g>
        </g>
    </g>
</svg>