<?xml version="1.0" encoding="UTF-8"?>
<svg width="14px" height="14px" viewBox="0 0 14 14" version="1.1" xmlns="http://www.w3.org/2000/svg" xmlns:xlink="http://www.w3.org/1999/xlink">
    <!-- Generator: Sketch 46.2 (44496) - http://www.bohemiancoding.com/sketch -->
    <title>icon_document_rar</title>
    <desc>Created with Sketch.</desc>
    <defs></defs>
    <g id="样式整理概览" stroke="none" stroke-width="1" fill="none" fill-rule="evenodd">
        <g id="组件2-图标-弹出消息框" transform="translate(-408.000000, -960.000000)" fill-rule="nonzero" fill="#A8C6DF">
            <g id="图标2" transform="translate(100.000000, 226.000000)">
                <g id="文档图标-18px" transform="translate(30.000000, 734.000000)">
                    <g id="文件类型/rar/灰" transform="translate(278.000000, 0.000000)">
                        <g id="icon_document_rar">
                            <path d="M5.1908889,13.2222222 L6.17555556,13.2222222 L6.4368889,12.5191111 L8.21644445,12.5191111 L8.47777779,13.2222222 L9.47955556,13.2222222 L7.88044445,9.072 L6.7728889,9.072 L5.18723578,13.1872943 L4.26844446,11.6417778 C4.71644446,11.536 5.18311113,11.1377778 5.18311113,10.4097778 C5.18311113,9.63822222 4.64800002,9.072 3.78311113,9.072 L1.8417778,9.072 L1.8417778,13.2222222 L2.72533335,13.2222222 L2.72533335,11.7475556 L3.37244446,11.7475556 L4.18755557,13.2222222 L5.1908889,13.2222222 Z M12.25,3.73333333 L12.25,6.53333333 L1.75,6.53333333 L1.75,0 L8.75,0 L8.75,3.73333333 L12.25,3.73333333 Z M9.14375,0 L12.25,3.31333333 L9.14375,3.31333333 L9.14375,0 Z M0,7.46666667 L14,7.46666667 L14,14 L0,14 L0,7.46666667 Z M12.9982222,13.2222222 L12.0586667,11.6417778 C12.5066667,11.536 12.9733333,11.1377778 12.9733333,10.4097778 C12.9733333,9.63822222 12.4382222,9.072 11.5733333,9.072 L9.632,9.072 L9.632,13.2222222 L10.5155556,13.2222222 L10.5155556,11.7475556 L11.1626667,11.7475556 L11.9777778,13.2222222 L12.9982222,13.2222222 Z M3.65866669,10.9697778 L2.72533335,10.9697778 L2.72533335,9.84977778 L3.65866669,9.84977778 C4.00711113,9.84977778 4.27466669,10.0613333 4.27466669,10.4035556 C4.27466669,10.7582222 4.00711113,10.9697778 3.65866669,10.9697778 Z M7.97377779,11.7413333 L6.67955556,11.7413333 L7.32666668,9.95555556 L7.97377779,11.7413333 Z M11.4488889,10.9697778 L10.5155556,10.9697778 L10.5155556,9.84977778 L11.4488889,9.84977778 C11.7973333,9.84977778 12.0648889,10.0613333 12.0648889,10.4035556 C12.0648889,10.7582222 11.7973333,10.9697778 11.4488889,10.9697778 Z" id="Combined-Shape"></path>
                        </g>
                    </g>
                </g>
            </g>
        </g>
    </g>
</svg>