<?xml version="1.0" encoding="UTF-8"?>
<svg width="18px" height="18px" viewBox="0 0 18 18" version="1.1" xmlns="http://www.w3.org/2000/svg" xmlns:xlink="http://www.w3.org/1999/xlink">
    <!-- Generator: Sketch 46.2 (44496) - http://www.bohemiancoding.com/sketch -->
    <title>icon_menu_left_maintenance_management_a</title>
    <desc>Created with Sketch.</desc>
    <defs></defs>
    <g id="样式整理概览" stroke="none" stroke-width="1" fill="none" fill-rule="evenodd">
        <g id="组件2-图标-弹出消息框" transform="translate(-500.000000, -433.000000)" fill-rule="nonzero" fill="#8DABC4">
            <g id="图标2" transform="translate(100.000000, 226.000000)">
                <g id="菜单图标" transform="translate(30.000000, 207.000000)">
                    <g id="icon/menu/left/维修管理-小灰" transform="translate(370.000000, 0.000000)">
                        <g id="icon_menu_left_maintenance_management_a">
                            <path d="M17.0093794,4.57032741 L16.0956524,5.48871638 C15.1116387,6.47775066 13.5231595,6.47775066 12.5391458,5.48871638 C11.5551321,4.4996821 11.5551321,2.9030982 12.5391458,1.91406391 L13.4528728,0.99567494 C13.9589369,0.487028738 13.6215608,-0.120520884 12.7078338,0.0207697173 C11.7800495,0.162060336 10.8803798,0.600061229 10.1634556,1.32064334 C9.0248112,2.46509729 8.60309105,4.07581027 8.91235249,5.55936169 L1.19487375,13.3162162 C0.210860068,14.3052505 0.210860068,15.9018344 1.19487375,16.8908687 C2.17888743,17.879903 3.76736665,17.879903 4.75138035,16.8908687 L12.4688591,9.13401415 C13.9448796,9.44485349 15.5333588,9.02098165 16.6860606,7.8765277 C17.4029848,7.15594559 17.8387623,6.25168568 17.9793357,5.31916765 C18.1199091,4.40077868 17.5154435,4.06168121 17.0093794,4.57032741 Z M3.57056393,15.7040276 C3.24724516,16.028996 2.71306629,16.028996 2.38974752,15.7040276 C2.06642874,15.3790592 2.06642874,14.8421548 2.38974752,14.5171864 C2.71306629,14.192218 3.24724516,14.192218 3.57056393,14.5171864 C3.89388271,14.8421548 3.89388271,15.3790592 3.57056393,15.7040276 Z M2.72712363,4.72574709 L5.63699266,7.65046274 L6.81780909,6.4636216 L3.90794004,3.53890594 L3.26130249,2.29554857 L1.18081642,0.797868085 L0,1.98470922 L1.47602053,4.07581027 L2.72712363,4.72574709 Z M12.4548017,10.9284049 C12.2861137,10.7588562 12.0190243,10.7588562 11.8643935,10.9284049 L10.0791116,12.7086666 C9.91042353,12.8782153 9.91042353,13.1466675 10.0791116,13.3020872 L14.2681984,17.5125474 C14.9288933,18.1624842 15.9831937,18.1624842 16.6438886,17.5125474 C17.3045835,16.8626106 17.3045835,15.7888019 16.6438886,15.1247361 L12.4548017,10.9284049 L12.4548017,10.9284049 Z" id="Shape"></path>
                        </g>
                    </g>
                </g>
            </g>
        </g>
    </g>
</svg>