<?xml version="1.0" encoding="UTF-8"?>
<svg width="18px" height="18px" viewBox="0 0 18 18" version="1.1" xmlns="http://www.w3.org/2000/svg" xmlns:xlink="http://www.w3.org/1999/xlink">
    <!-- Generator: Sketch 46.2 (44496) - http://www.bohemiancoding.com/sketch -->
    <title>icon_popup_table_operation</title>
    <desc>Created with Sketch.</desc>
    <defs></defs>
    <g id="样式整理概览" stroke="none" stroke-width="1" fill="none" fill-rule="evenodd">
        <g id="组件2-图标-弹出消息框" transform="translate(-1039.000000, -658.000000)" fill-rule="nonzero" fill="#A8C6DF">
            <g id="图标2" transform="translate(100.000000, 226.000000)">
                <g id="普通图标-18px" transform="translate(30.000000, 275.000000)">
                    <g id="18" transform="translate(78.000000, 125.000000)">
                        <g id="弹出图标/icon_popup_table_operation" transform="translate(831.000000, 32.000000)">
                            <g id="icon_popup_table_operation">
                                <path d="M17.3111111,7.02325581 C16.2722222,7.02325581 15.3277778,6.52906977 14.7611111,5.54069767 C14.1944444,4.55232558 14.2888889,3.36627907 14.8555556,2.47674419 C13.9111111,1.5872093 12.7777778,0.895348837 11.55,0.5 C11.0777778,1.48837209 10.1333333,2.08139535 9,2.08139535 C7.86666667,2.08139535 6.92222222,1.48837209 6.45,0.5 C5.22222222,0.895348837 4.18333333,1.5872093 3.23888889,2.47674419 C3.80555556,3.36627907 3.80555556,4.55232558 3.33333333,5.54069767 C2.76666667,6.52906977 1.72777778,7.02325581 0.688888889,7.02325581 C0.594444444,7.61627907 0.5,8.30813953 0.5,9 C0.5,9.69186047 0.594444444,10.3837209 0.688888889,10.9767442 C1.72777778,10.9767442 2.67222222,11.4709302 3.23888889,12.4593023 C3.80555556,13.4476744 3.80555556,14.6337209 3.23888889,15.5232558 C4.18333333,16.4127907 5.31666667,17.1046512 6.54444444,17.5 C7.01666667,16.5116279 7.96111111,15.9186047 9.09444444,15.9186047 C10.2277778,15.9186047 11.1722222,16.5116279 11.6444444,17.5 C12.8699264,17.0989973 13.9977076,16.4245767 14.95,15.5232558 C14.3833333,14.6337209 14.3833333,13.4476744 14.8555556,12.4593023 C15.4222222,11.4709302 16.3666667,10.9767442 17.4055556,10.9767442 C17.4055556,10.3837209 17.5,9.69186047 17.5,9 C17.5,8.30813953 17.4055556,7.61627907 17.3111111,7.02325581 Z M9,11.9651163 C7.39444444,11.9651163 6.16666667,10.6802326 6.16666667,9 C6.16666667,7.31976744 7.39444444,6.03488372 9,6.03488372 C10.6055556,6.03488372 11.8333333,7.31976744 11.8333333,9 C11.8333333,10.6802326 10.6055556,11.9651163 9,11.9651163 Z" id="设置"></path>
                            </g>
                        </g>
                    </g>
                </g>
            </g>
        </g>
    </g>
</svg>