<?xml version="1.0" encoding="UTF-8"?>
<svg width="16px" height="17px" viewBox="0 0 16 17" version="1.1" xmlns="http://www.w3.org/2000/svg" xmlns:xlink="http://www.w3.org/1999/xlink">
    <!-- Generator: Sketch 46.2 (44496) - http://www.bohemiancoding.com/sketch -->
    <title>icon_popup_open</title>
    <desc>Created with Sketch.</desc>
    <defs></defs>
    <g id="样式整理概览" stroke="none" stroke-width="1" fill="none" fill-rule="evenodd">
        <g id="组件2-图标-弹出消息框" transform="translate(-666.000000, -659.000000)" fill-rule="nonzero" fill="#A8C6DF">
            <g id="图标2" transform="translate(100.000000, 226.000000)">
                <g id="普通图标-18px" transform="translate(30.000000, 275.000000)">
                    <g id="18" transform="translate(78.000000, 125.000000)">
                        <g id="弹出图标/icon_popup_open" transform="translate(457.000000, 32.000000)">
                            <g id="icon_popup_open">
                                <path d="M13.2404627,6.00340817 C12.7575293,4.01136523 11.0287403,2.60430976 8.91358728,2.60430976 C6.41158406,2.60430976 4.4520144,4.57131422 4.4520144,7.14650373 L2.85212829,7.14650373 C2.85212829,4.05508856 5.5695837,1 8.91183828,1 C11.8377286,1 14.2883424,3.34514768 14.8515746,6.00340817 L13.2404627,6.00340817 Z M17,8.78204032 C17,7.89901791 16.2829717,7.1783224 15.4012934,7.1783224 L2.59870655,7.1783224 C1.71818755,7.1783224 1,7.89667097 1,8.78204032 L1,16.3957106 C1,17.2793045 1.71586911,18 2.59870655,18 L15.3995444,18 C16.2800635,18 16.998251,17.2810392 16.998251,16.3957106 L16.998251,8.78204032 L17,8.78204032 Z M10.2664782,14.7369314 C10.2664782,15.3990349 9.7316101,15.9410361 9.06656362,15.9410361 L8.89430762,15.9410361 C8.23450815,15.9410361 7.69439304,15.4048921 7.69439304,14.7369314 L7.69439304,11.475026 C7.69439304,10.8117388 8.22867137,10.2697376 8.89430762,10.2697376 L9.06656362,10.2697376 C9.72695288,10.2697376 10.2664782,10.8058816 10.2664782,11.475026 L10.2664782,14.7369314 Z" id="Shape"></path>
                            </g>
                        </g>
                    </g>
                </g>
            </g>
        </g>
    </g>
</svg>