<?xml version="1.0" encoding="UTF-8"?>
<svg width="14px" height="14px" viewBox="0 0 14 14" version="1.1" xmlns="http://www.w3.org/2000/svg" xmlns:xlink="http://www.w3.org/1999/xlink">
    <!-- Generator: Sketch 46.2 (44496) - http://www.bohemiancoding.com/sketch -->
    <title>icon_popup_heating 14px</title>
    <desc>Created with Sketch.</desc>
    <defs></defs>
    <g id="样式整理概览" stroke="none" stroke-width="1" fill="none" fill-rule="evenodd">
        <g id="组件2-图标-弹出消息框" transform="translate(-1004.000000, -862.000000)" fill-rule="nonzero" fill="#A8C6DF">
            <g id="图标2" transform="translate(100.000000, 226.000000)">
                <g id="普通图标-14px" transform="translate(30.000000, 633.000000)">
                    <g id="弹出图标/icon_popup_heating-14px" transform="translate(874.000000, 3.000000)">
                        <g id="icon_popup_heating-14px">
                            <path d="M11.9471882,4.9484499 L11.9471882,2.04650324 L9.04524153,2.04650324 L6.99873828,0 L4.9484499,2.05028839 L2.04650324,2.05028839 L2.04650324,4.95223504 L0,6.99873828 L2.05028839,9.04776496 L2.05028839,11.9497116 L4.95223504,11.9497116 L7.00252343,14 L9.04776496,11.9471882 L11.9497116,11.9471882 L11.9497116,9.04524153 L14,6.99495314 L11.9471882,4.9484499 Z M6.99873828,10.850757 C4.87337834,10.8493633 3.15130275,9.12578146 3.15176731,7.00042112 C3.15223187,4.87506077 4.87506077,3.15223187 7.00042112,3.15176731 C9.12578146,3.15130275 10.8493633,4.87337834 10.850757,6.99873828 C10.8514271,8.02056243 10.4458057,9.00072783 9.72326678,9.72326678 C9.00072783,10.4458057 8.02056243,10.8514271 6.99873828,10.850757 Z M6.99873828,9.69124008 C8.53929344,9.69124008 9.78965392,8.53929344 9.78965393,7.11733958 L4.20782264,7.11733958 C4.20782264,8.53803171 5.45692141,9.69124008 6.99873828,9.69124008 Z M4.96106706,5.37112473 C4.96103579,5.57128643 5.06780282,5.75625684 5.24114273,5.85634672 C5.41448263,5.9564366 5.62805523,5.9564366 5.80139513,5.85634672 C5.97473504,5.75625684 6.08150207,5.57128643 6.0814708,5.37112473 C6.08150207,5.17096304 5.97473504,4.98599262 5.80139513,4.88590274 C5.62805523,4.78581287 5.41448263,4.78581287 5.24114273,4.88590274 C5.06780282,4.98599262 4.96103579,5.17096304 4.96106706,5.37112473 L4.96106706,5.37112473 Z M8.05857966,5.37112473 C8.05857966,5.68051569 8.30939059,5.93132661 8.61878154,5.93132661 C8.9281725,5.93132661 9.17898342,5.68051569 9.17898342,5.37112473 C9.17898342,5.06173378 8.9281725,4.81092285 8.61878154,4.81092285 C8.30939059,4.81092285 8.05857966,5.06173378 8.05857966,5.37112473 L8.05857966,5.37112473 Z" id="Combined-Shape"></path>
                        </g>
                    </g>
                </g>
            </g>
        </g>
    </g>
</svg>