<?xml version="1.0" encoding="UTF-8"?>
<svg width="18px" height="15px" viewBox="0 0 18 15" version="1.1" xmlns="http://www.w3.org/2000/svg" xmlns:xlink="http://www.w3.org/1999/xlink">
    <!-- Generator: Sketch 46.2 (44496) - http://www.bohemiancoding.com/sketch -->
    <title>icon_popup_exchange</title>
    <desc>Created with Sketch.</desc>
    <defs></defs>
    <g id="正式页面" stroke="none" stroke-width="1" fill="none" fill-rule="evenodd">
        <g id="1.7-车辆监控-结果详情" transform="translate(-410.000000, -520.000000)" fill-rule="nonzero" fill="#A8C6DF">
            <g id="左侧菜单/地图监控/车辆-筛选展开1" transform="translate(80.000000, 178.000000)">
                <g id="树状筛选">
                    <g id="Group">
                        <g id="车辆" transform="translate(0.000000, 90.000000)">
                            <g id="实时信息" transform="translate(0.000000, 46.000000)">
                                <g id="弹出图标/icon_popup_power" transform="translate(330.000000, 204.000000)">
                                    <g id="icon_popup_exchange">
                                        <path d="M17.3720626,12.2668297 C17.6956211,12.5904791 17.6955848,13.1151082 17.3720081,13.438703 L14.3478658,16.4628272 C14.1229625,16.6877668 13.7774786,16.805877 13.5167716,16.6686025 C13.4012773,16.605097 13.32284,16.5123273 13.2706513,16.4257157 C13.1625502,16.2736185 13.1760288,16.0462628 13.1760288,16.0462628 L13.1760288,14.2727763 L5.8073886,14.2727763 C5.36145113,14.2727763 5,13.9112889 5,13.4653877 L5,12.4597442 C5,12.013843 5.36145113,11.6523556 5.8073886,11.6523556 L13.176047,11.6523556 L13.176047,9.72126778 C13.176047,9.72126778 13.1883993,9.17869145 13.4173716,9.07480468 C13.7230738,8.9351143 14.0962596,8.99106313 14.3478839,9.24268745 L17.3720626,12.2668297 Z M11.8045659,7.39875372 L11.8045659,7.39871739 L4.4386686,7.3987174 L4.4386686,9.00595603 C4.4386686,9.00595603 4.42635259,9.54853235 4.19734393,9.65241912 C3.8916418,9.7921095 3.51845595,9.73616068 3.26683162,9.48453635 L0.242689327,6.46039406 C-0.080905531,6.1367992 -0.0808873535,5.61213376 0.242689327,5.28855708 L3.2668498,2.26439662 C3.49175313,2.0394933 3.83723703,1.92134684 4.09794397,2.05862124 C4.21347463,2.12212677 4.29191195,2.21489645 4.34410058,2.30150811 C4.45220167,2.45360533 4.43868676,2.68099729 4.43868676,2.68099729 L4.43868676,4.77831481 L11.8045659,4.77831481 C12.2505034,4.77831481 12.6119545,5.13982043 12.6119545,5.58572156 L12.6119545,6.59136513 C12.6119545,7.03726627 12.2505034,7.39875372 11.8045659,7.39875372 Z" id="Combined-Shape"></path>
                                    </g>
                                </g>
                            </g>
                        </g>
                    </g>
                </g>
            </g>
        </g>
    </g>
</svg>