<?xml version="1.0" encoding="UTF-8"?>
<svg width="16px" height="16px" viewBox="0 0 16 16" version="1.1" xmlns="http://www.w3.org/2000/svg" xmlns:xlink="http://www.w3.org/1999/xlink">
    <!-- Generator: Sketch 46.2 (44496) - http://www.bohemiancoding.com/sketch -->
    <title>icon_dashboard_voice</title>
    <desc>Created with Sketch.</desc>
    <defs></defs>
    <g id="样式整理概览" stroke="none" stroke-width="1" fill="none" fill-rule="evenodd">
        <g id="组件2-图标-弹出消息框" transform="translate(-419.000000, -792.000000)" fill-rule="nonzero" fill="#A8C6DF">
            <g id="图标2" transform="translate(100.000000, 226.000000)">
                <g id="汽车功能图标-18px" transform="translate(30.000000, 532.000000)">
                    <g id="汽车仪表图标/语音-蓝灰" transform="translate(288.000000, 33.000000)">
                        <g id="icon_dashboard_voice">
                            <path d="M4.94698537,15.4228293 C3.50503415,13.9801366 2.61315122,11.9876098 2.61315122,9.78667317 C2.61315122,7.58554146 3.50515122,5.59281951 4.9473561,4.15012683 L4.94667317,4.1494439 C5.10341463,4.00386341 5.20158049,3.79607805 5.20158049,3.5652878 C5.20158049,3.1249561 4.84460488,2.768 4.40425366,2.768 C4.17348293,2.768 3.96573659,2.86616585 3.82013659,3.02286829 L3.81982439,3.0225561 C2.08905366,4.75385366 1.01857561,7.14520976 1.01857561,9.78665366 C1.01857561,12.4291317 2.0899122,14.8213659 3.82189268,16.5527805 L3.82275122,16.551922 C3.96813659,16.7061463 4.17416585,16.8025756 4.40282927,16.8025756 C4.84316098,16.8025756 5.2001561,16.4456 5.2001561,16.0052878 C5.2001561,15.7753951 5.10269268,15.5683317 4.94698537,15.4228293 Z M15.7952,12.5807024 L14.6845659,12.5807024 L15.8690927,10.5760195 C16.0425561,10.3788098 16.1522537,10.1242146 16.165522,9.84419512 C16.1988293,9.41051707 15.9819317,8.97592195 15.5706927,8.74392195 C15.3539122,8.62163902 15.1142829,8.57334634 14.8822244,8.59077073 L13.0826732,8.59077073 L16.4051512,2.81363902 C16.7335024,2.24275122 16.5291707,1.50718049 15.9488195,1.17067317 C15.3684878,0.834146341 14.6318634,1.02413659 14.3035512,1.59502439 L9.94407805,9.17516098 C9.8249561,9.38230244 9.77629268,9.61110244 9.78995122,9.83469268 C9.81445854,10.4544976 10.3103805,10.9529561 10.9292293,10.9812098 C10.9796293,10.9848 11.0299707,10.9852878 11.0799805,10.9826146 L12.8670049,10.9826146 L11.5452293,13.2195902 C11.2149463,13.778478 11.4109659,14.4931707 11.9829268,14.8158244 C12.1755512,14.9244878 12.3862439,14.9745951 12.5936195,14.9722537 C12.5977951,14.9722927 12.6019122,14.9725659 12.6060878,14.9725659 L15.7952195,14.9725659 C16.4557268,14.9725659 16.9911805,14.4371122 16.9911805,13.7766439 C16.991161,13.1161171 16.4557073,12.5807024 15.7952,12.5807024 L15.7952,12.5807024 Z M6.92261463,13.4521366 C5.98417561,12.5142244 5.40362927,11.2182439 5.40362927,9.78667317 C5.40362927,8.35611707 5.98333659,7.06101463 6.92054634,6.12327805 L6.91990244,6.12263415 C7.05090732,5.98056585 7.13102439,5.79086829 7.13102439,5.58238049 C7.13102439,5.14204878 6.77404878,4.78509268 6.33369756,4.78509268 C6.12522927,4.78509268 5.9355122,4.86520976 5.7934439,4.99621463 L5.79299512,4.99576585 C5.78803902,5.00072195 5.78314146,5.00577561 5.77820488,5.01075122 C5.77084878,5.01789268 5.76366829,5.02520976 5.75658537,5.0326439 C4.55227317,6.25592195 3.80909268,7.93445854 3.80909268,9.78667317 C3.80909268,11.6398244 4.55305366,13.3191415 5.75841951,14.5425756 C5.76788788,14.5526716 5.77762136,14.5625157 5.78760976,14.5720976 L5.79508293,14.5796488 L5.79529756,14.5794341 C5.93783415,14.7128976 6.1292878,14.7947512 6.33996098,14.7947512 C6.78029268,14.7947512 7.1372878,14.4377756 7.1372878,13.9974634 C7.1372878,13.7867902 7.05543415,13.5953366 6.92197073,13.4528 L6.92261463,13.4521366 L6.92261463,13.4521366 Z M9.42339512,7.80060488 C9.42339512,7.36027317 9.06645854,7.00331707 8.62614634,7.00331707 C8.39875122,7.00331707 8.19377561,7.09865366 8.04852683,7.2513561 L8.04801951,7.25084878 C7.39939512,7.9 6.99820488,8.79644878 6.99820488,9.78667317 C6.99820488,10.7779317 7.40027317,11.675239 8.05014634,12.3245854 L8.05108293,12.3236488 C8.19430244,12.4609366 8.38850732,12.5454634 8.60257561,12.5454634 C9.04286829,12.5454634 9.39982439,12.1885268 9.39982439,11.7481756 C9.39982439,11.5213463 9.3049561,11.3168195 9.15291707,11.1716488 C8.80626341,10.8130341 8.59281951,10.3248585 8.59281951,9.78669268 C8.59281951,9.2368 8.81553171,8.73902439 9.17562927,8.37841951 L9.17541463,8.37820488 C9.32805854,8.2329561 9.42339512,8.02798049 9.42339512,7.80060488 Z" id="Shape"></path>
                        </g>
                    </g>
                </g>
            </g>
        </g>
    </g>
</svg>