<?xml version="1.0" encoding="UTF-8"?>
<svg width="14px" height="16px" viewBox="0 0 14 16" version="1.1" xmlns="http://www.w3.org/2000/svg" xmlns:xlink="http://www.w3.org/1999/xlink">
    <!-- Generator: Sketch 46.2 (44496) - http://www.bohemiancoding.com/sketch -->
    <title>icon_popup_integral</title>
    <desc>Created with Sketch.</desc>
    <defs></defs>
    <g id="样式整理概览" stroke="none" stroke-width="1" fill="none" fill-rule="evenodd">
        <g id="组件2-图标-弹出消息框" transform="translate(-376.000000, -659.000000)" fill="#A8C6DF">
            <g id="图标2" transform="translate(100.000000, 226.000000)">
                <g id="普通图标-18px" transform="translate(30.000000, 275.000000)">
                    <g id="18" transform="translate(78.000000, 125.000000)">
                        <g id="弹出图标/icon_popup_integral" transform="translate(166.000000, 32.000000)">
                            <g id="icon_popup_integral">
                                <ellipse id="Oval" cx="9" cy="5" rx="7" ry="4"></ellipse>
                                <path d="M2.50882742,7.5 C2.18069374,7.96321572 2,8.46954978 2,9 C2,11.209139 5.13400675,13 9,13 C12.8659932,13 16,11.209139 16,9 C16,8.46954978 15.8193063,7.96321572 15.4911726,7.5 C14.4527447,8.96591517 11.9377054,10 9,10 C6.06229464,10 3.54725532,8.96591517 2.50882742,7.5 Z" id="1"></path>
                                <path d="M2.50882742,11.5 C2.18069374,11.9632157 2,12.4695498 2,13 C2,15.209139 5.13400675,17 9,17 C12.8659932,17 16,15.209139 16,13 C16,12.4695498 15.8193063,11.9632157 15.4911726,11.5 C14.4527447,12.9659152 11.9377054,14 9,14 C6.06229464,14 3.54725532,12.9659152 2.50882742,11.5 Z" id="2"></path>
                            </g>
                        </g>
                    </g>
                </g>
            </g>
        </g>
    </g>
</svg>