<?xml version="1.0" encoding="UTF-8"?>
<svg width="16px" height="12px" viewBox="0 0 16 12" version="1.1" xmlns="http://www.w3.org/2000/svg" xmlns:xlink="http://www.w3.org/1999/xlink">
    <!-- Generator: Sketch 46.2 (44496) - http://www.bohemiancoding.com/sketch -->
    <title>icon_dashboard_engine</title>
    <desc>Created with Sketch.</desc>
    <defs></defs>
    <g id="样式整理概览" stroke="none" stroke-width="1" fill="none" fill-rule="evenodd">
        <g id="组件2-图标-弹出消息框" transform="translate(-957.000000, -761.000000)" fill-rule="nonzero" fill="#A8C6DF">
            <g id="图标2" transform="translate(100.000000, 226.000000)">
                <g id="汽车功能图标-18px" transform="translate(30.000000, 532.000000)">
                    <g id="汽车仪表图标/引擎-蓝灰" transform="translate(826.000000, 0.000000)">
                        <g id="icon_dashboard_engine">
                            <path d="M15.9999759,7 L13.446323,7 L13.3251033,6.54037525 C13.2665561,6.07616234 12.8900386,5.7112694 12.4204857,5.67068933 C12.4137384,5.67005316 12.4069333,5.66964832 12.4001668,5.6691471 C12.3937086,5.66872298 12.3872698,5.6681832 12.3807731,5.66787475 C12.3558776,5.66652047 12.3309393,5.66612177 12.3060133,5.66667952 L10.3333012,5.66667952 L10.3333012,5.00000964 L12.3333301,5.00000964 C12.8855854,5.00000964 13.3333349,4.55231793 13.3333349,4.00000482 C13.3333349,3.44769171 12.8856047,3 12.3333301,3 L6.6666747,3 C6.11438086,3 5.66666988,3.44769171 5.66666988,4.00000482 C5.66666988,4.55231793 6.11436159,5.00000964 6.6666747,5.00000964 L9,5.00000964 L9,5.66667952 L6.7859859,5.66667952 C6.54607188,5.63849516 6.31099662,5.70057015 6.11891118,5.83017577 C5.88391304,5.98438005 5.7178721,6.23480055 5.67677152,6.52555051 L5.55163838,7.00001928 L4.66668434,7.00001928 C4.1143905,7.00001928 3.66667952,7.44771099 3.66667952,8.0000241 L3.66667952,9.66667952 L3.00002892,9.66667952 L3.00002892,8.0000241 C3.00002892,7.44773026 2.55229865,7.00001928 2.0000241,7.00001928 C1.44773026,7.00001928 1,7.44771099 1,8.0000241 L1,12.6666747 C1,13.2189493 1.44773026,13.6666795 2.0000241,13.6666795 C2.55227938,13.6666795 3.00002892,13.2189493 3.00002892,12.6666747 L3.00002892,11.0000193 L3.6666988,11.0000193 L3.6666988,12.6666747 C3.6666988,13.2189493 4.1143905,13.6666795 4.66670362,13.6666795 L6.28323638,13.6666795 L7.16686025,14.552983 C7.34602947,14.822373 7.65224034,15 8.00003374,15 L13.3333542,15 C13.8856288,15 14.333359,14.5522697 14.333359,13.9999952 C14.333359,13.4477013 13.8856288,12.9999904 13.3333542,12.9999904 L8.37805495,12.9999904 L7.5094486,12.1287237 C7.36814127,11.9077984 7.14255076,11.7461336 6.87786458,11.6892058 C6.7596308,11.6591536 6.63681461,11.6515099 6.51576695,11.6666699 L5.66668916,11.6666699 L5.66668916,8.99999036 L6.30636991,8.99999036 C6.33118063,9.00053014 6.3558564,9.00012531 6.3804165,8.99879513 C6.38756862,8.9984674 6.39462435,8.99786979 6.40173791,8.99738784 C6.40786829,8.99692517 6.41399868,8.99657816 6.42010979,8.99599983 C6.88985546,8.95559325 7.26660433,8.59060393 7.32515145,8.12625608 L7.44637117,7.66666988 L11.551648,7.66666988 L11.6767619,8.14106154 C11.7178817,8.43223562 11.8843275,8.68294528 12.1198654,8.83711101 C12.3117003,8.9662154 12.5462743,9.02803977 12.7856871,8.99999036 L14.9999904,8.99999036 L14.9999904,13.9999759 C14.9999904,14.5522505 15.4476821,14.9999807 15.9999952,14.9999807 C16.5522505,14.9999807 17,14.5522505 17,13.9999759 L17,7.99998554 C16.9999807,7.44769171 16.5522505,7 15.9999759,7 L15.9999759,7 Z" id="Shape"></path>
                        </g>
                    </g>
                </g>
            </g>
        </g>
    </g>
</svg>