<?xml version="1.0" encoding="UTF-8"?>
<svg width="180px" height="177px" viewBox="0 0 180 177" version="1.1" xmlns="http://www.w3.org/2000/svg" xmlns:xlink="http://www.w3.org/1999/xlink">
    <!-- Generator: Sketch 46.2 (44496) - http://www.bohemiancoding.com/sketch -->
    <title>icon_blank_page_worksheet</title>
    <desc>Created with Sketch.</desc>
    <defs>
        <rect id="path-1" x="20" y="19" width="136" height="160" rx="10"></rect>
        <rect id="path-2" x="33" y="34" width="111" height="131" rx="10"></rect>
        <path d="M100,15 L125,15 L125,15 C128.865993,15 132,18.1340068 132,22 C132,25.8659932 128.865993,29 125,29 L49,29 L49,29 C45.1340068,29 42,25.8659932 42,22 L42,22 L42,22 C42,18.1340068 45.1340068,15 49,15 L49,15 L74,15 L74,12 L74,12 C74,6.4771525 78.4771525,2 84,2 L84,2 L90,2 L90,2 C95.5228475,2 100,6.4771525 100,12 L100,15 Z M87,18 C89.209139,18 91,16.209139 91,14 C91,11.790861 89.209139,10 87,10 C84.790861,10 83,11.790861 83,14 C83,16.209139 84.790861,18 87,18 Z" id="path-3"></path>
    </defs>
    <g id="正式页面" stroke="none" stroke-width="1" fill="none" fill-rule="evenodd">
        <g id="8.0-业务设置-综合查询模板设置-默认" transform="translate(-803.000000, -423.000000)">
            <g id="内容" transform="translate(185.000000, 204.000000)">
                <g id="反馈内容" transform="translate(285.000000, 0.000000)">
                    <g id="Group" transform="translate(333.000000, 217.000000)">
                        <g id="icon/空白页/icon_blank_page_data_products">
                            <g id="icon_blank_page_worksheet">
                                <g id="bg">
                                    <use fill="#ECF5FD" fill-rule="evenodd" xlink:href="#path-1"></use>
                                    <rect stroke="#A8C6DF" stroke-width="2" x="21" y="20" width="134" height="158" rx="10"></rect>
                                </g>
                                <g id="bg-copy">
                                    <use fill="#FFFFFF" fill-rule="evenodd" xlink:href="#path-2"></use>
                                    <rect stroke="#A8C6DF" stroke-width="2" x="34" y="35" width="109" height="129" rx="10"></rect>
                                </g>
                                <rect id="bg-copy-2" stroke="#A8C6DF" stroke-width="2" fill="#FFFFFF" stroke-linecap="round" stroke-dasharray="8,6" x="56" y="52" width="121" height="72"></rect>
                                <circle id="Oval" fill="#A8C6DF" cx="89" cy="87" r="16"></circle>
                                <g id="Buttons-/-Plus-White-Small" transform="translate(83.000000, 81.000000)" fill="#FFFFFF">
                                    <polygon id="Icon" points="12 5 7 5 7 0 5 0 5 5 0 5 0 7 5 7 5 12 7 12 7 7 12 7"></polygon>
                                </g>
                                <path d="M118,75 L147,75" id="Path-3" stroke="#A8C6DF" stroke-width="4" fill="#D8D8D8" stroke-linecap="round"></path>
                                <path d="M118,87 L147,87" id="Path-3-Copy-4" stroke="#A8C6DF" stroke-width="4" fill="#D8D8D8" stroke-linecap="round"></path>
                                <path d="M118,100 L159,100" id="Path-3-Copy" stroke="#A8C6DF" stroke-width="4" fill="#D8D8D8" stroke-linecap="round"></path>
                                <g id="Combined-Shape">
                                    <use fill="#FFFFFF" fill-rule="evenodd" xlink:href="#path-3"></use>
                                    <path stroke="#A8C6DF" stroke-width="2" d="M125,16 L99,16 L99,12 C99,7.02943725 94.9705627,3 90,3 L84,3 C79.0294373,3 75,7.02943725 75,12 L75,16 L49,16 C45.6862915,16 43,18.6862915 43,22 C43,25.3137085 45.6862915,28 49,28 L125,28 C128.313708,28 131,25.3137085 131,22 C131,18.6862915 128.313708,16 125,16 Z M87,19 C84.2385763,19 82,16.7614237 82,14 C82,11.2385763 84.2385763,9 87,9 C89.7614237,9 92,11.2385763 92,14 C92,16.7614237 89.7614237,19 87,19 Z"></path>
                                </g>
                                <g id="+" transform="translate(168.000000, 129.000000)" stroke="#A8C6DF" stroke-width="2">
                                    <path d="M-9.09494702e-13,6 L12,6" id="Path-3-Copy-3"></path>
                                    <path d="M6,12 L6,0" id="Path-3-Copy-2"></path>
                                </g>
                                <g id="+-copy" transform="translate(0.000000, 34.000000)" stroke="#A8C6DF" stroke-width="2">
                                    <path d="M-9.09494702e-13,6 L12,6" id="Path-3-Copy-3"></path>
                                    <path d="M6,12 L6,0" id="Path-3-Copy-2"></path>
                                </g>
                                <g id="+-copy-2" transform="translate(69.000000, 130.000000)" stroke="#A8C6DF" stroke-width="2">
                                    <path d="M-9.09494702e-13,4 L8,4" id="Path-3-Copy-3"></path>
                                    <path d="M4,8 L4,0" id="Path-3-Copy-2"></path>
                                </g>
                            </g>
                        </g>
                    </g>
                </g>
            </g>
        </g>
    </g>
</svg>