<?xml version="1.0" encoding="UTF-8"?>
<svg width="18px" height="18px" viewBox="0 0 18 18" version="1.1" xmlns="http://www.w3.org/2000/svg" xmlns:xlink="http://www.w3.org/1999/xlink">
    <!-- Generator: Sketch 46.2 (44496) - http://www.bohemiancoding.com/sketch -->
    <title>icon_popup_switch</title>
    <desc>Created with Sketch.</desc>
    <defs></defs>
    <g id="正式页面" stroke="none" stroke-width="1" fill="none" fill-rule="evenodd">
        <g id="1.7-车辆监控-结果详情" transform="translate(-216.000000, -234.000000)">
            <g id="左侧菜单/地图监控/车辆-筛选展开1" transform="translate(80.000000, 178.000000)">
                <g id="树状筛选">
                    <g id="Group">
                        <g id="车辆标签" transform="translate(0.000000, 40.000000)">
                            <g id="123456" transform="translate(108.000000, 16.000000)">
                                <g id="弹出图标/icon_popup_switch" transform="translate(28.000000, 0.000000)">
                                    <g id="icon_popup_switch">
                                        <path d="M0,5.43211174 C1.00343101e-15,8.43219707 2.43199112,10.8642764 5.43211174,10.8642764 L12.5678883,10.8642764 C15.5680265,10.8642764 18,8.43219707 18,5.43211174 C18,2.43202642 15.5680089,1.00343101e-15 12.5678883,0 L5.43211174,3.01029302e-15 C2.43197347,4.01372403e-15 -1.00343101e-15,2.43202642 0,5.43211174 Z M1.49612478,5.4209208 C1.49612478,3.2504224 3.25561941,1.4909137 5.42616002,1.49089962 C7.59657398,1.49089962 9.35612491,3.25039426 9.35612491,5.42090673 C9.35612491,7.59146141 7.59655991,9.35094197 5.4261741,9.35094197 C3.25564756,9.35094197 1.49613885,7.59143327 1.49613885,5.42090673 L1.49612478,5.4209208 Z" id="Shape" fill="#A8C6DF" fill-rule="nonzero"></path>
                                        <path d="M5.541,12.632 C6.177,12.632 6.687,12.842 7.059,13.274 C7.407,13.682 7.587,14.21 7.587,14.864 C7.587,15.512 7.407,16.034 7.059,16.442 C6.687,16.868 6.177,17.084 5.535,17.084 C4.893,17.084 4.389,16.868 4.017,16.442 C3.663,16.034 3.489,15.506 3.489,14.864 C3.489,14.216 3.663,13.688 4.017,13.28 C4.389,12.848 4.893,12.632 5.541,12.632 Z M5.541,13.07 C5.049,13.07 4.659,13.238 4.377,13.58 C4.113,13.904 3.981,14.33 3.981,14.864 C3.981,15.392 4.113,15.818 4.377,16.142 C4.653,16.478 5.043,16.646 5.535,16.646 C6.027,16.646 6.417,16.478 6.693,16.154 C6.957,15.83 7.095,15.404 7.095,14.864 C7.095,14.318 6.957,13.886 6.693,13.562 C6.417,13.232 6.033,13.07 5.541,13.07 Z M8.271,12.716 L8.271,17 L8.763,17 L8.763,15.008 L11.013,15.008 L11.013,14.582 L8.763,14.582 L8.763,13.142 L11.139,13.142 L11.139,12.716 L8.271,12.716 Z M11.733,12.716 L11.733,17 L12.225,17 L12.225,15.008 L14.475,15.008 L14.475,14.582 L12.225,14.582 L12.225,13.142 L14.601,13.142 L14.601,12.716 L11.733,12.716 Z" id="OFF" fill="#8DABC4"></path>
                                    </g>
                                </g>
                            </g>
                        </g>
                    </g>
                </g>
            </g>
        </g>
    </g>
</svg>