<?xml version="1.0" encoding="UTF-8"?>
<svg width="12px" height="12px" viewBox="0 0 12 12" version="1.1" xmlns="http://www.w3.org/2000/svg" xmlns:xlink="http://www.w3.org/1999/xlink">
    <!-- Generator: Sketch 46.2 (44496) - http://www.bohemiancoding.com/sketch -->
    <title>icon_popup_move 14px</title>
    <desc>Created with Sketch.</desc>
    <defs></defs>
    <g id="样式整理概览" stroke="none" stroke-width="1" fill="none" fill-rule="evenodd">
        <g id="组件2-图标-弹出消息框" transform="translate(-408.000000, -897.000000)" fill-rule="nonzero" fill="#A8C6DF">
            <g id="图标2" transform="translate(100.000000, 226.000000)">
                <g id="普通图标-14px" transform="translate(30.000000, 633.000000)">
                    <g id="弹出图标/icon_popup_move-14px" transform="translate(277.000000, 37.000000)">
                        <g id="icon_popup_move-14px">
                            <path d="M12.9940535,11.9762895 C12.9940535,11.9762895 12.9940535,4.46173867 12.9940535,3.70389475 C12.9940535,2.67448112 12.1539267,2.77016464 12.1539267,2.77016464 C12.1539267,2.77016464 7.27015611,2.77669741 7.53540203,2.77016464 C7.2476384,2.77738658 7.1057573,2.60185942 7.1057573,2.60185942 C7.1057573,2.60185942 6.90620886,2.14411074 6.54718799,1.5380462 C6.17062174,0.902374267 5.73484418,1.00631189 5.73484418,1.00631189 L2.0359683,1.00631189 C1.01170697,1.00631189 1,2.10626366 1,2.10626366 C1,2.10626366 1,11.1272273 1,11.9188137 C1,13.1460903 1.8305671,12.9939999 1.8305671,12.9939999 C1.8305671,12.9939999 11.6043301,12.9939999 12.2304511,12.9939999 C13.1183447,12.9939999 12.9940535,11.9762895 12.9940535,11.9762895 Z M12.0506221,11.2645484 C12.0506221,11.643125 11.775522,11.9501296 11.4362526,11.9501296 L2.55810753,11.9501296 C2.21886829,11.9501296 1.94404825,11.6431266 1.94404825,11.2645484 L1.94404825,4.50716683 C1.94404825,4.12893485 2.21886972,3.8219318 2.55810753,3.8219318 L11.4362393,3.8219318 C11.7755072,3.8219318 12.0506088,4.12893485 12.0506088,4.50716683 L12.0506088,11.2645484 L12.0506221,11.2645484 Z M7.61832172,6.65614322 L4.15571943,6.65614322 L4.15571943,9.11315802 L7.61832229,9.11315802 L7.61832229,10.131542 L10.1566001,7.87001152 L7.61832172,5.63465834 L7.61832172,6.65614392 L7.61832172,6.65614322 Z" id="Shape"></path>
                        </g>
                    </g>
                </g>
            </g>
        </g>
    </g>
</svg>