<?xml version="1.0" encoding="UTF-8"?>
<svg width="18px" height="13px" viewBox="0 0 18 13" version="1.1" xmlns="http://www.w3.org/2000/svg" xmlns:xlink="http://www.w3.org/1999/xlink">
    <!-- Generator: Sketch 46.2 (44496) - http://www.bohemiancoding.com/sketch -->
    <title>icon_popup_preview</title>
    <desc>Created with Sketch.</desc>
    <defs></defs>
    <g id="样式整理概览" stroke="none" stroke-width="1" fill="none" fill-rule="evenodd">
        <g id="组件2-图标-弹出消息框" transform="translate(-790.000000, -661.000000)" fill-rule="nonzero" fill="#A8C6DF">
            <g id="图标2" transform="translate(100.000000, 226.000000)">
                <g id="普通图标-18px" transform="translate(30.000000, 275.000000)">
                    <g id="18" transform="translate(78.000000, 125.000000)">
                        <g id="弹出图标/icon_popup_preview" transform="translate(582.000000, 32.000000)">
                            <g id="icon_popup_preview">
                                <path d="M9.00109412,3.01251176 C2.58296471,3.01251176 0.0157235294,9.43065882 0.0157235294,9.43065882 C0.0157235294,9.43065882 2.58296471,15.8488059 9.00109412,15.8488059 C15.4192412,15.8488059 17.9865,9.43065882 17.9865,9.43065882 C17.9865,9.43065882 15.4192412,3.01251176 9.00109412,3.01251176 Z M9.00109412,13.2815118 C6.8751,13.2815118 5.15024118,11.5579412 5.15024118,9.43065882 C5.15024118,7.30337647 6.87511765,5.57977059 9.00109412,5.57977059 C11.1271235,5.57977059 12.852,7.30335882 12.852,9.43065882 C12.852,11.5579588 11.1271235,13.2815118 9.00109412,13.2815118 Z M10.9265471,9.43065882 C10.9265471,10.4936824 10.0640824,11.3560765 9.00109412,11.3560765 C7.93812353,11.3560765 7.07567647,10.4936824 7.07567647,9.43065882 C7.07567647,8.36767059 7.93814118,7.50522353 9.00109412,7.50522353 C10.0641176,7.50520588 10.9265471,8.36765294 10.9265471,9.43065882 Z" id="Shape"></path>
                            </g>
                        </g>
                    </g>
                </g>
            </g>
        </g>
    </g>
</svg>