<?xml version="1.0" encoding="UTF-8"?>
<svg width="18px" height="18px" viewBox="0 0 18 18" version="1.1" xmlns="http://www.w3.org/2000/svg" xmlns:xlink="http://www.w3.org/1999/xlink">
    <!-- Generator: Sketch 46.2 (44496) - http://www.bohemiancoding.com/sketch -->
    <title>icon_folder_filled_grey</title>
    <desc>Created with Sketch.</desc>
    <defs></defs>
    <g id="样式整理概览" stroke="none" stroke-width="1" fill="none" fill-rule="evenodd">
        <g id="组件2-图标-弹出消息框" transform="translate(-873.000000, -501.000000)" fill="#A8C6DF">
            <g id="图标2" transform="translate(100.000000, 226.000000)">
                <g id="普通图标-18px" transform="translate(30.000000, 275.000000)">
                    <g id="灰" transform="translate(79.000000, 0.000000)">
                        <g id="Icons-Grey-/-Folder" transform="translate(664.000000, 0.000000)">
                            <path d="M15.8,3.75 L9,3.75 L7.3,2 L2.2,2 C1.265,2 0.5085,2.7875 0.5085,3.75 L0.5,14.25 C0.5,15.2125 1.265,16 2.2,16 L15.8,16 C16.735,16 17.5,15.2125 17.5,14.25 L17.5,5.5 C17.5,4.5375 16.735,3.75 15.8,3.75 L15.8,3.75 Z M15.8,14.25 L2.2,14.25 L2.2,5.5 L15.8,5.5 L15.8,14.25 L15.8,14.25 Z" id="Icon"></path>
                        </g>
                    </g>
                </g>
            </g>
        </g>
    </g>
</svg>