<?xml version="1.0" encoding="UTF-8"?>
<svg width="18px" height="16px" viewBox="0 0 18 16" version="1.1" xmlns="http://www.w3.org/2000/svg" xmlns:xlink="http://www.w3.org/1999/xlink">
    <!-- Generator: Sketch 46.2 (44496) - http://www.bohemiancoding.com/sketch -->
    <title>icon_menu_left_image_recognition_a</title>
    <desc>Created with Sketch.</desc>
    <defs></defs>
    <g id="样式整理概览" stroke="none" stroke-width="1" fill="none" fill-rule="evenodd">
        <g id="组件2-图标-弹出消息框" transform="translate(-292.000000, -434.000000)" fill-rule="nonzero" fill="#8DABC4">
            <g id="图标2" transform="translate(100.000000, 226.000000)">
                <g id="菜单图标" transform="translate(30.000000, 207.000000)">
                    <g id="icon/menu/left/图像识别-小灰" transform="translate(162.000000, 0.000000)">
                        <g id="icon_menu_left_image_recognition_a">
                            <path d="M0,3 L0,15 L0,15 C1.3527075e-16,16.1045695 0.8954305,17 2,17 L16,17 L16,17 C17.1045695,17 18,16.1045695 18,15 L18,3 L18,3 C18,1.8954305 17.1045695,1 16,1 L2,1 L2,1 C0.8954305,1 -1.3527075e-16,1.8954305 0,3 Z M15,15 L3,15 L3,15 C2.44771525,15 2,14.5522847 2,14 L2,4 L2,4 C2,3.44771525 2.44771525,3 3,3 L15,3 L15,3 C15.5522847,3 16,3.44771525 16,4 L16,14 L16,14 C16,14.5522847 15.5522847,15 15,15 Z M6.1875,7.875 C7.119,7.875 7.875,7.119 7.875,6.1875 C7.875,5.256 7.119,4.5 6.1875,4.5 C5.256,4.5 4.5,5.256 4.5,6.1875 C4.5,7.119 5.256,7.875 6.1875,7.875 Z M7.625,12.375 L6.25,10.125 L3.5,13.5 L14.5,13.5 L11.75,6.75 L7.625,12.375 Z" id="Shape"></path>
                        </g>
                    </g>
                </g>
            </g>
        </g>
    </g>
</svg>