<?xml version="1.0" encoding="UTF-8"?>
<svg width="18px" height="18px" viewBox="0 0 18 18" version="1.1" xmlns="http://www.w3.org/2000/svg" xmlns:xlink="http://www.w3.org/1999/xlink">
    <!-- Generator: Sketch 46.2 (44496) - http://www.bohemiancoding.com/sketch -->
    <title>icon_download_filled_grey</title>
    <desc>Created with Sketch.</desc>
    <defs></defs>
    <g id="样式整理概览" stroke="none" stroke-width="1" fill="none" fill-rule="evenodd">
        <g id="组件2-图标-弹出消息框" transform="translate(-915.000000, -540.000000)" fill-rule="nonzero" fill="#A8C6DF">
            <g id="图标2" transform="translate(100.000000, 226.000000)">
                <g id="普通图标-18px" transform="translate(30.000000, 275.000000)">
                    <g id="灰" transform="translate(79.000000, 0.000000)">
                        <g id="Icons-Grey-/-Download" transform="translate(706.000000, 39.000000)">
                            <path d="M9.33465629,14.8647719 C9.14771595,15.045076 8.84446907,15.045076 8.65746467,14.8647719 L2.65582093,8.70977196 L2.65582093,8.70977196 C2.27025378,8.31435266 2.27824053,7.68123806 2.67365983,7.29567091 C2.86041921,7.11356477 3.11094284,7.01164089 3.3717909,7.01164089 L4.84768379,7.01164089 L4.84768379,0.00444435049 L13.1525084,0 L13.1525084,7.00446 L14.6326859,7.00722257 L14.6326859,7.00722257 C15.1849697,7.00825335 15.6318486,7.45680342 15.6308178,8.00908721 C15.6303318,8.26946683 15.5283058,8.51938901 15.3464305,8.70571986 L9.33465629,14.8647719 Z M17.0000823,16 L1,16 L1,16 C0.44771525,16 -6.76353751e-17,16.4477153 0,17 L0,17 L0,17 C6.76353751e-17,17.5522847 0.44771525,18 1,18 L17.0000823,18 L17.0000823,18 C17.552367,18 18.0000823,17.5522847 18.0000823,17 L18.0000823,17 L18.0000823,17 C18.0000823,16.4477153 17.552367,16 17.0000823,16 Z" id="Shape"></path>
                        </g>
                    </g>
                </g>
            </g>
        </g>
    </g>
</svg>