<?xml version="1.0" encoding="UTF-8"?>
<svg width="20px" height="24px" viewBox="0 0 20 24" version="1.1" xmlns="http://www.w3.org/2000/svg" xmlns:xlink="http://www.w3.org/1999/xlink">
    <!-- Generator: Sketch 46.2 (44496) - http://www.bohemiancoding.com/sketch -->
    <title>icon_menu_left_resource_center_b</title>
    <desc>Created with Sketch.</desc>
    <defs></defs>
    <g id="正式页面" stroke="none" stroke-width="1" fill="none" fill-rule="evenodd">
        <g id="9.0-资源中心-角色管理-默认" transform="translate(-20.000000, -323.000000)" fill-rule="nonzero" fill="#0093EE">
            <g id="Sidebars-/-#3">
                <g id="左侧菜单/应用市场-copy" transform="translate(0.000000, 310.000000)">
                    <g id="icon/menu/left/故障监控" transform="translate(18.000000, 13.000000)">
                        <g id="icon_menu_left_resource_center_b">
                            <path d="M19.4666667,0 L4.53333333,0 C3.50366501,0.00279486337 2.66970996,0.768671947 2.66666667,1.71428571 L2.66666667,22.2857143 C2.66970996,23.2313281 3.50366501,23.9972051 4.53333333,24 L19.4666667,24 C20.496335,23.9972051 21.33029,23.2313281 21.3333333,22.2857143 L21.3333333,1.71428571 C21.33029,0.768671947 20.496335,0.00279486337 19.4666667,0 Z M11.0666667,21.4285714 L5.46666667,21.4285714 L5.46666667,16.2857143 L11.0666667,16.2857143 L11.0666667,21.4285714 Z M11.0666667,14.5714286 L5.46666667,14.5714286 L5.46666667,9.42857143 L11.0666667,9.42857143 L11.0666667,14.5714286 Z M18.5333333,21.4285714 L12.9333333,21.4285714 L12.9333333,16.2857143 L18.5333333,16.2857143 L18.5333333,21.4285714 Z M18.5333333,14.5714286 L12.9333333,14.5714286 L12.9333333,9.42857143 L18.5333333,9.42857143 L18.5333333,14.5714286 Z M19.4666667,7.71428571 L17.6,6.85714286 L15.7333333,7.71428571 L15.7333333,1.71428571 L19.4666667,1.71428571 L19.4666667,7.71428571 Z" id="Shape"></path>
                        </g>
                    </g>
                </g>
            </g>
        </g>
    </g>
</svg>