<?xml version="1.0" encoding="UTF-8"?>
<svg width="12px" height="15px" viewBox="0 0 12 15" version="1.1" xmlns="http://www.w3.org/2000/svg" xmlns:xlink="http://www.w3.org/1999/xlink">
    <!-- Generator: Sketch 46.2 (44496) - http://www.bohemiancoding.com/sketch -->
    <title>icon_popup_delete 14px</title>
    <desc>Created with Sketch.</desc>
    <defs></defs>
    <g id="正式页面" stroke="none" stroke-width="1" fill="none" fill-rule="evenodd">
        <g id="1.5-车辆监控-筛选结果列表" transform="translate(-417.000000, -237.000000)" fill-rule="nonzero" fill="#A8C6DF">
            <g id="树状筛选" transform="translate(80.000000, 178.000000)">
                <g id="Group">
                    <g id="左侧菜单/充电机监控/充电桩筛选/默认列表" transform="translate(0.000000, 40.000000)">
                        <g id="2" transform="translate(336.000000, 19.000000)">
                            <g id="弹出图标/icon_popup_delete-14px">
                                <g id="icon_popup_delete-14px">
                                    <path d="M1.99998134,12.5561966 C1.99998134,13.3562609 2.67136087,14.0044706 3.49998134,14.0044706 L10.5,14.0044706 C11.3281168,14.0044706 12,13.3562609 12,12.5561966 L12,3.86653458 L1.99998134,3.86653456 L1.99998134,12.5561966 Z M12.1428731,1.45304977 L9.54997281,1.45304977 C9.56402617,1.37503494 9.57144455,1.29430012 9.57144455,1.2116199 C9.57144455,0.544864214 9.09179181,0.00447057286 8.49999999,0.00447057286 L5.50000001,0.00447057286 C4.90820819,0.00447057286 4.42855545,0.544864214 4.42855545,1.2116199 C4.42855545,1.29431815 4.43597383,1.37503494 4.45002719,1.45304977 L1.85714286,1.45304977 C1.38334169,1.45304977 1,1.88547277 1,2.41876923 C1,2.95210173 1.38334169,3.38447069 1.85714286,3.38447069 L12.1428731,3.38447069 C12.6162266,3.38447069 13,2.95210173 13,2.41876923 C13,1.88545474 12.6162266,1.45304977 12.1428731,1.45304977 Z" id="Shape"></path>
                                </g>
                            </g>
                        </g>
                    </g>
                </g>
            </g>
        </g>
    </g>
</svg>