<?xml version="1.0" encoding="UTF-8"?>
<svg width="18px" height="18px" viewBox="0 0 18 18" version="1.1" xmlns="http://www.w3.org/2000/svg" xmlns:xlink="http://www.w3.org/1999/xlink">
    <!-- Generator: Sketch 46.2 (44496) - http://www.bohemiancoding.com/sketch -->
    <title>icon_complete_filled_blue</title>
    <desc>Created with Sketch.</desc>
    <defs></defs>
    <g id="样式整理概览" stroke="none" stroke-width="1" fill="none" fill-rule="evenodd">
        <g id="组件2-图标-弹出消息框" transform="translate(-583.000000, -501.000000)" fill="#A8C6DF">
            <g id="图标2" transform="translate(100.000000, 226.000000)">
                <g id="普通图标-18px" transform="translate(30.000000, 275.000000)">
                    <g id="灰" transform="translate(79.000000, 0.000000)">
                        <g id="Icons-Grey-/-Complete-Icon" transform="translate(374.000000, 0.000000)">
                            <path d="M7.3,14.4 L3.7,10.9605096 L4.969,9.74808917 L7.3,11.9665605 L13.231,6.3 L14.5,7.52101911 L7.3,14.4 Z M9.1,1.8 C9.595,1.8 10,2.205 10,2.7 C10,3.195 9.595,3.6 9.1,3.6 C8.605,3.6 8.2,3.195 8.2,2.7 C8.2,2.205 8.605,1.8 9.1,1.8 L9.1,1.8 Z M15.4,1.8 L11.638,1.8 C11.26,0.756 10.27,1.77635684e-15 9.1,1.77635684e-15 C7.93,1.77635684e-15 6.94,0.756 6.562,1.8 L2.8,1.8 C1.81,1.8 1,2.61 1,3.6 L1,16.2 C1,17.19 1.81,18 2.8,18 L15.4,18 C16.39,18 17.2,17.19 17.2,16.2 L17.2,3.6 C17.2,2.61 16.39,1.8 15.4,1.8 L15.4,1.8 Z" id="Icon"></path>
                        </g>
                    </g>
                </g>
            </g>
        </g>
    </g>
</svg>