<?xml version="1.0" encoding="UTF-8"?>
<svg width="14px" height="14px" viewBox="0 0 14 14" version="1.1" xmlns="http://www.w3.org/2000/svg" xmlns:xlink="http://www.w3.org/1999/xlink">
    <!-- Generator: Sketch 46.2 (44496) - http://www.bohemiancoding.com/sketch -->
    <title>icon_document_pdf_blue</title>
    <desc>Created with Sketch.</desc>
    <defs></defs>
    <g id="正式页面" stroke="none" stroke-width="1" fill="none" fill-rule="evenodd">
        <g id="7.0-车辆监控-个人中心-我的反馈" transform="translate(-702.000000, -949.000000)" fill-rule="nonzero" fill="#1488F5">
            <g id="内容" transform="translate(155.000000, 280.000000)">
                <g id="反馈内容" transform="translate(285.000000, 0.000000)">
                    <g id="附件" transform="translate(30.000000, 624.000000)">
                        <g id="Category-Buttons-/-Enclosure-Blue-Copy-2" transform="translate(216.000000, 40.000000)">
                            <g id="Group" transform="translate(16.000000, 3.000000)">
                                <g id="文件类型/Excle/灰" transform="translate(0.000000, 2.000000)">
                                    <g id="icon_document_pdf_blue">
                                        <path d="M8.52178082,12.2154794 C8.52178082,12.2154794 8.52178082,10.988274 8.52178082,10.988274 C8.52178082,10.988274 12.7825753,10.988274 12.7825753,10.988274 C12.7825753,10.988274 12.7825753,10.3939452 12.7825753,10.3939452 C12.7825753,10.3939452 8.52178082,10.3939452 8.52178082,10.3939452 C8.52178082,10.3939452 8.52178082,9.45441096 8.52178082,9.45441096 C8.52178082,9.45441096 12.7825753,9.45441096 12.7825753,9.45441096 C12.7825753,9.45441096 12.7825753,8.85989042 12.7825753,8.85989042 C12.7825753,8.85989042 8.52178082,8.85989042 8.52178082,8.85989042 C8.52178082,8.85989042 8.52178082,7.92035616 8.52178082,7.92035616 C8.52178082,7.92035616 12.7825753,7.92035616 12.7825753,7.92035616 C12.7825753,7.92035616 12.7825753,7.32583562 12.7825753,7.32583562 C12.7825753,7.32583562 8.52178082,7.32583562 8.52178082,7.32583562 C8.52178082,7.32583562 8.52178082,6.38630137 8.52178082,6.38630137 C8.52178082,6.38630137 12.7825753,6.38630137 12.7825753,6.38630137 C12.7825753,6.38630137 12.7825753,5.79197261 12.7825753,5.79197261 C12.7825753,5.79197261 8.52178082,5.79197261 8.52178082,5.79197261 C8.52178082,5.79197261 8.52178082,4.85243835 8.52178082,4.85243835 C8.52178082,4.85243835 12.7825753,4.85243835 12.7825753,4.85243835 C12.7825753,4.85243835 12.7825753,4.25810958 12.7825753,4.25810958 C12.7825753,4.25810958 8.52178082,4.25810958 8.52178082,4.25810958 C8.52178082,4.25810958 8.52178082,3.29939725 8.52178082,3.29939725 C8.52178082,3.29939725 12.7825753,3.29939725 12.7825753,3.29939725 C12.7825753,3.29939725 12.7825753,2.70487671 12.7825753,2.70487671 C12.7825753,2.70487671 8.52178082,2.70487671 8.52178082,2.70487671 C8.52178082,2.70487671 8.52178082,1.78452055 8.52178082,1.78452055 C8.52178082,1.78452055 14,1.78452055 14,1.78452055 C14,1.78452055 14,12.2154794 14,12.2154794 C14,12.2154794 8.52178082,12.2154794 8.52178082,12.2154794 Z M0,8.73849315 C0,8.73849315 0,1.48745205 0,1.48745205 C0,1.48745205 7.89408219,0 7.89408219,0 C7.89408219,0 7.89408219,9.20758904 7.89408219,9.20758904 C7.89408219,9.20758904 7.89408219,14 7.89408219,14 C7.89408219,14 0,12.5125479 0,12.5125479 C0,12.5125479 0,8.73849315 0,8.73849315 Z M0.556547947,10.1837534 C0.595479445,10.266411 0.731643842,10.5772877 1.04271233,10.3747671 C1.50873972,9.89416438 1.91032877,9.33723287 2.20893151,8.59523287 C2.98660275,8.37679452 3.75046576,8.20841096 4.60715068,7.96868494 C4.85071233,8.02391781 5.92046576,8.71471233 7.01073972,8.51660275 C7.15726028,8.48246576 7.15131506,8.40326028 7.14,8.316 C6.5709863,8.14243835 6.10956165,8.28282191 5.41128767,7.94106849 C5.32268494,7.91536986 5.34186301,7.91671233 5.29410958,7.8910137 C5.26112329,7.86550685 5.24827397,7.84824657 5.30043835,7.82753424 C6.01923287,7.80279452 6.67224657,7.84191781 7.20482191,7.98134247 C6.7000548,7.01553424 5.67441096,7.74372603 4.83306849,7.52663014 C3.72438356,7.24068494 3.12909589,5.53191781 3.46854795,4.45468494 C3.37361644,4.66986301 3.33526028,4.90997261 3.28347945,5.13454795 C3.24934247,5.2310137 3.22556165,5.24443835 3.20868494,5.2020548 C3.06945205,4.55172603 2.9309863,3.83331506 3.10589042,3.37476713 C3.13983562,3.34945205 3.23438356,3.32087671 3.26027397,3.34964384 C3.39279452,3.49654795 3.43019178,3.56750685 3.46854795,3.91520548 C3.52052055,4.05980822 3.55945205,3.99364384 3.57364384,3.83964384 C3.59243835,3.63673972 3.52934247,3.44553424 3.43134247,3.26679452 C3.35923287,3.13561644 3.22556165,3.11797261 3.05468494,3.1829863 C2.96761644,3.21616438 2.91008219,3.2890411 2.85158904,3.41657534 C2.67630137,4.32216438 3.06427397,5.07509589 2.95284932,5.87865753 C2.79520548,7.01323287 1.45561644,9.76567123 0.771342469,10.1808767 C0.900027393,9.48835616 1.32328767,9.30712329 1.63819178,8.82326028 C1.17484932,9.05167123 0.736246574,9.38824657 0.577452053,9.91430137 C0.520301373,10.1037808 0.532383564,10.1122192 0.556547947,10.1837534 Z" id="Shape"></path>
                                    </g>
                                </g>
                            </g>
                        </g>
                    </g>
                </g>
            </g>
        </g>
    </g>
</svg>