<?xml version="1.0" encoding="UTF-8"?>
<svg width="18px" height="16px" viewBox="0 0 18 16" version="1.1" xmlns="http://www.w3.org/2000/svg" xmlns:xlink="http://www.w3.org/1999/xlink">
    <!-- Generator: Sketch 46.2 (44496) - http://www.bohemiancoding.com/sketch -->
    <title>icon_dashboard_engine_hatch</title>
    <desc>Created with Sketch.</desc>
    <defs></defs>
    <g id="样式整理概览" stroke="none" stroke-width="1" fill="none" fill-rule="evenodd">
        <g id="组件2-图标-弹出消息框" transform="translate(-501.000000, -760.000000)">
            <g id="图标2" transform="translate(100.000000, 226.000000)">
                <g id="汽车功能图标-18px" transform="translate(30.000000, 532.000000)">
                    <g id="汽车仪表图标/发动机舱门-蓝灰" transform="translate(371.000000, 0.000000)">
                        <g id="icon_dashboard_engine_hatch">
                            <path d="M11.4505153,2.16436256 C11.6082011,2.06046431 11.7970394,2 12,2 L18,2 L18,12.0354444 C16.3038529,12.2780593 15,13.736764 15,15.5 C15,16.0367986 15.1208455,16.5453723 15.3368156,17 L12,17 L12,17 C11.4477153,17 11,16.5522847 11,16 L11,4.70854812 L1.8660254,9.98205081 C1.38773278,10.2581932 0.776142375,10.094318 0.5,9.6160254 C0.223857625,9.13773278 0.38773278,8.52614237 0.866025404,8.25 L11.2583302,2.25 L11.2583302,2.25 C11.3204838,2.21411561 11.3848884,2.18566167 11.4505153,2.16436256 Z M18,17.9499909 C16.8588798,17.7183558 16,16.709479 16,15.5 C16,14.290521 16.8588798,13.2816442 18,13.0500091 L18,17.9499909 Z" id="Combined-Shape" fill="#A8C6DF"></path>
                            <path d="M3.49959622,15.7101976 C6.40184005,15.7101976 8.89156039,13.9439746 9.95252006,11.4277657 C10.3048334,10.5922071 -0.366397029,15.7101976 3.49959622,15.7101976 Z" id="Combined-Shape" stroke="#A8C6DF" stroke-width="1.5" stroke-linecap="round" stroke-dasharray="8,100" transform="translate(6.307759, 13.522877) rotate(66.000000) translate(-6.307759, -13.522877) "></path>
                            <path d="M3.5,12.5 L3.5,14.25 C3.5,14.6642136 3.16421356,15 2.75,15 C2.33578644,15 2,14.6642136 2,14.25 L2,11.75 L2,11.75 C2,11.5428932 2.08394661,11.3553932 2.21966991,11.2196699 C2.35539322,11.0839466 2.54289322,11 2.75,11 L2.75,11 L5.25,11 C5.66421356,11 6,11.3357864 6,11.75 L6,11.75 C6,12.1642136 5.66421356,12.5 5.25,12.5 L3.5,12.5 Z" id="Combined-Shape" fill="#A8C6DF"></path>
                        </g>
                    </g>
                </g>
            </g>
        </g>
    </g>
</svg>