<?xml version="1.0" encoding="UTF-8"?>
<svg width="14px" height="14px" viewBox="0 0 14 14" version="1.1" xmlns="http://www.w3.org/2000/svg" xmlns:xlink="http://www.w3.org/1999/xlink">
    <!-- Generator: Sketch 46.2 (44496) - http://www.bohemiancoding.com/sketch -->
    <title>Icon_colored_nice</title>
    <desc>Created with Sketch.</desc>
    <defs></defs>
    <g id="样式整理概览" stroke="none" stroke-width="1" fill="none" fill-rule="evenodd">
        <g id="组件2-图标-弹出消息框" transform="translate(-991.000000, -324.000000)" fill="#0093EE">
            <g id="图标2" transform="translate(100.000000, 226.000000)">
                <g id="彩色图标" transform="translate(30.000000, 92.000000)">
                    <g id="彩" transform="translate(83.000000, 0.000000)">
                        <g id="Icons-Colored-/-Nice" transform="translate(778.000000, 6.000000)">
                            <path d="M9.54545455,0 L3.40909091,0 C2.84318182,0 2.35909091,0.325 2.15454545,0.793 L0.0954545455,5.3755 C0.0340909091,5.525 0,5.681 0,5.85 L0,7.0915 L0.00681818182,7.098 L0,7.15 C0,7.865 0.613636364,8.45 1.36363636,8.45 L5.66590909,8.45 L5.01818182,11.4205 L4.99772727,11.6285 C4.99772727,11.895 5.11363636,12.142 5.29772727,12.3175 L6.02045455,13 L10.5136364,8.7165 C10.7590909,8.4825 10.9090909,8.1575 10.9090909,7.8 L10.9090909,1.3 C10.9090909,0.585 10.2954545,0 9.54545455,0 L9.54545455,0 Z M11.8000002,0 L11.8000002,7.8 L13.8000002,7.8 L13.8000002,0 L11.8000002,0 L11.8000002,0 Z" id="Icon" transform="translate(6.900000, 6.500000) scale(-1, -1) translate(-6.900000, -6.500000) "></path>
                        </g>
                    </g>
                </g>
            </g>
        </g>
    </g>
</svg>