<?xml version="1.0" encoding="UTF-8"?>
<svg width="14px" height="14px" viewBox="0 0 14 14" version="1.1" xmlns="http://www.w3.org/2000/svg" xmlns:xlink="http://www.w3.org/1999/xlink">
    <!-- Generator: Sketch 46.2 (44496) - http://www.bohemiancoding.com/sketch -->
    <title>icon_list_search_blue 14px</title>
    <desc>Created with Sketch.</desc>
    <defs></defs>
    <g id="样式整理概览" stroke="none" stroke-width="1" fill="none" fill-rule="evenodd">
        <g id="组件3-搜索-滑条-下拉选择" transform="translate(-950.000000, -2629.000000)" fill="#0093EE">
            <g id="下拉选择" transform="translate(100.000000, 1346.000000)">
                <g id="Filter/Drop/Down-Open/Title+Icon-List" transform="translate(460.000000, 1272.000000)">
                    <g id="右" transform="translate(362.000000, 11.000000)">
                        <g id="Arrows-/-Type-1-Down" transform="translate(28.000000, 0.000000)">
                            <g id="icon_list_search_blue-14px">
                                <path d="M10.8477262,8.90002637 L13.6572146,11.7095148 L13.6572146,11.7095148 C14.1142618,12.166562 14.1142618,12.9075819 13.6572146,13.364629 C13.2001675,13.8216762 12.4591476,13.8216762 12.0021005,13.364629 L9.25209005,10.6146186 C8.29371581,11.300053 7.11982029,11.7034246 5.85171229,11.7034246 C2.61990083,11.7034246 0,9.08352375 0,5.85171229 C0,2.61990083 2.61990083,0 5.85171229,0 C9.08352375,0 11.7034246,2.61990083 11.7034246,5.85171229 C11.7034246,6.96850763 11.3905718,8.01223228 10.8477262,8.90002637 Z M5.85171229,9.9479109 C8.11398031,9.9479109 9.9479109,8.11398031 9.9479109,5.85171229 C9.9479109,3.58944427 8.11398031,1.75551369 5.85171229,1.75551369 C3.58944427,1.75551369 1.75551369,3.58944427 1.75551369,5.85171229 C1.75551369,8.11398031 3.58944427,9.9479109 5.85171229,9.9479109 Z" id="Combined-Shape"></path>
                            </g>
                        </g>
                    </g>
                </g>
            </g>
        </g>
    </g>
</svg>