<?xml version="1.0" encoding="UTF-8"?>
<svg width="18px" height="18px" viewBox="0 0 18 18" version="1.1" xmlns="http://www.w3.org/2000/svg" xmlns:xlink="http://www.w3.org/1999/xlink">
    <!-- Generator: Sketch 46.2 (44496) - http://www.bohemiancoding.com/sketch -->
    <title>icon_attch_filled_grey</title>
    <desc>Created with Sketch.</desc>
    <defs></defs>
    <g id="样式整理概览" stroke="none" stroke-width="1" fill="none" fill-rule="evenodd">
        <g id="组件2-图标-弹出消息框" transform="translate(-292.000000, -501.000000)" fill="#A8C6DF">
            <g id="图标2" transform="translate(100.000000, 226.000000)">
                <g id="普通图标-18px" transform="translate(30.000000, 275.000000)">
                    <g id="灰" transform="translate(79.000000, 0.000000)">
                        <g id="Icons-Grey-/-Attach" transform="translate(83.000000, 0.000000)">
                            <path d="M11.9090909,5.40909091 L11.9090909,13.25 C11.9090909,14.7568182 10.6072727,15.9772727 9,15.9772727 C7.39272727,15.9772727 6.09090909,14.7568182 6.09090909,13.25 L6.09090909,4.72727273 C6.09090909,3.78636364 6.90545455,3.02272727 7.90909091,3.02272727 C8.91272727,3.02272727 9.72727273,3.78636364 9.72727273,4.72727273 L9.72727273,11.8863636 C9.72727273,12.2613636 9.4,12.5681818 9,12.5681818 C8.6,12.5681818 8.27272727,12.2613636 8.27272727,11.8863636 L8.27272727,5.40909091 L7.18181818,5.40909091 L7.18181818,11.8863636 C7.18181818,12.8272727 7.99636364,13.5909091 9,13.5909091 C10.0036364,13.5909091 10.8181818,12.8272727 10.8181818,11.8863636 L10.8181818,4.72727273 C10.8181818,3.22045455 9.51636364,2 7.90909091,2 C6.30181818,2 5,3.22045455 5,4.72727273 L5,13.25 C5,15.3227273 6.78909091,17 9,17 C11.2109091,17 13,15.3227273 13,13.25 L13,5.40909091 L11.9090909,5.40909091 Z" id="Page-1"></path>
                        </g>
                    </g>
                </g>
            </g>
        </g>
    </g>
</svg>