<?xml version="1.0" encoding="UTF-8"?>
<svg width="18px" height="16px" viewBox="0 0 18 16" version="1.1" xmlns="http://www.w3.org/2000/svg" xmlns:xlink="http://www.w3.org/1999/xlink">
    <!-- Generator: Sketch 46.2 (44496) - http://www.bohemiancoding.com/sketch -->
    <title>icon_popup_classification</title>
    <desc>Created with Sketch.</desc>
    <defs></defs>
    <g id="样式整理概览" stroke="none" stroke-width="1" fill="none" fill-rule="evenodd">
        <g id="组件2-图标-弹出消息框" transform="translate(-790.000000, -628.000000)" fill="#A8C6DF">
            <g id="图标2" transform="translate(100.000000, 226.000000)">
                <g id="普通图标-18px" transform="translate(30.000000, 275.000000)">
                    <g id="18" transform="translate(78.000000, 125.000000)">
                        <g id="弹出图标/icon_popup_classification" transform="translate(582.000000, 0.000000)">
                            <g id="icon_popup_classification">
                                <path d="M10.8800001,16 L7,16 L7,18 L4,18 L4,16 L3,16 L3,2 L15,2 L15,16 L13.9953847,16 L13.9953847,18 L10.8800001,18 L10.8800001,16 Z M5,4.00003634 L5,10 L13,10 L13,4.00003634 L5,4.00003634 Z M5.34615385,14 C5.8984386,14 6.34615385,13.5522847 6.34615385,13 C6.34615385,12.4477153 5.8984386,12 5.34615385,12 C4.7938691,12 4.34615385,12.4477153 4.34615385,13 C4.34615385,13.5522847 4.7938691,14 5.34615385,14 Z M12.5769231,14 C13.1292078,14 13.5769231,13.5522847 13.5769231,13 C13.5769231,12.4477153 13.1292078,12 12.5769231,12 C12.0246383,12 11.5769231,12.4477153 11.5769231,13 C11.5769231,13.5522847 12.0246383,14 12.5769231,14 Z" id="Combined-Shape"></path>
                                <path d="M15.9990739,4.10712747 L18,4.10712747 L18,15.9496811 L17.1796717,15.9496811 L17.1796717,17.4300003 L15.9990739,17.4300003 L15.9990739,14.4692745 C16.0034681,14.4693305 16.0078707,14.4693619 16.0122814,14.4693619 C16.4653362,14.4693619 16.8326097,14.1379812 16.8326097,13.7292023 C16.8326097,13.3204234 16.4653362,12.9890427 16.0122814,12.9890427 C16.0078707,12.9890427 16.0034681,12.9890741 15.9990739,12.9891367 L15.9990739,11.5087235 L16.3593433,11.5087235 L16.3593433,6.32763766 L15.9990739,6.32763766 L15.9990739,5.58744668 L16.3593433,5.58744668 L16.3593433,4.84729156 L15.9990739,4.84729156 L15.9990739,4.10712747 Z" id="2"></path>
                                <path d="M1.54065094e-08,4 L2.00092608,4 L2.00092608,15.8425536 L1.18059775,15.8425536 L1.18059775,17.3228728 L1.54065098e-08,17.3228728 L1.54065098e-08,14.362147 C0.00439417445,14.362203 0.00879673891,14.3622344 0.0132074337,14.3622344 C0.466262261,14.3622344 0.833535765,14.0308537 0.833535765,13.6220748 C0.833535765,13.213296 0.466262261,12.8819152 0.0132074337,12.8819152 C0.00879674407,12.8819152 0.00439418474,12.8819466 1.54065099e-08,12.8820092 L1.54065098e-08,11.401596 L0.36026942,11.401596 L0.36026942,6.22051019 L1.54065102e-08,6.22051019 L1.54065098e-08,5.4803192 L0.36026942,5.4803192 L0.36026942,4.74016408 L1.54065102e-08,4.74016408 L1.54065098e-08,4 Z" id="1" transform="translate(1.000463, 10.661436) scale(-1, 1) translate(-1.000463, -10.661436) "></path>
                            </g>
                        </g>
                    </g>
                </g>
            </g>
        </g>
    </g>
</svg>