<?xml version="1.0" encoding="UTF-8"?>
<svg width="14px" height="14px" viewBox="0 0 14 14" version="1.1" xmlns="http://www.w3.org/2000/svg" xmlns:xlink="http://www.w3.org/1999/xlink">
    <!-- Generator: Sketch 46.2 (44496) - http://www.bohemiancoding.com/sketch -->
    <title>icon_popup_manual_white 14px</title>
    <desc>Created with Sketch.</desc>
    <defs></defs>
    <g id="正式页面" stroke="none" stroke-width="1" fill="none" fill-rule="evenodd" opacity="0.600000024">
        <g id="6.0-个人中心-个人设置" transform="translate(-281.000000, -168.000000)" fill="#FFFFFF">
            <g id="头像信息" transform="translate(155.000000, 124.000000)">
                <g id="弹出图标/icon_popup_manual" transform="translate(126.000000, 44.000000)">
                    <g id="icon_popup_manual_white-14px">
                        <path d="M1.77777778,0.777777778 L12.2222222,0.777777778 C12.774507,0.777777778 13.2222222,1.22549303 13.2222222,1.77777778 L13.2222222,12.2222222 C13.2222222,12.774507 12.774507,13.2222222 12.2222222,13.2222222 L1.77777778,13.2222222 C1.22549303,13.2222222 0.777777778,12.774507 0.777777778,12.2222222 L0.777777778,1.77777778 L0.777777778,1.77777778 C0.777777778,1.22549303 1.22549303,0.777777778 1.77777778,0.777777778 L1.77777778,0.777777778 Z M3.11111111,3.11111111 L3.11111111,4.66666667 L10.8888889,4.66666667 L10.8888889,3.11111111 L3.11111111,3.11111111 Z M3.11111111,6.22222222 L3.11111111,7.77777778 L10.8888889,7.77777778 L10.8888889,6.22222222 L3.11111111,6.22222222 Z M3.11111111,9.33333333 L3.11111111,10.8888889 L7.77777778,10.8888889 L7.77777778,9.33333333 L3.11111111,9.33333333 Z" id="Combined-Shape"></path>
                    </g>
                </g>
            </g>
        </g>
    </g>
</svg>