<?xml version="1.0" encoding="UTF-8"?>
<svg width="14px" height="14px" viewBox="0 0 14 14" version="1.1" xmlns="http://www.w3.org/2000/svg" xmlns:xlink="http://www.w3.org/1999/xlink">
    <!-- Generator: Sketch 46.2 (44496) - http://www.bohemiancoding.com/sketch -->
    <title>icon_popup_Instructions 14px</title>
    <desc>Created with Sketch.</desc>
    <defs></defs>
    <g id="样式整理概览" stroke="none" stroke-width="1" fill="none" fill-rule="evenodd">
        <g id="组件2-图标-弹出消息框" transform="translate(-288.000000, -862.000000)" fill-rule="nonzero" fill="#A8C6DF">
            <g id="图标2" transform="translate(100.000000, 226.000000)">
                <g id="普通图标-14px" transform="translate(30.000000, 633.000000)">
                    <g id="弹出图标/icon_popup_Instructions-14px" transform="translate(158.000000, 3.000000)">
                        <g id="icon_popup_Instructions-14px">
                            <path d="M12.5787551,13.9863439 L3.11111111,13.9863439 L3.11111111,1.60054669e-05 L7.77094231,1.60054669e-05 L7.77094231,7.86732356 L9.33333333,6.22222222 L10.8888889,7.86732356 L10.8888889,1.60054669e-05 L12.5787735,1.60054669e-05 C12.8204721,1.60054669e-05 13.0158532,0.195817424 13.0158532,0.437095674 L13.0158532,13.5492803 C13.0158348,13.7909943 12.8204537,13.9863439 12.5787551,13.9863439 Z M0.777777778,13.5492808 L0.777777778,0.437079669 C0.777777778,0.195801418 0.973143972,0 1.2148409,0 L2.52606421,0 L2.52606421,13.9863443 L1.2148409,13.9863443 C0.973143972,13.9863439 0.777777778,13.7909943 0.777777778,13.5492808 Z" id="Shape"></path>
                        </g>
                    </g>
                </g>
            </g>
        </g>
    </g>
</svg>