<?xml version="1.0" encoding="UTF-8"?>
<svg width="18px" height="18px" viewBox="0 0 18 18" version="1.1" xmlns="http://www.w3.org/2000/svg" xmlns:xlink="http://www.w3.org/1999/xlink">
    <!-- Generator: Sketch 46.2 (44496) - http://www.bohemiancoding.com/sketch -->
    <title>icon_popup_share</title>
    <desc>Created with Sketch.</desc>
    <defs></defs>
    <g id="正式页面" stroke="none" stroke-width="1" fill="none" fill-rule="evenodd">
        <g id="7.0-车辆监控-个人中心-我的反馈" transform="translate(-1237.000000, -635.000000)" fill-rule="nonzero" fill="#A8C6DF">
            <g id="内容" transform="translate(155.000000, 280.000000)">
                <g id="反馈内容" transform="translate(285.000000, 0.000000)">
                    <g id="按钮-编辑条" transform="translate(30.000000, 344.000000)">
                        <g id="右" transform="translate(731.000000, 11.000000)">
                            <g id="弹出图标/icon_popup_share" transform="translate(36.000000, 0.000000)">
                                <g id="icon_popup_share">
                                    <path d="M14.9582283,11.9340351 C14.0909795,11.9340351 13.3101659,12.3028156 12.7580663,12.8892995 L5.99603707,9.54110634 C6.02915707,9.36254634 6.04872,9.17924488 6.04872,8.99121951 C6.04872,8.84546341 6.03484683,8.70318439 6.0149678,8.56280195 L12.8432546,5.18178732 C13.3886985,5.71715122 14.1354615,6.04842146 14.9585444,6.04842146 C16.6261873,6.04842146 17.9827551,4.6918361 17.9827551,3.02421073 C17.982439,1.3565678 16.6258712,0 14.9582283,0 C13.2905854,0 11.9337015,1.35658537 11.9337015,3.02421073 C11.9337015,3.14913951 11.9435005,3.27153951 11.958322,3.39237659 L5.09375415,6.79200585 C4.55208585,6.28185951 3.82521951,5.96700878 3.02389463,5.96700878 C1.3565678,5.96700878 0,7.32359415 0,8.99121951 C0,10.6588449 1.35658537,12.0154302 3.02421073,12.0154302 C3.78010537,12.0154302 4.47005854,11.7349639 5.00101463,11.2749893 L11.9463278,14.714359 C11.9397073,14.7948234 11.9340351,14.8755688 11.9340351,14.9579298 C11.9340351,16.6255551 13.290919,17.9821229 14.958562,17.9821229 C16.6262049,17.9821229 17.982439,16.6258712 17.982439,14.9582283 C17.982439,13.2906029 16.6258537,11.9340351 14.9582283,11.9340351 Z" id="Shape"></path>
                                </g>
                            </g>
                        </g>
                    </g>
                </g>
            </g>
        </g>
    </g>
</svg>