<?xml version="1.0" encoding="UTF-8"?>
<svg width="18px" height="18px" viewBox="0 0 18 18" version="1.1" xmlns="http://www.w3.org/2000/svg" xmlns:xlink="http://www.w3.org/1999/xlink">
    <!-- Generator: Sketch 46.2 (44496) - http://www.bohemiancoding.com/sketch -->
    <title>icon_popup_gps</title>
    <desc>Created with Sketch.</desc>
    <defs></defs>
    <g id="正式页面" stroke="none" stroke-width="1" fill="none" fill-rule="evenodd">
        <g id="1.7-车辆监控-结果详情" transform="translate(-244.000000, -234.000000)" fill-rule="nonzero" fill="#A8C6DF">
            <g id="左侧菜单/地图监控/车辆-筛选展开1" transform="translate(80.000000, 178.000000)">
                <g id="树状筛选">
                    <g id="Group">
                        <g id="车辆标签" transform="translate(0.000000, 40.000000)">
                            <g id="123456" transform="translate(108.000000, 16.000000)">
                                <g id="弹出图标/icon_popup_gps" transform="translate(56.000000, 0.000000)">
                                    <g id="icon_popup_gps">
                                        <path d="M0,9.98868284 C0,7.65554039 0.983129133,5.56202454 2.54312228,4.0977726 L13.6235314,15.4045173 C12.1889417,16.9964232 10.1373943,18 7.85071543,18 C3.51497828,18 0,14.413116 0,9.98868284 Z M9.41757943,0 C14.1577303,0.000944656117 17.9993829,3.92084985 18,8.75828467 C18,9.2483909 17.6100069,9.64636212 17.1297051,9.64636212 C16.6494446,9.64636212 16.2600686,9.2483909 16.2600686,8.75828467 C16.2600686,6.826955 15.4957577,5.08757854 14.2555474,3.82105267 C13.0153371,2.55578634 11.3098834,1.77584002 9.41757943,1.77552512 C8.93668114,1.77552512 8.54730514,1.37849856 8.54730514,0.888392325 C8.54730514,0.397635339 8.93668114,0 9.41757943,0 Z M8.86330286,3.29062032 C12.1287497,3.29127107 14.7747086,5.99165209 14.7759634,9.32387904 C14.7759634,9.81400626 14.3865874,10.2119775 13.9056686,10.2119775 C13.4253874,10.2119775 13.0353943,9.81400626 13.0353943,9.32387904 C13.0316297,6.97251531 11.166912,5.07030191 8.86330286,5.06614544 C8.38238401,5.06614544 7.993008,4.66846811 7.993008,4.178047 C7.993008,3.68825565 8.38238401,3.29062032 8.86330286,3.29062032 Z M11.384496,8.19875703 C11.384496,8.99822615 10.7493326,9.64604723 9.96621942,9.6463621 C9.1830857,9.64604723 8.54792228,8.99822615 8.54730514,8.19875703 C8.54794284,7.3992879 9.18183086,6.75144584 9.96621942,6.75081608 C10.7499497,6.75146683 11.384496,7.3992879 11.384496,8.19875703 Z" id="Combined-Shape"></path>
                                    </g>
                                </g>
                            </g>
                        </g>
                    </g>
                </g>
            </g>
        </g>
    </g>
</svg>