<?xml version="1.0" encoding="UTF-8"?>
<svg width="14px" height="14px" viewBox="0 0 14 14" version="1.1" xmlns="http://www.w3.org/2000/svg" xmlns:xlink="http://www.w3.org/1999/xlink">
    <!-- Generator: Sketch 46.2 (44496) - http://www.bohemiancoding.com/sketch -->
    <title>Icon_colored_archive</title>
    <desc>Created with Sketch.</desc>
    <defs></defs>
    <g id="样式整理概览" stroke="none" stroke-width="1" fill="none" fill-rule="evenodd">
        <g id="组件2-图标-弹出消息框" transform="translate(-898.000000, -324.000000)" fill="#AB7DF6">
            <g id="图标2" transform="translate(100.000000, 226.000000)">
                <g id="彩色图标" transform="translate(30.000000, 92.000000)">
                    <g id="彩" transform="translate(83.000000, 0.000000)">
                        <g id="Icons-Colored-/-Archive" transform="translate(685.000000, 6.000000)">
                            <path d="M13.6422222,1.73444444 L12.5611111,0.427777778 C12.3511111,0.163333333 12.0322222,0 11.6666667,0 L2.33333333,0 C1.96777778,0 1.64888889,0.163333333 1.43111111,0.427777778 L0.357777778,1.73444444 C0.132222222,1.99888889 0,2.34888889 0,2.72222222 L0,12.4444444 C0,13.3 0.7,14 1.55555556,14 L12.4444444,14 C13.3,14 14,13.3 14,12.4444444 L14,2.72222222 C14,2.34888889 13.8677778,1.99888889 13.6422222,1.73444444 L13.6422222,1.73444444 Z M7,11.2777778 L2.72222222,7 L5.44444444,7 L5.44444444,5.44444444 L8.55555556,5.44444444 L8.55555556,7 L11.2777778,7 L7,11.2777778 L7,11.2777778 Z M1.64888889,1.55555556 L2.27888889,0.777777778 L11.6122222,0.777777778 L12.3433333,1.55555556 L1.64888889,1.55555556 L1.64888889,1.55555556 Z" id="Icon"></path>
                        </g>
                    </g>
                </g>
            </g>
        </g>
    </g>
</svg>