<?xml version="1.0" encoding="UTF-8"?>
<svg width="16px" height="16px" viewBox="0 0 16 16" version="1.1" xmlns="http://www.w3.org/2000/svg" xmlns:xlink="http://www.w3.org/1999/xlink">
    <!-- Generator: Sketch 46.2 (44496) - http://www.bohemiancoding.com/sketch -->
    <title>icon_dashboard_air_bag</title>
    <desc>Created with Sketch.</desc>
    <defs></defs>
    <g id="样式整理概览" stroke="none" stroke-width="1" fill="none" fill-rule="evenodd">
        <g id="组件2-图标-弹出消息框" transform="translate(-916.000000, -759.000000)" fill-rule="nonzero" fill="#A8C6DF">
            <g id="图标2" transform="translate(100.000000, 226.000000)">
                <g id="汽车功能图标-18px" transform="translate(30.000000, 532.000000)">
                    <g id="汽车仪表图标/安全气囊-蓝灰" transform="translate(785.000000, 0.000000)">
                        <g id="icon_dashboard_air_bag">
                            <path d="M13.2097821,6.89143504 C14.3724568,6.89143504 15.3149263,5.94939616 15.3149263,4.7873387 C15.3149263,3.62530053 14.3724568,2.68324237 13.2097821,2.68324237 C12.0472038,2.68324237 11.1046958,3.62528125 11.1046958,4.7873387 C11.1046958,5.94939616 12.0472038,6.89143504 13.2097821,6.89143504 Z M13.824239,9.84576089 C14.2893012,9.03729095 14.0133308,8.00350054 13.2078532,7.53674189 C12.4022984,7.06996396 11.3723332,7.34699225 10.9073096,8.1554622 L9.22319044,11.0831822 C9.22006559,11.0886191 9.21732652,11.0941716 9.21425954,11.0996277 L7.47508903,11.0996277 C7.27696985,11.0757018 7.08149328,11.1016906 6.90218104,11.1691113 C6.42535246,11.334106 6.0781279,11.7762832 6.05384282,12.3030206 L5.25513566,15.3741807 C5.07599703,16.0630208 5.47275622,16.7710827 6.14135784,16.9556654 C6.80994017,17.1402867 7.49715586,16.7314439 7.67629449,16.042623 L8.30517969,13.6245587 L10.6836516,13.6245587 C10.7721117,13.6245587 10.8584308,13.6153817 10.9417601,13.5980879 C11.4272302,13.5216058 11.8753372,13.2338966 12.1401584,12.7735002 L13.824239,9.84576089 L13.824239,9.84576089 Z M16.9779817,7.80823695 C16.8862809,7.45200813 16.5344655,7.24058825 16.1922561,7.33608001 L14.9527912,7.68170506 C14.6105432,7.77713898 14.4074281,8.14333534 14.4991289,8.4995256 C14.5908682,8.85575441 14.9426451,9.0671743 15.284893,8.97168253 L16.5242808,8.62605749 C16.8665866,8.53056572 17.0696824,8.16446576 16.9779817,7.80823695 Z M14.150149,13.9815587 L12.9804916,13.2987724 C12.6575135,13.1102374 12.2373373,13.2349377 12.042015,13.5773045 C11.8467506,13.9196906 11.9502757,14.3500879 12.2732345,14.5386229 L13.4428919,15.2214093 C13.7659085,15.4099443 14.1860848,15.2852054 14.3813684,14.9428194 C14.5766907,14.6004526 14.4731657,14.1700745 14.150149,13.9815587 Z M10.2626459,5.6289888 C10.2626459,3.07247782 8.18913597,1 5.631294,1 C3.0735099,1 1,3.07247782 1,5.6289888 C1,8.18549979 3.0735099,10.2579776 5.631294,10.2579776 C8.18911668,10.2579776 10.2626459,8.18549979 10.2626459,5.6289888 Z" id="Shape"></path>
                        </g>
                    </g>
                </g>
            </g>
        </g>
    </g>
</svg>