<?xml version="1.0" encoding="UTF-8"?>
<svg width="18px" height="24px" viewBox="0 0 18 24" version="1.1" xmlns="http://www.w3.org/2000/svg" xmlns:xlink="http://www.w3.org/1999/xlink">
    <!-- Generator: Sketch 46.2 (44496) - http://www.bohemiancoding.com/sketch -->
    <title>icon_menu_left_energy_management_b</title>
    <desc>Created with Sketch.</desc>
    <defs></defs>
    <g id="正式页面" stroke="none" stroke-width="1" fill="none" fill-rule="evenodd">
        <g id="12.0-能耗管理-实时报警-列表-汇总" transform="translate(-21.000000, -223.000000)" fill-rule="nonzero" fill="#0093EE">
            <g id="Sidebars-/-#3">
                <g id="左侧菜单/安全中心" transform="translate(0.000000, 210.000000)">
                    <g id="icon/menu/left/故障监控" transform="translate(18.000000, 13.000000)">
                        <g id="icon_menu_left_energy_management_b">
                            <g id="能源" transform="translate(3.000000, 0.000000)">
                                <path d="M0.615599693,7.06074223 L0.615599693,7.63155995 C0.624803892,7.63616205 0.634008092,7.63616205 0.638610192,7.64076415 C1.93211493,8.26680707 5.21423816,8.69031826 8.80474141,8.69031826 C12.3492237,8.69031826 15.5944908,8.28061337 16.9248123,7.66837675 L16.9248123,7.09299626 C15.3045191,7.67758095 12.2203255,8.04126484 8.80474141,8.04126484 C5.33853419,8.03666274 2.21752379,7.65917255 0.615599693,7.06074223 Z" id="Shape"></path>
                                <path d="M8.80934351,18.5366093 C12.3537864,18.5366093 15.5990535,18.1269044 16.9294144,17.5147071 L16.9294144,8.69952246 C15.3090819,9.28410714 12.2249276,9.64779104 8.80934351,9.64779104 C5.33853419,9.64779104 2.21752379,9.27030085 0.615560359,8.67187052 L0.615560359,17.4778116 C0.624764558,17.4824137 0.633968758,17.4824137 0.638570858,17.4870158 C1.93671703,18.1177002 5.21884026,18.5366093 8.80934351,18.5366093 Z M5.98758761,14.7066788 C6.51694709,12.6214162 8.33981132,10.4303054 8.41348425,10.3382634 C8.50092415,10.2323757 8.62982228,10.1725484 8.76792461,10.1725484 C8.90606627,10.1725484 9.03488574,10.2323757 9.12696707,10.3382634 C9.2052421,10.4303054 11.0235436,12.6214162 11.552903,14.7066788 C11.7553954,15.5076409 11.6080889,16.2856711 11.1340333,16.8978684 C10.6092366,17.5699323 9.77145772,17.9427417 8.77716814,17.9427417 L8.76796394,17.9427417 C7.76907227,17.9427417 6.93125408,17.569893 6.41113813,16.8978684 C5.93232307,16.2856711 5.78501654,15.5122823 5.98758761,14.7066788 L5.98758761,14.7066788 Z" id="Shape"></path>
                                <path d="M8.80934351,20.1476982 C12.3537864,20.1476982 15.5990535,19.7379933 16.9294144,19.1257961 L16.9294144,18.5504549 C15.3090819,19.1350003 12.2249276,19.4986841 8.80934351,19.4986841 C5.33853419,19.4986841 2.21752379,19.1211546 0.615560359,18.5227636 L0.615560359,19.0935814 C0.624764558,19.0981835 0.633968758,19.0981835 0.638570858,19.1027856 C1.93671703,19.7288678 5.21884026,20.1476982 8.80934351,20.1476982 Z M0.615599693,3.13880912 L0.615599693,6.02043165 C0.624803892,6.02503375 0.634008092,6.02503375 0.638610192,6.02963585 C1.93211493,6.65567877 5.21423816,7.07918996 8.80474141,7.07918996 C12.3492237,7.07918996 15.5944908,6.66948507 16.9248123,6.05724845 L16.9248123,3.13880912 C17.3253523,2.87641076 17.5186798,2.57263283 17.5186798,2.22735734 C17.5186798,1.48165982 16.6302779,0.947698233 14.7245365,0.547197542 C13.1271752,0.211165583 11.0143,0.0270422535 8.76792461,0.0270422535 C6.52154919,0.0270422535 4.40867401,0.211165583 2.81135201,0.547197542 C0.905610653,0.947698233 0.0172087068,1.48165982 0.0172087068,2.22735734 C0.0218108067,2.57263283 0.215138335,2.87180866 0.615599693,3.13880912 Z" id="Shape"></path>
                                <path d="M8.80934351,21.1097731 C5.33853419,21.1097731 2.21752379,20.7323223 0.615560359,20.1339313 L0.615560359,21.7956433 C0.624764558,22.5183303 1.48099114,23.0661769 3.23018243,23.4574341 C4.71705403,23.793466 6.68262269,23.97755 8.77248738,23.97755 C10.8623521,23.97755 12.8279601,23.793466 14.314753,23.4574341 C16.0777899,23.0615748 16.9293751,22.5137282 16.9293751,21.7817977 L16.9293751,20.1615045 C15.3044798,20.7415658 12.2249276,21.1097731 8.80934351,21.1097731 L8.80934351,21.1097731 Z" id="Shape"></path>
                            </g>
                        </g>
                    </g>
                </g>
            </g>
        </g>
    </g>
</svg>