<?xml version="1.0" encoding="UTF-8"?>
<svg width="18px" height="18px" viewBox="0 0 18 18" version="1.1" xmlns="http://www.w3.org/2000/svg" xmlns:xlink="http://www.w3.org/1999/xlink">
    <!-- Generator: Sketch 46.2 (44496) - http://www.bohemiancoding.com/sketch -->
    <title>Icon_colored_time_machine</title>
    <desc>Created with Sketch.</desc>
    <defs></defs>
    <g id="样式整理概览" stroke="none" stroke-width="1" fill="none" fill-rule="evenodd">
        <g id="组件2-图标-弹出消息框" transform="translate(-773.000000, -325.000000)" fill="#81C926">
            <g id="图标2" transform="translate(100.000000, 226.000000)">
                <g id="彩色图标" transform="translate(30.000000, 92.000000)">
                    <g id="彩" transform="translate(83.000000, 0.000000)">
                        <g id="Icons-Colored-/-Time-Machine-Green" transform="translate(560.000000, 7.000000)">
                            <path d="M10.2857143,2 C6.02571429,2 2.57142857,5.35833333 2.57142857,9.5 L0,9.5 L3.33428571,12.7416667 L3.39428571,12.8583333 L6.85714286,9.5 L4.28571429,9.5 C4.28571429,6.275 6.96857143,3.66666667 10.2857143,3.66666667 C13.6028571,3.66666667 16.2857143,6.275 16.2857143,9.5 C16.2857143,12.725 13.6028571,15.3333333 10.2857143,15.3333333 C8.63142857,15.3333333 7.13142857,14.675 6.05142857,13.6166667 L4.83428571,14.8 C6.23142857,16.1583333 8.15142857,17 10.2857143,17 C14.5457143,17 18,13.6416667 18,9.5 C18,5.35833333 14.5457143,2 10.2857143,2 L10.2857143,2 Z M9.42857143,6.16666667 L9.42857143,10.3333333 L13.0971429,12.45 L13.7142857,11.4416667 L10.7142857,9.70833333 L10.7142857,6.16666667 L9.42857143,6.16666667 L9.42857143,6.16666667 Z" id="Icon"></path>
                        </g>
                    </g>
                </g>
            </g>
        </g>
    </g>
</svg>