<?xml version="1.0" encoding="UTF-8"?>
<svg width="14px" height="14px" viewBox="0 0 14 14" version="1.1" xmlns="http://www.w3.org/2000/svg" xmlns:xlink="http://www.w3.org/1999/xlink">
    <!-- Generator: Sketch 46.2 (44496) - http://www.bohemiancoding.com/sketch -->
    <title>icon_popup_gps 14px</title>
    <desc>Created with Sketch.</desc>
    <defs></defs>
    <g id="样式整理概览" stroke="none" stroke-width="1" fill="none" fill-rule="evenodd">
        <g id="组件2-图标-弹出消息框" transform="translate(-965.000000, -862.000000)" fill-rule="nonzero" fill="#A8C6DF">
            <g id="图标2" transform="translate(100.000000, 226.000000)">
                <g id="普通图标-14px" transform="translate(30.000000, 633.000000)">
                    <g id="弹出图标/icon_popup_gps-14px" transform="translate(835.000000, 3.000000)">
                        <g id="icon_popup_gps-14px">
                            <path d="M0,7.76897554 C0,5.95430919 0.764655992,4.32601909 1.97798399,3.18715647 L10.59608,11.9812912 C9.48028801,13.2194402 7.88464,14 6.106112,14 C2.733872,14 0,11.2102013 0,7.76897554 Z M7.324784,0 C11.011568,0.000734732535 13.99952,3.04954988 14,6.81199919 C14,7.19319293 13.696672,7.50272609 13.323104,7.50272609 C12.949568,7.50272609 12.64672,7.19319293 12.64672,6.81199919 C12.64672,5.30985389 12.052256,3.95700553 11.087648,2.97192986 C10.12304,1.98783382 8.796576,1.3812089 7.324784,1.38096398 C6.950752,1.38096398 6.647904,1.07216555 6.647904,0.690971809 C6.647904,0.30927193 6.950752,0 7.324784,0 Z M6.89368,2.55937136 C9.433472,2.5598775 11.49144,4.66017385 11.492416,7.25190592 C11.492416,7.63311598 11.189568,7.94264915 10.81552,7.94264915 C10.441968,7.94264915 10.13864,7.63311598 10.13864,7.25190592 C10.135712,5.42306746 8.685376,3.94356815 6.89368,3.94033534 C6.51963201,3.94033534 6.216784,3.63103075 6.216784,3.24959211 C6.216784,2.86864329 6.51963201,2.55937136 6.89368,2.55937136 Z M8.854608,6.37681102 C8.854608,6.99862034 8.36059201,7.50248118 7.751504,7.50272608 C7.14239999,7.50248118 6.64838399,6.99862034 6.647904,6.37681102 C6.64839999,5.7550017 7.141424,5.25112454 7.751504,5.25063473 C8.361072,5.25114086 8.854608,5.7550017 8.854608,6.37681102 Z" id="Combined-Shape"></path>
                        </g>
                    </g>
                </g>
            </g>
        </g>
    </g>
</svg>