<?xml version="1.0" encoding="UTF-8"?>
<svg width="16px" height="13px" viewBox="0 0 16 13" version="1.1" xmlns="http://www.w3.org/2000/svg" xmlns:xlink="http://www.w3.org/1999/xlink">
    <!-- Generator: Sketch 46.2 (44496) - http://www.bohemiancoding.com/sketch -->
    <title>icon_dashboard_dipped_headlight</title>
    <desc>Created with Sketch.</desc>
    <defs></defs>
    <g id="样式整理概览" stroke="none" stroke-width="1" fill="none" fill-rule="evenodd">
        <g id="组件2-图标-弹出消息框" transform="translate(-668.000000, -761.000000)" fill-rule="nonzero" fill="#A8C6DF">
            <g id="图标2" transform="translate(100.000000, 226.000000)">
                <g id="汽车功能图标-18px" transform="translate(30.000000, 532.000000)">
                    <g id="汽车仪表图标/近光灯-蓝灰" transform="translate(537.000000, 0.000000)">
                        <g id="icon_dashboard_dipped_headlight">
                            <path d="M1.87198527,7.00207071 L5.86695922,6.58428759 C6.3081925,6.54581467 6.63460485,6.15836634 6.59597765,5.71881082 C6.55738902,5.27929388 6.16837863,4.95415432 5.72710678,4.99258867 L1.7321714,5.41037179 C1.29089955,5.44884471 0.96452577,5.83629304 1.00309511,6.27584856 C1.04170302,6.71540407 1.43071342,7.04054363 1.87198527,7.00207071 Z M1.87198527,9.79819378 L5.46747725,9.38041066 C5.90878767,9.34197631 6.23516145,8.95448941 6.19655354,8.5149339 C6.15796491,8.07537838 5.76895452,7.75027739 5.32768267,7.78871174 L1.73219068,8.20649486 C1.29091883,8.24496778 0.964545055,8.63245468 1.0031144,9.07197163 C1.04170302,9.51150786 1.43071342,9.8366667 1.87198527,9.79819378 L1.87198527,9.79819378 Z M5.46745797,12.1765337 C5.90876839,12.1380994 6.23514216,11.7506125 6.19653425,11.311057 C6.15794562,10.87154 5.76893523,10.5464005 5.32766338,10.5848348 L1.7321714,11.0026179 C1.29089955,11.0410523 0.96452577,11.4285392 1.00309511,11.8680947 C1.04168374,12.3076502 1.43069413,12.6327512 1.87196598,12.5943169 L5.46745797,12.1765337 Z M7.39486445,14.1071608 C7.35623725,13.6676438 6.96726543,13.3425042 6.52599358,13.3809386 L2.53105819,13.7987217 C2.08982491,13.8371946 1.76335471,14.224643 1.80198191,14.6641985 C1.84060911,15.103754 2.22958093,15.4288936 2.67085278,15.3904206 L6.66578816,14.9726375 C7.10707929,14.9341839 7.43349164,14.5467163 7.39486445,14.1071608 Z M10.6088671,3 C9.78872856,3 9.0072751,3.15973493 8.28683835,3.44127185 C8.28533415,3.44186968 8.26670515,3.4496414 8.26670515,3.4496414 C7.78659398,3.6485435 7.47620719,4.15601963 7.54104225,4.70644272 L8.71405168,14.6644878 C8.78068022,15.2300879 9.22339842,15.663318 9.75538536,15.7245083 L9.77312726,15.7265525 C10.0535457,15.7641383 10.3182085,15.7822466 10.6088863,15.7822466 C14.1386176,15.7822466 17,12.9208256 17,9.39113294 C17,5.8613824 14.1386176,3 10.6088671,3 Z M10.9382685,13.3719712 L10.0043312,5.44298217 C10.2043715,5.41213236 10.4064812,5.3966529 10.6088863,5.39667967 C12.8149756,5.39667967 14.6033396,7.18504367 14.6033396,9.39113294 C14.6033203,11.4862389 12.9902347,13.2044453 10.9382685,13.3719712 L10.9382685,13.3719712 Z" id="Shape"></path>
                        </g>
                    </g>
                </g>
            </g>
        </g>
    </g>
</svg>