<?xml version="1.0" encoding="UTF-8"?>
<svg width="180px" height="177px" viewBox="0 0 180 177" version="1.1" xmlns="http://www.w3.org/2000/svg" xmlns:xlink="http://www.w3.org/1999/xlink">
    <!-- Generator: Sketch 46.2 (44496) - http://www.bohemiancoding.com/sketch -->
    <title>icon_blank_page_dashboard</title>
    <desc>Created with Sketch.</desc>
    <defs>
        <rect id="path-1" x="20" y="19" width="136" height="160" rx="10"></rect>
        <rect id="path-2" x="33" y="34" width="111" height="131" rx="10"></rect>
        <path d="M100,15 L125,15 L125,15 C128.865993,15 132,18.1340068 132,22 C132,25.8659932 128.865993,29 125,29 L49,29 L49,29 C45.1340068,29 42,25.8659932 42,22 L42,22 L42,22 C42,18.1340068 45.1340068,15 49,15 L49,15 L74,15 L74,12 L74,12 C74,6.4771525 78.4771525,2 84,2 L84,2 L90,2 L90,2 C95.5228475,2 100,6.4771525 100,12 L100,15 Z M87,18 C89.209139,18 91,16.209139 91,14 C91,11.790861 89.209139,10 87,10 C84.790861,10 83,11.790861 83,14 C83,16.209139 84.790861,18 87,18 Z" id="path-3"></path>
    </defs>
    <g id="正式页面" stroke="none" stroke-width="1" fill="none" fill-rule="evenodd">
        <g id="9.0-资源中心-角色管理-默认" transform="translate(-660.000000, -423.000000)">
            <g id="内容" transform="translate(185.000000, 204.000000)">
                <g id="反馈内容">
                    <g id="Group" transform="translate(475.000000, 217.000000)">
                        <g id="icon/空白页/icon_blank_page_data_products">
                            <g id="icon_blank_page_dashboard">
                                <g id="bg">
                                    <use fill="#ECF5FD" fill-rule="evenodd" xlink:href="#path-1"></use>
                                    <rect stroke="#A8C6DF" stroke-width="2" x="21" y="20" width="134" height="158" rx="10"></rect>
                                </g>
                                <g id="bg-copy">
                                    <use fill="#FFFFFF" fill-rule="evenodd" xlink:href="#path-2"></use>
                                    <rect stroke="#A8C6DF" stroke-width="2" x="34" y="35" width="109" height="129" rx="10"></rect>
                                </g>
                                <circle id="Oval-3" stroke="#A8C6DF" stroke-width="2" fill="#FFFFFF" stroke-linecap="round" stroke-dasharray="8,6" cx="117" cy="94" r="50"></circle>
                                <circle id="Oval-3" fill="#A8C6DF" cx="117" cy="94" r="32"></circle>
                                <g id="Icons-White-/-User" transform="translate(108.000000, 85.000000)" fill="#FFFFFF">
                                    <path d="M14,15.8 L4,15.8 L4,14.6333333 C4,12.9666667 7.33333333,12.05 9,12.05 C10.6666667,12.05 14,12.9666667 14,14.6333333 L14,15.8 Z M9,5.80000001 C10.3833333,5.80000001 11.5,6.91666668 11.5,8.30000001 C11.5,9.68333335 10.3833333,10.8 9,10.8 C7.61666667,10.8 6.5,9.68333335 6.5,8.30000001 C6.5,6.91666668 7.61666667,5.80000001 9,5.80000001 L9,5.80000001 Z M9,2.46666668 C9.45833333,2.46666668 9.83333333,2.84166668 9.83333333,3.30000001 C9.83333333,3.75833335 9.45833333,4.13333335 9,4.13333335 C8.54166667,4.13333335 8.16666667,3.75833335 8.16666667,3.30000001 C8.16666667,2.84166668 8.54166667,2.46666668 9,2.46666668 L9,2.46666668 Z M14.8333333,2.46666668 L11.35,2.46666668 C11,1.50000001 10.0833333,0.800000012 9,0.800000012 C7.91666667,0.800000012 7,1.50000001 6.65,2.46666668 L3.16666667,2.46666668 C2.25,2.46666668 1.5,3.21666668 1.5,4.13333335 L1.5,15.8 C1.5,16.7166667 2.25,17.4666667 3.16666667,17.4666667 L14.8333333,17.4666667 C15.75,17.4666667 16.5,16.7166667 16.5,15.8 L16.5,4.13333335 C16.5,3.21666668 15.75,2.46666668 14.8333333,2.46666668 L14.8333333,2.46666668 Z" id="Icon"></path>
                                </g>
                                <g id="Combined-Shape">
                                    <use fill="#FFFFFF" fill-rule="evenodd" xlink:href="#path-3"></use>
                                    <path stroke="#A8C6DF" stroke-width="2" d="M125,16 L99,16 L99,12 C99,7.02943725 94.9705627,3 90,3 L84,3 C79.0294373,3 75,7.02943725 75,12 L75,16 L49,16 C45.6862915,16 43,18.6862915 43,22 C43,25.3137085 45.6862915,28 49,28 L125,28 C128.313708,28 131,25.3137085 131,22 C131,18.6862915 128.313708,16 125,16 Z M87,19 C84.2385763,19 82,16.7614237 82,14 C82,11.2385763 84.2385763,9 87,9 C89.7614237,9 92,11.2385763 92,14 C92,16.7614237 89.7614237,19 87,19 Z"></path>
                                </g>
                                <g id="+" transform="translate(168.000000, 129.000000)" stroke="#A8C6DF" stroke-width="2">
                                    <path d="M-9.09494702e-13,6 L12,6" id="Path-3-Copy-3"></path>
                                    <path d="M6,12 L6,0" id="Path-3-Copy-2"></path>
                                </g>
                                <g id="+-copy" transform="translate(0.000000, 94.000000)" stroke="#A8C6DF" stroke-width="2">
                                    <path d="M-9.09494702e-13,6 L12,6" id="Path-3-Copy-3"></path>
                                    <path d="M6,12 L6,0" id="Path-3-Copy-2"></path>
                                </g>
                                <g id="+-copy-2" transform="translate(53.000000, 49.000000)" stroke="#A8C6DF" stroke-width="2">
                                    <path d="M-9.09494702e-13,4 L8,4" id="Path-3-Copy-3"></path>
                                    <path d="M4,8 L4,0" id="Path-3-Copy-2"></path>
                                </g>
                            </g>
                        </g>
                    </g>
                </g>
            </g>
        </g>
    </g>
</svg>