<?xml version="1.0" encoding="UTF-8"?>
<svg width="10px" height="14px" viewBox="0 0 10 14" version="1.1" xmlns="http://www.w3.org/2000/svg" xmlns:xlink="http://www.w3.org/1999/xlink">
    <!-- Generator: Sketch 46.2 (44496) - http://www.bohemiancoding.com/sketch -->
    <title>icon_popup_phone_white 14px</title>
    <desc>Created with Sketch.</desc>
    <defs></defs>
    <g id="样式整理概览" stroke="none" stroke-width="1" fill="none" fill-rule="evenodd">
        <g id="组件1：logo-按钮-分页-头像-输入框-图片-符号" transform="translate(-633.000000, -466.000000)" fill="#FFFFFF">
            <g id="按钮" transform="translate(104.000000, 352.000000)">
                <g id="Button-40-px-/-Blue-Icon-Copy" transform="translate(504.000000, 101.000000)">
                    <g id="Group" transform="translate(23.000000, 10.000000)">
                        <g id="弹出图标/icon_popup_weather_white" transform="translate(0.000000, 3.000000)">
                            <g id="icon_popup_phone_white-14px">
                                <path d="M3,0 L11,0 C11.5522847,-1.01453063e-16 12,0.44771525 12,1 L12,13 C12,13.5522847 11.5522847,14 11,14 L3,14 C2.44771525,14 2,13.5522847 2,13 L2,1 L2,1 C2,0.44771525 2.44771525,1.01453063e-16 3,0 L3,0 Z M3,1 L3,11 L11,11 L11,1 L3,1 Z M6,12 L6,13 L8,13 L8,12 L6,12 Z" id="Combined-Shape"></path>
                            </g>
                        </g>
                    </g>
                </g>
            </g>
        </g>
    </g>
</svg>