<?xml version="1.0" encoding="UTF-8"?>
<svg width="14px" height="14px" viewBox="0 0 14 14" version="1.1" xmlns="http://www.w3.org/2000/svg" xmlns:xlink="http://www.w3.org/1999/xlink">
    <!-- Generator: Sketch 46.2 (44496) - http://www.bohemiancoding.com/sketch -->
    <title>icon_popup_code 14px</title>
    <desc>Created with Sketch.</desc>
    <defs></defs>
    <g id="正式页面" stroke="none" stroke-width="1" fill="none" fill-rule="evenodd">
        <g id="9.2-资源中心-角色管理-列表" transform="translate(-1281.000000, -257.000000)" fill="#A8C6DF">
            <g id="列表" transform="translate(185.000000, 204.000000)">
                <g id="Table-/-Type-1-/-List" transform="translate(0.000000, 40.000000)">
                    <g id="右" transform="translate(948.000000, 0.000000)">
                        <g id="Table-/-List-/-Type-6">
                            <g id="Group" transform="translate(20.000000, 13.000000)">
                                <g id="弹出图标/icon_popup_code-14px" transform="translate(128.000000, 0.000000)">
                                    <g id="icon_popup_code-14px">
                                        <path d="M1.77999997,0.779999971 L12.2199996,0.779999971 C12.7722843,0.779999971 13.2199996,1.22771522 13.2199996,1.77999997 L13.2199996,12.2199996 C13.2199996,12.7722843 12.7722843,13.2199996 12.2199996,13.2199996 L1.77999997,13.2199996 C1.22771522,13.2199996 0.779999971,12.7722843 0.779999971,12.2199996 L0.779999971,1.77999997 L0.779999971,1.77999997 C0.779999971,1.22771522 1.22771522,0.779999971 1.77999997,0.779999971 L1.77999997,0.779999971 Z M6.48749995,3.33624995 L6.48749995,2.21124995 L3.06562495,2.21124995 L3.06562495,3.33624995 L4.19062495,3.33624995 C3.87812339,4.74250698 3.33125386,6.10186839 2.54999995,7.41437495 L3.53437495,8.02374995 L3.53437495,11.4456249 L6.25312495,11.4456249 L6.25312495,5.58624995 L4.70624995,5.58624995 C4.89375089,5.14874776 5.09687386,4.46125464 5.31562495,3.52374995 C5.34687511,3.42999948 5.36249995,3.3675001 5.36249995,3.33624995 L6.48749995,3.33624995 Z M6.81562495,7.46124995 L10.284375,7.46124995 L10.284375,10.6487499 C10.3156251,10.9300014 10.1593767,11.0550001 9.81562495,11.0237499 L8.45624995,11.0237499 L8.73749995,12.0549999 L10.096875,12.0549999 C11.0343796,12.1175003 11.4718753,11.7581289 11.409375,10.9768749 L11.409375,6.33624995 L10.659375,6.33624995 L10.89375,1.92999995 L6.81562495,1.92999995 L6.81562495,3.05499995 L9.72187495,3.05499995 L9.53437495,6.33624995 L8.03437495,6.33624995 L8.26874995,3.52374995 L7.14374995,3.42999995 L6.81562495,7.46124995 Z M6.53437495,9.71124995 L9.90937495,9.71124995 L9.90937495,8.53937495 L6.53437495,8.53937495 L6.53437495,9.71124995 Z M4.61249995,10.4143749 L4.61249995,6.71124995 L5.22187495,6.71124995 L5.22187495,10.4143749 L4.61249995,10.4143749 Z" id="Combined-Shape"></path>
                                    </g>
                                </g>
                            </g>
                        </g>
                    </g>
                </g>
            </g>
        </g>
    </g>
</svg>