<?xml version="1.0" encoding="UTF-8"?>
<svg width="16px" height="16px" viewBox="0 0 16 16" version="1.1" xmlns="http://www.w3.org/2000/svg" xmlns:xlink="http://www.w3.org/1999/xlink">
    <!-- Generator: Sketch 46.2 (44496) - http://www.bohemiancoding.com/sketch -->
    <title>icon_list_date</title>
    <desc>Created with Sketch.</desc>
    <defs></defs>
    <g id="正式页面" stroke="none" stroke-width="1" fill="none" fill-rule="evenodd">
        <g id="1.7-车辆监控-结果详情" transform="translate(-609.000000, -332.000000)" fill-rule="nonzero" fill="#A8C6DF">
            <g id="左侧菜单/地图监控/车辆-筛选展开1-copy" transform="translate(480.000000, 178.000000)">
                <g id="Filter/Date/Start+End-White" transform="translate(20.000000, 146.000000)">
                    <g id="左">
                        <g id="弹出图标/icon_list_date" transform="translate(108.000000, 7.000000)">
                            <g id="icon_list_date">
                                <path d="M3,3 L3,1 L5,1 L5,3 L13,3 L13,1 L15,1 L15,3 L16,3 C16.5522847,3 17,3.44771525 17,4 L17,16 C17,16.5522847 16.5522847,17 16,17 L2,17 C1.44771525,17 1,16.5522847 1,16 L1,4 C1,3.44771525 1.44771525,3 2,3 L2,3 L3,3 Z M15,14.8188508 L15,7 L3.00000002,7 L3,14.8188508 C3,14.9187397 3.07770278,15 3.17305934,15 L14.8269406,15 C14.9222972,15 14.9999837,14.9187397 15,14.8188508 Z M11.4884298,13 C11.3565874,13 11.25,12.8610427 11.25,12.6892582 L11.25,11.8106761 C11.25,11.6388916 11.356658,11.5 11.4884298,11.5 L12.5115702,11.5 C12.6433319,11.5 12.7499899,11.6388916 12.75,11.8106761 L12.75,12.6892582 C12.75,12.8610427 12.643342,13 12.5115702,13 L11.4884298,13 Z M8.48838515,13 C8.3566314,13 8.25000001,12.8610427 8.25,12.6892582 L8.25,11.8106761 C8.25,11.6388916 8.3566314,11.5 8.48838515,11.5 L9.51158459,11.5 C9.64341903,11.5 9.75,11.6388916 9.75,11.8106761 L9.75,12.6892582 C9.75,12.8610427 9.64341903,13 9.51158459,13 L8.48838515,13 Z M5.48839457,13 C5.35663216,13 5.25,12.8610427 5.25,12.6892582 L5.25,11.8106761 C5.25,11.6388916 5.35663216,11.5 5.48839457,11.5 L6.51159535,11.5 C6.64336784,11.5 6.75,11.6388916 6.75,11.8106761 L6.75,12.6892582 C6.75,12.8610427 6.64336784,13 6.51160543,13 L5.48839457,13 Z M11.4884298,10.5 C11.3565874,10.5 11.25,10.3610415 11.25,10.1893343 L11.25,9.31066568 C11.25,9.13895851 11.356658,9.00000001 11.4884298,9.00000001 L12.5115702,9 C12.6433319,9 12.7499899,9.13897164 12.75,9.31066567 L12.75,10.1893212 C12.75,10.3610284 12.643342,10.5 12.5115702,10.5 L11.4884298,10.5 Z M8.48838515,10.5 C8.3566314,10.5 8.25000001,10.3610415 8.25,10.1893343 L8.25,9.31066568 C8.25,9.13895851 8.3566314,9.00000001 8.48838515,9.00000001 L9.51158459,9 C9.64341903,9 9.75,9.13897164 9.75,9.31066567 L9.75,10.1893212 C9.75,10.3610284 9.64341903,10.5 9.51158459,10.5 L8.48838515,10.5 Z M5.48839457,10.5 C5.35663216,10.5 5.25,10.3610415 5.25,10.1893343 L5.25,9.31066568 C5.25,9.13895851 5.35663216,9.00000001 5.48839457,9.00000001 L6.51159535,9 C6.64336784,9 6.75,9.13897164 6.75,9.31066567 L6.75,10.1893212 C6.75,10.3610284 6.64336784,10.5 6.51160543,10.5 L5.48839457,10.5 Z" id="Combined-Shape"></path>
                            </g>
                        </g>
                    </g>
                </g>
            </g>
        </g>
    </g>
</svg>