<?xml version="1.0" encoding="UTF-8"?>
<svg width="18px" height="18px" viewBox="0 0 18 18" version="1.1" xmlns="http://www.w3.org/2000/svg" xmlns:xlink="http://www.w3.org/1999/xlink">
    <!-- Generator: Sketch 46.2 (44496) - http://www.bohemiancoding.com/sketch -->
    <title>icon_menu_left_fault_monitor_a</title>
    <desc>Created with Sketch.</desc>
    <defs></defs>
    <g id="样式整理概览" stroke="none" stroke-width="1" fill="none" fill-rule="evenodd">
        <g id="组件2-图标-弹出消息框" transform="translate(-375.000000, -433.000000)" fill-rule="nonzero" fill="#8DABC4">
            <g id="图标2" transform="translate(100.000000, 226.000000)">
                <g id="菜单图标" transform="translate(30.000000, 207.000000)">
                    <g id="icon/menu/left/故障监控-小灰" transform="translate(245.000000, 0.000000)">
                        <g id="icon_menu_left_fault_monitor_a">
                            <path d="M3.51748942,9.89009594 C4.30324401,10.1872178 5.18166432,9.7910553 5.4787024,9.00507901 C6.02834979,7.54994357 7.44372355,6.57223476 9,6.57223476 C10.5562764,6.57223476 11.9716502,7.54994357 12.5212976,9.00634876 C12.7510578,9.61455982 13.3299013,9.99040632 13.9442877,9.99040632 C14.1232722,9.99040632 14.3047955,9.95866253 14.4825106,9.89136569 C15.2682652,9.59424379 15.6643159,8.71684537 15.3672779,7.93086907 C14.8836389,6.65095937 14.0344147,5.55770316 12.9122708,4.76791761 C11.7622003,3.95654628 10.4090268,3.52863995 9,3.52863995 C7.5909732,3.52863995 6.23779972,3.95654628 5.0877292,4.7653781 C3.96558533,5.55516366 3.11636107,6.64968962 2.63272214,7.92959932 C2.33568406,8.71557562 2.73173484,9.59297404 3.51748942,9.89009594 Z M3.3448519,8.19878668 C3.9922426,6.48843115 5.41650212,5.13360609 7.15684062,4.57745485 C7.55543018,4.44794018 7.98448519,4.66887698 8.11269394,5.06884876 C8.24090268,5.46882054 8.02002821,5.89672686 7.62016925,6.02497178 C6.31777151,6.44272009 5.25148096,7.45598194 4.76657264,8.73589165 C4.65232722,9.04063205 4.3629055,9.2285553 4.05571227,9.2285553 C3.96685472,9.2285553 3.87545839,9.21331828 3.78660085,9.17903499 C3.39435825,9.03047404 3.19633286,8.59113995 3.3448519,8.19878668 Z M9.65500705,10.0373871 C9.69816643,10.130079 9.71974612,10.2316591 9.71974612,10.3370485 C9.71974612,10.7332111 9.39732017,11.0569977 9,11.0569977 C8.60267983,11.0569977 8.28025388,10.7332111 8.28025388,10.3370485 L8.28025388,7.46740971 C8.28025388,7.40773138 8.32214386,7.35567156 8.38180536,7.34297404 C8.44019746,7.33154628 8.49858956,7.36202032 8.52270804,7.41788939 L9.65500705,10.0373871 Z M0,2 L0,16 L0,16 C1.3527075e-16,17.1045695 0.8954305,18 2,18 L16,18 L16,18 C17.1045695,18 18,17.1045695 18,16 L18,2 L18,2 C18,0.8954305 17.1045695,-2.02906125e-16 16,0 L2,0 L2,0 C0.8954305,2.02906125e-16 -1.3527075e-16,0.8954305 0,2 Z M7.66840621,16.3467833 C7.20253879,16.3467833 6.82425952,15.9671275 6.82425952,15.5023984 C6.82425952,15.0376693 7.20380818,14.6580135 7.66840621,14.6580135 C8.13427362,14.6580135 8.51255289,15.0363995 8.51255289,15.5023984 C8.51255289,15.9683973 8.13427362,16.3467833 7.66840621,16.3467833 Z M10.3315938,16.3467833 C9.86572638,16.3467833 9.48744711,15.9671275 9.48744711,15.5023984 C9.48744711,15.0376693 9.86699577,14.6580135 10.3315938,14.6580135 C10.7974612,14.6580135 11.1757405,15.0363995 11.1757405,15.5023984 C11.1757405,15.9683973 10.7961918,16.3467833 10.3315938,16.3467833 Z M1.51184767,12.0047968 L1.51184767,2.51100451 L1.51184767,2.51100451 C1.51184767,1.95871976 1.95956292,1.51100451 2.51184767,1.51100451 L15.4894217,1.51100451 L15.4894217,1.51100451 C16.0417065,1.51100451 16.4894217,1.95871976 16.4894217,2.51100451 L16.4894217,12.0047968 L16.4894217,12.0047968 C16.4894217,12.5570816 16.0417065,13.0047968 15.4894217,13.0047968 L2.51184767,13.0047968 L2.51184767,13.0047968 C1.95956292,13.0047968 1.51184767,12.5570816 1.51184767,12.0047968 Z" id="Shape"></path>
                        </g>
                    </g>
                </g>
            </g>
        </g>
    </g>
</svg>