<?xml version="1.0" encoding="UTF-8"?>
<svg width="14px" height="14px" viewBox="0 0 14 14" version="1.1" xmlns="http://www.w3.org/2000/svg" xmlns:xlink="http://www.w3.org/1999/xlink">
    <!-- Generator: Sketch 46.2 (44496) - http://www.bohemiancoding.com/sketch -->
    <title>icon_export_white</title>
    <desc>Created with Sketch.</desc>
    <defs></defs>
    <g id="正式页面" stroke="none" stroke-width="1" fill="none" fill-rule="evenodd">
        <g id="3.0-故障诊断-报警明细" transform="translate(-1215.000000, -1210.000000)" fill="#FFFFFF">
            <g id="故障列表" transform="translate(185.000000, 685.000000)">
                <g id="分页" transform="translate(0.000000, 500.000000)">
                    <g id="Button-32-px-/-Review-Center" transform="translate(1006.000000, 16.000000)">
                        <g id="Button-32-px-/-See-more" transform="translate(24.000000, 6.000000)">
                            <g id="弹出图标/icon_popup_edit_white-14px" transform="translate(0.000000, 3.000000)">
                                <path d="M1.94444444,1.55555556 L5.44444444,1.55555556 L6.61111111,2.72222222 L12.0555556,2.72222222 C12.6972222,2.72222222 13.2222222,3.24722222 13.2222222,3.88888889 L13.2222222,11.2777778 C13.2222222,11.9194444 12.6972222,12.4444444 12.0555556,12.4444444 L1.94444444,12.4444444 C1.30277778,12.4444444 0.777777778,11.9194444 0.777777778,11.2777778 L0.783611111,2.72222222 C0.783611111,2.08055556 1.30277778,1.55555556 1.94444444,1.55555556 Z M6.64669866,4.24111048 L4.74495105,6.13823922 C4.54945164,6.33326382 4.54906672,6.64984607 4.74409131,6.84534548 C4.83789421,6.93937676 4.96525539,6.99222222 5.09807431,6.99222222 L6.22205557,6.99222222 L6.22205557,10.3888889 L6.22205557,10.3888889 C6.22205557,10.6650313 6.44591319,10.8888889 6.72205557,10.8888889 L7.27827774,10.8888889 L7.27827774,10.8888889 C7.55442012,10.8888889 7.77827774,10.6650313 7.77827774,10.3888889 L7.77827774,6.99222222 L8.90204498,6.99222222 C9.17818735,6.99222222 9.40204498,6.7683646 9.40204498,6.49222222 C9.40204498,6.35938165 9.34918233,6.23200153 9.255124,6.13819509 L7.35290094,4.24106635 L7.35290094,4.24106635 C7.15773054,4.04641863 6.84184474,4.04643837 6.64669866,4.24111048 L6.64669866,4.24111048 Z" id="Combined-Shape"></path>
                            </g>
                        </g>
                    </g>
                </g>
            </g>
        </g>
    </g>
</svg>