<?xml version="1.0" encoding="UTF-8"?>
<svg width="18px" height="14px" viewBox="0 0 18 14" version="1.1" xmlns="http://www.w3.org/2000/svg" xmlns:xlink="http://www.w3.org/1999/xlink">
    <!-- Generator: Sketch 46.2 (44496) - http://www.bohemiancoding.com/sketch -->
    <title>icon_popup_gprs_blue</title>
    <desc>Created with Sketch.</desc>
    <defs></defs>
    <g id="正式页面" stroke="none" stroke-width="1" fill="none" fill-rule="evenodd">
        <g id="1.7-车辆监控-结果详情" transform="translate(-188.000000, -236.000000)" fill-rule="nonzero" fill="#0093EE">
            <g id="左侧菜单/地图监控/车辆-筛选展开1" transform="translate(80.000000, 178.000000)">
                <g id="树状筛选">
                    <g id="Group">
                        <g id="车辆标签" transform="translate(0.000000, 40.000000)">
                            <g id="123456" transform="translate(108.000000, 16.000000)">
                                <g id="弹出图标/icon_popup_gprs_blue">
                                    <g id="icon_popup_gprs_blue">
                                        <path d="M0,12.1171176 L2.4828209,12.1171176 L2.4828209,15.9164729 L0,15.9164729 L0,12.1171176 Z M3.81194813,10.0226513 L6.29476903,10.0226513 L6.29476903,15.894355 L3.81194813,15.894355 L3.81194813,10.0226513 Z M7.86133472,6.37138489 L10.2826619,6.37138489 L10.2826619,15.802963 L7.86133472,15.802963 L7.86133472,6.37138489 Z M11.5683396,4.24710163 L14.2166774,4.24710163 L14.2166774,15.6681647 L11.5683396,15.6681647 L11.5683396,4.24710163 Z M15.3516793,2 L18,2 L18,16 L15.3516622,16 L15.3516622,2 L15.3516793,2 Z" id="Combined-Shape"></path>
                                    </g>
                                </g>
                            </g>
                        </g>
                    </g>
                </g>
            </g>
        </g>
    </g>
</svg>