<?xml version="1.0" encoding="UTF-8"?>
<svg width="12px" height="12px" viewBox="0 0 12 12" version="1.1" xmlns="http://www.w3.org/2000/svg" xmlns:xlink="http://www.w3.org/1999/xlink">
    <!-- Generator: Sketch 46.2 (44496) - http://www.bohemiancoding.com/sketch -->
    <title>icon_popup_save 14px</title>
    <desc>Created with Sketch.</desc>
    <defs></defs>
    <g id="正式页面" stroke="none" stroke-width="1" fill="none" fill-rule="evenodd">
        <g id="4.0-资源管理-能补设备-能补站" transform="translate(-1128.000000, -284.000000)" fill-rule="nonzero" fill="#A8C6DF">
            <g id="操作" transform="translate(205.000000, 274.000000)">
                <g transform="translate(871.000000, 0.000000)" id="弹出图标/icon_popup_map">
                    <g transform="translate(51.000000, 9.000000)">
                        <g id="icon_popup_save-14px">
                            <path d="M12.8671101,3.10815971 C12.9361411,3.19463805 12.9755516,3.29459921 12.9853417,3.40804318 C12.9951317,3.52148714 13.0000178,3.61072679 13,3.67576211 L13,11.2001401 C13,11.7082592 12.8423712,12.1352705 12.5271137,12.4811741 C12.2118562,12.8270776 11.7931773,13.0000196 11.2710771,13 L2.7289363,13 C2.19675095,13 1.7755508,12.8540286 1.46533584,12.5620857 C1.15512089,12.2701428 1.00000894,11.8268726 1,11.2322752 L1,2.92960685 C1,2.3457211 1.15511195,1.8782319 1.46533584,1.52713925 C1.77555974,1.1760466 2.19675989,1.00033351 2.7289363,1 L10.5617276,1 C10.6604059,1 10.7589233,1.01348281 10.8572798,1.04044844 C10.9556363,1.06741407 11.0246807,1.10252627 11.0644131,1.14578506 L12.8671101,3.10815971 Z M9.7638787,3.12022509 L3.32046991,3.12022509 C3.17259992,3.10950358 3.0543683,3.15274275 2.96577505,3.2499426 C2.8771818,3.34714245 2.83288517,3.46059623 2.83288517,3.59030393 L2.83288517,3.94469249 C2.83288517,4.05295717 2.85511172,4.1638164 2.8995648,4.27727018 C2.94401789,4.39072396 3.0056505,4.49345623 3.08446265,4.58546698 C3.16327479,4.67747774 3.25438484,4.75322967 3.3577928,4.81272277 C3.46120077,4.87221586 3.57202503,4.90196241 3.69026559,4.90196241 L9.30606644,4.90196241 C9.57215912,4.90196241 9.79631551,4.81548407 9.97853561,4.64252739 C10.1607557,4.4695707 10.2518658,4.21014058 10.2518658,3.86423703 L10.2518658,3.62345429 C10.2315704,3.28781121 10.0690511,3.12022509 9.7638787,3.12022509 Z M9.60120293,6.81903304 L3.49783076,6.81903304 C3.27114862,6.81903304 3.1035823,6.88388689 2.99513179,7.0135946 C2.88668128,7.1433023 2.83245602,7.31624427 2.83245602,7.53242051 L2.83245602,9.90755569 L10.2514769,9.90755569 L10.2514769,7.53242051 C10.2514366,7.06755528 10.0346921,6.82975455 9.60120293,6.81903304 Z" id="icon"></path>
                        </g>
                    </g>
                </g>
            </g>
        </g>
    </g>
</svg>