<?xml version="1.0" encoding="UTF-8"?>
<svg width="14px" height="14px" viewBox="0 0 14 14" version="1.1" xmlns="http://www.w3.org/2000/svg" xmlns:xlink="http://www.w3.org/1999/xlink">
    <!-- Generator: Sketch 46.2 (44496) - http://www.bohemiancoding.com/sketch -->
    <title>icon_document_jpg_blue</title>
    <desc>Created with Sketch.</desc>
    <defs></defs>
    <g id="正式页面" stroke="none" stroke-width="1" fill="none" fill-rule="evenodd">
        <g id="7.0-车辆监控-个人中心-我的反馈" transform="translate(-594.000000, -949.000000)" fill-rule="nonzero" fill="#1488F5">
            <g id="内容" transform="translate(155.000000, 280.000000)">
                <g id="反馈内容" transform="translate(285.000000, 0.000000)">
                    <g id="附件" transform="translate(30.000000, 624.000000)">
                        <g id="Category-Buttons-/-Enclosure-Blue-Copy" transform="translate(108.000000, 40.000000)">
                            <g id="Group" transform="translate(16.000000, 3.000000)">
                                <g id="文件类型/Excle/灰" transform="translate(0.000000, 2.000000)">
                                    <g id="icon_document_jpg_blue">
                                        <path d="M12.25,3.73333333 L12.25,6.53333333 L1.75,6.53333333 L1.75,0 L8.75,0 L8.75,3.73333333 L12.25,3.73333333 Z M9.14375,0 L12.25,3.31333333 L9.14375,3.31333333 L9.14375,0 Z M0,7.46666667 L14,7.46666667 L14,14 L0,14 L0,7.46666667 Z M2.90888892,12.908 C3.75511114,12.908 4.37111114,12.4475556 4.37111114,11.4706667 L4.37111114,8.68311111 L3.48133336,8.68311111 L3.48133336,11.4582222 C3.48133336,11.8564444 3.22622225,12.124 2.83422225,12.124 C2.54800003,12.124 2.33644447,11.9808889 2.17466669,11.8253333 L1.78888892,12.4973333 C2.08755558,12.7897778 2.48577781,12.908 2.90888892,12.908 Z M5.83644446,12.8333333 L5.83644446,11.3524444 L6.89422224,11.3524444 C7.79022224,11.3524444 8.28800002,10.7426667 8.28800002,10.0208889 C8.28800002,9.29288889 7.79644446,8.68311111 6.89422224,8.68311111 L4.95288891,8.68311111 L4.95288891,12.8333333 L5.83644446,12.8333333 Z M10.6244445,12.908 C11.3711111,12.908 11.9622222,12.6031111 12.3853333,12.1302222 L12.3853333,10.5373333 L10.4066667,10.5373333 L10.4066667,11.3088889 L11.5017778,11.3088889 L11.5017778,11.8066667 C11.3337778,11.9622222 10.9915556,12.124 10.6244445,12.124 C9.86533334,12.124 9.31777779,11.5453333 9.31777779,10.7613333 C9.31777779,9.97733333 9.86533334,9.39866667 10.6244445,9.39866667 C11.06,9.39866667 11.4146667,9.64755556 11.6075556,9.94 L12.3355556,9.54177778 C12.0244445,9.05022222 11.4831111,8.61466667 10.6244445,8.61466667 C9.4048889,8.61466667 8.40933334,9.44844444 8.40933334,10.7613333 C8.40933334,12.068 9.4048889,12.908 10.6244445,12.908 Z M6.7697778,10.5746667 L5.83644446,10.5746667 L5.83644446,9.46088889 L6.7697778,9.46088889 C7.11822224,9.46088889 7.3857778,9.67244444 7.3857778,10.0208889 C7.3857778,10.3631111 7.11822224,10.5746667 6.7697778,10.5746667 Z" id="Combined-Shape"></path>
                                    </g>
                                </g>
                            </g>
                        </g>
                    </g>
                </g>
            </g>
        </g>
    </g>
</svg>