<?xml version="1.0" encoding="UTF-8"?>
<svg width="18px" height="17px" viewBox="0 0 18 17" version="1.1" xmlns="http://www.w3.org/2000/svg" xmlns:xlink="http://www.w3.org/1999/xlink">
    <!-- Generator: Sketch 46.2 (44496) - http://www.bohemiancoding.com/sketch -->
    <title>icon_dashboard_wind_direction1</title>
    <desc>Created with Sketch.</desc>
    <defs></defs>
    <g id="样式整理概览" stroke="none" stroke-width="1" fill="none" fill-rule="evenodd">
        <g id="组件2-图标-弹出消息框" transform="translate(-501.000000, -792.000000)" fill-rule="nonzero" fill="#A8C6DF">
            <g id="图标2" transform="translate(100.000000, 226.000000)">
                <g id="汽车功能图标-18px" transform="translate(30.000000, 532.000000)">
                    <g id="汽车仪表图标/风向模式1-蓝灰" transform="translate(371.000000, 33.000000)">
                        <g id="icon_dashboard_wind_direction1">
                            <path d="M15.6340722,1.00532852 C14.3276318,1.00532852 13.2685776,2.06442599 13.2685776,3.37086643 C13.2685776,4.67730686 14.3276318,5.73640433 15.6340722,5.73640433 C16.940556,5.73640433 17.9996101,4.67730686 17.9996101,3.37086643 C17.9996101,2.06442599 16.940556,1.00532852 15.6340722,1.00532852 L15.6340722,1.00532852 Z M15.6318412,6.46188448 C14.7266859,5.93711191 13.5692708,6.24854874 13.0467292,7.15749458 L11.1543032,10.4489603 C11.1507726,10.4550903 11.1476968,10.4613502 11.1442527,10.4675018 L9.18998556,10.4675018 C8.9672491,10.4405993 8.74750181,10.4698412 8.5459278,10.5457184 C8.01025993,10.7312852 7.62023827,11.2283321 7.59294585,11.8204043 L6.69543682,15.2731986 C6.49407942,16.0476318 6.93998556,16.8436823 7.69124188,17.0511913 C8.44254152,17.2587004 9.21474368,16.7991264 9.41605776,16.0246931 L10.1227365,13.3061733 L12.7954224,13.3061733 C12.8948448,13.3061733 12.9918628,13.2958628 13.0855018,13.2764116 C13.6310036,13.1904188 14.1345271,12.8669603 14.4320794,12.3493574 L16.3245054,9.05784838 C16.8471119,8.14888087 16.5369531,6.98663538 15.6318412,6.46188448 L15.6318412,6.46188448 Z M2.38709025,6.20951625 L8.06434657,6.20951625 C8.0806787,6.20951625 8.09692419,6.20910469 8.11303971,6.20828159 C8.87432491,6.18254874 9.48366065,5.55770397 9.48366065,4.79018051 C9.48366065,4.00628159 8.84822383,3.37086643 8.06434657,3.37086643 C7.44643321,3.37086643 6.92101083,3.76587004 6.72615162,4.31709025 L2.38709025,4.31709025 C1.86450542,4.31709025 1.44086643,4.74070758 1.44086643,5.26331408 C1.44086643,5.78592058 1.86450542,6.20951625 2.38709025,6.20951625 L2.38709025,6.20951625 Z M5.22574007,7.62885199 C4.60778339,7.62885199 4.08236101,8.0238556 3.88750181,8.57507581 L0.967732852,8.57507581 C0.445191336,8.57507581 0.0215740072,8.99869314 0.0215740072,9.52129964 C0.0215740072,10.0439061 0.445191336,10.4675235 0.967732852,10.4675235 L5.22574007,10.4675235 C5.2420722,10.4675235 5.25831769,10.4671119 5.27443321,10.4662888 C6.03567509,10.440556 6.64505415,9.81571119 6.64505415,9.04818773 C6.64507581,8.26426715 6.00959567,7.62885199 5.22574007,7.62885199 L5.22574007,7.62885199 Z" id="Shape"></path>
                        </g>
                    </g>
                </g>
            </g>
        </g>
    </g>
</svg>