<?xml version="1.0" encoding="UTF-8"?>
<svg width="24px" height="24px" viewBox="0 0 24 24" version="1.1" xmlns="http://www.w3.org/2000/svg" xmlns:xlink="http://www.w3.org/1999/xlink">
    <!-- Generator: Sketch 46.2 (44496) - http://www.bohemiancoding.com/sketch -->
    <title>icon_menu_left_set_a</title>
    <desc>Created with Sketch.</desc>
    <defs></defs>
    <g id="正式页面" stroke="none" stroke-width="1" fill="none" fill-rule="evenodd">
        <g id="1.0-默认" transform="translate(-18.000000, -863.000000)" fill-rule="nonzero" fill="#8DABC4">
            <g id="Sidebars-/-#3">
                <g id="左侧菜单/应用市场-copy-7" transform="translate(0.000000, 850.000000)">
                    <g id="icon/menu/left/故障监控" transform="translate(18.000000, 13.000000)">
                        <g id="icon_menu_left_set_a">
                            <path d="M23.7333333,9.20930233 C22.2666667,9.20930233 20.9333333,8.51162791 20.1333333,7.11627907 C19.3333333,5.72093023 19.4666667,4.04651163 20.2666667,2.79069767 C18.9333333,1.53488372 17.3333333,0.558139535 15.6,0 C14.9333333,1.39534884 13.6,2.23255814 12,2.23255814 C10.4,2.23255814 9.06666667,1.39534884 8.4,0 C6.66666667,0.558139535 5.2,1.53488372 3.86666667,2.79069767 C4.66666667,4.04651163 4.66666667,5.72093023 4,7.11627907 C3.2,8.51162791 1.73333333,9.20930233 0.266666667,9.20930233 C0.133333333,10.0465116 0,11.0232558 0,12 C0,12.9767442 0.133333333,13.9534884 0.266666667,14.7906977 C1.73333333,14.7906977 3.06666667,15.4883721 3.86666667,16.8837209 C4.66666667,18.2790698 4.66666667,19.9534884 3.86666667,21.2093023 C5.2,22.4651163 6.8,23.4418605 8.53333333,24 C9.2,22.6046512 10.5333333,21.7674419 12.1333333,21.7674419 C13.7333333,21.7674419 15.0666667,22.6046512 15.7333333,24 C17.4634256,23.4338786 19.0555872,22.4817553 20.4,21.2093023 C19.6,19.9534884 19.6,18.2790698 20.2666667,16.8837209 C21.0666667,15.4883721 22.4,14.7906977 23.8666667,14.7906977 C23.8666667,13.9534884 24,12.9767442 24,12 C24,11.0232558 23.8666667,10.0465116 23.7333333,9.20930233 Z M12,16.1860465 C9.73333333,16.1860465 8,14.372093 8,12 C8,9.62790698 9.73333333,7.81395349 12,7.81395349 C14.2666667,7.81395349 16,9.62790698 16,12 C16,14.372093 14.2666667,16.1860465 12,16.1860465 Z" id="设置"></path>
                        </g>
                    </g>
                </g>
            </g>
        </g>
    </g>
</svg>