<?xml version="1.0" encoding="UTF-8"?>
<svg width="18px" height="18px" viewBox="0 0 18 18" version="1.1" xmlns="http://www.w3.org/2000/svg" xmlns:xlink="http://www.w3.org/1999/xlink">
    <!-- Generator: Sketch 46.2 (44496) - http://www.bohemiancoding.com/sketch -->
    <title>icon_popup_map</title>
    <desc>Created with Sketch.</desc>
    <defs></defs>
    <g id="正式页面" stroke="none" stroke-width="1" fill="none" fill-rule="evenodd">
        <g id="4.0-资源管理-能补设备-能补站" transform="translate(-1197.000000, -487.000000)" fill-rule="nonzero" fill="#A8C6DF">
            <g id="标签分类/车辆故障" transform="translate(185.000000, 204.000000)">
                <g id="故障列表" transform="translate(0.000000, 122.000000)">
                    <g id="Table-/-Type-4-/-List-Bg-More" transform="translate(0.000000, 120.000000)">
                        <g id="弹出图标/icon_popup_map" transform="translate(1012.000000, 41.000000)">
                            <g id="icon_popup_map">
                                <path d="M13.061359,11.2708056 C13.2493571,11.1088218 13.4458096,10.9744848 13.6529348,10.8884237 C13.5443905,10.7450768 13.4602822,10.6179688 13.3768103,10.4963796 C13.2237028,10.2734954 13.061359,10.0185566 12.9825052,9.89425203 C12.4601469,10.1713718 11.9657155,10.7437544 11.5728104,11.2516398 C11.3446491,11.5469732 11.1391784,11.8634472 10.9419077,12.198135 L11.8882436,12.8672107 C12.2727306,12.0547175 12.7169443,11.567673 13.061359,11.2708056 Z M8.12264524,14.8266378 C8.15233586,14.9511186 8.18168101,15.0653201 8.22122607,15.1713051 C8.57602249,15.0653201 8.92996437,14.9592646 9.27612451,14.8164819 C9.86666399,14.5757895 10.5674024,14.2342254 11.0108888,13.784913 L10.1928062,12.9341059 C10.0450622,13.0775057 9.86813672,13.1933117 9.64077537,13.3357241 C9.25701561,13.5757288 8.70436665,13.8710622 7.87619319,14.1100795 C7.98466482,14.367769 8.04377332,14.6267808 8.12264524,14.8266378 Z M6.48627996,3.53710722 C6.48627996,2.61938721 7.27489017,1.85458822 8.22124424,1.85458822 C9.19727074,1.85458822 9.94637227,2.61940485 9.94637227,3.53710722 C9.94637227,4.48340845 9.1973071,5.21960858 8.22124424,5.21960858 C7.27489017,5.21960858 6.48627996,4.48339081 6.48627996,3.53710722 Z M4.72191598,4.56945187 L4.6823891,4.56945187 C4.98785874,5.25774627 5.33320071,5.97913567 5.62874318,6.52921403 L6.12159274,7.44695166 C6.98507493,9.05499374 8.04379151,10.8215285 8.201499,11.0509717 C8.21137163,11.0797645 8.21137163,11.089127 8.22122607,11.089127 C8.81260191,10.1237129 9.3230513,9.25241754 9.70975649,8.55599483 L10.3308048,7.43727176 L10.8138362,6.51955175 C11.1005424,5.975239 11.4447389,5.26744377 11.7503359,4.56943421 L11.7206271,4.56943421 C11.8291714,4.23485229 11.8783527,3.89080205 11.8783527,3.53708956 C11.8783527,1.58681334 10.2320967,0 8.22118969,0 C6.20046464,1.76391642e-05 4.5641721,1.58683096 4.5641721,3.5371072 C4.56420847,3.8908197 4.61340797,4.23486994 4.72191598,4.56945187 Z M4.74142485,14.5880437 C5.2912193,14.869589 5.99337585,15.1897481 6.79185869,15.3059596 C6.82154931,15.0755113 6.83684006,14.7777623 6.87071244,14.5594801 L6.92985731,14.17701 C6.71295041,14.1386608 6.4641711,14.0780072 6.20048285,13.9856869 C5.75441462,13.8296274 5.18512947,13.5651673 4.55422676,13.1349679 C4.38664663,13.3738794 4.21528473,13.5883708 4.08104972,13.7658177 L3.86407011,14.0524939 C4.14023093,14.2534617 4.4333916,14.4290397 4.74142485,14.5880437 Z M0,18 L18,18 L18,0 L11.9332512,0 L13,1.7686682 L15.9595297,1.7686682 C16.1271098,1.7686682 16.2455086,1.8736306 16.2455086,2.03621384 L16.2455086,8.9572604 C15.7229503,8.94789789 14.9147039,8.99559203 14.1260755,9.36839981 L14.2245654,9.62660057 L14.5399986,10.4198574 C15.0034121,10.2765633 15.4072807,10.1699083 15.7229321,10.1236423 L16.2454904,10.0471554 L16.2454904,16.0217773 C16.2454904,16.1848895 16.1270916,16.2889703 15.9595115,16.2889703 L2.10945141,16.2889703 C1.94187128,16.2889703 1.82367248,16.1848895 1.82367248,16.0217773 L1.82367248,12.3702041 C1.90234441,12.4466911 1.99319803,12.5303366 2.09961514,12.6186721 C2.26932252,12.7597798 2.52359268,12.9914975 2.84871667,13.25929 C3.0360966,13.0966186 3.211713,12.8845427 3.36140241,12.7334907 C3.44827426,12.6455783 3.52898254,12.5613334 3.59798183,12.4752723 C2.81920787,11.8445283 2.03057947,10.9552837 1.82367248,10.7067275 L1.82369068,2.03621384 C1.82369068,1.8832752 1.94188949,1.7686682 2.10946962,1.7686682 L3,1.7686682 L4.10066768,0 L0,0 L0,18 Z" id="Shape"></path>
                            </g>
                        </g>
                    </g>
                </g>
            </g>
        </g>
    </g>
</svg>