<?xml version="1.0" encoding="UTF-8"?>
<svg width="18px" height="18px" viewBox="0 0 18 18" version="1.1" xmlns="http://www.w3.org/2000/svg" xmlns:xlink="http://www.w3.org/1999/xlink">
    <!-- Generator: Sketch 46.2 (44496) - http://www.bohemiancoding.com/sketch -->
    <title>icon_phone_filled_grey</title>
    <desc>Created with Sketch.</desc>
    <defs></defs>
    <g id="样式整理概览" stroke="none" stroke-width="1" fill="none" fill-rule="evenodd">
        <g id="组件2-图标-弹出消息框" transform="translate(-334.000000, -540.000000)" fill="#A8C6DF">
            <g id="图标2" transform="translate(100.000000, 226.000000)">
                <g id="普通图标-18px" transform="translate(30.000000, 275.000000)">
                    <g id="灰" transform="translate(79.000000, 0.000000)">
                        <g id="Icons-Grey-/-Phone" transform="translate(125.000000, 39.000000)">
                            <path d="M13.2857143,0.00818181818 L4.71428571,0 C3.77142857,0 3,0.736363636 3,1.63636364 L3,16.3636364 C3,17.2636364 3.77142857,18 4.71428571,18 L13.2857143,18 C14.2285714,18 15,17.2636364 15,16.3636364 L15,1.63636364 C15,0.736363636 14.2285714,0.00818181818 13.2857143,0.00818181818 L13.2857143,0.00818181818 Z M4.71428571,13.7272727 L4.71428571,2.27272727 L13.2857143,2.27272727 L13.2857143,13.7272727 L4.71428571,13.7272727 Z M9,17 C8.44771525,17 8,16.5522847 8,16 C8,15.4477153 8.44771525,15 9,15 C9.55228475,15 10,15.4477153 10,16 C10,16.5522847 9.55228475,17 9,17 Z" id="Shape"></path>
                        </g>
                    </g>
                </g>
            </g>
        </g>
    </g>
</svg>