<?xml version="1.0" encoding="UTF-8"?>
<svg width="16px" height="14px" viewBox="0 0 16 14" version="1.1" xmlns="http://www.w3.org/2000/svg" xmlns:xlink="http://www.w3.org/1999/xlink">
    <!-- Generator: Sketch 46.2 (44496) - http://www.bohemiancoding.com/sketch -->
    <title>icon_dashboard_oil_mass_blue</title>
    <desc>Created with Sketch.</desc>
    <defs></defs>
    <g id="正式页面" stroke="none" stroke-width="1" fill="none" fill-rule="evenodd">
        <g id="1.8-车辆监控-结果详情-仪表盘" transform="translate(-383.000000, -537.000000)" fill-rule="nonzero" fill="#0093EE">
            <g id="弹出" transform="translate(298.000000, 89.000000)">
                <g id="Dashboard/仪表盘">
                    <g id="表" transform="translate(35.000000, 90.000000)">
                        <g id="1234" transform="translate(0.000000, 318.000000)">
                            <g id="剩余油量">
                                <g id="中" transform="translate(34.000000, 23.000000)">
                                    <g id="汽车仪表图标/油量-蓝" transform="translate(15.000000, 15.000000)">
                                        <g id="icon_dashboard_oil_mass_blue">
                                            <path d="M16.999653,5.03477791 C17.0031616,4.82990824 16.9269548,4.62392042 16.7706084,4.46757403 L15.663248,3.3602136 C15.3575147,3.05440315 14.8616787,3.05440315 14.5558876,3.3602136 C14.2500771,3.6659855 14.2500771,4.16178285 14.5558876,4.46757403 L15.4758829,5.38760796 L15.4758829,11.5258135 L14.7138148,11.5258135 L14.7138148,6.57238973 C14.7138148,6.15150756 14.3725902,5.81032156 13.9517466,5.81032156 L12.4276103,5.81032156 L12.4276103,3.14310225 C12.4276103,2.51177899 11.915812,2 11.2844695,2 L5.18800123,2 C4.55669725,2 4.04493754,2.51175972 4.04493754,3.14310225 L4.04493754,13.49626 C3.60099861,13.653204 3.28283081,14.076361 3.28283081,14.5740669 C3.28283081,15.2053516 3.79462909,15.7171692 4.42593307,15.7171692 L12.0465762,15.7171692 C12.677938,15.7171692 13.1896784,15.2053709 13.1896784,14.5740669 C13.1896784,14.0763803 12.8715878,13.6532233 12.4276488,13.4962793 L12.4276488,7.3344579 L13.1896784,7.3344579 L13.1896784,12.2878817 C13.1896784,12.7087639 13.5308837,13.0499499 13.9517852,13.0499499 L16.2379318,13.0499499 C16.658814,13.0499499 17,12.7087639 17,12.2878817 L17,5.04825339 C17,5.04374229 16.9997301,5.03926974 16.999653,5.03477791 L16.999653,5.03477791 Z M10.141425,13.4311261 L6.33108421,13.4311261 L6.33108421,13.4309261 L10.1414058,13.4309261 L10.1414058,13.4311261 L10.141425,13.4311261 Z M10.141425,7.71549198 L6.33108421,7.71549198 L6.33108421,4.2862045 L10.1414058,4.2862045 L10.1414058,7.71549198 L10.141425,7.71549198 Z M2.73611968,7.06288556 L1.11208359,8.6022517 C0.962638803,8.74396592 0.962638803,8.97368523 1.11208359,9.11538017 L2.73611968,10.6547849 C2.88560302,10.7964605 3.12793029,10.7964605 3.27737508,10.6547849 L3.27737508,7.06286629 C3.12794957,6.92119062 2.88560302,6.92119062 2.73611968,7.06288556 L2.73611968,7.06288556 Z" id="Shape"></path>
                                        </g>
                                    </g>
                                </g>
                            </g>
                        </g>
                    </g>
                </g>
            </g>
        </g>
    </g>
</svg>