<?xml version="1.0" encoding="UTF-8"?>
<svg width="14px" height="18px" viewBox="0 0 14 18" version="1.1" xmlns="http://www.w3.org/2000/svg" xmlns:xlink="http://www.w3.org/1999/xlink">
    <!-- Generator: Sketch 46.2 (44496) - http://www.bohemiancoding.com/sketch -->
    <title>icon_popup_innovate</title>
    <desc>Created with Sketch.</desc>
    <defs></defs>
    <g id="样式整理概览" stroke="none" stroke-width="1" fill="none" fill-rule="evenodd">
        <g id="组件2-图标-弹出消息框" transform="translate(-335.000000, -658.000000)" fill="#A8C6DF">
            <g id="图标2" transform="translate(100.000000, 226.000000)">
                <g id="普通图标-18px" transform="translate(30.000000, 275.000000)">
                    <g id="18" transform="translate(78.000000, 125.000000)">
                        <g id="弹出图标/icon_popup_innovate" transform="translate(125.000000, 32.000000)">
                            <g id="icon_popup_innovate">
                                <path d="M9.33333333,6.85714286 L10.3333333,3 L5,8.14285714 L8.66666667,8.14285714 L7.66666667,12 L13,6.85714286 L9.33333333,6.85714286 Z M12.9773671,12.7610317 C12.8538333,13.4650247 12.2393918,14 11.5,14 L6.5,14 C5.76060824,14 5.14616666,13.4650247 5.02263286,12.7610317 C3.1963943,11.4978207 2,9.38862677 2,7 C2,3.13400675 5.13400675,0 9,0 C12.8659932,0 16,3.13400675 16,7 C16,9.38862677 14.8036057,11.4978207 12.9773671,12.7610317 Z M6,15 L12,15 C12.5522847,15 13,15.4477153 13,16 C13,16.5877068 12.6000169,17.0999958 12.0298575,17.2425356 L9,18 L5.9701425,17.2425356 L5.9701425,17.2425356 C5.39998311,17.0999958 5,16.5877068 5,16 L5,16 L5,16 C5,15.4477153 5.44771525,15 6,15 Z" id="Combined-Shape"></path>
                            </g>
                        </g>
                    </g>
                </g>
            </g>
        </g>
    </g>
</svg>