<?xml version="1.0" encoding="UTF-8"?>
<svg width="24px" height="22px" viewBox="0 0 24 22" version="1.1" xmlns="http://www.w3.org/2000/svg" xmlns:xlink="http://www.w3.org/1999/xlink">
    <!-- Generator: Sketch 46.2 (44496) - http://www.bohemiancoding.com/sketch -->
    <title>icon_menu_left_data_mining_a</title>
    <desc>Created with Sketch.</desc>
    <defs></defs>
    <g id="正式页面" stroke="none" stroke-width="1" fill="none" fill-rule="evenodd">
        <g id="1.0-默认" transform="translate(-18.000000, -274.000000)" fill-rule="nonzero" fill="#8DABC4">
            <g id="Sidebars-/-#3">
                <g id="左侧菜单/应用市场-copy" transform="translate(0.000000, 260.000000)">
                    <g id="icon/menu/left/故障监控" transform="translate(18.000000, 13.000000)">
                        <g id="icon_menu_left_data_mining_a">
                            <path d="M1.43996275,1.33333333 C0.644671937,1.33333333 -6.08367523e-15,1.98819263 -6.08367523e-15,2.795884 L1.02175213e-15,16.8206825 C1.02175213e-15,17.628513 0.644671911,18.283261 1.43996275,18.283261 L22.5600099,18.283261 C23.3552733,18.283261 24,17.6285409 24,16.8206825 L24,2.79588397 C23.9999726,1.98822046 23.3551363,1.33333333 22.5599825,1.33333333 L1.43996275,1.33333333 Z M1.49980476,13.7091823 L1.49980476,2.85775716 L22.5003048,2.85775716 L22.5003048,13.7091823 L1.49980476,13.7091823 Z M15.0007604,18.283261 L15.0007604,21.1415469 L8.99981504,21.141547 L8.99981504,18.283261 L15.0007604,18.283261 Z M18.0000959,21.141547 L18.0000959,22.6666667 L5.99993151,22.6666667 L5.99993151,21.141547 L18.0000959,21.141547 Z M17.6623062,5.44321006 C17.6623062,5.62507213 17.6988033,5.79855639 17.7630842,5.95731692 L13.8082214,9.69631639 C13.5962535,9.55247447 13.342281,9.46786157 13.0689092,9.46786157 C12.9300724,9.46786157 12.7960306,9.49090746 12.6672223,9.53237891 L11.403525,7.91485304 C11.4979187,7.72650584 11.5534589,7.51964956 11.5534589,7.30207752 C11.5534589,6.55406053 10.9542713,5.94487548 10.2174252,5.94487548 C9.48055155,5.94487548 8.88130918,6.55406053 8.88130918,7.30207752 C8.88130918,7.37079767 8.89383107,7.43648401 8.90358555,7.50322799 L5.71379121,10.043953 C5.5068923,9.91099379 5.26418133,9.83069505 5.00135861,9.83069505 C4.26434802,9.83069505 3.66524264,10.4397409 3.66524264,11.1877579 C3.66524264,11.9362202 4.26432063,12.545294 5.00135861,12.545294 C5.73834181,12.545294 6.33725539,11.9362202 6.33725539,11.1877579 C6.33725539,11.0496218 6.31092381,10.9184718 6.27297453,10.7929441 L9.3573329,8.33633105 C9.36568995,8.34334501 9.3716632,8.35291962 9.38002028,8.35951609 C9.61651142,8.55298459 9.9140228,8.65972489 10.217891,8.65972489 C10.3945401,8.65972489 10.5662845,8.62437674 10.7247947,8.55818942 L11.9401306,10.1134524 C11.8106373,10.3249847 11.7328481,10.5670221 11.7328481,10.8250358 C11.7328481,11.5735538 12.3320357,12.1825997 13.0689093,12.1825997 C13.8053719,12.1825997 14.4049705,11.5735259 14.4049705,10.8250358 C14.4049705,10.7001204 14.3828037,10.5815789 14.3517867,10.4669061 L18.3932067,6.64660589 C18.5758564,6.7421294 18.7794947,6.80077393 18.9986415,6.80077393 C19.7352685,6.80077393 20.3347027,6.19172806 20.3347027,5.44359971 C20.3347027,4.6956384 19.7352685,4.08617502 18.9981483,4.08617502 C18.2612472,4.0860637 17.6623062,4.69497041 17.6623062,5.44321006 Z" id="Shape"></path>
                        </g>
                    </g>
                </g>
            </g>
        </g>
    </g>
</svg>