<?xml version="1.0" encoding="UTF-8"?>
<svg width="14px" height="16px" viewBox="0 0 14 16" version="1.1" xmlns="http://www.w3.org/2000/svg" xmlns:xlink="http://www.w3.org/1999/xlink">
    <!-- Generator: Sketch 46.2 (44496) - http://www.bohemiancoding.com/sketch -->
    <title>icon_dashboard_middle_door</title>
    <desc>Created with Sketch.</desc>
    <defs></defs>
    <g id="样式整理概览" stroke="none" stroke-width="1" fill="none" fill-rule="evenodd">
        <g id="组件2-图标-弹出消息框" transform="translate(-211.000000, -759.000000)" fill="#A8C6DF">
            <g id="图标2" transform="translate(100.000000, 226.000000)">
                <g id="汽车功能图标-18px" transform="translate(30.000000, 532.000000)">
                    <g id="汽车仪表图标/中门-蓝灰" transform="translate(79.000000, 0.000000)">
                        <g id="icon_dashboard_middle_door">
                            <path d="M10.5,1 L14.5,1 L14.5,1 C15.0522847,1 15.5,1.44771525 15.5,2 L15.5,16 C15.5,16.5522847 15.0522847,17 14.5,17 L10.5,17 L10.5,17 C9.94771525,17 9.5,16.5522847 9.5,16 L9.5,2 C9.5,1.44771525 9.94771525,1 10.5,1 L10.5,1 Z M10.5,3 L10.5,11 L14.5,11 L14.5,3 L10.5,3 Z M10.5,12 L10.5,13 L12.5,13 L12.5,12 L10.5,12 Z M3.5,1 L7.5,1 L7.5,1 C8.05228475,1 8.5,1.44771525 8.5,2 L8.5,16 C8.5,16.5522847 8.05228475,17 7.5,17 L3.5,17 L3.5,17 C2.94771525,17 2.5,16.5522847 2.5,16 L2.5,2 L2.5,2 C2.5,1.44771525 2.94771525,1 3.5,1 L3.5,1 Z M3.5,3 L3.5,11 L7.5,11 L7.5,3 L3.5,3 Z M5.5,12 L5.5,13 L7.5,13 L7.5,12 L5.5,12 Z" id="Combined-Shape"></path>
                        </g>
                    </g>
                </g>
            </g>
        </g>
    </g>
</svg>