<?xml version="1.0" encoding="UTF-8"?>
<svg width="26px" height="26px" viewBox="0 0 26 26" version="1.1" xmlns="http://www.w3.org/2000/svg" xmlns:xlink="http://www.w3.org/1999/xlink">
    <!-- Generator: Sketch 46.2 (44496) - http://www.bohemiancoding.com/sketch -->
    <title>icon_map_battery_charge_blue</title>
    <desc>Created with Sketch.</desc>
    <defs>
        <filter x="-27.8%" y="-27.8%" width="177.8%" height="177.8%" filterUnits="objectBoundingBox" id="filter-1">
            <feOffset dx="2" dy="2" in="SourceAlpha" result="shadowOffsetOuter1"></feOffset>
            <feGaussianBlur stdDeviation="2" in="shadowOffsetOuter1" result="shadowBlurOuter1"></feGaussianBlur>
            <feColorMatrix values="0 0 0 0 0   0 0 0 0 0   0 0 0 0 0  0 0 0 0.1 0" type="matrix" in="shadowBlurOuter1" result="shadowMatrixOuter1"></feColorMatrix>
            <feMerge>
                <feMergeNode in="shadowMatrixOuter1"></feMergeNode>
                <feMergeNode in="SourceGraphic"></feMergeNode>
            </feMerge>
        </filter>
        <circle id="path-2" cx="9" cy="9" r="9"></circle>
    </defs>
    <g id="正式页面" stroke="none" stroke-width="1" fill="none" fill-rule="evenodd">
        <g id="2.0-充电机监控-默认" transform="translate(-799.000000, -711.000000)">
            <g id="Map/default" transform="translate(0.000000, 20.000000)">
                <g id="地图车辆" transform="translate(468.000000, 109.000000)">
                    <g id="在线" filter="url(#filter-1)" transform="translate(333.000000, 584.000000)">
                        <g id="icon_map_battery_charge_blue">
                            <g id="Oval-5">
                                <use fill="#0093EE" fill-rule="evenodd" xlink:href="#path-2"></use>
                                <circle stroke="#FFFFFF" stroke-width="1" cx="9" cy="9" r="8.5"></circle>
                            </g>
                            <path d="M11.3333333,13.0402949 L11.3333333,8.41546639 L11.6803841,8.41546639 C11.8689986,8.41546639 12.0274348,8.55881344 12.0274348,8.73233882 L12.0274348,11.6747257 C12.0274348,12.4291838 12.691358,13.0402949 13.5137174,13.0402949 C14.3360768,13.0402949 15,12.4291838 15,11.6747257 L15,6.01628944 C15,5.72205075 14.8641975,5.45044582 14.6529492,5.26183128 L13.4382716,4.15277778 C13.2194787,3.94907407 12.8648834,3.94907407 12.6460905,4.15277778 C12.4272977,4.35648148 12.4272977,4.68089849 12.6460905,4.88460219 L13.430727,5.60888203 L12.8497942,6.16718107 C12.6611797,6.34825103 12.6611797,6.63494513 12.8497942,6.81601509 C12.9403292,6.90655007 13.0685871,6.95181756 13.196845,6.95181756 L13.8532236,6.95181756 L13.8532236,11.6822702 C13.8532236,11.8557956 13.702332,11.9991427 13.5061728,11.9991427 C13.3175583,11.9991427 13.1591221,11.8557956 13.1591221,11.6822702 L13.1591221,8.7398834 C13.1591221,7.98542524 12.4951989,7.37431413 11.6728395,7.37431413 L11.3333333,7.37431413 L11.3333333,4.85442387 C11.3333333,4.38665981 10.9259259,4.01697531 10.4128944,4.01697531 L5.60699588,4.01697531 C5.10150892,4.01697531 4.68655693,4.39420439 4.68655693,4.85442387 L4.68655693,13.0402949 L4.5733882,13.0402949 C4.25651578,13.0402949 4,13.274177 4,13.5684156 C4,13.8626543 4.25651578,14.0965364 4.5733882,14.0965364 L11.4465021,14.0965364 C11.7633745,14.0965364 12.0198903,13.8626543 12.0198903,13.5684156 C12.0198903,13.274177 11.7633745,13.0402949 11.4465021,13.0402949 L11.3333333,13.0402949 L11.3333333,13.0402949 Z M6.3388203,5.05812757 L9.68106996,5.05812757 C9.96021948,5.05812757 10.1865569,5.26183128 10.1865569,5.51834705 L10.1865569,7.74399863 C10.1865569,8.0005144 9.96021948,8.20421811 9.68106996,8.20421811 L6.3388203,8.20421811 C6.05967078,8.20421811 5.83333333,8.0005144 5.83333333,7.74399863 L5.83333333,5.51834705 C5.83333333,5.26183128 6.05967078,5.05812757 6.3388203,5.05812757 Z" id="icon" fill="#FFFFFF" fill-rule="nonzero"></path>
                        </g>
                    </g>
                </g>
            </g>
        </g>
    </g>
</svg>