<?xml version="1.0" encoding="UTF-8"?>
<svg width="18px" height="18px" viewBox="0 0 18 18" version="1.1" xmlns="http://www.w3.org/2000/svg" xmlns:xlink="http://www.w3.org/1999/xlink">
    <!-- Generator: Sketch 46.2 (44496) - http://www.bohemiancoding.com/sketch -->
    <title>icon_zoom_filled_grey</title>
    <desc>Created with Sketch.</desc>
    <defs></defs>
    <g id="样式整理概览" stroke="none" stroke-width="1" fill="none" fill-rule="evenodd">
        <g id="组件2-图标-弹出消息框" transform="translate(-873.000000, -540.000000)" fill="#A8C6DF">
            <g id="图标2" transform="translate(100.000000, 226.000000)">
                <g id="普通图标-18px" transform="translate(30.000000, 275.000000)">
                    <g id="灰" transform="translate(79.000000, 0.000000)">
                        <g id="Icons-Grey-/-Zoom-Icon" transform="translate(664.000000, 39.000000)">
                            <path d="M12.864494,11.3207547 L12.864494,11.3207547 L18,16.4665523 L16.4665523,18 L11.3207547,12.864494 L11.3207547,12.051458 L11.0428816,11.7632933 C9.86963979,12.7718696 8.3464837,13.3790738 6.68953688,13.3790738 C2.9948542,13.3790738 0,10.3842196 0,6.68953688 C0,2.9948542 2.9948542,0 6.68953688,0 C10.3842196,0 13.3790738,2.9948542 13.3790738,6.68953688 C13.3790738,8.3464837 12.7718696,9.86963979 11.7632933,11.0428816 L12.051458,11.3207547 L12.864494,11.3207547 Z M6.68953688,11.3207547 C9.25214408,11.3207547 11.3207547,9.25214408 11.3207547,6.68953688 C11.3207547,4.12692967 9.25214408,2.05831904 6.68953688,2.05831904 C4.12692967,2.05831904 2.05831904,4.12692967 2.05831904,6.68953688 C2.05831904,9.25214408 4.12692967,11.3207547 6.68953688,11.3207547 Z M9.26243568,7.20411664 L7.20411664,7.20411664 L7.20411664,9.26243568 L6.17495712,9.26243568 L6.17495712,7.20411664 L4.11663808,7.20411664 L4.11663808,6.17495712 L6.17495712,6.17495712 L6.17495712,4.11663808 L7.20411664,4.11663808 L7.20411664,6.17495712 L9.26243568,6.17495712 L9.26243568,7.20411664 L9.26243568,7.20411664 Z" id="Icon"></path>
                        </g>
                    </g>
                </g>
            </g>
        </g>
    </g>
</svg>