<?xml version="1.0" encoding="UTF-8"?>
<svg width="14px" height="14px" viewBox="0 0 14 14" version="1.1" xmlns="http://www.w3.org/2000/svg" xmlns:xlink="http://www.w3.org/1999/xlink">
    <!-- Generator: Sketch 46.2 (44496) - http://www.bohemiancoding.com/sketch -->
    <title>icon_list_search_gray 14px</title>
    <desc>Created with Sketch.</desc>
    <defs></defs>
    <g id="正式页面" stroke="none" stroke-width="1" fill="none" fill-rule="evenodd">
        <g id="1.9-车辆监控-输入精确搜索" transform="translate(-416.000000, -271.000000)" fill="#A8C6DF">
            <g id="左侧菜单/地图监控/车辆-筛选展开1" transform="translate(80.000000, 178.000000)">
                <g id="Group">
                    <g id="左侧菜单/充电机监控/充电桩筛选/默认列表" transform="translate(0.000000, 74.000000)">
                        <g id="2" transform="translate(336.000000, 19.000000)">
                            <g id="弹出图标/icon_popup_delete-14px">
                                <g id="icon_list_search_gray-14px">
                                    <path d="M10.8477262,8.90002637 L13.6572146,11.7095148 L13.6572146,11.7095148 C14.1142618,12.166562 14.1142618,12.9075819 13.6572146,13.364629 C13.2001675,13.8216762 12.4591476,13.8216762 12.0021005,13.364629 L9.25209005,10.6146186 C8.29371581,11.300053 7.11982029,11.7034246 5.85171229,11.7034246 C2.61990083,11.7034246 0,9.08352375 0,5.85171229 C0,2.61990083 2.61990083,0 5.85171229,0 C9.08352375,0 11.7034246,2.61990083 11.7034246,5.85171229 C11.7034246,6.96850763 11.3905718,8.01223228 10.8477262,8.90002637 Z M5.85171229,9.9479109 C8.11398031,9.9479109 9.9479109,8.11398031 9.9479109,5.85171229 C9.9479109,3.58944427 8.11398031,1.75551369 5.85171229,1.75551369 C3.58944427,1.75551369 1.75551369,3.58944427 1.75551369,5.85171229 C1.75551369,8.11398031 3.58944427,9.9479109 5.85171229,9.9479109 Z" id="Combined-Shape"></path>
                                </g>
                            </g>
                        </g>
                    </g>
                </g>
            </g>
        </g>
    </g>
</svg>