<?xml version="1.0" encoding="UTF-8"?>
<svg width="18px" height="18px" viewBox="0 0 18 18" version="1.1" xmlns="http://www.w3.org/2000/svg" xmlns:xlink="http://www.w3.org/1999/xlink">
    <!-- Generator: Sketch 46.2 (44496) - http://www.bohemiancoding.com/sketch -->
    <title>icon_team_filled_grey</title>
    <desc>Created with Sketch.</desc>
    <defs></defs>
    <g id="样式整理概览" stroke="none" stroke-width="1" fill="none" fill-rule="evenodd">
        <g id="组件2-图标-弹出消息框" transform="translate(-707.000000, -540.000000)" fill="#A8C6DF">
            <g id="图标2" transform="translate(100.000000, 226.000000)">
                <g id="普通图标-18px" transform="translate(30.000000, 275.000000)">
                    <g id="灰" transform="translate(79.000000, 0.000000)">
                        <g id="Icons-Grey-/-Team" transform="translate(498.000000, 39.000000)">
                            <path d="M12.9545455,8.14285714 C14.3881818,8.14285714 15.5368182,6.99428571 15.5368182,5.57142857 C15.5368182,4.14857143 14.3881818,3 12.9545455,3 C11.5209091,3 10.3636364,4.14857143 10.3636364,5.57142857 C10.3636364,6.99428571 11.5209091,8.14285714 12.9545455,8.14285714 L12.9545455,8.14285714 Z M5.59090909,8.14285714 C7.02454545,8.14285714 8.17318182,6.99428571 8.17318182,5.57142857 C8.17318182,4.14857143 7.02454545,3 5.59090909,3 C4.15727273,3 3,4.14857143 3,5.57142857 C3,6.99428571 4.15727273,8.14285714 5.59090909,8.14285714 L5.59090909,8.14285714 Z M5.5,9.85714286 C3.66928571,9.85714286 0,10.86 0,12.8571429 L0,15 L11,15 L11,12.8571429 C11,10.86 7.33071429,9.85714286 5.5,9.85714286 L5.5,9.85714286 Z M11.8377273,9.85714286 C11.5872727,9.85714286 11.3022727,9.87428571 11,9.9 C12.0018182,10.62 12.7013636,11.5885714 12.7013636,12.8571429 L12.7013636,15 L17.8831818,15 L17.8831818,12.8571429 C17.8831818,10.86 13.85,9.85714286 11.8377273,9.85714286 L11.8377273,9.85714286 Z" id="Icon"></path>
                        </g>
                    </g>
                </g>
            </g>
        </g>
    </g>
</svg>