<?xml version="1.0" encoding="UTF-8"?>
<svg width="16px" height="14px" viewBox="0 0 16 14" version="1.1" xmlns="http://www.w3.org/2000/svg" xmlns:xlink="http://www.w3.org/1999/xlink">
    <!-- Generator: Sketch 46.2 (44496) - http://www.bohemiancoding.com/sketch -->
    <title>icon_dashboard_rear_foglight</title>
    <desc>Created with Sketch.</desc>
    <defs></defs>
    <g id="正式页面" stroke="none" stroke-width="1" fill="none" fill-rule="evenodd">
        <g id="1.8-车辆监控-结果详情-仪表盘" transform="translate(-898.000000, -196.000000)" fill-rule="nonzero" fill="#A8C6DF">
            <g id="弹出" transform="translate(298.000000, 89.000000)">
                <g id="Dashboard/仪表盘">
                    <g id="表" transform="translate(35.000000, 90.000000)">
                        <g id="上" transform="translate(121.000000, 0.000000)">
                            <g id="车门" transform="translate(428.000000, 0.000000)">
                                <g id="汽车仪表图标/引擎-蓝灰" transform="translate(15.000000, 15.000000)">
                                    <g id="icon_dashboard_rear_foglight" transform="translate(9.000000, 9.000000) scale(-1, 1) translate(-9.000000, -9.000000) ">
                                        <path d="M11.3870939,3.1147458 C10.5730685,3.01479606 9.77797313,3.07810513 9.02859568,3.26974436 C9.02702983,3.27015441 9.00759256,3.2755979 9.00759256,3.2755979 C8.50681999,3.41450659 8.136901,3.88037343 8.1341731,4.43459516 L8.08485867,14.4613683 C8.08206126,15.0308725 8.46868203,15.5148272 8.98924641,15.6403943 L9.00660694,15.6445854 C9.28035459,15.7160655 9.54083781,15.7662931 9.829349,15.8017178 C13.3327702,16.2318838 16.5215438,13.7405063 16.9517051,10.2371234 C17.3818735,6.73368306 14.8905342,3.54491418 11.3870939,3.1147458 Z M10.4500147,13.4495499 L10.4893395,5.46584396 C10.6916483,5.45960288 10.8941381,5.46886979 11.0950312,5.49356334 C13.2846766,5.76241799 14.8417637,7.75539854 14.572909,9.94504395 C14.3175607,12.024531 12.5071021,13.5333444 10.4500147,13.4495499 L10.4500147,13.4495499 Z M1.87719936,6.02222763 L5.89331034,6.09442346 C6.3359434,6.11001012 6.70714079,5.76522943 6.72236986,5.32424282 C6.73763251,4.8832992 6.39114629,4.51317474 5.94847964,4.4975451 L1.93240695,4.42535397 C1.4897356,4.40976261 1.11857649,4.754548 1.10329,5.19552756 C1.08804179,5.63651181 1.43452801,6.00663627 1.87719936,6.02222763 Z M1.8771802,8.79750883 L5.49678689,8.82102005 C5.93949181,8.83665439 6.31065563,8.49183072 6.32590383,8.05084646 C6.34117118,7.60986456 5.99468026,7.23977838 5.55201361,7.22414873 L1.93240693,7.20063752 C1.48973558,7.18504615 1.11857177,7.52986983 1.10328998,7.9708111 C1.08802498,8.41177387 1.43450885,8.78191747 1.8771802,8.79750883 L1.8771802,8.79750883 Z M5.49678623,11.5962989 C5.93949115,11.6119332 6.31065497,11.2671096 6.32590317,10.8261253 C6.34116582,10.3851817 5.9946796,10.0150572 5.55201295,9.99942758 L1.93240627,9.97591636 C1.48973962,9.96028672 1.11857581,10.3051104 1.10328932,10.7460899 C1.08802197,11.1870719 1.43451289,11.557158 1.87717954,11.5727877 L5.49678623,11.5962989 Z M3.97039239,14.483036 L5.89326091,14.5176007 C6.33594904,14.5332135 6.70714879,14.1884137 6.72237785,13.7474271 C6.73760222,13.3064787 6.39115428,12.936359 5.94848763,12.9207293 L4.25124874,12.8902205 L6.06800079,2.58690769 C6.11595241,2.31496054 5.93436815,2.05563134 5.662421,2.00767972 L5.662421,2.00767972 L5.662421,2.00767972 C5.39047385,1.9597281 5.13114465,2.14131236 5.08319303,2.41325951 L5.08319303,2.41325951 L3.23903043,12.8720254 L1.93241494,12.8485382 C1.48978187,12.8329516 1.11852706,13.1777252 1.10329799,13.6187118 C1.08806892,14.0596984 1.43451686,14.4298182 1.87718821,14.4454095 L2.95817408,14.4648409 L2.82576672,15.2157603 C2.7778151,15.4877075 2.95939936,15.7470366 3.23134651,15.7949883 C3.50329366,15.8429399 3.76262286,15.6613556 3.81057448,15.3894085 L3.97039239,14.483036 Z" id="Combined-Shape"></path>
                                    </g>
                                </g>
                            </g>
                        </g>
                    </g>
                </g>
            </g>
        </g>
    </g>
</svg>