<?xml version="1.0" encoding="UTF-8"?>
<svg width="14px" height="14px" viewBox="0 0 14 14" version="1.1" xmlns="http://www.w3.org/2000/svg" xmlns:xlink="http://www.w3.org/1999/xlink">
    <!-- Generator: Sketch 46.2 (44496) - http://www.bohemiancoding.com/sketch -->
    <title>icon_document_excle2</title>
    <desc>Created with Sketch.</desc>
    <defs></defs>
    <g id="样式整理概览" stroke="none" stroke-width="1" fill="none" fill-rule="evenodd">
        <g id="组件2-图标-弹出消息框" transform="translate(-249.000000, -960.000000)" fill-rule="nonzero" fill="#A8C6DF">
            <g id="图标2" transform="translate(100.000000, 226.000000)">
                <g id="文档图标-18px" transform="translate(30.000000, 734.000000)">
                    <g id="文件类型/Excle2/灰" transform="translate(119.000000, 0.000000)">
                        <g id="icon_document_excle2">
                            <path d="M8.43183724,1.66666298 L8.43183724,2.49998742 L10.3408032,2.49998742 L10.3408032,4.00003624 L8.43183724,4.00003624 L8.43183724,4.33327863 L10.3408032,4.33327863 L10.3408032,5.83332746 L8.43183724,5.83332746 L8.43183724,6.16656985 L10.3408032,6.16656985 L10.3408032,7.83323282 L8.43183724,7.83323282 L8.43183724,8.16647521 L10.3408032,8.16647521 L10.3408032,9.66652404 L8.43183724,9.66652404 L8.43183724,9.99976643 L10.3408032,9.99976643 L10.3408032,11.499773 L8.43183724,11.499773 L8.43183724,12.3330974 L14,12.3330974 L14,1.66666298 L8.43183724,1.66666298 L8.43183724,1.66666298 Z M12.8863308,11.499773 L10.6589783,11.499773 L10.6589783,9.99973824 L12.8863308,9.99973824 L12.8863308,11.499773 Z M12.8863308,9.66649585 L10.6589783,9.66649585 L10.6589783,8.16644702 L12.8863308,8.16644702 L12.8863308,9.66649585 Z M12.8863308,7.83321873 L10.6589783,7.83321873 L10.6589783,6.16655575 L12.8863308,6.16655575 L12.8863308,7.83321873 Z M12.8863308,5.83331337 L10.6589783,5.83331337 L10.6589783,4.33327863 L12.8863308,4.33327863 L12.8863308,5.83331337 Z M12.8863308,3.99979663 L10.6589783,3.99979663 L10.6589783,2.4997478 L12.8863308,2.4997478 L12.8863308,3.99979663 Z M0,12.4999653 L8.11367625,14.0000141 L8.11367625,0 L0,1.50004883 L0,12.4999653 L0,12.4999653 Z M1.94215914,4.53068983 L3.38416575,4.53068983 L4.13406331,6.06892136 L4.86365032,4.53068983 L6.29119571,4.53068983 L4.97249005,6.95214125 L6.41539873,9.53042505 L4.94448376,9.53042505 L4.10787525,7.92415812 L3.27125263,9.53042505 L1.80938651,9.53042505 L3.27057608,6.92468465 C3.27057608,6.92468465 1.94215914,4.53068983 1.94215914,4.53068983 Z" id="Shape"></path>
                        </g>
                    </g>
                </g>
            </g>
        </g>
    </g>
</svg>