<?xml version="1.0" encoding="UTF-8"?>
<svg width="18px" height="18px" viewBox="0 0 18 18" version="1.1" xmlns="http://www.w3.org/2000/svg" xmlns:xlink="http://www.w3.org/1999/xlink">
    <!-- Generator: Sketch 46.2 (44496) - http://www.bohemiancoding.com/sketch -->
    <title>icon_button_more_grey</title>
    <desc>Created with Sketch.</desc>
    <defs></defs>
    <g id="样式整理概览" stroke="none" stroke-width="1" fill="none" fill-rule="evenodd">
        <g id="组件2-图标-弹出消息框" transform="translate(-679.000000, -1053.000000)" fill="#A8C6DF">
            <g id="图标2" transform="translate(100.000000, 226.000000)">
                <g id="其他图标" transform="translate(30.000000, 798.000000)">
                    <g id="12-18" transform="translate(82.000000, 29.000000)">
                        <g id="Buttons-/-More-Grey" transform="translate(467.000000, 0.000000)">
                            <path d="M7,16 C7,17.1 7.9,18 9,18 C10.1,18 11,17.1 11,16 C11,14.9 10.1,14 9,14 C7.9,14 7,14.9 7,16 Z M7,9 C7,10.1 7.9,11 9,11 C10.1,11 11,10.1 11,9 C11,7.9 10.1,7 9,7 C7.9,7 7,7.9 7,9 Z M9,4 C10.1,4 11,3.1 11,2 C11,0.9 10.1,0 9,0 C7.9,0 7,0.9 7,2 C7,3.1 7.9,4 9,4" id="More-Button"></path>
                        </g>
                    </g>
                </g>
            </g>
        </g>
    </g>
</svg>