<?xml version="1.0" encoding="UTF-8"?>
<svg width="15px" height="14px" viewBox="0 0 15 14" version="1.1" xmlns="http://www.w3.org/2000/svg" xmlns:xlink="http://www.w3.org/1999/xlink">
    <!-- Generator: Sketch 46.2 (44496) - http://www.bohemiancoding.com/sketch -->
    <title>icon_lists_filled_blue</title>
    <desc>Created with Sketch.</desc>
    <defs></defs>
    <g id="正式页面" stroke="none" stroke-width="1" fill="none" fill-rule="evenodd">
        <g id="2.31-充电机监控-组织筛选-最后车辆" transform="translate(-413.000000, -310.000000)" fill="#0093EE">
            <g id="左侧菜单/地图监控/搜索展开" transform="translate(80.000000, 178.000000)">
                <g id="树状筛选">
                    <g id="Filter/Cascader/Level1-Choice" transform="translate(0.000000, 91.000000)">
                        <g id="右" transform="translate(185.000000, 0.000000)">
                            <g id="Group">
                                <g id="Filter/Date/Hour-List/上圆角-Copy" transform="translate(0.000000, 32.000000)">
                                    <g id="Group" transform="translate(16.000000, 7.000000)">
                                        <g id="Icons-Grey-/-Lists" transform="translate(132.430657, 2.000000)">
                                            <path d="M3.75925926,5.80740742 L10.2407407,5.80740742 L10.2407407,4.51111112 L3.75925926,4.51111112 L3.75925926,5.80740742 Z M3.75925926,8.40000001 L10.2407407,8.40000001 L10.2407407,7.10370371 L3.75925926,7.10370371 L3.75925926,8.40000001 Z M3.75925926,10.9925926 L8.2962963,10.9925926 L8.2962963,9.69629631 L3.75925926,9.69629631 L3.75925926,10.9925926 Z M7,1.91851853 C7.35648148,1.91851853 7.64814815,2.21018519 7.64814815,2.56666668 C7.64814815,2.92314816 7.35648148,3.21481482 7,3.21481482 C6.64351852,3.21481482 6.35185185,2.92314816 6.35185185,2.56666668 C6.35185185,2.21018519 6.64351852,1.91851853 7,1.91851853 L7,1.91851853 Z M11.537037,1.91851853 L8.82777778,1.91851853 C8.55555556,1.16666668 7.84259259,0.622222231 7,0.622222231 C6.15740741,0.622222231 5.44444444,1.16666668 5.17222222,1.91851853 L2.46296296,1.91851853 C1.75,1.91851853 1.16666667,2.50185186 1.16666667,3.21481482 L1.16666667,12.2888889 C1.16666667,13.0018519 1.75,13.5851852 2.46296296,13.5851852 L11.537037,13.5851852 C12.25,13.5851852 12.8333333,13.0018519 12.8333333,12.2888889 L12.8333333,3.21481482 C12.8333333,2.50185186 12.25,1.91851853 11.537037,1.91851853 L11.537037,1.91851853 Z" id="Icon"></path>
                                        </g>
                                    </g>
                                </g>
                            </g>
                        </g>
                    </g>
                </g>
            </g>
        </g>
    </g>
</svg>