<?xml version="1.0" encoding="UTF-8"?>
<svg width="18px" height="13px" viewBox="0 0 18 13" version="1.1" xmlns="http://www.w3.org/2000/svg" xmlns:xlink="http://www.w3.org/1999/xlink">
    <!-- Generator: Sketch 46.2 (44496) - http://www.bohemiancoding.com/sketch -->
    <title>icon_dashboard_left _brake</title>
    <desc>Created with Sketch.</desc>
    <defs></defs>
    <g id="样式整理概览" stroke="none" stroke-width="1" fill="none" fill-rule="evenodd">
        <g id="组件2-图标-弹出消息框" transform="translate(-376.000000, -760.000000)" fill-rule="nonzero" fill="#A8C6DF">
            <g id="图标2" transform="translate(100.000000, 226.000000)">
                <g id="汽车功能图标-18px" transform="translate(30.000000, 532.000000)">
                    <g id="汽车仪表图标/左刹车蹄片-蓝灰" transform="translate(246.000000, 0.000000)">
                        <g id="icon_dashboard_left-_brake">
                            <path d="M9,10 L10.5,10 C10.7761424,10 11,10.2238576 11,10.5 C11,10.7761424 10.7761424,11 10.5,11 L8.5,11 C8.36192881,11 8.23692881,10.9440356 8.14644661,10.8535534 C8.05596441,10.7630712 8,10.6380712 8,10.5 L8,6.5 C8,6.22385763 8.22385763,6 8.5,6 C8.77614237,6 9,6.22385763 9,6.5 L9,10 Z M17.9251902,6.7972878 C17.9251902,7.02466341 17.8298537,7.22963902 17.6772098,7.3748878 L17.6774244,7.37510244 C17.3173268,7.73570732 17.0946146,8.23348293 17.0946146,8.78337561 C17.0946146,9.32154146 17.3080585,9.80971707 17.6547122,10.1683317 C17.8067512,10.3135024 17.9016195,10.5180293 17.9016195,10.7448585 C17.9016195,11.1852098 17.5446634,11.5421463 17.1043707,11.5421463 C16.8903024,11.5421463 16.6960976,11.4576195 16.552878,11.3203317 L16.5519415,11.3212683 C15.9020683,10.671922 15.5,9.77461463 15.5,8.7833561 C15.5,7.79313171 15.9011902,6.89668293 16.5498146,6.24753171 L16.550322,6.24803902 C16.6955707,6.09533659 16.9005463,6 17.1279415,6 C17.5682537,6 17.9251902,6.3569561 17.9251902,6.7972878 Z M0,6.7972878 C0,6.3569561 0.356936585,6 0.79724878,6 C1.0246439,6 1.22961951,6.09533659 1.37486829,6.24803902 L1.37537561,6.24753171 C2.024,6.89668293 2.42519024,7.79313171 2.42519024,8.7833561 C2.42519024,9.77461463 2.02312195,10.671922 1.37324878,11.3212683 L1.3723122,11.3203317 C1.22909268,11.4576195 1.0348878,11.5421463 0.820819512,11.5421463 C0.380526829,11.5421463 0.0235707317,11.1852098 0.0235707317,10.7448585 C0.0235707317,10.5180293 0.118439024,10.3135024 0.270478049,10.1683317 C0.617131707,9.80971707 0.83057561,9.32154146 0.83057561,8.78337561 C0.83057561,8.23348293 0.607863415,7.73570732 0.247765854,7.37510244 L0.247980488,7.3748878 C0.0953365854,7.22963902 0,7.02466341 0,6.7972878 Z M8.99997831,2.6405215 C12.3137154,2.6405215 15,5.32682061 15,8.64052873 C15,11.9542369 12.3137009,14.640536 8.99996385,14.640536 C5.68629911,14.640536 3,11.9542369 3,8.64052873 C3,5.32682061 5.68629911,2.6405215 8.99997831,2.6405215 Z M8.99993895,12.6403994 C11.2091092,12.6403994 13,10.8495086 13,8.64046045 C13,6.43129017 11.2091092,4.6405215 8.99993895,4.6405215 C6.79089077,4.6405215 5,6.43129017 5,8.64046045 C5,10.8495086 6.79089077,12.6403994 8.99993895,12.6403994 Z" id="Combined-Shape"></path>
                        </g>
                    </g>
                </g>
            </g>
        </g>
    </g>
</svg>