<?xml version="1.0" encoding="UTF-8"?>
<svg width="18px" height="18px" viewBox="0 0 18 18" version="1.1" xmlns="http://www.w3.org/2000/svg" xmlns:xlink="http://www.w3.org/1999/xlink">
    <!-- Generator: Sketch 46.2 (44496) - http://www.bohemiancoding.com/sketch -->
    <title>icon_help_filled_grey</title>
    <desc>Created with Sketch.</desc>
    <defs></defs>
    <g id="样式整理概览" stroke="none" stroke-width="1" fill="none" fill-rule="evenodd">
        <g id="组件2-图标-弹出消息框" transform="translate(-209.000000, -578.000000)" fill="#A8C6DF">
            <g id="图标2" transform="translate(100.000000, 226.000000)">
                <g id="普通图标-18px" transform="translate(30.000000, 275.000000)">
                    <g id="灰" transform="translate(79.000000, 0.000000)">
                        <g id="Icons-Grey-/-Help" transform="translate(0.000000, 77.000000)">
                            <path d="M14.8333333,0 L3.16666667,0 C2.24166667,0 1.5,0.741758242 1.5,1.64835165 L1.5,13.1868132 C1.5,14.0934066 2.24166667,14.8351648 3.16666667,14.8351648 L6.5,14.8351648 L9,17.3076923 L11.5,14.8351648 L14.8333333,14.8351648 C15.75,14.8351648 16.5,14.0934066 16.5,13.1868132 L16.5,1.64835165 C16.5,0.741758242 15.75,0 14.8333333,0 L14.8333333,0 Z M9.83333333,13.1868132 L8.16666667,13.1868132 L8.16666667,11.5384615 L9.83333333,11.5384615 L9.83333333,13.1868132 L9.83333333,13.1868132 Z M11.5583333,6.79945055 L10.8083333,7.55769231 C10.2083333,8.15934066 9.83333333,8.65384615 9.83333333,9.89010989 L8.16666667,9.89010989 L8.16666667,9.47802198 C8.16666667,8.57142857 8.54166667,7.74725275 9.14166667,7.1456044 L10.175,6.10714286 C10.4833333,5.81043956 10.6666667,5.39835165 10.6666667,4.94505495 C10.6666667,4.03846154 9.91666667,3.2967033 9,3.2967033 C8.08333333,3.2967033 7.33333333,4.03846154 7.33333333,4.94505495 L5.66666667,4.94505495 C5.66666667,3.12362637 7.15833333,1.64835165 9,1.64835165 C10.8416667,1.64835165 12.3333333,3.12362637 12.3333333,4.94505495 C12.3333333,5.67032967 12.0333333,6.32967033 11.5583333,6.79945055 L11.5583333,6.79945055 Z" id="Icon"></path>
                        </g>
                    </g>
                </g>
            </g>
        </g>
    </g>
</svg>