<?xml version="1.0" encoding="UTF-8"?>
<svg width="16px" height="15px" viewBox="0 0 16 15" version="1.1" xmlns="http://www.w3.org/2000/svg" xmlns:xlink="http://www.w3.org/1999/xlink">
    <!-- Generator: Sketch 46.2 (44496) - http://www.bohemiancoding.com/sketch -->
    <title>icon_dashboard_start_stop_system</title>
    <desc>Created with Sketch.</desc>
    <defs></defs>
    <g id="样式整理概览" stroke="none" stroke-width="1" fill="none" fill-rule="evenodd">
        <g id="组件2-图标-弹出消息框" transform="translate(-874.000000, -760.000000)" fill="#A8C6DF">
            <g id="图标2" transform="translate(100.000000, 226.000000)">
                <g id="汽车功能图标-18px" transform="translate(30.000000, 532.000000)">
                    <g id="汽车仪表图标/启停-蓝灰" transform="translate(743.000000, 0.000000)">
                        <g id="icon_dashboard_start_stop_system">
                            <path d="M16.939339,4.36099397 C17.1190253,3.6855006 16.7210519,2.99124729 16.0504801,2.81024849 L13.3102919,2.07069723 C13.282969,2.06128248 13.2553343,2.0527983 13.2274355,2.04525935 C13.1225731,2.01730647 13.0145684,2.00286866 12.9060458,2.00229674 C12.5413655,1.99791556 12.1960048,2.15502051 11.9571242,2.42227262 C11.9510639,2.42900844 11.9449071,2.43560917 11.9389819,2.4424801 C11.9378239,2.44383112 11.9367431,2.44524005 11.9356043,2.44659107 C11.8149346,2.58783499 11.7273045,2.75422665 11.6791025,2.93363571 L10.9156381,5.76503739 C10.7349288,6.43522316 11.1351604,7.12405308 11.809573,7.30366224 C12.4839469,7.48323281 13.1771387,7.08552955 13.357848,6.41534379 L13.4790929,5.96566466 C13.9133124,6.73729312 14.1615151,7.62740651 14.1615151,8.5760193 C14.1615151,11.5247672 11.7710495,13.9151942 8.82234017,13.9151942 C5.87355368,13.9151942 3.48316526,11.5247672 3.48316526,8.5760193 C3.48316526,7.10162606 4.08074306,5.76687093 5.04697708,4.80065621 L3.30448251,3.05820024 C1.89237153,4.47031122 1.01891435,6.4211532 1.01891435,8.5760193 C1.01891435,12.8857129 4.51262726,16.3794258 8.82235947,16.3794258 C13.1320531,16.3794258 16.6257274,12.8857129 16.6257274,8.5760193 C16.6257274,7.40035706 16.3644198,6.28661037 15.897737,5.28777805 C16.3830253,5.21980217 16.8045452,4.86764777 16.939339,4.36099397 Z M6.07319662,12.224772 C6.4986538,12.3757008 6.96697708,12.1676043 7.11931484,11.7599807 L7.54176116,10.6295585 L10.1029771,10.6295585 L10.5254234,11.7599807 C10.6777226,12.1676043 11.1460844,12.3757201 11.5715416,12.224772 C11.9969602,12.0738818 12.2183546,11.6210374 12.0659976,11.2134138 L9.63654524,4.71247286 C9.58605549,4.44425573 9.39270446,4.20707358 9.10729071,4.10580458 C9.06485382,4.09079824 9.02129937,4.07916264 8.97703257,4.07100603 L8.97581665,4.07079373 C8.96359362,4.06852848 8.95132203,4.06653362 8.93901086,4.06481062 C8.93692642,4.06452111 8.93484198,4.06430881 8.93275754,4.0640386 C8.92199258,4.06259705 8.91120183,4.06135518 8.90039083,4.06031363 C8.89662726,4.05996622 8.89282509,4.05977322 8.88906152,4.05946441 C8.87987332,4.05868418 8.87067204,4.05806647 8.861462,4.05761158 C8.8558842,4.05734138 8.85026779,4.05730277 8.84467069,4.05714837 C8.83722075,4.05695537 8.82977081,4.05668516 8.82235947,4.05670446 C8.81492883,4.05670446 8.80749819,4.05695537 8.80004825,4.05714837 C8.79445115,4.05730277 8.78883474,4.05734138 8.78325694,4.05761158 C8.77408926,4.05803619 8.76492159,4.0587503 8.75573462,4.05946441 C8.75193245,4.05977322 8.74811098,4.05996622 8.74430881,4.06031363 C8.7335971,4.06129795 8.7228854,4.06261037 8.7121544,4.064 C8.70999276,4.06428951 8.70781182,4.06450181 8.70566948,4.06481062 C8.69351025,4.06648975 8.68135103,4.06851628 8.6692111,4.07073583 L8.66760917,4.07100603 C8.6233828,4.07916539 8.57986754,4.09079441 8.53746683,4.10578528 C8.25207238,4.20703498 8.05872135,4.44417853 8.0082123,4.71235706 L5.57870205,11.2133945 C5.42636429,11.6210181 5.64773945,12.0738625 6.07319662,12.224772 Z M8.82234017,7.20275995 L9.48901327,8.9867117 L8.15566707,8.9867117 L8.82234017,7.20275995 L8.82234017,7.20275995 Z" id="Shape" fill-rule="nonzero"></path>
                            <circle id="Oval" cx="4.12500012" cy="3.98500001" r="1.22500002"></circle>
                        </g>
                    </g>
                </g>
            </g>
        </g>
    </g>
</svg>