<?xml version="1.0" encoding="UTF-8"?>
<svg width="14px" height="14px" viewBox="0 0 14 14" version="1.1" xmlns="http://www.w3.org/2000/svg" xmlns:xlink="http://www.w3.org/1999/xlink">
    <!-- Generator: Sketch 46.2 (44496) - http://www.bohemiancoding.com/sketch -->
    <title>icon_popup_transfer 14px</title>
    <desc>Created with Sketch.</desc>
    <defs></defs>
    <g id="样式整理概览" stroke="none" stroke-width="1" fill="none" fill-rule="evenodd">
        <g id="组件2-图标-弹出消息框" transform="translate(-965.000000, -896.000000)" fill-rule="nonzero" fill="#A8C6DF">
            <g id="图标2" transform="translate(100.000000, 226.000000)">
                <g id="普通图标-14px" transform="translate(30.000000, 633.000000)">
                    <g id="弹出图标/icon_popup_transfer-14px" transform="translate(835.000000, 37.000000)">
                        <g id="icon_popup_transfer-14px">
                            <path d="M13.2938537,13.8899729 L11.1959024,13.8899729 C11.3270244,13.7151436 11.3707317,13.5403144 11.3707317,13.3217778 L11.3707317,10.3933875 C11.3707317,10.0874363 11.3270244,9.78148509 11.2396098,9.51924119 L11.8515122,9.51924119 C13.0316098,9.51924119 13.9931707,10.5245095 13.9931707,11.7483144 L13.9931707,13.1469485 C13.9931707,13.5403144 13.6872195,13.8899729 13.2938537,13.8899729 L13.2938537,13.8899729 Z M2.19219512,3.83728997 L2.19219512,3.83728997 C2.19219512,2.14756805 3.56198539,0.777777778 5.25170732,0.777777778 C6.94142924,0.777777778 8.31121951,2.14756805 8.31121951,3.83728997 C8.31121954,4.93034842 7.72807981,5.94037608 6.78146343,6.48690531 C5.83484706,7.03343454 4.66856758,7.03343454 3.7219512,6.48690531 C2.77533482,5.94037608 2.1921951,4.93034842 2.19219512,3.83728997 Z M9.97209756,7.81465583 C9.49131707,7.46499729 9.18536585,6.89680217 9.18536585,6.24119241 C9.18536585,5.14850949 10.0595122,4.27436314 11.1521951,4.27436314 C12.244878,4.27436314 13.1190244,5.14850949 13.1190244,6.24119241 C13.1190244,7.33387534 12.244878,8.20802168 11.1521951,8.20802168 C10.7588293,8.20802168 10.4091707,8.07689973 10.1032195,7.90207046 C10.0595122,7.85836314 10.0158049,7.85836314 9.97209756,7.81465583 L9.97209756,7.81465583 Z M2.62926829,8.20802168 L7.87414634,8.20802168 C9.3164878,8.20802168 10.4965854,9.38811924 10.4965854,10.8304607 L10.4965854,13.0158266 C10.4965854,13.496607 10.1032195,13.8899729 9.62243902,13.8899729 L0.88097561,13.8899729 C0.400195122,13.8899729 0.00682926829,13.496607 0.00682926829,13.0158266 L0.00682926829,10.8304607 C0.00682926829,9.38811924 1.18692683,8.20802168 2.62926829,8.20802168 Z" id="Combined-Shape"></path>
                        </g>
                    </g>
                </g>
            </g>
        </g>
    </g>
</svg>