<?xml version="1.0" encoding="UTF-8"?>
<svg width="18px" height="18px" viewBox="0 0 18 18" version="1.1" xmlns="http://www.w3.org/2000/svg" xmlns:xlink="http://www.w3.org/1999/xlink">
    <!-- Generator: Sketch 46.2 (44496) - http://www.bohemiancoding.com/sketch -->
    <title>icon_popup_table_analysis</title>
    <desc>Created with Sketch.</desc>
    <defs></defs>
    <g id="样式整理概览" stroke="none" stroke-width="1" fill="none" fill-rule="evenodd">
        <g id="组件2-图标-弹出消息框" transform="translate(-997.000000, -658.000000)" fill-rule="nonzero" fill="#A8C6DF">
            <g id="图标2" transform="translate(100.000000, 226.000000)">
                <g id="普通图标-18px" transform="translate(30.000000, 275.000000)">
                    <g id="18" transform="translate(78.000000, 125.000000)">
                        <g id="弹出图标/icon_popup_table_analysis" transform="translate(789.000000, 32.000000)">
                            <g id="icon_popup_table_analysis">
                                <path d="M16.875,8.625 C16.2,8.625 15.75,8.175 15.75,7.5 L15.75,6.825 L10.9125,11.6625 L10.9125,11.6625 C10.6875,11.8875 10.4625,12 10.125,12 C9.7875,12 9.5625,11.8875 9.3375,11.6625 L9.3375,11.6625 L7.875,10.2 L5.2875,12.7875 L5.2875,12.7875 C5.0625,13.0125 4.8375,13.125 4.5,13.125 C3.825,13.125 3.375,12.675 3.375,12 C3.375,11.6625 3.4875,11.4375 3.7125,11.2125 L3.7125,11.2125 L7.0875,7.8375 L7.0875,7.8375 C7.3125,7.6125 7.5375,7.5 7.875,7.5 C8.2125,7.5 8.4375,7.6125 8.6625,7.8375 L8.6625,7.8375 L10.125,9.3 L14.175,5.25 L13.5,5.25 C12.825,5.25 12.375,4.8 12.375,4.125 C12.375,3.45 12.825,3 13.5,3 L16.875,3 C17.55,3 18,3.45 18,4.125 L18,7.5 C18,8.175 17.55,8.625 16.875,8.625 Z M16.875,15.25 C17.55,15.25 18,15.7 18,16.375 C18,17.05 17.55,17.5 16.875,17.5 L1.125,17.5 C0.45,17.5 0,17.05 0,16.375 L0,1.125 C0,0.45 0.45,0 1.125,0 C1.8,0 2.25,0.45 2.25,1.125 L2.25,15.25 L16.875,15.25 Z" id="Shape"></path>
                            </g>
                        </g>
                    </g>
                </g>
            </g>
        </g>
    </g>
</svg>