<?xml version="1.0" encoding="UTF-8"?>
<svg width="16px" height="15px" viewBox="0 0 16 15" version="1.1" xmlns="http://www.w3.org/2000/svg" xmlns:xlink="http://www.w3.org/1999/xlink">
    <!-- Generator: Sketch 46.2 (44496) - http://www.bohemiancoding.com/sketch -->
    <title>icon_dashboard_tire_pressure</title>
    <desc>Created with Sketch.</desc>
    <defs></defs>
    <g id="样式整理概览" stroke="none" stroke-width="1" fill="none" fill-rule="evenodd">
        <g id="组件2-图标-弹出消息框" transform="translate(-336.000000, -793.000000)" fill-rule="nonzero" fill="#A8C6DF">
            <g id="图标2" transform="translate(100.000000, 226.000000)">
                <g id="汽车功能图标-18px" transform="translate(30.000000, 532.000000)">
                    <g id="汽车仪表图标/胎压-蓝灰" transform="translate(205.000000, 33.000000)">
                        <g id="icon_dashboard_tire_pressure">
                            <path d="M16.9997687,8.76514699 L16.9997687,8.76514699 C16.9997687,11.0638265 16.024212,13.1296193 14.4715373,14.5885494 C14.4728482,14.6120482 14.4736386,14.6356819 14.4736386,14.6595084 C14.4736386,15.0357205 14.3089735,15.3733012 14.0480193,15.6046843 C13.9955084,16.2539566 13.4523373,16.7646458 12.7895325,16.7646458 C12.2396145,16.7646458 11.7720289,16.4131084 11.598612,15.9226024 L10.1912096,15.9226024 C10.0177735,16.4131084 9.55016867,16.7646458 9.00028916,16.7646458 C8.45037108,16.7646458 7.98276627,16.4131084 7.80933012,15.9226024 L6.40192771,15.9226024 C6.22851084,16.4131084 5.7609253,16.7646458 5.21104578,16.7646458 C4.54818313,16.7646458 4.00501205,16.2539566 3.9525012,15.6046651 C3.69156627,15.3732627 3.52693976,15.0357012 3.52693976,14.6595084 C3.52698995,14.6358535 3.52769062,14.6122044 3.52904096,14.588588 C1.97636627,13.1296578 1.00075181,11.0638458 1.00075181,8.76514699 C1.00075181,7.17929639 1.46783614,5.70511807 2.26382651,4.46184096 L2.26382651,4.13386024 C2.26382651,3.43626024 2.82933976,2.87078554 3.52693976,2.87078554 C4.2245012,2.87078554 4.79001446,3.43626024 4.79001446,4.13386024 L4.79001446,4.97590361 C4.79001446,5.38935904 4.59130602,5.7563759 4.28424096,5.98679518 C3.80331566,6.80121446 3.52693976,7.75080482 3.52693976,8.76514699 C3.52693976,10.7153157 4.54706506,12.4270072 6.08260241,13.3964337 L11.9179373,13.3964337 C13.4534747,12.4270072 14.4736193,10.7153157 14.4736193,8.76514699 C14.4736193,7.75078554 14.1972241,6.80123373 13.7162602,5.9867759 C13.4091952,5.75635663 13.210506,5.38933976 13.210506,4.97590361 L13.210506,4.13386024 C13.210506,3.43626024 13.7760193,2.87078554 14.4736193,2.87078554 C15.1711807,2.87078554 15.736694,3.43626024 15.736694,4.13386024 L15.736694,4.46178313 C16.5327036,5.70506024 16.9997687,7.17931566 16.9997687,8.76514699 Z M8.98099277,2.01908434 C9.67855422,2.01908434 10.2440675,2.58455904 10.2440675,3.28215904 L10.2440675,7.49243373 C10.2440675,8.19003373 9.67855422,8.75550843 8.98099277,8.75550843 C8.28339277,8.75550843 7.71787952,8.19003373 7.71787952,7.49243373 L7.71787952,3.28215904 C7.71787952,2.58455904 8.28339277,2.01908434 8.98099277,2.01908434 Z M8.98099277,9.59755181 C9.67855422,9.59755181 10.2440675,10.1630265 10.2440675,10.8606265 C10.2440675,11.558188 9.67855422,12.1237012 8.98099277,12.1237012 C8.28339277,12.1237012 7.71787952,11.558188 7.71787952,10.8606265 C7.71787952,10.1630458 8.28339277,9.59755181 8.98099277,9.59755181 Z" id="Combined-Shape"></path>
                        </g>
                    </g>
                </g>
            </g>
        </g>
    </g>
</svg>