<?xml version="1.0" encoding="UTF-8"?>
<svg width="18px" height="17px" viewBox="0 0 18 17" version="1.1" xmlns="http://www.w3.org/2000/svg" xmlns:xlink="http://www.w3.org/1999/xlink">
    <!-- Generator: Sketch 46.2 (44496) - http://www.bohemiancoding.com/sketch -->
    <title>icon_dashboard_wind_direction3</title>
    <desc>Created with Sketch.</desc>
    <defs></defs>
    <g id="样式整理概览" stroke="none" stroke-width="1" fill="none" fill-rule="evenodd">
        <g id="组件2-图标-弹出消息框" transform="translate(-584.000000, -792.000000)" fill-rule="nonzero" fill="#A8C6DF">
            <g id="图标2" transform="translate(100.000000, 226.000000)">
                <g id="汽车功能图标-18px" transform="translate(30.000000, 532.000000)">
                    <g id="汽车仪表图标/风向模式3-蓝灰" transform="translate(454.000000, 33.000000)">
                        <g id="icon_dashboard_wind_direction3">
                            <path d="M15.6251901,1.87420217 C14.3189879,1.87420217 13.260172,2.93306137 13.260172,4.23922022 C13.260172,5.5453574 14.3189879,6.60423827 15.6251901,6.60423827 C16.9313272,6.60423827 17.9902081,5.54537906 17.9902081,4.23922022 C17.9901864,2.93306137 16.9313272,1.87420217 15.6251901,1.87420217 Z M15.6229157,7.32952347 C14.7180204,6.80485921 13.5608651,7.11625271 13.0384319,8.02498195 L11.1464175,11.3157112 C11.1428868,11.3218412 11.139811,11.3281011 11.136367,11.3342527 L9.0030962,11.3342527 C9.00090847,11.3342527 8.99876407,11.3344043 8.99657634,11.334426 C8.76244638,11.333083 8.53568103,11.3924765 8.33462688,11.5014729 C8.32087237,11.5088375 8.30737778,11.5165921 8.29390486,11.5243899 C8.2905258,11.5263827 8.28708176,11.5282455 8.28370269,11.5302599 C7.9373489,11.7344549 7.68550053,12.0813935 7.60884349,12.4903249 L6.65778934,16.148917 C6.45651858,16.9231769 6.90233807,17.7190542 7.65335612,17.9264982 C8.4045258,18.1339639 9.17655468,17.6744765 9.37782544,16.9002166 L10.0869085,14.1722744 L12.7870818,14.1722744 C12.884501,14.172294 12.9816658,14.1623286 13.0770529,14.1425343 C13.6224464,14.0565848 14.1258832,13.7331913 14.4233922,13.2156751 L16.31545,9.92490253 C16.8379049,9.01615162 16.5278543,7.85418773 15.6229157,7.32952347 L15.6229157,7.32952347 Z M7.02896623,8.27182379 C6.84689857,8.26704303 6.65607392,8.26463538 6.45489403,8.26463538 C6.32525636,8.26463538 6.19991877,8.26563451 6.0784536,8.26762365 L6.0784536,8.28259206 C6.0784536,8.80760289 5.65282183,9.23316968 5.12787598,9.23316968 C4.6471718,9.23316968 4.24979905,8.87638261 4.18615255,8.41318669 C3.90470335,8.45617502 3.6355136,8.50828123 3.36554385,8.56922744 L3.36554385,8.55777943 C2.89772876,8.59745889 2.45342426,8.31404513 2.32771713,7.86906859 L0.0337893367,3.07738628 C-0.106939905,2.57919134 0.204756846,2.06713357 0.730135907,1.93361733 C0.742882819,1.93037817 0.755638338,1.92739169 0.768396556,1.92465464 C2.7226197,1.32201828 4.01984051,1 6.45489403,1 C8.93042853,1 10.2300188,1.33278997 12.2393959,1.95494054 C12.2835147,1.96023299 12.327776,1.96842333 12.3719337,1.97964621 L12.3719337,1.97964621 C12.8973128,2.11316245 13.2090529,2.62522022 13.0683453,3.12341516 L10.7744175,7.91509747 C10.6336449,8.4132491 10.0936666,8.70891697 9.56833085,8.5754657 C9.56178424,8.57380212 9.55527078,8.57207974 9.54879095,8.57029933 C9.3395222,8.52298519 9.13076514,8.48097706 8.91644781,8.44440618 C8.83963133,8.89233196 8.44939276,9.23316968 7.97954385,9.23316968 C7.45457634,9.23316968 7.02896623,8.80758123 7.02896623,8.28259206 L7.02896623,8.27182379 Z M7.02896623,6.37015204 L7.02896623,5.43088087 C7.02896623,4.90587004 7.454598,4.48030325 7.97954385,4.48030325 C8.50455468,4.48030325 8.93016479,4.90587004 8.93016479,5.43085921 L8.93016479,6.52941977 C9.04672972,6.54757748 9.16164692,6.56719025 9.27578784,6.58824061 L10.7644869,3.47850425 C9.45898625,3.10157828 8.29601387,2.90115523 6.45489403,2.90115523 C4.7029307,2.90115523 3.56503726,3.08262616 2.33407903,3.42497555 L3.83171419,6.55337842 C3.9453759,6.53426427 4.06027804,6.51655663 4.17725504,6.50027219 L4.17725504,5.43088087 C4.17725504,4.90587004 4.60286515,4.48030325 5.12787598,4.48030325 C5.65284349,4.48030325 6.0784536,4.90587004 6.0784536,5.43085921 L6.0784536,6.36627214 C6.20010643,6.3644279 6.32545372,6.36350181 6.45489403,6.36350181 C6.65559632,6.36350181 6.84645851,6.36572848 7.02896623,6.37015204 Z M4.17567381,12.4048087 L4.17567381,12.4048087 C4.95937778,12.4048087 5.59466298,13.0400939 5.59468464,13.8237978 C5.59468464,14.6075235 4.95939945,15.2428087 4.17567381,15.2428087 C3.8645619,15.2428087 3.57701677,15.1424116 3.34314674,14.9726354 C3.28581297,14.9364879 3.23267764,14.8940756 3.18472074,14.8461805 L0.283666593,11.9451264 C-0.0723695081,11.5891119 -0.0723695081,11.0118123 0.283666593,10.6557762 C0.639681033,10.2997401 1.21698067,10.2997401 1.57301677,10.6557762 L3.49548609,12.5782455 C3.69744999,12.4677329 3.92919728,12.4048087 4.17567381,12.4048087 Z" id="Combined-Shape"></path>
                        </g>
                    </g>
                </g>
            </g>
        </g>
    </g>
</svg>