<?xml version="1.0" encoding="UTF-8"?>
<svg width="14px" height="14px" viewBox="0 0 14 14" version="1.1" xmlns="http://www.w3.org/2000/svg" xmlns:xlink="http://www.w3.org/1999/xlink">
    <!-- Generator: Sketch 46.2 (44496) - http://www.bohemiancoding.com/sketch -->
    <title>icon_document_word</title>
    <desc>Created with Sketch.</desc>
    <defs></defs>
    <g id="样式整理概览" stroke="none" stroke-width="1" fill="none" fill-rule="evenodd">
        <g id="组件2-图标-弹出消息框" transform="translate(-487.000000, -960.000000)" fill-rule="nonzero" fill="#A8C6DF">
            <g id="图标2" transform="translate(100.000000, 226.000000)">
                <g id="文档图标-18px" transform="translate(30.000000, 734.000000)">
                    <g id="文件类型/文档/灰" transform="translate(357.000000, 0.000000)">
                        <g id="icon_document_word">
                            <g id="Group">
                                <path d="M0,11.9932581 L8.11367742,13.4325484 L8.11367742,0 L0,1.43906452 L0,11.9932581 Z M2.39535484,4.30432258 L2.80451613,6.972 L3.40335484,4.30432258 L4.53554839,4.30432258 L5.13574194,6.9683871 L5.54535484,4.30432258 L6.67574194,4.30432258 L5.82219355,9.06929032 L4.64890323,9.06929032 L3.96990323,6.06922581 L3.2933871,9.06929032 L2.12032258,9.06929032 L1.25887097,4.30432258 L2.39535484,4.30432258 Z M8.43183871,1.27919355 L8.43183871,2.71848387 L12.8863226,2.71848387 L12.8863226,3.35819355 L8.43183871,3.35819355 L8.43183871,4.15777419 L12.8863226,4.15777419 L12.8863226,4.79748387 L8.43183871,4.79748387 L8.43183871,5.59706452 L12.8863226,5.59706452 L12.8863226,6.23677419 L8.43183871,6.23677419 L8.43183871,7.03635484 L12.8863226,7.03635484 L12.8863226,7.67606452 L8.43183871,7.67606452 L8.43183871,8.47564516 L12.8863226,8.47564516 L12.8863226,9.11535484 L8.43183871,9.11535484 L8.43183871,9.91493548 L12.8863226,9.91493548 L12.8863226,10.5546452 L8.43183871,10.5546452 L8.43183871,12.1538065 L14,12.1538065 L14,1.27919355 L8.43183871,1.27919355 Z" id="Shape"></path>
                            </g>
                        </g>
                    </g>
                </g>
            </g>
        </g>
    </g>
</svg>