<?xml version="1.0" encoding="UTF-8"?>
<svg width="18px" height="13px" viewBox="0 0 18 13" version="1.1" xmlns="http://www.w3.org/2000/svg" xmlns:xlink="http://www.w3.org/1999/xlink">
    <!-- Generator: Sketch 46.2 (44496) - http://www.bohemiancoding.com/sketch -->
    <title>icon_dashboard_engine_oil_blue</title>
    <desc>Created with Sketch.</desc>
    <defs></defs>
    <g id="正式页面" stroke="none" stroke-width="1" fill="none" fill-rule="evenodd">
        <g id="1.8-车辆监控-结果详情-仪表盘" transform="translate(-964.000000, -538.000000)" fill-rule="nonzero" fill="#0093EE">
            <g id="弹出" transform="translate(298.000000, 89.000000)">
                <g id="Dashboard/仪表盘">
                    <g id="表" transform="translate(35.000000, 90.000000)">
                        <g id="1234" transform="translate(0.000000, 318.000000)">
                            <g id="发动机水温-copy" transform="translate(585.000000, 0.000000)">
                                <g id="中" transform="translate(31.000000, 23.000000)">
                                    <g id="汽车仪表图标/水温-蓝" transform="translate(15.000000, 15.000000)">
                                        <g id="icon_dashboard_engine_oil_blue">
                                            <path d="M17.1557965,9.77187792 L17.1557965,9.77187792 C17.7475389,9.91127786 18.1116484,10.4952563 17.9690915,11.0763349 C17.9683431,11.0793049 17.9674311,11.0821813 17.9666828,11.0851278 C17.8977428,11.4570481 17.6423283,11.7845362 17.264094,11.9266956 L8.37982058,15.2656528 C8.22535549,15.3417743 8.05564333,15.3818876 7.8834436,15.382977 C7.87446363,15.3831173 7.86550705,15.3830238 7.85652708,15.3829303 C7.8518734,15.3828367 7.84719634,15.3828133 7.84251927,15.382673 C7.64740116,15.3780974 7.45695233,15.3220712 7.29043844,15.2202619 L0.687918321,11.4911205 C0.631561891,11.4643148 0.577350717,11.4332142 0.525764453,11.3980937 C0.261697323,11.2332037 0.0914989018,10.9753571 0.0338306816,10.6940082 C-0.0110223785,10.512538 -0.0127528928,10.318814 0.0375255635,10.1272648 L1.40311182,5.71812476 C1.56168774,5.11408173 2.17742344,4.75418152 2.79531059,4.89339438 C2.91800664,4.91682463 3.03576026,4.96117802 3.14342459,5.02451592 L4.08552593,5.57771925 L5.28117101,3.57411107 C5.48462337,3.23317637 5.8428866,3.03274072 6.22044273,3.00778857 C6.45078821,2.98035758 6.69154017,3.02478971 6.90785446,3.15053262 L8.52705461,4.09188563 L8.70438555,3.77216142 C8.91125217,3.39914204 9.36948768,3.27129445 9.72789123,3.48669671 C10.0862246,3.70205221 10.209021,4.17904275 10.0021076,4.5521089 L9.83546374,4.85254021 L11.4128275,5.76957249 C11.7865485,5.98684557 11.9877325,6.38909661 11.9688371,6.79515945 L11.9688371,8.5501582 L17.1557965,9.77187792 Z M7.91683785,13.0578907 L7.91683785,13.0578907 L13.2106448,11.0682904 L10.6808901,10.4724556 C10.5797606,10.4574756 10.4811768,10.4286354 10.3879187,10.3867484 C9.97923674,10.2137203 9.71790569,9.81369089 9.72440681,9.3799632 C9.72431327,9.37404671 9.72396249,9.36822377 9.72396249,9.36228389 L9.72396249,7.37988621 L6.75554582,5.65418927 L5.55407779,7.66754913 C5.35866999,7.99503727 5.02030767,8.19271346 4.65928497,8.22991951 C4.42302299,8.26441287 4.17413294,8.22189835 3.95138769,8.0911042 L3.28640249,7.70061599 L2.56358537,10.0344016 L7.91683785,13.0578907 Z M7.1073547,7.11761975 C7.52059684,7.57681406 8.22978031,9.15270458 8.22978031,9.61189889 C8.22978031,10.0710932 7.96491808,10.8590618 7.1073547,10.8590618 C6.22642937,10.8590618 5.98492909,10.0710698 5.98492909,9.61189889 C5.98492909,9.15270458 6.66621386,7.59479738 7.1073547,7.11761975 L7.1073547,7.11761975 Z" id="Shape"></path>
                                        </g>
                                    </g>
                                </g>
                            </g>
                        </g>
                    </g>
                </g>
            </g>
        </g>
    </g>
</svg>