<?xml version="1.0" encoding="UTF-8"?>
<svg width="14px" height="11px" viewBox="0 0 14 11" version="1.1" xmlns="http://www.w3.org/2000/svg" xmlns:xlink="http://www.w3.org/1999/xlink">
    <!-- Generator: Sketch 46.2 (44496) - http://www.bohemiancoding.com/sketch -->
    <title>icon_popup_preview 14px</title>
    <desc>Created with Sketch.</desc>
    <defs></defs>
    <g id="样式整理概览" stroke="none" stroke-width="1" fill="none" fill-rule="evenodd">
        <g id="组件2-图标-弹出消息框" transform="translate(-646.000000, -898.000000)" fill-rule="nonzero" fill="#A8C6DF">
            <g id="图标2" transform="translate(100.000000, 226.000000)">
                <g id="普通图标-14px" transform="translate(30.000000, 633.000000)">
                    <g id="弹出图标/icon_popup_preview-14px" transform="translate(516.000000, 37.000000)">
                        <g id="icon_popup_preview-14px">
                            <path d="M7.00085098,2.34306471 C2.00897255,2.34306471 0.0122294118,7.33495686 0.0122294118,7.33495686 C0.0122294118,7.33495686 2.00897255,12.326849 7.00085098,12.326849 C11.9927431,12.326849 13.9895,7.33495686 13.9895,7.33495686 C13.9895,7.33495686 11.9927431,2.34306471 7.00085098,2.34306471 Z M7.00085098,10.3300647 C5.3473,10.3300647 4.00574314,8.9895098 4.00574314,7.33495686 C4.00574314,5.68040392 5.34731373,4.33982157 7.00085098,4.33982157 C8.65442941,4.33982157 9.996,5.6803902 9.996,7.33495686 C9.996,8.98952353 8.65442941,10.3300647 7.00085098,10.3300647 Z M8.49842549,7.33495686 C8.49842549,8.16175294 7.82761961,8.83250392 7.00085098,8.83250392 C6.17409608,8.83250392 5.50330392,8.16175294 5.50330392,7.33495686 C5.50330392,6.50818824 6.1741098,5.83739608 7.00085098,5.83739608 C7.82764706,5.83738235 8.49842549,6.50817451 8.49842549,7.33495686 Z" id="Shape"></path>
                        </g>
                    </g>
                </g>
            </g>
        </g>
    </g>
</svg>