<?xml version="1.0" encoding="UTF-8"?>
<svg width="18px" height="18px" viewBox="0 0 18 18" version="1.1" xmlns="http://www.w3.org/2000/svg" xmlns:xlink="http://www.w3.org/1999/xlink">
    <!-- Generator: Sketch 46.2 (44496) - http://www.bohemiancoding.com/sketch -->
    <title>icon_menu_left_tire_management_a</title>
    <desc>Created with Sketch.</desc>
    <defs></defs>
    <g id="样式整理概览" stroke="none" stroke-width="1" fill="none" fill-rule="evenodd">
        <g id="组件2-图标-弹出消息框" transform="translate(-666.000000, -433.000000)" fill-rule="nonzero" fill="#8DABC4">
            <g id="图标2" transform="translate(100.000000, 226.000000)">
                <g id="菜单图标" transform="translate(30.000000, 207.000000)">
                    <g id="icon/menu/left/轮胎管理-小灰" transform="translate(536.000000, 0.000000)">
                        <g id="icon_menu_left_tire_management_a">
                            <path d="M9,0 C4.02943987,0 0,4.02943987 0,9 C0,13.9705601 4.02943987,18 9,18 C13.9705601,18 18,13.9705601 18,9 C18,4.02943987 13.9705601,0 9,0 Z M9,15.3046128 C5.51806902,15.3046128 2.69538719,12.481931 2.69538719,8.99999998 C2.69538719,5.51806898 5.51804844,2.69540776 9,2.69540776 C12.4819516,2.69540776 15.3046128,5.51808957 15.3046128,9.00002057 C15.3046128,12.4819516 12.481931,15.3046128 9,15.3046128 Z M13.801458,8.47812698 C14.2239355,8.47812698 14.618699,8.59659514 14.9545371,8.8019907 C14.9190666,7.65333512 14.5596913,6.5865662 13.9629887,5.69052474 C13.6453591,6.5237933 12.8392695,7.11601065 11.8944664,7.11601065 C10.6720099,7.11601065 9.68101702,6.12501773 9.68101702,4.90256132 C9.68101702,4.22448646 9.98621963,3.6179904 10.4663881,3.21197257 C9.99720642,3.09323694 9.50603062,3.02962049 8.99993827,3.02962049 C8.49384592,3.02962049 8.0026907,3.09323694 7.53350905,3.21197257 C8.01367749,3.61801097 8.3188801,4.22448646 8.3188801,4.90256132 C8.3188801,6.1250383 7.32788718,7.11601065 6.10543077,7.11601065 C5.16062767,7.11601065 4.35453807,6.52381389 4.03690842,5.69052474 C3.42847835,6.60421915 3.0667575,7.69543063 3.04367287,8.8699278 C3.40074388,8.62307456 3.83367319,8.47812698 4.30063278,8.47812698 C5.5230892,8.47812698 6.51408212,9.46914049 6.51408212,10.6915763 C6.51408212,11.8461368 5.62995331,12.7937586 4.50187227,12.8954997 C5.12320257,13.6103001 5.91161864,14.1751327 6.80685771,14.5297965 C6.79383402,14.4327053 6.78648892,14.3337829 6.78648892,14.2330911 C6.78648892,13.0106142 7.77748184,12.0196212 8.99993825,12.0196212 C10.2224152,12.0196212 11.2134082,13.0106141 11.2134082,14.2330911 C11.2134082,14.3337623 11.2060425,14.4326847 11.1930394,14.5297965 C12.0926814,14.1734044 12.8844305,13.6047449 13.5071599,12.8849449 C12.4239108,12.7409438 11.5879881,11.8141845 11.5879881,10.6915557 C11.5879881,9.46914047 12.5790016,8.47812698 13.801458,8.47812698 Z M8.99993827,10.3510472 C8.34169726,10.3510472 7.80807618,9.81744673 7.80807618,9.15920572 C7.80807618,8.50094413 8.34169726,7.96734363 8.99993827,7.96734363 C9.65817928,7.96734363 10.1918004,8.50094413 10.1918004,9.15920572 C10.1918209,9.81744673 9.65819985,10.3510472 8.99993827,10.3510472 Z" id="Shape"></path>
                        </g>
                    </g>
                </g>
            </g>
        </g>
    </g>
</svg>